<?xml version="1.0" encoding="UTF-8" standalone="no"?>
<!DOCTYPE svg PUBLIC "-//W3C//DTD SVG 1.1//EN"
 "http://www.w3.org/Graphics/SVG/1.1/DTD/svg11.dtd">
<!-- Generated by graphviz version 2.43.0 (0)
 -->
<!-- Title: TimingSerialDelayTb Pages: 1 -->
<svg width="186pt" height="82pt"
 viewBox="0.00 0.00 185.50 82.00" xmlns="http://www.w3.org/2000/svg" xmlns:xlink="http://www.w3.org/1999/xlink">
<g id="graph0" class="graph" transform="scale(1 1) rotate(0) translate(4 78)">
<title>TimingSerialDelayTb</title>
<!-- Node1 -->
<g id="Node000001" class="node">
<title>Node1</title>
<g id="a_Node000001"><a xlink:title=" ">
<polygon fill="#999999" stroke="#666666" points="134.5,-19 15.5,-19 15.5,0 134.5,0 134.5,-19"/>
<text text-anchor="middle" x="75" y="-7" font-family="Helvetica,sans-Serif" font-size="10.00">TimingSerialDelayTb</text>
</a>
</g>
</g>
<!-- Node2 -->
<g id="Node000002" class="node">
<title>Node2</title>
<g id="a_Node000002"><a xlink:href="classDivider.html" target="_top" xlink:title=" ">
<polygon fill="white" stroke="#bfbfbf" points="52,-74 0,-74 0,-55 52,-55 52,-74"/>
<text text-anchor="middle" x="26" y="-62" font-family="Helvetica,sans-Serif" font-size="10.00">Divider</text>
</a>
</g>
</g>
<!-- Node2&#45;&gt;Node1 -->
<g id="edge1_Node000001_Node000002" class="edge">
<title>Node2&#45;&gt;Node1</title>
<g id="a_edge1_Node000001_Node000002"><a xlink:title=" ">
<path fill="none" stroke="#63b8ff" d="M41.03,-47.24C49.62,-37.95 60.04,-26.68 67.06,-19.09"/>
<polygon fill="#63b8ff" stroke="#63b8ff" points="38.31,-45.03 34.09,-54.75 43.45,-49.78 38.31,-45.03"/>
</a>
</g>
</g>
<!-- Node3 -->
<g id="Node000003" class="node">
<title>Node3</title>
<g id="a_Node000003"><a xlink:href="classTimingSerialDelay.html" target="_top" xlink:title=" ">
<polygon fill="white" stroke="#bfbfbf" points="177.5,-74 70.5,-74 70.5,-55 177.5,-55 177.5,-74"/>
<text text-anchor="middle" x="124" y="-62" font-family="Helvetica,sans-Serif" font-size="10.00">TimingSerialDelay</text>
</a>
</g>
</g>
<!-- Node3&#45;&gt;Node1 -->
<g id="edge2_Node000001_Node000003" class="edge">
<title>Node3&#45;&gt;Node1</title>
<g id="a_edge2_Node000001_Node000003"><a xlink:title=" ">
<path fill="none" stroke="#63b8ff" d="M108.97,-47.24C100.38,-37.95 89.96,-26.68 82.94,-19.09"/>
<polygon fill="#63b8ff" stroke="#63b8ff" points="106.55,-49.78 115.91,-54.75 111.69,-45.03 106.55,-49.78"/>
</a>
</g>
</g>
</g>
</svg>
