<?xml version="1.0" encoding="UTF-8" standalone="no"?>
<!DOCTYPE svg PUBLIC "-//W3C//DTD SVG 1.1//EN"
 "http://www.w3.org/Graphics/SVG/1.1/DTD/svg11.dtd">
<!-- Generated by graphviz version 2.43.0 (0)
 -->
<!-- Title: TPGMiniCore Pages: 1 -->
<svg width="655pt" height="196pt"
 viewBox="0.00 0.00 655.00 196.00" xmlns="http://www.w3.org/2000/svg" xmlns:xlink="http://www.w3.org/1999/xlink">
<g id="graph0" class="graph" transform="scale(1 1) rotate(0) translate(4 192)">
<title>TPGMiniCore</title>
<polygon fill="white" stroke="transparent" points="-4,4 -4,-192 651,-192 651,4 -4,4"/>
<!-- Node1 -->
<g id="node1" class="node">
<title>Node1</title>
<g id="a_node1"><a xlink:title=" ">
<polygon fill="#bfbfbf" stroke="black" points="238,-0.5 238,-19.5 318,-19.5 318,-0.5 238,-0.5"/>
<text text-anchor="middle" x="278" y="-7.5" font-family="Helvetica,sans-Serif" font-size="10.00">TPGMiniCore</text>
</a>
</g>
</g>
<!-- Node2 -->
<g id="node2" class="node">
<title>Node2</title>
<g id="a_node2"><a xlink:href="classTPGMiniReg.html" target="_top" xlink:title=" ">
<polygon fill="white" stroke="black" points="155,-56.5 155,-75.5 231,-75.5 231,-56.5 155,-56.5"/>
<text text-anchor="middle" x="193" y="-63.5" font-family="Helvetica,sans-Serif" font-size="10.00">TPGMiniReg</text>
</a>
</g>
</g>
<!-- Node2&#45;&gt;Node1 -->
<g id="edge1" class="edge">
<title>Node2&#45;&gt;Node1</title>
<path fill="none" stroke="midnightblue" d="M215.19,-50.9C230.78,-41 251.13,-28.07 264.38,-19.65"/>
<polygon fill="midnightblue" stroke="midnightblue" points="213.22,-48.01 206.66,-56.32 216.97,-53.92 213.22,-48.01"/>
</g>
<!-- Node3 -->
<g id="node3" class="node">
<title>Node3</title>
<g id="a_node3"><a xlink:href="classTPGMini.html" target="_top" xlink:title=" ">
<polygon fill="white" stroke="black" points="249.5,-56.5 249.5,-75.5 306.5,-75.5 306.5,-56.5 249.5,-56.5"/>
<text text-anchor="middle" x="278" y="-63.5" font-family="Helvetica,sans-Serif" font-size="10.00">TPGMini</text>
</a>
</g>
</g>
<!-- Node3&#45;&gt;Node1 -->
<g id="edge2" class="edge">
<title>Node3&#45;&gt;Node1</title>
<path fill="none" stroke="midnightblue" d="M278,-45.8C278,-36.91 278,-26.78 278,-19.75"/>
<polygon fill="midnightblue" stroke="midnightblue" points="274.5,-46.08 278,-56.08 281.5,-46.08 274.5,-46.08"/>
</g>
<!-- Node4 -->
<g id="node4" class="node">
<title>Node4</title>
<g id="a_node4"><a xlink:href="classDivider.html" target="_top" xlink:title=" ">
<polygon fill="white" stroke="black" points="382,-112.5 382,-131.5 434,-131.5 434,-112.5 382,-112.5"/>
<text text-anchor="middle" x="408" y="-119.5" font-family="Helvetica,sans-Serif" font-size="10.00">Divider</text>
</a>
</g>
</g>
<!-- Node4&#45;&gt;Node3 -->
<g id="edge3" class="edge">
<title>Node4&#45;&gt;Node3</title>
<path fill="none" stroke="midnightblue" d="M377.91,-108.5C353.54,-98.38 319.86,-84.39 298.5,-75.52"/>
<polygon fill="midnightblue" stroke="midnightblue" points="376.82,-111.84 387.4,-112.44 379.51,-105.38 376.82,-111.84"/>
</g>
<!-- Node10 -->
<g id="node10" class="node">
<title>Node10</title>
<g id="a_node10"><a xlink:href="classTPGMiniStream.html" target="_top" xlink:title=" ">
<polygon fill="white" stroke="black" points="362,-56.5 362,-75.5 454,-75.5 454,-56.5 362,-56.5"/>
<text text-anchor="middle" x="408" y="-63.5" font-family="Helvetica,sans-Serif" font-size="10.00">TPGMiniStream</text>
</a>
</g>
</g>
<!-- Node4&#45;&gt;Node10 -->
<g id="edge10" class="edge">
<title>Node4&#45;&gt;Node10</title>
<path fill="none" stroke="midnightblue" d="M408,-101.8C408,-92.91 408,-82.78 408,-75.75"/>
<polygon fill="midnightblue" stroke="midnightblue" points="404.5,-102.08 408,-112.08 411.5,-102.08 404.5,-102.08"/>
</g>
<!-- Node5 -->
<g id="node5" class="node">
<title>Node5</title>
<g id="a_node5"><a xlink:href="classBsaControl.html" target="_top" xlink:title=" ">
<polygon fill="white" stroke="black" points="2,-112.5 2,-131.5 72,-131.5 72,-112.5 2,-112.5"/>
<text text-anchor="middle" x="37" y="-119.5" font-family="Helvetica,sans-Serif" font-size="10.00">BsaControl</text>
</a>
</g>
</g>
<!-- Node5&#45;&gt;Node3 -->
<g id="edge4" class="edge">
<title>Node5&#45;&gt;Node3</title>
<path fill="none" stroke="midnightblue" d="M82.23,-111.17C123.4,-102.17 185.83,-88.42 240,-76 243.04,-75.3 246.21,-74.57 249.38,-73.83"/>
<polygon fill="midnightblue" stroke="midnightblue" points="81.26,-107.8 72.24,-113.35 82.76,-114.64 81.26,-107.8"/>
</g>
<!-- Node6 -->
<g id="node6" class="node">
<title>Node6</title>
<g id="a_node6"><a xlink:href="classEventSelect.html" target="_top" xlink:title=" ">
<polygon fill="white" stroke="black" points="0,-168.5 0,-187.5 74,-187.5 74,-168.5 0,-168.5"/>
<text text-anchor="middle" x="37" y="-175.5" font-family="Helvetica,sans-Serif" font-size="10.00">EventSelect</text>
</a>
</g>
</g>
<!-- Node6&#45;&gt;Node5 -->
<g id="edge5" class="edge">
<title>Node6&#45;&gt;Node5</title>
<path fill="none" stroke="midnightblue" d="M37,-157.8C37,-148.91 37,-138.78 37,-131.75"/>
<polygon fill="midnightblue" stroke="midnightblue" points="33.5,-158.08 37,-168.08 40.5,-158.08 33.5,-158.08"/>
</g>
<!-- Node7 -->
<g id="node7" class="node">
<title>Node7</title>
<g id="a_node7"><a xlink:href="classTimingSerializer.html" target="_top" xlink:title=" ">
<polygon fill="white" stroke="black" points="90,-112.5 90,-131.5 186,-131.5 186,-112.5 90,-112.5"/>
<text text-anchor="middle" x="138" y="-119.5" font-family="Helvetica,sans-Serif" font-size="10.00">TimingSerializer</text>
</a>
</g>
</g>
<!-- Node7&#45;&gt;Node3 -->
<g id="edge6" class="edge">
<title>Node7&#45;&gt;Node3</title>
<path fill="none" stroke="midnightblue" d="M169.7,-108.77C196,-98.63 232.72,-84.47 255.92,-75.52"/>
<polygon fill="midnightblue" stroke="midnightblue" points="168.25,-105.58 160.18,-112.44 170.77,-112.11 168.25,-105.58"/>
</g>
<!-- Node8 -->
<g id="node8" class="node">
<title>Node8</title>
<g id="a_node8"><a xlink:href="classTPSerializer.html" target="_top" xlink:title=" ">
<polygon fill="white" stroke="black" points="204,-112.5 204,-131.5 278,-131.5 278,-112.5 204,-112.5"/>
<text text-anchor="middle" x="241" y="-119.5" font-family="Helvetica,sans-Serif" font-size="10.00">TPSerializer</text>
</a>
</g>
</g>
<!-- Node8&#45;&gt;Node3 -->
<g id="edge7" class="edge">
<title>Node8&#45;&gt;Node3</title>
<path fill="none" stroke="midnightblue" d="M252.95,-103.57C259.31,-94.27 266.87,-83.25 272,-75.75"/>
<polygon fill="midnightblue" stroke="midnightblue" points="249.87,-101.86 247.11,-112.08 255.65,-105.81 249.87,-101.86"/>
</g>
<!-- Node9 -->
<g id="node9" class="node">
<title>Node9</title>
<g id="a_node9"><a xlink:href="classClockTime.html" target="_top" xlink:title=" ">
<polygon fill="white" stroke="black" points="296,-112.5 296,-131.5 364,-131.5 364,-112.5 296,-112.5"/>
<text text-anchor="middle" x="330" y="-119.5" font-family="Helvetica,sans-Serif" font-size="10.00">ClockTime</text>
</a>
</g>
</g>
<!-- Node9&#45;&gt;Node3 -->
<g id="edge8" class="edge">
<title>Node9&#45;&gt;Node3</title>
<path fill="none" stroke="midnightblue" d="M314.32,-104.72C305.16,-95.2 293.95,-83.56 286.43,-75.75"/>
<polygon fill="midnightblue" stroke="midnightblue" points="311.96,-107.31 321.41,-112.08 317,-102.45 311.96,-107.31"/>
</g>
<!-- Node9&#45;&gt;Node10 -->
<g id="edge12" class="edge">
<title>Node9&#45;&gt;Node10</title>
<path fill="none" stroke="midnightblue" d="M350.77,-106.62C365.02,-96.76 383.46,-83.99 395.5,-75.65"/>
<polygon fill="midnightblue" stroke="midnightblue" points="348.76,-103.75 342.53,-112.32 352.75,-109.51 348.76,-103.75"/>
</g>
<!-- Node10&#45;&gt;Node1 -->
<g id="edge9" class="edge">
<title>Node10&#45;&gt;Node1</title>
<path fill="none" stroke="midnightblue" d="M377.91,-52.5C353.54,-42.38 319.86,-28.39 298.5,-19.52"/>
<polygon fill="midnightblue" stroke="midnightblue" points="376.82,-55.84 387.4,-56.44 379.51,-49.38 376.82,-55.84"/>
</g>
<!-- Node11 -->
<g id="node11" class="node">
<title>Node11</title>
<g id="a_node11"><a xlink:href="classTimingStreamTx.html" target="_top" xlink:title=" ">
<polygon fill="white" stroke="black" points="549,-112.5 549,-131.5 647,-131.5 647,-112.5 549,-112.5"/>
<text text-anchor="middle" x="598" y="-119.5" font-family="Helvetica,sans-Serif" font-size="10.00">TimingStreamTx</text>
</a>
</g>
</g>
<!-- Node11&#45;&gt;Node10 -->
<g id="edge11" class="edge">
<title>Node11&#45;&gt;Node10</title>
<path fill="none" stroke="midnightblue" d="M558.24,-109.7C522.38,-99.51 470.43,-84.74 437.97,-75.52"/>
<polygon fill="midnightblue" stroke="midnightblue" points="557.32,-113.08 567.89,-112.44 559.23,-106.34 557.32,-113.08"/>
</g>
<!-- Node12 -->
<g id="node12" class="node">
<title>Node12</title>
<g id="a_node12"><a xlink:href="classTPGMiniEdef.html" target="_top" xlink:title=" ">
<polygon fill="white" stroke="black" points="452.5,-112.5 452.5,-131.5 531.5,-131.5 531.5,-112.5 452.5,-112.5"/>
<text text-anchor="middle" x="492" y="-119.5" font-family="Helvetica,sans-Serif" font-size="10.00">TPGMiniEdef</text>
</a>
</g>
</g>
<!-- Node12&#45;&gt;Node10 -->
<g id="edge13" class="edge">
<title>Node12&#45;&gt;Node10</title>
<path fill="none" stroke="midnightblue" d="M470.07,-106.9C454.66,-97 434.55,-84.07 421.46,-75.65"/>
<polygon fill="midnightblue" stroke="midnightblue" points="468.2,-109.86 478.5,-112.32 471.98,-103.97 468.2,-109.86"/>
</g>
</g>
</svg>
