<?xml version="1.0" encoding="UTF-8" standalone="no"?>
<!DOCTYPE svg PUBLIC "-//W3C//DTD SVG 1.1//EN"
 "http://www.w3.org/Graphics/SVG/1.1/DTD/svg11.dtd">
<!-- Generated by graphviz version 2.43.0 (0)
 -->
<!-- Title: TPGMiniCore Pages: 1 -->
<svg width="655pt" height="252pt"
 viewBox="0.00 0.00 655.00 252.00" xmlns="http://www.w3.org/2000/svg" xmlns:xlink="http://www.w3.org/1999/xlink">
<g id="graph0" class="graph" transform="scale(1 1) rotate(0) translate(4 248)">
<title>TPGMiniCore</title>
<polygon fill="white" stroke="transparent" points="-4,4 -4,-248 651,-248 651,4 -4,4"/>
<!-- Node1 -->
<g id="node1" class="node">
<title>Node1</title>
<g id="a_node1"><a xlink:title=" ">
<polygon fill="#bfbfbf" stroke="black" points="238,-56.5 238,-75.5 318,-75.5 318,-56.5 238,-56.5"/>
<text text-anchor="middle" x="278" y="-63.5" font-family="Helvetica,sans-Serif" font-size="10.00">TPGMiniCore</text>
</a>
</g>
</g>
<!-- Node13 -->
<g id="node13" class="node">
<title>Node13</title>
<g id="a_node13"><a xlink:href="classTimingCore.html" target="_top" xlink:title=" ">
<polygon fill="white" stroke="black" points="241.5,-0.5 241.5,-19.5 314.5,-19.5 314.5,-0.5 241.5,-0.5"/>
<text text-anchor="middle" x="278" y="-7.5" font-family="Helvetica,sans-Serif" font-size="10.00">TimingCore</text>
</a>
</g>
</g>
<!-- Node1&#45;&gt;Node13 -->
<g id="edge14" class="edge">
<title>Node1&#45;&gt;Node13</title>
<path fill="none" stroke="midnightblue" d="M278,-45.8C278,-36.91 278,-26.78 278,-19.75"/>
<polygon fill="midnightblue" stroke="midnightblue" points="274.5,-46.08 278,-56.08 281.5,-46.08 274.5,-46.08"/>
</g>
<!-- Node2 -->
<g id="node2" class="node">
<title>Node2</title>
<g id="a_node2"><a xlink:href="classTPGMiniReg.html" target="_top" xlink:title=" ">
<polygon fill="white" stroke="black" points="155,-112.5 155,-131.5 231,-131.5 231,-112.5 155,-112.5"/>
<text text-anchor="middle" x="193" y="-119.5" font-family="Helvetica,sans-Serif" font-size="10.00">TPGMiniReg</text>
</a>
</g>
</g>
<!-- Node2&#45;&gt;Node1 -->
<g id="edge1" class="edge">
<title>Node2&#45;&gt;Node1</title>
<path fill="none" stroke="midnightblue" d="M215.19,-106.9C230.78,-97 251.13,-84.07 264.38,-75.65"/>
<polygon fill="midnightblue" stroke="midnightblue" points="213.22,-104.01 206.66,-112.32 216.97,-109.92 213.22,-104.01"/>
</g>
<!-- Node3 -->
<g id="node3" class="node">
<title>Node3</title>
<g id="a_node3"><a xlink:href="classTPGMini.html" target="_top" xlink:title=" ">
<polygon fill="white" stroke="black" points="249.5,-112.5 249.5,-131.5 306.5,-131.5 306.5,-112.5 249.5,-112.5"/>
<text text-anchor="middle" x="278" y="-119.5" font-family="Helvetica,sans-Serif" font-size="10.00">TPGMini</text>
</a>
</g>
</g>
<!-- Node3&#45;&gt;Node1 -->
<g id="edge2" class="edge">
<title>Node3&#45;&gt;Node1</title>
<path fill="none" stroke="midnightblue" d="M278,-101.8C278,-92.91 278,-82.78 278,-75.75"/>
<polygon fill="midnightblue" stroke="midnightblue" points="274.5,-102.08 278,-112.08 281.5,-102.08 274.5,-102.08"/>
</g>
<!-- Node4 -->
<g id="node4" class="node">
<title>Node4</title>
<g id="a_node4"><a xlink:href="classDivider.html" target="_top" xlink:title=" ">
<polygon fill="white" stroke="black" points="382,-168.5 382,-187.5 434,-187.5 434,-168.5 382,-168.5"/>
<text text-anchor="middle" x="408" y="-175.5" font-family="Helvetica,sans-Serif" font-size="10.00">Divider</text>
</a>
</g>
</g>
<!-- Node4&#45;&gt;Node3 -->
<g id="edge3" class="edge">
<title>Node4&#45;&gt;Node3</title>
<path fill="none" stroke="midnightblue" d="M377.91,-164.5C353.54,-154.38 319.86,-140.39 298.5,-131.52"/>
<polygon fill="midnightblue" stroke="midnightblue" points="376.82,-167.84 387.4,-168.44 379.51,-161.38 376.82,-167.84"/>
</g>
<!-- Node10 -->
<g id="node10" class="node">
<title>Node10</title>
<g id="a_node10"><a xlink:href="classTPGMiniStream.html" target="_top" xlink:title=" ">
<polygon fill="white" stroke="black" points="362,-112.5 362,-131.5 454,-131.5 454,-112.5 362,-112.5"/>
<text text-anchor="middle" x="408" y="-119.5" font-family="Helvetica,sans-Serif" font-size="10.00">TPGMiniStream</text>
</a>
</g>
</g>
<!-- Node4&#45;&gt;Node10 -->
<g id="edge10" class="edge">
<title>Node4&#45;&gt;Node10</title>
<path fill="none" stroke="midnightblue" d="M408,-157.8C408,-148.91 408,-138.78 408,-131.75"/>
<polygon fill="midnightblue" stroke="midnightblue" points="404.5,-158.08 408,-168.08 411.5,-158.08 404.5,-158.08"/>
</g>
<!-- Node5 -->
<g id="node5" class="node">
<title>Node5</title>
<g id="a_node5"><a xlink:href="classBsaControl.html" target="_top" xlink:title=" ">
<polygon fill="white" stroke="black" points="2,-168.5 2,-187.5 72,-187.5 72,-168.5 2,-168.5"/>
<text text-anchor="middle" x="37" y="-175.5" font-family="Helvetica,sans-Serif" font-size="10.00">BsaControl</text>
</a>
</g>
</g>
<!-- Node5&#45;&gt;Node3 -->
<g id="edge4" class="edge">
<title>Node5&#45;&gt;Node3</title>
<path fill="none" stroke="midnightblue" d="M82.23,-167.17C123.4,-158.17 185.83,-144.42 240,-132 243.04,-131.3 246.21,-130.57 249.38,-129.83"/>
<polygon fill="midnightblue" stroke="midnightblue" points="81.26,-163.8 72.24,-169.35 82.76,-170.64 81.26,-163.8"/>
</g>
<!-- Node6 -->
<g id="node6" class="node">
<title>Node6</title>
<g id="a_node6"><a xlink:href="classEventSelect.html" target="_top" xlink:title=" ">
<polygon fill="white" stroke="black" points="0,-224.5 0,-243.5 74,-243.5 74,-224.5 0,-224.5"/>
<text text-anchor="middle" x="37" y="-231.5" font-family="Helvetica,sans-Serif" font-size="10.00">EventSelect</text>
</a>
</g>
</g>
<!-- Node6&#45;&gt;Node5 -->
<g id="edge5" class="edge">
<title>Node6&#45;&gt;Node5</title>
<path fill="none" stroke="midnightblue" d="M37,-213.8C37,-204.91 37,-194.78 37,-187.75"/>
<polygon fill="midnightblue" stroke="midnightblue" points="33.5,-214.08 37,-224.08 40.5,-214.08 33.5,-214.08"/>
</g>
<!-- Node7 -->
<g id="node7" class="node">
<title>Node7</title>
<g id="a_node7"><a xlink:href="classTimingSerializer.html" target="_top" xlink:title=" ">
<polygon fill="white" stroke="black" points="90,-168.5 90,-187.5 186,-187.5 186,-168.5 90,-168.5"/>
<text text-anchor="middle" x="138" y="-175.5" font-family="Helvetica,sans-Serif" font-size="10.00">TimingSerializer</text>
</a>
</g>
</g>
<!-- Node7&#45;&gt;Node3 -->
<g id="edge6" class="edge">
<title>Node7&#45;&gt;Node3</title>
<path fill="none" stroke="midnightblue" d="M169.7,-164.77C196,-154.63 232.72,-140.47 255.92,-131.52"/>
<polygon fill="midnightblue" stroke="midnightblue" points="168.25,-161.58 160.18,-168.44 170.77,-168.11 168.25,-161.58"/>
</g>
<!-- Node8 -->
<g id="node8" class="node">
<title>Node8</title>
<g id="a_node8"><a xlink:href="classTPSerializer.html" target="_top" xlink:title=" ">
<polygon fill="white" stroke="black" points="204,-168.5 204,-187.5 278,-187.5 278,-168.5 204,-168.5"/>
<text text-anchor="middle" x="241" y="-175.5" font-family="Helvetica,sans-Serif" font-size="10.00">TPSerializer</text>
</a>
</g>
</g>
<!-- Node8&#45;&gt;Node3 -->
<g id="edge7" class="edge">
<title>Node8&#45;&gt;Node3</title>
<path fill="none" stroke="midnightblue" d="M252.95,-159.57C259.31,-150.27 266.87,-139.25 272,-131.75"/>
<polygon fill="midnightblue" stroke="midnightblue" points="249.87,-157.86 247.11,-168.08 255.65,-161.81 249.87,-157.86"/>
</g>
<!-- Node9 -->
<g id="node9" class="node">
<title>Node9</title>
<g id="a_node9"><a xlink:href="classClockTime.html" target="_top" xlink:title=" ">
<polygon fill="white" stroke="black" points="296,-168.5 296,-187.5 364,-187.5 364,-168.5 296,-168.5"/>
<text text-anchor="middle" x="330" y="-175.5" font-family="Helvetica,sans-Serif" font-size="10.00">ClockTime</text>
</a>
</g>
</g>
<!-- Node9&#45;&gt;Node3 -->
<g id="edge8" class="edge">
<title>Node9&#45;&gt;Node3</title>
<path fill="none" stroke="midnightblue" d="M314.32,-160.72C305.16,-151.2 293.95,-139.56 286.43,-131.75"/>
<polygon fill="midnightblue" stroke="midnightblue" points="311.96,-163.31 321.41,-168.08 317,-158.45 311.96,-163.31"/>
</g>
<!-- Node9&#45;&gt;Node10 -->
<g id="edge12" class="edge">
<title>Node9&#45;&gt;Node10</title>
<path fill="none" stroke="midnightblue" d="M350.77,-162.62C365.02,-152.76 383.46,-139.99 395.5,-131.65"/>
<polygon fill="midnightblue" stroke="midnightblue" points="348.76,-159.75 342.53,-168.32 352.75,-165.51 348.76,-159.75"/>
</g>
<!-- Node10&#45;&gt;Node1 -->
<g id="edge9" class="edge">
<title>Node10&#45;&gt;Node1</title>
<path fill="none" stroke="midnightblue" d="M377.91,-108.5C353.54,-98.38 319.86,-84.39 298.5,-75.52"/>
<polygon fill="midnightblue" stroke="midnightblue" points="376.82,-111.84 387.4,-112.44 379.51,-105.38 376.82,-111.84"/>
</g>
<!-- Node11 -->
<g id="node11" class="node">
<title>Node11</title>
<g id="a_node11"><a xlink:href="classTimingStreamTx.html" target="_top" xlink:title=" ">
<polygon fill="white" stroke="black" points="549,-168.5 549,-187.5 647,-187.5 647,-168.5 549,-168.5"/>
<text text-anchor="middle" x="598" y="-175.5" font-family="Helvetica,sans-Serif" font-size="10.00">TimingStreamTx</text>
</a>
</g>
</g>
<!-- Node11&#45;&gt;Node10 -->
<g id="edge11" class="edge">
<title>Node11&#45;&gt;Node10</title>
<path fill="none" stroke="midnightblue" d="M558.24,-165.7C522.38,-155.51 470.43,-140.74 437.97,-131.52"/>
<polygon fill="midnightblue" stroke="midnightblue" points="557.32,-169.08 567.89,-168.44 559.23,-162.34 557.32,-169.08"/>
</g>
<!-- Node12 -->
<g id="node12" class="node">
<title>Node12</title>
<g id="a_node12"><a xlink:href="classTPGMiniEdef.html" target="_top" xlink:title=" ">
<polygon fill="white" stroke="black" points="452.5,-168.5 452.5,-187.5 531.5,-187.5 531.5,-168.5 452.5,-168.5"/>
<text text-anchor="middle" x="492" y="-175.5" font-family="Helvetica,sans-Serif" font-size="10.00">TPGMiniEdef</text>
</a>
</g>
</g>
<!-- Node12&#45;&gt;Node10 -->
<g id="edge13" class="edge">
<title>Node12&#45;&gt;Node10</title>
<path fill="none" stroke="midnightblue" d="M470.07,-162.9C454.66,-153 434.55,-140.07 421.46,-131.65"/>
<polygon fill="midnightblue" stroke="midnightblue" points="468.2,-165.86 478.5,-168.32 471.98,-159.97 468.2,-165.86"/>
</g>
</g>
</svg>
