<?xml version="1.0" encoding="UTF-8" standalone="no"?>
<!DOCTYPE svg PUBLIC "-//W3C//DTD SVG 1.1//EN"
 "http://www.w3.org/Graphics/SVG/1.1/DTD/svg11.dtd">
<!-- Generated by graphviz version 2.43.0 (0)
 -->
<!-- Title: TimingSerialDelay Pages: 1 -->
<svg width="240pt" height="196pt"
 viewBox="0.00 0.00 239.50 196.00" xmlns="http://www.w3.org/2000/svg" xmlns:xlink="http://www.w3.org/1999/xlink">
<g id="graph0" class="graph" transform="scale(1 1) rotate(0) translate(4 192)">
<title>TimingSerialDelay</title>
<polygon fill="white" stroke="transparent" points="-4,4 -4,-192 235.5,-192 235.5,4 -4,4"/>
<!-- Node1 -->
<g id="node1" class="node">
<title>Node1</title>
<g id="a_node1"><a xlink:title=" ">
<polygon fill="#bfbfbf" stroke="black" points="55.5,-168.5 55.5,-187.5 162.5,-187.5 162.5,-168.5 55.5,-168.5"/>
<text text-anchor="middle" x="109" y="-175.5" font-family="Helvetica,sans-Serif" font-size="10.00">TimingSerialDelay</text>
</a>
</g>
</g>
<!-- Node2 -->
<g id="node2" class="node">
<title>Node2</title>
<g id="a_node2"><a xlink:href="classTimingFrameRx.html" target="_top" xlink:title=" ">
<polygon fill="white" stroke="black" points="0,-112.5 0,-131.5 94,-131.5 94,-112.5 0,-112.5"/>
<text text-anchor="middle" x="47" y="-119.5" font-family="Helvetica,sans-Serif" font-size="10.00">TimingFrameRx</text>
</a>
</g>
</g>
<!-- Node1&#45;&gt;Node2 -->
<g id="edge1" class="edge">
<title>Node1&#45;&gt;Node2</title>
<path fill="none" stroke="midnightblue" d="M91.25,-161.54C80.19,-151.91 66.37,-139.87 57.14,-131.83"/>
<polygon fill="midnightblue" stroke="midnightblue" points="89.2,-164.4 99.04,-168.32 93.8,-159.12 89.2,-164.4"/>
</g>
<!-- Node5 -->
<g id="node5" class="node">
<title>Node5</title>
<g id="a_node5"><a xlink:href="classTimingSerialDelayTb.html" target="_top" xlink:title=" ">
<polygon fill="white" stroke="black" points="112.5,-112.5 112.5,-131.5 231.5,-131.5 231.5,-112.5 112.5,-112.5"/>
<text text-anchor="middle" x="172" y="-119.5" font-family="Helvetica,sans-Serif" font-size="10.00">TimingSerialDelayTb</text>
</a>
</g>
</g>
<!-- Node1&#45;&gt;Node5 -->
<g id="edge4" class="edge">
<title>Node1&#45;&gt;Node5</title>
<path fill="none" stroke="midnightblue" d="M127.04,-161.54C138.27,-151.91 152.32,-139.87 161.69,-131.83"/>
<polygon fill="midnightblue" stroke="midnightblue" points="124.44,-159.16 119.12,-168.32 128.99,-164.47 124.44,-159.16"/>
</g>
<!-- Node3 -->
<g id="node3" class="node">
<title>Node3</title>
<g id="a_node3"><a xlink:href="classTimingRx.html" target="_top" xlink:title=" ">
<polygon fill="white" stroke="black" points="15.5,-56.5 15.5,-75.5 78.5,-75.5 78.5,-56.5 15.5,-56.5"/>
<text text-anchor="middle" x="47" y="-63.5" font-family="Helvetica,sans-Serif" font-size="10.00">TimingRx</text>
</a>
</g>
</g>
<!-- Node2&#45;&gt;Node3 -->
<g id="edge2" class="edge">
<title>Node2&#45;&gt;Node3</title>
<path fill="none" stroke="midnightblue" d="M47,-101.8C47,-92.91 47,-82.78 47,-75.75"/>
<polygon fill="midnightblue" stroke="midnightblue" points="43.5,-102.08 47,-112.08 50.5,-102.08 43.5,-102.08"/>
</g>
<!-- Node4 -->
<g id="node4" class="node">
<title>Node4</title>
<g id="a_node4"><a xlink:href="classTimingCore.html" target="_top" xlink:title=" ">
<polygon fill="white" stroke="black" points="10.5,-0.5 10.5,-19.5 83.5,-19.5 83.5,-0.5 10.5,-0.5"/>
<text text-anchor="middle" x="47" y="-7.5" font-family="Helvetica,sans-Serif" font-size="10.00">TimingCore</text>
</a>
</g>
</g>
<!-- Node3&#45;&gt;Node4 -->
<g id="edge3" class="edge">
<title>Node3&#45;&gt;Node4</title>
<path fill="none" stroke="midnightblue" d="M47,-45.8C47,-36.91 47,-26.78 47,-19.75"/>
<polygon fill="midnightblue" stroke="midnightblue" points="43.5,-46.08 47,-56.08 50.5,-46.08 43.5,-46.08"/>
</g>
</g>
</svg>
