<?xml version="1.0" encoding="UTF-8" standalone="no"?>
<!DOCTYPE svg PUBLIC "-//W3C//DTD SVG 1.1//EN"
 "http://www.w3.org/Graphics/SVG/1.1/DTD/svg11.dtd">
<!-- Generated by graphviz version 2.43.0 (0)
 -->
<!-- Title: TimingRx Pages: 1 -->
<svg width="288pt" height="196pt"
 viewBox="0.00 0.00 287.50 196.00" xmlns="http://www.w3.org/2000/svg" xmlns:xlink="http://www.w3.org/1999/xlink">
<g id="graph0" class="graph" transform="scale(1 1) rotate(0) translate(4 192)">
<title>TimingRx</title>
<polygon fill="white" stroke="transparent" points="-4,4 -4,-192 283.5,-192 283.5,4 -4,4"/>
<!-- Node1 -->
<g id="node1" class="node">
<title>Node1</title>
<g id="a_node1"><a xlink:title=" ">
<polygon fill="#bfbfbf" stroke="black" points="74.5,-56.5 74.5,-75.5 137.5,-75.5 137.5,-56.5 74.5,-56.5"/>
<text text-anchor="middle" x="106" y="-63.5" font-family="Helvetica,sans-Serif" font-size="10.00">TimingRx</text>
</a>
</g>
</g>
<!-- Node6 -->
<g id="node6" class="node">
<title>Node6</title>
<g id="a_node6"><a xlink:href="classTimingCore.html" target="_top" xlink:title=" ">
<polygon fill="white" stroke="black" points="69.5,-0.5 69.5,-19.5 142.5,-19.5 142.5,-0.5 69.5,-0.5"/>
<text text-anchor="middle" x="106" y="-7.5" font-family="Helvetica,sans-Serif" font-size="10.00">TimingCore</text>
</a>
</g>
</g>
<!-- Node1&#45;&gt;Node6 -->
<g id="edge5" class="edge">
<title>Node1&#45;&gt;Node6</title>
<path fill="none" stroke="midnightblue" d="M106,-45.8C106,-36.91 106,-26.78 106,-19.75"/>
<polygon fill="midnightblue" stroke="midnightblue" points="102.5,-46.08 106,-56.08 109.5,-46.08 102.5,-46.08"/>
</g>
<!-- Node2 -->
<g id="node2" class="node">
<title>Node2</title>
<g id="a_node2"><a xlink:href="classTimingStreamRx.html" target="_top" xlink:title=" ">
<polygon fill="white" stroke="black" points="0,-112.5 0,-131.5 98,-131.5 98,-112.5 0,-112.5"/>
<text text-anchor="middle" x="49" y="-119.5" font-family="Helvetica,sans-Serif" font-size="10.00">TimingStreamRx</text>
</a>
</g>
</g>
<!-- Node2&#45;&gt;Node1 -->
<g id="edge1" class="edge">
<title>Node2&#45;&gt;Node1</title>
<path fill="none" stroke="midnightblue" d="M65.62,-105.25C75.73,-95.67 88.28,-83.79 96.68,-75.83"/>
<polygon fill="midnightblue" stroke="midnightblue" points="63.01,-102.91 58.16,-112.32 67.82,-107.99 63.01,-102.91"/>
</g>
<!-- Node3 -->
<g id="node3" class="node">
<title>Node3</title>
<g id="a_node3"><a xlink:href="classTimingFrameRx.html" target="_top" xlink:title=" ">
<polygon fill="white" stroke="black" points="116,-112.5 116,-131.5 210,-131.5 210,-112.5 116,-112.5"/>
<text text-anchor="middle" x="163" y="-119.5" font-family="Helvetica,sans-Serif" font-size="10.00">TimingFrameRx</text>
</a>
</g>
</g>
<!-- Node3&#45;&gt;Node1 -->
<g id="edge2" class="edge">
<title>Node3&#45;&gt;Node1</title>
<path fill="none" stroke="midnightblue" d="M146.38,-105.25C136.27,-95.67 123.72,-83.79 115.32,-75.83"/>
<polygon fill="midnightblue" stroke="midnightblue" points="144.18,-107.99 153.84,-112.32 148.99,-102.91 144.18,-107.99"/>
</g>
<!-- Node4 -->
<g id="node4" class="node">
<title>Node4</title>
<g id="a_node4"><a xlink:href="classTimingDeserializer.html" target="_top" xlink:title=" ">
<polygon fill="white" stroke="black" points="45.5,-168.5 45.5,-187.5 154.5,-187.5 154.5,-168.5 45.5,-168.5"/>
<text text-anchor="middle" x="100" y="-175.5" font-family="Helvetica,sans-Serif" font-size="10.00">TimingDeserializer</text>
</a>
</g>
</g>
<!-- Node4&#45;&gt;Node3 -->
<g id="edge3" class="edge">
<title>Node4&#45;&gt;Node3</title>
<path fill="none" stroke="midnightblue" d="M118.04,-161.54C129.27,-151.91 143.32,-139.87 152.69,-131.83"/>
<polygon fill="midnightblue" stroke="midnightblue" points="115.44,-159.16 110.12,-168.32 119.99,-164.47 115.44,-159.16"/>
</g>
<!-- Node5 -->
<g id="node5" class="node">
<title>Node5</title>
<g id="a_node5"><a xlink:href="classTimingSerialDelay.html" target="_top" xlink:title=" ">
<polygon fill="white" stroke="black" points="172.5,-168.5 172.5,-187.5 279.5,-187.5 279.5,-168.5 172.5,-168.5"/>
<text text-anchor="middle" x="226" y="-175.5" font-family="Helvetica,sans-Serif" font-size="10.00">TimingSerialDelay</text>
</a>
</g>
</g>
<!-- Node5&#45;&gt;Node3 -->
<g id="edge4" class="edge">
<title>Node5&#45;&gt;Node3</title>
<path fill="none" stroke="midnightblue" d="M207.96,-161.54C196.73,-151.91 182.68,-139.87 173.31,-131.83"/>
<polygon fill="midnightblue" stroke="midnightblue" points="206.01,-164.47 215.88,-168.32 210.56,-159.16 206.01,-164.47"/>
</g>
</g>
</svg>
