<?xml version="1.0" encoding="UTF-8" standalone="no"?>
<!DOCTYPE svg PUBLIC "-//W3C//DTD SVG 1.1//EN"
 "http://www.w3.org/Graphics/SVG/1.1/DTD/svg11.dtd">
<!-- Generated by graphviz version 2.43.0 (0)
 -->
<!-- Title: TPGMini Pages: 1 -->
<svg width="440pt" height="140pt"
 viewBox="0.00 0.00 440.00 140.00" xmlns="http://www.w3.org/2000/svg" xmlns:xlink="http://www.w3.org/1999/xlink">
<g id="graph0" class="graph" transform="scale(1 1) rotate(0) translate(4 136)">
<title>TPGMini</title>
<polygon fill="white" stroke="transparent" points="-4,4 -4,-136 436,-136 436,4 -4,4"/>
<!-- Node1 -->
<g id="node1" class="node">
<title>Node1</title>
<g id="a_node1"><a xlink:title=" ">
<polygon fill="#bfbfbf" stroke="black" points="177.5,-0.5 177.5,-19.5 234.5,-19.5 234.5,-0.5 177.5,-0.5"/>
<text text-anchor="middle" x="206" y="-7.5" font-family="Helvetica,sans-Serif" font-size="10.00">TPGMini</text>
</a>
</g>
</g>
<!-- Node2 -->
<g id="node2" class="node">
<title>Node2</title>
<g id="a_node2"><a xlink:href="classDivider.html" target="_top" xlink:title=" ">
<polygon fill="white" stroke="black" points="0,-56.5 0,-75.5 52,-75.5 52,-56.5 0,-56.5"/>
<text text-anchor="middle" x="26" y="-63.5" font-family="Helvetica,sans-Serif" font-size="10.00">Divider</text>
</a>
</g>
</g>
<!-- Node2&#45;&gt;Node1 -->
<g id="edge1" class="edge">
<title>Node2&#45;&gt;Node1</title>
<path fill="none" stroke="midnightblue" d="M62.15,-54.16C96.09,-43.97 146.18,-28.95 177.41,-19.58"/>
<polygon fill="midnightblue" stroke="midnightblue" points="60.75,-50.92 52.17,-57.15 62.76,-57.63 60.75,-50.92"/>
</g>
<!-- Node3 -->
<g id="node3" class="node">
<title>Node3</title>
<g id="a_node3"><a xlink:href="classBsaControl.html" target="_top" xlink:title=" ">
<polygon fill="white" stroke="black" points="70,-56.5 70,-75.5 140,-75.5 140,-56.5 70,-56.5"/>
<text text-anchor="middle" x="105" y="-63.5" font-family="Helvetica,sans-Serif" font-size="10.00">BsaControl</text>
</a>
</g>
</g>
<!-- Node3&#45;&gt;Node1 -->
<g id="edge2" class="edge">
<title>Node3&#45;&gt;Node1</title>
<path fill="none" stroke="midnightblue" d="M130.08,-51.59C148.76,-41.61 173.7,-28.27 189.81,-19.65"/>
<polygon fill="midnightblue" stroke="midnightblue" points="128.4,-48.52 121.23,-56.32 131.7,-54.7 128.4,-48.52"/>
</g>
<!-- Node4 -->
<g id="node4" class="node">
<title>Node4</title>
<g id="a_node4"><a xlink:href="classEventSelect.html" target="_top" xlink:title=" ">
<polygon fill="white" stroke="black" points="68,-112.5 68,-131.5 142,-131.5 142,-112.5 68,-112.5"/>
<text text-anchor="middle" x="105" y="-119.5" font-family="Helvetica,sans-Serif" font-size="10.00">EventSelect</text>
</a>
</g>
</g>
<!-- Node4&#45;&gt;Node3 -->
<g id="edge3" class="edge">
<title>Node4&#45;&gt;Node3</title>
<path fill="none" stroke="midnightblue" d="M105,-101.8C105,-92.91 105,-82.78 105,-75.75"/>
<polygon fill="midnightblue" stroke="midnightblue" points="101.5,-102.08 105,-112.08 108.5,-102.08 101.5,-102.08"/>
</g>
<!-- Node5 -->
<g id="node5" class="node">
<title>Node5</title>
<g id="a_node5"><a xlink:href="classTimingSerializer.html" target="_top" xlink:title=" ">
<polygon fill="white" stroke="black" points="158,-56.5 158,-75.5 254,-75.5 254,-56.5 158,-56.5"/>
<text text-anchor="middle" x="206" y="-63.5" font-family="Helvetica,sans-Serif" font-size="10.00">TimingSerializer</text>
</a>
</g>
</g>
<!-- Node5&#45;&gt;Node1 -->
<g id="edge4" class="edge">
<title>Node5&#45;&gt;Node1</title>
<path fill="none" stroke="midnightblue" d="M206,-45.8C206,-36.91 206,-26.78 206,-19.75"/>
<polygon fill="midnightblue" stroke="midnightblue" points="202.5,-46.08 206,-56.08 209.5,-46.08 202.5,-46.08"/>
</g>
<!-- Node6 -->
<g id="node6" class="node">
<title>Node6</title>
<g id="a_node6"><a xlink:href="classTPSerializer.html" target="_top" xlink:title=" ">
<polygon fill="white" stroke="black" points="272,-56.5 272,-75.5 346,-75.5 346,-56.5 272,-56.5"/>
<text text-anchor="middle" x="309" y="-63.5" font-family="Helvetica,sans-Serif" font-size="10.00">TPSerializer</text>
</a>
</g>
</g>
<!-- Node6&#45;&gt;Node1 -->
<g id="edge5" class="edge">
<title>Node6&#45;&gt;Node1</title>
<path fill="none" stroke="midnightblue" d="M283.42,-51.59C264.38,-41.61 238.94,-28.27 222.51,-19.65"/>
<polygon fill="midnightblue" stroke="midnightblue" points="281.97,-54.78 292.45,-56.32 285.22,-48.58 281.97,-54.78"/>
</g>
<!-- Node7 -->
<g id="node7" class="node">
<title>Node7</title>
<g id="a_node7"><a xlink:href="classClockTime.html" target="_top" xlink:title=" ">
<polygon fill="white" stroke="black" points="364,-56.5 364,-75.5 432,-75.5 432,-56.5 364,-56.5"/>
<text text-anchor="middle" x="398" y="-63.5" font-family="Helvetica,sans-Serif" font-size="10.00">ClockTime</text>
</a>
</g>
</g>
<!-- Node7&#45;&gt;Node1 -->
<g id="edge6" class="edge">
<title>Node7&#45;&gt;Node1</title>
<path fill="none" stroke="midnightblue" d="M357.67,-53.66C320.85,-43.3 267.35,-28.25 234.71,-19.08"/>
<polygon fill="midnightblue" stroke="midnightblue" points="357,-57.11 367.58,-56.44 358.9,-50.37 357,-57.11"/>
</g>
</g>
</svg>
