<?xml version="1.0" encoding="UTF-8" standalone="no"?>
<!DOCTYPE svg PUBLIC "-//W3C//DTD SVG 1.1//EN"
 "http://www.w3.org/Graphics/SVG/1.1/DTD/svg11.dtd">
<!-- Generated by graphviz version 2.43.0 (0)
 -->
<!-- Title: TimingRx Pages: 1 -->
<svg width="288pt" height="192pt"
 viewBox="0.00 0.00 287.50 192.00" xmlns="http://www.w3.org/2000/svg" xmlns:xlink="http://www.w3.org/1999/xlink">

<svg id="main" version="1.1" xmlns="http://www.w3.org/2000/svg" xmlns:xlink="http://www.w3.org/1999/xlink" xml:space="preserve" onload="init(evt)">
<style type="text/css"><![CDATA[
.node, .edge {opacity: 0.7;}
.node.selected, .edge.selected {opacity: 1;}
.edge:hover path { stroke: red; }
.edge:hover polygon { stroke: red; fill: red; }
]]></style>
<script type="application/ecmascript" xlink:href="svg.min.js"/>
<svg id="graph" class="graph">
<g id="graph0" class="graph" transform="scale(1 1) rotate(0) translate(4 188)">
<title>TimingRx</title>
<!-- Node1 -->
<g id="Node000001" class="node">
<title>Node1</title>
<g id="a_Node000001"><a xlink:title=" ">
<polygon fill="#999999" stroke="#666666" points="137.5,-74 74.5,-74 74.5,-55 137.5,-55 137.5,-74"/>
<text text-anchor="middle" x="106" y="-62" font-family="Helvetica,sans-Serif" font-size="10.00">TimingRx</text>
</a>
</g>
</g>
<!-- Node6 -->
<g id="Node000006" class="node">
<title>Node6</title>
<g id="a_Node000006"><a xlink:href="classTimingCore.html" target="_top" xlink:title=" ">
<polygon fill="white" stroke="#bfbfbf" points="142.5,-19 69.5,-19 69.5,0 142.5,0 142.5,-19"/>
<text text-anchor="middle" x="106" y="-7" font-family="Helvetica,sans-Serif" font-size="10.00">TimingCore</text>
</a>
</g>
</g>
<!-- Node1&#45;&gt;Node6 -->
<g id="edge5_Node000001_Node000006" class="edge">
<title>Node1&#45;&gt;Node6</title>
<g id="a_edge5_Node000001_Node000006"><a xlink:title=" ">
<path fill="none" stroke="#63b8ff" d="M106,-44.66C106,-35.93 106,-25.99 106,-19.09"/>
<polygon fill="#63b8ff" stroke="#63b8ff" points="102.5,-44.75 106,-54.75 109.5,-44.75 102.5,-44.75"/>
</a>
</g>
</g>
<!-- Node2 -->
<g id="Node000002" class="node">
<title>Node2</title>
<g id="a_Node000002"><a xlink:href="classTimingStreamRx.html" target="_top" xlink:title=" ">
<polygon fill="white" stroke="#bfbfbf" points="98,-129 0,-129 0,-110 98,-110 98,-129"/>
<text text-anchor="middle" x="49" y="-117" font-family="Helvetica,sans-Serif" font-size="10.00">TimingStreamRx</text>
</a>
</g>
</g>
<!-- Node2&#45;&gt;Node1 -->
<g id="edge1_Node000001_Node000002" class="edge">
<title>Node2&#45;&gt;Node1</title>
<g id="a_edge1_Node000001_Node000002"><a xlink:title=" ">
<path fill="none" stroke="#63b8ff" d="M65.62,-103.04C75.73,-93.64 88.28,-81.98 96.68,-74.17"/>
<polygon fill="#63b8ff" stroke="#63b8ff" points="63.1,-100.61 58.16,-109.98 67.86,-105.74 63.1,-100.61"/>
</a>
</g>
</g>
<!-- Node3 -->
<g id="Node000003" class="node">
<title>Node3</title>
<g id="a_Node000003"><a xlink:href="classTimingFrameRx.html" target="_top" xlink:title=" ">
<polygon fill="white" stroke="#bfbfbf" points="210,-129 116,-129 116,-110 210,-110 210,-129"/>
<text text-anchor="middle" x="163" y="-117" font-family="Helvetica,sans-Serif" font-size="10.00">TimingFrameRx</text>
</a>
</g>
</g>
<!-- Node3&#45;&gt;Node1 -->
<g id="edge2_Node000001_Node000003" class="edge">
<title>Node3&#45;&gt;Node1</title>
<g id="a_edge2_Node000001_Node000003"><a xlink:title=" ">
<path fill="none" stroke="#63b8ff" d="M146.38,-103.04C136.27,-93.64 123.72,-81.98 115.32,-74.17"/>
<polygon fill="#63b8ff" stroke="#63b8ff" points="144.14,-105.74 153.84,-109.98 148.9,-100.61 144.14,-105.74"/>
</a>
</g>
</g>
<!-- Node4 -->
<g id="Node000004" class="node">
<title>Node4</title>
<g id="a_Node000004"><a xlink:href="classTimingDeserializer.html" target="_top" xlink:title=" ">
<polygon fill="white" stroke="#bfbfbf" points="154.5,-184 45.5,-184 45.5,-165 154.5,-165 154.5,-184"/>
<text text-anchor="middle" x="100" y="-172" font-family="Helvetica,sans-Serif" font-size="10.00">TimingDeserializer</text>
</a>
</g>
</g>
<!-- Node4&#45;&gt;Node3 -->
<g id="edge3_Node000003_Node000004" class="edge">
<title>Node4&#45;&gt;Node3</title>
<g id="a_edge3_Node000003_Node000004"><a xlink:title=" ">
<path fill="none" stroke="#63b8ff" d="M118.04,-158.32C129.27,-148.87 143.32,-137.06 152.69,-129.17"/>
<polygon fill="#63b8ff" stroke="#63b8ff" points="115.52,-155.87 110.12,-164.98 120.03,-161.23 115.52,-155.87"/>
</a>
</g>
</g>
<!-- Node5 -->
<g id="Node000005" class="node">
<title>Node5</title>
<g id="a_Node000005"><a xlink:href="classTimingSerialDelay.html" target="_top" xlink:title=" ">
<polygon fill="white" stroke="#bfbfbf" points="279.5,-184 172.5,-184 172.5,-165 279.5,-165 279.5,-184"/>
<text text-anchor="middle" x="226" y="-172" font-family="Helvetica,sans-Serif" font-size="10.00">TimingSerialDelay</text>
</a>
</g>
</g>
<!-- Node5&#45;&gt;Node3 -->
<g id="edge4_Node000003_Node000005" class="edge">
<title>Node5&#45;&gt;Node3</title>
<g id="a_edge4_Node000003_Node000005"><a xlink:title=" ">
<path fill="none" stroke="#63b8ff" d="M207.96,-158.32C196.73,-148.87 182.68,-137.06 173.31,-129.17"/>
<polygon fill="#63b8ff" stroke="#63b8ff" points="205.97,-161.23 215.88,-164.98 210.48,-155.87 205.97,-161.23"/>
</a>
</g>
</g>
</g>
</svg>
</svg>

<style type='text/css'>
<![CDATA[
[data-mouse-over-selected='false'] { opacity: 0.7; }
[data-mouse-over-selected='true']  { opacity: 1.0; }
]]>
</style>
<script type="application/ecmascript"><![CDATA[
document.addEventListener('DOMContentLoaded', (event) => {
  highlightEdges();
  highlightAdjacentNodes();
});
]]></script>
</svg>
