<?xml version="1.0" encoding="UTF-8" standalone="no"?>
<!DOCTYPE svg PUBLIC "-//W3C//DTD SVG 1.1//EN"
 "http://www.w3.org/Graphics/SVG/1.1/DTD/svg11.dtd">
<!-- Generated by graphviz version 2.43.0 (0)
 -->
<!-- Title: EvrV2Module Pages: 1 -->
<svg width="487pt" height="82pt"
 viewBox="0.00 0.00 487.00 82.00" xmlns="http://www.w3.org/2000/svg" xmlns:xlink="http://www.w3.org/1999/xlink">

<svg id="main" version="1.1" xmlns="http://www.w3.org/2000/svg" xmlns:xlink="http://www.w3.org/1999/xlink" xml:space="preserve" onload="init(evt)">
<style type="text/css"><![CDATA[
.node, .edge {opacity: 0.7;}
.node.selected, .edge.selected {opacity: 1;}
.edge:hover path { stroke: red; }
.edge:hover polygon { stroke: red; fill: red; }
]]></style>
<script type="application/ecmascript" xlink:href="svg.min.js"/>
<svg id="graph" class="graph">
<g id="graph0" class="graph" transform="scale(1 1) rotate(0) translate(4 78)">
<title>EvrV2Module</title>
<!-- Node1 -->
<g id="Node000001" class="node">
<title>Node1</title>
<g id="a_Node000001"><a xlink:title=" ">
<polygon fill="#999999" stroke="#666666" points="302,-19 221,-19 221,0 302,0 302,-19"/>
<text text-anchor="middle" x="261.5" y="-7" font-family="Helvetica,sans-Serif" font-size="10.00">EvrV2Module</text>
</a>
</g>
</g>
<!-- Node2 -->
<g id="Node000002" class="node">
<title>Node2</title>
<g id="a_Node000002"><a xlink:href="classEvrV2EventSelect.html" target="_top" xlink:title=" ">
<polygon fill="white" stroke="#bfbfbf" points="103,-74 0,-74 0,-55 103,-55 103,-74"/>
<text text-anchor="middle" x="51.5" y="-62" font-family="Helvetica,sans-Serif" font-size="10.00">EvrV2EventSelect</text>
</a>
</g>
</g>
<!-- Node2&#45;&gt;Node1 -->
<g id="edge1_Node000001_Node000002" class="edge">
<title>Node2&#45;&gt;Node1</title>
<g id="a_edge1_Node000001_Node000002"><a xlink:title=" ">
<path fill="none" stroke="#63b8ff" d="M95.08,-52.5C134.4,-42.58 191.45,-28.18 227.5,-19.08"/>
<polygon fill="#63b8ff" stroke="#63b8ff" points="94.08,-49.14 85.24,-54.98 95.79,-55.93 94.08,-49.14"/>
</a>
</g>
</g>
<!-- Node3 -->
<g id="Node000003" class="node">
<title>Node3</title>
<g id="a_Node000003"><a xlink:href="classEvrV2FromV1.html" target="_top" xlink:title=" ">
<polygon fill="white" stroke="#bfbfbf" points="204,-74 121,-74 121,-55 204,-55 204,-74"/>
<text text-anchor="middle" x="162.5" y="-62" font-family="Helvetica,sans-Serif" font-size="10.00">EvrV2FromV1</text>
</a>
</g>
</g>
<!-- Node3&#45;&gt;Node1 -->
<g id="edge2_Node000001_Node000003" class="edge">
<title>Node3&#45;&gt;Node1</title>
<g id="a_edge2_Node000001_Node000003"><a xlink:title=" ">
<path fill="none" stroke="#63b8ff" d="M187.28,-50.23C205.44,-40.51 229.56,-27.6 245.3,-19.17"/>
<polygon fill="#63b8ff" stroke="#63b8ff" points="185.57,-47.18 178.41,-54.98 188.87,-53.35 185.57,-47.18"/>
</a>
</g>
</g>
<!-- Node4 -->
<g id="Node000004" class="node">
<title>Node4</title>
<g id="a_Node000004"><a xlink:href="classEvrV2Trigger.html" target="_top" xlink:title=" ">
<polygon fill="white" stroke="#bfbfbf" points="300.5,-74 222.5,-74 222.5,-55 300.5,-55 300.5,-74"/>
<text text-anchor="middle" x="261.5" y="-62" font-family="Helvetica,sans-Serif" font-size="10.00">EvrV2Trigger</text>
</a>
</g>
</g>
<!-- Node4&#45;&gt;Node1 -->
<g id="edge3_Node000001_Node000004" class="edge">
<title>Node4&#45;&gt;Node1</title>
<g id="a_edge3_Node000001_Node000004"><a xlink:title=" ">
<path fill="none" stroke="#63b8ff" d="M261.5,-44.66C261.5,-35.93 261.5,-25.99 261.5,-19.09"/>
<polygon fill="#63b8ff" stroke="#63b8ff" points="258,-44.75 261.5,-54.75 265,-44.75 258,-44.75"/>
</a>
</g>
</g>
<!-- Node5 -->
<g id="Node000005" class="node">
<title>Node5</title>
<g id="a_Node000005"><a xlink:href="classEvrV2Axi.html" target="_top" xlink:title=" ">
<polygon fill="white" stroke="#bfbfbf" points="380,-74 319,-74 319,-55 380,-55 380,-74"/>
<text text-anchor="middle" x="349.5" y="-62" font-family="Helvetica,sans-Serif" font-size="10.00">EvrV2Axi</text>
</a>
</g>
</g>
<!-- Node5&#45;&gt;Node1 -->
<g id="edge4_Node000001_Node000005" class="edge">
<title>Node5&#45;&gt;Node1</title>
<g id="a_edge4_Node000001_Node000005"><a xlink:title=" ">
<path fill="none" stroke="#63b8ff" d="M326.58,-49.7C310.55,-40.04 289.63,-27.44 275.9,-19.17"/>
<polygon fill="#63b8ff" stroke="#63b8ff" points="324.99,-52.82 335.36,-54.98 328.6,-46.83 324.99,-52.82"/>
</a>
</g>
</g>
<!-- Node6 -->
<g id="Node000006" class="node">
<title>Node6</title>
<g id="a_Node000006"><a xlink:href="classEvrV2TrigReg.html" target="_top" xlink:title=" ">
<polygon fill="white" stroke="#bfbfbf" points="479,-74 398,-74 398,-55 479,-55 479,-74"/>
<text text-anchor="middle" x="438.5" y="-62" font-family="Helvetica,sans-Serif" font-size="10.00">EvrV2TrigReg</text>
</a>
</g>
</g>
<!-- Node6&#45;&gt;Node1 -->
<g id="edge5_Node000001_Node000006" class="edge">
<title>Node6&#45;&gt;Node1</title>
<g id="a_edge5_Node000001_Node000006"><a xlink:title=" ">
<path fill="none" stroke="#63b8ff" d="M400.28,-52.06C367.2,-42.15 320.09,-28.04 290.16,-19.08"/>
<polygon fill="#63b8ff" stroke="#63b8ff" points="399.48,-55.47 410.06,-54.98 401.49,-48.76 399.48,-55.47"/>
</a>
</g>
</g>
</g>
</svg>
</svg>

<style type='text/css'>
<![CDATA[
[data-mouse-over-selected='false'] { opacity: 0.7; }
[data-mouse-over-selected='true']  { opacity: 1.0; }
]]>
</style>
<script type="application/ecmascript"><![CDATA[
document.addEventListener('DOMContentLoaded', (event) => {
  highlightEdges();
  highlightAdjacentNodes();
});
]]></script>
</svg>
