<?xml version="1.0" encoding="UTF-8" standalone="no"?>
<!DOCTYPE svg PUBLIC "-//W3C//DTD SVG 1.1//EN"
 "http://www.w3.org/Graphics/SVG/1.1/DTD/svg11.dtd">
<!-- Generated by graphviz version 2.43.0 (0)
 -->
<!-- Title: EvrV2EventSelect Pages: 1 -->
<svg width="555pt" height="82pt"
 viewBox="0.00 0.00 554.50 82.00" xmlns="http://www.w3.org/2000/svg" xmlns:xlink="http://www.w3.org/1999/xlink">
<g id="graph0" class="graph" transform="scale(1 1) rotate(0) translate(4 78)">
<title>EvrV2EventSelect</title>
<!-- Node1 -->
<g id="Node000001" class="node">
<title>Node1</title>
<g id="a_Node000001"><a xlink:title=" ">
<polygon fill="#999999" stroke="#666666" points="367,-74 264,-74 264,-55 367,-55 367,-74"/>
<text text-anchor="middle" x="315.5" y="-62" font-family="Helvetica,sans-Serif" font-size="10.00">EvrV2EventSelect</text>
</a>
</g>
</g>
<!-- Node2 -->
<g id="Node000002" class="node">
<title>Node2</title>
<g id="a_Node000002"><a xlink:href="classEvrV2CoreChannels.html" target="_top" xlink:title=" ">
<polygon fill="white" stroke="#bfbfbf" points="113,-19 0,-19 0,0 113,0 113,-19"/>
<text text-anchor="middle" x="56.5" y="-7" font-family="Helvetica,sans-Serif" font-size="10.00">EvrV2CoreChannels</text>
</a>
</g>
</g>
<!-- Node1&#45;&gt;Node2 -->
<g id="edge1_Node000001_Node000002" class="edge">
<title>Node1&#45;&gt;Node2</title>
<g id="a_edge1_Node000001_Node000002"><a xlink:title=" ">
<path fill="none" stroke="#63b8ff" d="M263.9,-52.94C215.35,-43.01 143.56,-28.31 98.44,-19.08"/>
<polygon fill="#63b8ff" stroke="#63b8ff" points="263.39,-56.41 273.89,-54.98 264.79,-49.55 263.39,-56.41"/>
</a>
</g>
</g>
<!-- Node3 -->
<g id="Node000003" class="node">
<title>Node3</title>
<g id="a_Node000003"><a xlink:href="classEvrV2CorePulseGen.html" target="_top" xlink:title=" ">
<polygon fill="white" stroke="#bfbfbf" points="244,-19 131,-19 131,0 244,0 244,-19"/>
<text text-anchor="middle" x="187.5" y="-7" font-family="Helvetica,sans-Serif" font-size="10.00">EvrV2CorePulseGen</text>
</a>
</g>
</g>
<!-- Node1&#45;&gt;Node3 -->
<g id="edge2_Node000001_Node000003" class="edge">
<title>Node1&#45;&gt;Node3</title>
<g id="a_edge2_Node000001_Node000003"><a xlink:title=" ">
<path fill="none" stroke="#63b8ff" d="M285.38,-51.03C261.71,-41.23 229.35,-27.83 208.44,-19.17"/>
<polygon fill="#63b8ff" stroke="#63b8ff" points="284.36,-54.39 294.93,-54.98 287.03,-47.93 284.36,-54.39"/>
</a>
</g>
</g>
<!-- Node4 -->
<g id="Node000004" class="node">
<title>Node4</title>
<g id="a_Node000004"><a xlink:href="classEvrV2CoreTriggers.html" target="_top" xlink:title=" ">
<polygon fill="white" stroke="#bfbfbf" points="368.5,-19 262.5,-19 262.5,0 368.5,0 368.5,-19"/>
<text text-anchor="middle" x="315.5" y="-7" font-family="Helvetica,sans-Serif" font-size="10.00">EvrV2CoreTriggers</text>
</a>
</g>
</g>
<!-- Node1&#45;&gt;Node4 -->
<g id="edge3_Node000001_Node000004" class="edge">
<title>Node1&#45;&gt;Node4</title>
<g id="a_edge3_Node000001_Node000004"><a xlink:title=" ">
<path fill="none" stroke="#63b8ff" d="M315.5,-44.66C315.5,-35.93 315.5,-25.99 315.5,-19.09"/>
<polygon fill="#63b8ff" stroke="#63b8ff" points="312,-44.75 315.5,-54.75 319,-44.75 312,-44.75"/>
</a>
</g>
</g>
<!-- Node5 -->
<g id="Node000005" class="node">
<title>Node5</title>
<g id="a_Node000005"><a xlink:href="classEvrV2Module.html" target="_top" xlink:title=" ">
<polygon fill="white" stroke="#bfbfbf" points="468,-19 387,-19 387,0 468,0 468,-19"/>
<text text-anchor="middle" x="427.5" y="-7" font-family="Helvetica,sans-Serif" font-size="10.00">EvrV2Module</text>
</a>
</g>
</g>
<!-- Node1&#45;&gt;Node5 -->
<g id="edge4_Node000001_Node000005" class="edge">
<title>Node1&#45;&gt;Node5</title>
<g id="a_edge4_Node000001_Node000005"><a xlink:title=" ">
<path fill="none" stroke="#63b8ff" d="M342.69,-50.63C363.32,-40.87 391.12,-27.71 409.18,-19.17"/>
<polygon fill="#63b8ff" stroke="#63b8ff" points="341.04,-47.54 333.49,-54.98 344.03,-53.87 341.04,-47.54"/>
</a>
</g>
</g>
<!-- Node6 -->
<g id="Node000006" class="node">
<title>Node6</title>
<g id="a_Node000006"><a xlink:href="classEvrV2__tb.html" target="_top" xlink:title=" ">
<polygon fill="white" stroke="#bfbfbf" points="546.5,-19 486.5,-19 486.5,0 546.5,0 546.5,-19"/>
<text text-anchor="middle" x="516.5" y="-7" font-family="Helvetica,sans-Serif" font-size="10.00">EvrV2_tb</text>
</a>
</g>
</g>
<!-- Node1&#45;&gt;Node6 -->
<g id="edge5_Node000001_Node000006" class="edge">
<title>Node1&#45;&gt;Node6</title>
<g id="a_edge5_Node000001_Node000006"><a xlink:title=" ">
<path fill="none" stroke="#63b8ff" d="M357.66,-52.38C396.14,-42.24 452.06,-27.49 486.26,-18.47"/>
<polygon fill="#63b8ff" stroke="#63b8ff" points="356.57,-49.05 347.79,-54.98 358.36,-55.82 356.57,-49.05"/>
</a>
</g>
</g>
</g>
</svg>
