<?xml version="1.0" encoding="UTF-8" standalone="no"?>
<!DOCTYPE svg PUBLIC "-//W3C//DTD SVG 1.1//EN"
 "http://www.w3.org/Graphics/SVG/1.1/DTD/svg11.dtd">
<!-- Generated by graphviz version 2.43.0 (0)
 -->
<!-- Title: TimingCore Pages: 1 -->
<svg width="608pt" height="332pt"
 viewBox="0.00 0.00 608.00 332.00" xmlns="http://www.w3.org/2000/svg" xmlns:xlink="http://www.w3.org/1999/xlink">
<g id="graph0" class="graph" transform="scale(1 1) rotate(0) translate(4 328)">
<title>TimingCore</title>
<polygon fill="white" stroke="transparent" points="-4,4 -4,-328 604,-328 604,4 -4,4"/>
<!-- Node1 -->
<g id="node1" class="node">
<title>Node1</title>
<g id="a_node1"><a xlink:title=" ">
<polygon fill="#bfbfbf" stroke="black" points="527,-171.5 527,-190.5 600,-190.5 600,-171.5 527,-171.5"/>
<text text-anchor="middle" x="563.5" y="-178.5" font-family="Helvetica,sans-Serif" font-size="10.00">TimingCore</text>
</a>
</g>
</g>
<!-- Node2 -->
<g id="node2" class="node">
<title>Node2</title>
<g id="a_node2"><a xlink:href="classTimingRx.html" target="_top" xlink:title=" ">
<polygon fill="white" stroke="black" points="408.5,-228.5 408.5,-247.5 471.5,-247.5 471.5,-228.5 408.5,-228.5"/>
<text text-anchor="middle" x="440" y="-235.5" font-family="Helvetica,sans-Serif" font-size="10.00">TimingRx</text>
</a>
</g>
</g>
<!-- Node2&#45;&gt;Node1 -->
<g id="edge1" class="edge">
<title>Node2&#45;&gt;Node1</title>
<path fill="none" stroke="midnightblue" d="M470.62,-224.1C492.79,-213.7 522.54,-199.75 542.1,-190.57"/>
<polygon fill="midnightblue" stroke="midnightblue" points="468.9,-221.04 461.34,-228.46 471.88,-227.38 468.9,-221.04"/>
</g>
<!-- Node3 -->
<g id="node3" class="node">
<title>Node3</title>
<g id="a_node3"><a xlink:href="classTimingStreamRx.html" target="_top" xlink:title=" ">
<polygon fill="white" stroke="black" points="255,-228.5 255,-247.5 353,-247.5 353,-228.5 255,-228.5"/>
<text text-anchor="middle" x="304" y="-235.5" font-family="Helvetica,sans-Serif" font-size="10.00">TimingStreamRx</text>
</a>
</g>
</g>
<!-- Node3&#45;&gt;Node2 -->
<g id="edge2" class="edge">
<title>Node3&#45;&gt;Node2</title>
<path fill="none" stroke="midnightblue" d="M363.4,-238C378.83,-238 394.89,-238 408.22,-238"/>
<polygon fill="midnightblue" stroke="midnightblue" points="363.38,-234.5 353.38,-238 363.38,-241.5 363.38,-234.5"/>
</g>
<!-- Node4 -->
<g id="node4" class="node">
<title>Node4</title>
<g id="a_node4"><a xlink:href="classTimingFrameRx.html" target="_top" xlink:title=" ">
<polygon fill="white" stroke="black" points="257,-266.5 257,-285.5 351,-285.5 351,-266.5 257,-266.5"/>
<text text-anchor="middle" x="304" y="-273.5" font-family="Helvetica,sans-Serif" font-size="10.00">TimingFrameRx</text>
</a>
</g>
</g>
<!-- Node4&#45;&gt;Node2 -->
<g id="edge3" class="edge">
<title>Node4&#45;&gt;Node2</title>
<path fill="none" stroke="midnightblue" d="M348.7,-263.61C368.21,-258.07 390.73,-251.69 408.4,-246.68"/>
<polygon fill="midnightblue" stroke="midnightblue" points="347.48,-260.32 338.81,-266.41 349.39,-267.05 347.48,-260.32"/>
</g>
<!-- Node5 -->
<g id="node5" class="node">
<title>Node5</title>
<g id="a_node5"><a xlink:href="classTimingDeserializer.html" target="_top" xlink:title=" ">
<polygon fill="white" stroke="black" points="110,-266.5 110,-285.5 219,-285.5 219,-266.5 110,-266.5"/>
<text text-anchor="middle" x="164.5" y="-273.5" font-family="Helvetica,sans-Serif" font-size="10.00">TimingDeserializer</text>
</a>
</g>
</g>
<!-- Node5&#45;&gt;Node4 -->
<g id="edge4" class="edge">
<title>Node5&#45;&gt;Node4</title>
<path fill="none" stroke="midnightblue" d="M229.15,-276C238.52,-276 248.03,-276 256.95,-276"/>
<polygon fill="midnightblue" stroke="midnightblue" points="229.05,-272.5 219.05,-276 229.05,-279.5 229.05,-272.5"/>
</g>
<!-- Node6 -->
<g id="node6" class="node">
<title>Node6</title>
<g id="a_node6"><a xlink:href="classTimingSerialDelay.html" target="_top" xlink:title=" ">
<polygon fill="white" stroke="black" points="111,-304.5 111,-323.5 218,-323.5 218,-304.5 111,-304.5"/>
<text text-anchor="middle" x="164.5" y="-311.5" font-family="Helvetica,sans-Serif" font-size="10.00">TimingSerialDelay</text>
</a>
</g>
</g>
<!-- Node6&#45;&gt;Node4 -->
<g id="edge5" class="edge">
<title>Node6&#45;&gt;Node4</title>
<path fill="none" stroke="midnightblue" d="M210.07,-301.68C228.96,-296.46 250.65,-290.47 268.31,-285.59"/>
<polygon fill="midnightblue" stroke="midnightblue" points="208.9,-298.37 200.2,-304.41 210.77,-305.12 208.9,-298.37"/>
</g>
<!-- Node7 -->
<g id="node7" class="node">
<title>Node7</title>
<g id="a_node7"><a xlink:href="classTPGMiniCore.html" target="_top" xlink:title=" ">
<polygon fill="white" stroke="black" points="400,-171.5 400,-190.5 480,-190.5 480,-171.5 400,-171.5"/>
<text text-anchor="middle" x="440" y="-178.5" font-family="Helvetica,sans-Serif" font-size="10.00">TPGMiniCore</text>
</a>
</g>
</g>
<!-- Node7&#45;&gt;Node1 -->
<g id="edge6" class="edge">
<title>Node7&#45;&gt;Node1</title>
<path fill="none" stroke="midnightblue" d="M490.19,-181C502.42,-181 515.31,-181 526.75,-181"/>
<polygon fill="midnightblue" stroke="midnightblue" points="490.11,-177.5 480.11,-181 490.11,-184.5 490.11,-177.5"/>
</g>
<!-- Node8 -->
<g id="node8" class="node">
<title>Node8</title>
<g id="a_node8"><a xlink:href="classTPGMiniReg.html" target="_top" xlink:title=" ">
<polygon fill="white" stroke="black" points="266,-190.5 266,-209.5 342,-209.5 342,-190.5 266,-190.5"/>
<text text-anchor="middle" x="304" y="-197.5" font-family="Helvetica,sans-Serif" font-size="10.00">TPGMiniReg</text>
</a>
</g>
</g>
<!-- Node8&#45;&gt;Node7 -->
<g id="edge7" class="edge">
<title>Node8&#45;&gt;Node7</title>
<path fill="none" stroke="midnightblue" d="M352.23,-193.3C367.69,-191.11 384.7,-188.7 399.53,-186.6"/>
<polygon fill="midnightblue" stroke="midnightblue" points="351.74,-189.84 342.33,-194.71 352.72,-196.77 351.74,-189.84"/>
</g>
<!-- Node9 -->
<g id="node9" class="node">
<title>Node9</title>
<g id="a_node9"><a xlink:href="classTPGMini.html" target="_top" xlink:title=" ">
<polygon fill="white" stroke="black" points="275.5,-152.5 275.5,-171.5 332.5,-171.5 332.5,-152.5 275.5,-152.5"/>
<text text-anchor="middle" x="304" y="-159.5" font-family="Helvetica,sans-Serif" font-size="10.00">TPGMini</text>
</a>
</g>
</g>
<!-- Node9&#45;&gt;Node7 -->
<g id="edge8" class="edge">
<title>Node9&#45;&gt;Node7</title>
<path fill="none" stroke="midnightblue" d="M342.81,-167.36C360.62,-169.89 381.86,-172.9 399.84,-175.45"/>
<polygon fill="midnightblue" stroke="midnightblue" points="343.16,-163.88 332.76,-165.94 342.17,-170.81 343.16,-163.88"/>
</g>
<!-- Node10 -->
<g id="node10" class="node">
<title>Node10</title>
<g id="a_node10"><a xlink:href="classDivider.html" target="_top" xlink:title=" ">
<polygon fill="white" stroke="black" points="138.5,-114.5 138.5,-133.5 190.5,-133.5 190.5,-114.5 138.5,-114.5"/>
<text text-anchor="middle" x="164.5" y="-121.5" font-family="Helvetica,sans-Serif" font-size="10.00">Divider</text>
</a>
</g>
</g>
<!-- Node10&#45;&gt;Node9 -->
<g id="edge9" class="edge">
<title>Node10&#45;&gt;Node9</title>
<path fill="none" stroke="midnightblue" d="M200.5,-133.67C223.64,-140.07 253.57,-148.34 275.1,-154.29"/>
<polygon fill="midnightblue" stroke="midnightblue" points="201.29,-130.26 190.72,-130.97 199.43,-137.01 201.29,-130.26"/>
</g>
<!-- Node16 -->
<g id="node16" class="node">
<title>Node16</title>
<g id="a_node16"><a xlink:href="classTPGMiniStream.html" target="_top" xlink:title=" ">
<polygon fill="white" stroke="black" points="258,-76.5 258,-95.5 350,-95.5 350,-76.5 258,-76.5"/>
<text text-anchor="middle" x="304" y="-83.5" font-family="Helvetica,sans-Serif" font-size="10.00">TPGMiniStream</text>
</a>
</g>
</g>
<!-- Node10&#45;&gt;Node16 -->
<g id="edge16" class="edge">
<title>Node10&#45;&gt;Node16</title>
<path fill="none" stroke="midnightblue" d="M200.49,-114.33C221.39,-108.55 247.83,-101.25 268.62,-95.5"/>
<polygon fill="midnightblue" stroke="midnightblue" points="199.43,-110.99 190.72,-117.03 201.29,-117.74 199.43,-110.99"/>
</g>
<!-- Node11 -->
<g id="node11" class="node">
<title>Node11</title>
<g id="a_node11"><a xlink:href="classBsaControl.html" target="_top" xlink:title=" ">
<polygon fill="white" stroke="black" points="129.5,-152.5 129.5,-171.5 199.5,-171.5 199.5,-152.5 129.5,-152.5"/>
<text text-anchor="middle" x="164.5" y="-159.5" font-family="Helvetica,sans-Serif" font-size="10.00">BsaControl</text>
</a>
</g>
</g>
<!-- Node11&#45;&gt;Node9 -->
<g id="edge10" class="edge">
<title>Node11&#45;&gt;Node9</title>
<path fill="none" stroke="midnightblue" d="M210.02,-162C231.42,-162 256.41,-162 275.09,-162"/>
<polygon fill="midnightblue" stroke="midnightblue" points="209.84,-158.5 199.84,-162 209.84,-165.5 209.84,-158.5"/>
</g>
<!-- Node12 -->
<g id="node12" class="node">
<title>Node12</title>
<g id="a_node12"><a xlink:href="classEventSelect.html" target="_top" xlink:title=" ">
<polygon fill="white" stroke="black" points="0,-152.5 0,-171.5 74,-171.5 74,-152.5 0,-152.5"/>
<text text-anchor="middle" x="37" y="-159.5" font-family="Helvetica,sans-Serif" font-size="10.00">EventSelect</text>
</a>
</g>
</g>
<!-- Node12&#45;&gt;Node11 -->
<g id="edge11" class="edge">
<title>Node12&#45;&gt;Node11</title>
<path fill="none" stroke="midnightblue" d="M84.38,-162C99.3,-162 115.56,-162 129.43,-162"/>
<polygon fill="midnightblue" stroke="midnightblue" points="84.3,-158.5 74.3,-162 84.3,-165.5 84.3,-158.5"/>
</g>
<!-- Node13 -->
<g id="node13" class="node">
<title>Node13</title>
<g id="a_node13"><a xlink:href="classTimingSerializer.html" target="_top" xlink:title=" ">
<polygon fill="white" stroke="black" points="116.5,-228.5 116.5,-247.5 212.5,-247.5 212.5,-228.5 116.5,-228.5"/>
<text text-anchor="middle" x="164.5" y="-235.5" font-family="Helvetica,sans-Serif" font-size="10.00">TimingSerializer</text>
</a>
</g>
</g>
<!-- Node13&#45;&gt;Node9 -->
<g id="edge12" class="edge">
<title>Node13&#45;&gt;Node9</title>
<path fill="none" stroke="midnightblue" d="M209.21,-224.47C212.62,-222.82 215.93,-221 219,-219 238.5,-206.31 235.73,-194.03 255,-181 261.16,-176.83 268.37,-173.37 275.31,-170.59"/>
<polygon fill="midnightblue" stroke="midnightblue" points="207.81,-221.26 200.03,-228.44 210.6,-227.68 207.81,-221.26"/>
</g>
<!-- Node14 -->
<g id="node14" class="node">
<title>Node14</title>
<g id="a_node14"><a xlink:href="classTPSerializer.html" target="_top" xlink:title=" ">
<polygon fill="white" stroke="black" points="127.5,-190.5 127.5,-209.5 201.5,-209.5 201.5,-190.5 127.5,-190.5"/>
<text text-anchor="middle" x="164.5" y="-197.5" font-family="Helvetica,sans-Serif" font-size="10.00">TPSerializer</text>
</a>
</g>
</g>
<!-- Node14&#45;&gt;Node9 -->
<g id="edge13" class="edge">
<title>Node14&#45;&gt;Node9</title>
<path fill="none" stroke="midnightblue" d="M210.07,-187.68C231.52,-181.76 256.56,-174.84 275.24,-169.67"/>
<polygon fill="midnightblue" stroke="midnightblue" points="208.9,-184.37 200.2,-190.41 210.77,-191.12 208.9,-184.37"/>
</g>
<!-- Node15 -->
<g id="node15" class="node">
<title>Node15</title>
<g id="a_node15"><a xlink:href="classClockTime.html" target="_top" xlink:title=" ">
<polygon fill="white" stroke="black" points="130.5,-76.5 130.5,-95.5 198.5,-95.5 198.5,-76.5 130.5,-76.5"/>
<text text-anchor="middle" x="164.5" y="-83.5" font-family="Helvetica,sans-Serif" font-size="10.00">ClockTime</text>
</a>
</g>
</g>
<!-- Node15&#45;&gt;Node9 -->
<g id="edge14" class="edge">
<title>Node15&#45;&gt;Node9</title>
<path fill="none" stroke="midnightblue" d="M206.2,-99.22C210.59,-101.01 214.93,-102.94 219,-105 246.36,-118.85 275.33,-140.21 291.09,-152.47"/>
<polygon fill="midnightblue" stroke="midnightblue" points="207.21,-95.85 196.62,-95.54 204.7,-102.39 207.21,-95.85"/>
</g>
<!-- Node15&#45;&gt;Node16 -->
<g id="edge18" class="edge">
<title>Node15&#45;&gt;Node16</title>
<path fill="none" stroke="midnightblue" d="M209.16,-86C224.68,-86 242.17,-86 257.81,-86"/>
<polygon fill="midnightblue" stroke="midnightblue" points="208.78,-82.5 198.78,-86 208.78,-89.5 208.78,-82.5"/>
</g>
<!-- Node16&#45;&gt;Node7 -->
<g id="edge15" class="edge">
<title>Node16&#45;&gt;Node7</title>
<path fill="none" stroke="midnightblue" d="M320.3,-103.17C336.11,-120.04 362.19,-145.59 389,-162 395.02,-165.68 401.87,-168.86 408.53,-171.49"/>
<polygon fill="midnightblue" stroke="midnightblue" points="322.75,-100.66 313.41,-95.66 317.59,-105.39 322.75,-100.66"/>
</g>
<!-- Node17 -->
<g id="node17" class="node">
<title>Node17</title>
<g id="a_node17"><a xlink:href="classTimingStreamTx.html" target="_top" xlink:title=" ">
<polygon fill="white" stroke="black" points="115.5,-38.5 115.5,-57.5 213.5,-57.5 213.5,-38.5 115.5,-38.5"/>
<text text-anchor="middle" x="164.5" y="-45.5" font-family="Helvetica,sans-Serif" font-size="10.00">TimingStreamTx</text>
</a>
</g>
</g>
<!-- Node17&#45;&gt;Node16 -->
<g id="edge17" class="edge">
<title>Node17&#45;&gt;Node16</title>
<path fill="none" stroke="midnightblue" d="M210.07,-60.32C228.96,-65.54 250.65,-71.53 268.31,-76.41"/>
<polygon fill="midnightblue" stroke="midnightblue" points="210.77,-56.88 200.2,-57.59 208.9,-63.63 210.77,-56.88"/>
</g>
<!-- Node18 -->
<g id="node18" class="node">
<title>Node18</title>
<g id="a_node18"><a xlink:href="classTPGMiniEdef.html" target="_top" xlink:title=" ">
<polygon fill="white" stroke="black" points="125,-0.5 125,-19.5 204,-19.5 204,-0.5 125,-0.5"/>
<text text-anchor="middle" x="164.5" y="-7.5" font-family="Helvetica,sans-Serif" font-size="10.00">TPGMiniEdef</text>
</a>
</g>
</g>
<!-- Node18&#45;&gt;Node16 -->
<g id="edge19" class="edge">
<title>Node18&#45;&gt;Node16</title>
<path fill="none" stroke="midnightblue" d="M206.2,-23.22C210.59,-25.01 214.93,-26.94 219,-29 246.36,-42.85 275.33,-64.21 291.09,-76.47"/>
<polygon fill="midnightblue" stroke="midnightblue" points="207.21,-19.85 196.62,-19.54 204.7,-26.39 207.21,-19.85"/>
</g>
<!-- Node19 -->
<g id="node19" class="node">
<title>Node19</title>
<g id="a_node19"><a xlink:href="classEthTimingModule.html" target="_top" xlink:title=" ">
<polygon fill="white" stroke="black" points="389,-133.5 389,-152.5 491,-152.5 491,-133.5 389,-133.5"/>
<text text-anchor="middle" x="440" y="-140.5" font-family="Helvetica,sans-Serif" font-size="10.00">EthTimingModule</text>
</a>
</g>
</g>
<!-- Node19&#45;&gt;Node1 -->
<g id="edge20" class="edge">
<title>Node19&#45;&gt;Node1</title>
<path fill="none" stroke="midnightblue" d="M481.54,-155.68C497.96,-160.81 516.6,-166.64 531.85,-171.41"/>
<polygon fill="midnightblue" stroke="midnightblue" points="482.25,-152.23 471.66,-152.59 480.16,-158.91 482.25,-152.23"/>
</g>
</g>
</svg>
