<?xml version="1.0" encoding="UTF-8" standalone="no"?>
<!DOCTYPE svg PUBLIC "-//W3C//DTD SVG 1.1//EN"
 "http://www.w3.org/Graphics/SVG/1.1/DTD/svg11.dtd">
<!-- Generated by graphviz version 2.43.0 (0)
 -->
<!-- Title: EvrV2FromV1 Pages: 1 -->
<svg width="214pt" height="82pt"
 viewBox="0.00 0.00 213.50 82.00" xmlns="http://www.w3.org/2000/svg" xmlns:xlink="http://www.w3.org/1999/xlink">
<g id="graph0" class="graph" transform="scale(1 1) rotate(0) translate(4 78)">
<title>EvrV2FromV1</title>
<!-- Node1 -->
<g id="Node000001" class="node">
<title>Node1</title>
<g id="a_Node000001"><a xlink:title=" ">
<polygon fill="#999999" stroke="#666666" points="150.5,-74 67.5,-74 67.5,-55 150.5,-55 150.5,-74"/>
<text text-anchor="middle" x="109" y="-62" font-family="Helvetica,sans-Serif" font-size="10.00">EvrV2FromV1</text>
</a>
</g>
</g>
<!-- Node2 -->
<g id="Node000002" class="node">
<title>Node2</title>
<g id="a_Node000002"><a xlink:href="classEvrV2CoreTriggers.html" target="_top" xlink:title=" ">
<polygon fill="white" stroke="#bfbfbf" points="106,-19 0,-19 0,0 106,0 106,-19"/>
<text text-anchor="middle" x="53" y="-7" font-family="Helvetica,sans-Serif" font-size="10.00">EvrV2CoreTriggers</text>
</a>
</g>
</g>
<!-- Node1&#45;&gt;Node2 -->
<g id="edge1_Node000001_Node000002" class="edge">
<title>Node1&#45;&gt;Node2</title>
<g id="a_edge1_Node000001_Node000002"><a xlink:title=" ">
<path fill="none" stroke="#63b8ff" d="M92.67,-48.04C82.74,-38.64 70.41,-26.98 62.16,-19.17"/>
<polygon fill="#63b8ff" stroke="#63b8ff" points="90.33,-50.65 100,-54.98 95.15,-45.57 90.33,-50.65"/>
</a>
</g>
</g>
<!-- Node3 -->
<g id="Node000003" class="node">
<title>Node3</title>
<g id="a_Node000003"><a xlink:href="classEvrV2Module.html" target="_top" xlink:title=" ">
<polygon fill="white" stroke="#bfbfbf" points="205.5,-19 124.5,-19 124.5,0 205.5,0 205.5,-19"/>
<text text-anchor="middle" x="165" y="-7" font-family="Helvetica,sans-Serif" font-size="10.00">EvrV2Module</text>
</a>
</g>
</g>
<!-- Node1&#45;&gt;Node3 -->
<g id="edge2_Node000001_Node000003" class="edge">
<title>Node1&#45;&gt;Node3</title>
<g id="a_edge2_Node000001_Node000003"><a xlink:title=" ">
<path fill="none" stroke="#63b8ff" d="M125.33,-48.04C135.26,-38.64 147.59,-26.98 155.84,-19.17"/>
<polygon fill="#63b8ff" stroke="#63b8ff" points="122.85,-45.57 118,-54.98 127.67,-50.65 122.85,-45.57"/>
</a>
</g>
</g>
</g>
</svg>
