<?xml version="1.0" encoding="UTF-8" standalone="no"?>
<!DOCTYPE svg PUBLIC "-//W3C//DTD SVG 1.1//EN"
 "http://www.w3.org/Graphics/SVG/1.1/DTD/svg11.dtd">
<!-- Generated by graphviz version 2.43.0 (0)
 -->
<!-- Title: EvrV1EventReceiver Pages: 1 -->
<svg width="409pt" height="140pt"
 viewBox="0.00 0.00 408.50 140.00" xmlns="http://www.w3.org/2000/svg" xmlns:xlink="http://www.w3.org/1999/xlink">
<g id="graph0" class="graph" transform="scale(1 1) rotate(0) translate(4 136)">
<title>EvrV1EventReceiver</title>
<polygon fill="white" stroke="transparent" points="-4,4 -4,-136 404.5,-136 404.5,4 -4,4"/>
<!-- Node1 -->
<g id="node1" class="node">
<title>Node1</title>
<g id="a_node1"><a xlink:title=" ">
<polygon fill="#bfbfbf" stroke="black" points="157,-56.5 157,-75.5 273,-75.5 273,-56.5 157,-56.5"/>
<text text-anchor="middle" x="215" y="-63.5" font-family="Helvetica,sans-Serif" font-size="10.00">EvrV1EventReceiver</text>
</a>
</g>
</g>
<!-- Node5 -->
<g id="node5" class="node">
<title>Node5</title>
<g id="a_node5"><a xlink:href="classEvrV1Core.html" target="_top" xlink:title=" ">
<polygon fill="white" stroke="black" points="181,-0.5 181,-19.5 249,-19.5 249,-0.5 181,-0.5"/>
<text text-anchor="middle" x="215" y="-7.5" font-family="Helvetica,sans-Serif" font-size="10.00">EvrV1Core</text>
</a>
</g>
</g>
<!-- Node1&#45;&gt;Node5 -->
<g id="edge4" class="edge">
<title>Node1&#45;&gt;Node5</title>
<path fill="none" stroke="midnightblue" d="M215,-45.8C215,-36.91 215,-26.78 215,-19.75"/>
<polygon fill="midnightblue" stroke="midnightblue" points="211.5,-46.08 215,-56.08 218.5,-46.08 211.5,-46.08"/>
</g>
<!-- Node2 -->
<g id="node2" class="node">
<title>Node2</title>
<g id="a_node2"><a xlink:href="classEvrV1TimeStampFIFO.html" target="_top" xlink:title=" ">
<polygon fill="white" stroke="black" points="0,-112.5 0,-131.5 124,-131.5 124,-112.5 0,-112.5"/>
<text text-anchor="middle" x="62" y="-119.5" font-family="Helvetica,sans-Serif" font-size="10.00">EvrV1TimeStampFIFO</text>
</a>
</g>
</g>
<!-- Node2&#45;&gt;Node1 -->
<g id="edge1" class="edge">
<title>Node2&#45;&gt;Node1</title>
<path fill="none" stroke="midnightblue" d="M95.89,-109.04C124.68,-98.88 165.29,-84.55 190.87,-75.52"/>
<polygon fill="midnightblue" stroke="midnightblue" points="94.51,-105.81 86.24,-112.44 96.84,-112.42 94.51,-105.81"/>
</g>
<!-- Node3 -->
<g id="node3" class="node">
<title>Node3</title>
<g id="a_node3"><a xlink:href="classEvrV1EventRAM256x32.html" target="_top" xlink:title=" ">
<polygon fill="white" stroke="black" points="142.5,-112.5 142.5,-131.5 287.5,-131.5 287.5,-112.5 142.5,-112.5"/>
<text text-anchor="middle" x="215" y="-119.5" font-family="Helvetica,sans-Serif" font-size="10.00">EvrV1EventRAM256x32(4)</text>
</a>
</g>
</g>
<!-- Node3&#45;&gt;Node1 -->
<g id="edge2" class="edge">
<title>Node3&#45;&gt;Node1</title>
<path fill="none" stroke="midnightblue" d="M215,-101.8C215,-92.91 215,-82.78 215,-75.75"/>
<polygon fill="midnightblue" stroke="midnightblue" points="211.5,-102.08 215,-112.08 218.5,-102.08 211.5,-102.08"/>
</g>
<!-- Node4 -->
<g id="node4" class="node">
<title>Node4</title>
<g id="a_node4"><a xlink:href="classEvrV1HeartBeat.html" target="_top" xlink:title=" ">
<polygon fill="white" stroke="black" points="305.5,-112.5 305.5,-131.5 400.5,-131.5 400.5,-112.5 305.5,-112.5"/>
<text text-anchor="middle" x="353" y="-119.5" font-family="Helvetica,sans-Serif" font-size="10.00">EvrV1HeartBeat</text>
</a>
</g>
</g>
<!-- Node4&#45;&gt;Node1 -->
<g id="edge3" class="edge">
<title>Node4&#45;&gt;Node1</title>
<path fill="none" stroke="midnightblue" d="M321.75,-108.77C295.83,-98.63 259.64,-84.47 236.76,-75.52"/>
<polygon fill="midnightblue" stroke="midnightblue" points="320.55,-112.06 331.13,-112.44 323.1,-105.54 320.55,-112.06"/>
</g>
</g>
</svg>
