<?xml version="1.0" encoding="UTF-8" standalone="no"?>
<!DOCTYPE svg PUBLIC "-//W3C//DTD SVG 1.1//EN"
 "http://www.w3.org/Graphics/SVG/1.1/DTD/svg11.dtd">
<!-- Generated by graphviz version 2.43.0 (0)
 -->
<!-- Title: TimingFrameRx Pages: 1 -->
<svg width="242pt" height="196pt"
 viewBox="0.00 0.00 242.00 196.00" xmlns="http://www.w3.org/2000/svg" xmlns:xlink="http://www.w3.org/1999/xlink">
<g id="graph0" class="graph" transform="scale(1 1) rotate(0) translate(4 192)">
<title>TimingFrameRx</title>
<polygon fill="white" stroke="transparent" points="-4,4 -4,-192 238,-192 238,4 -4,4"/>
<!-- Node1 -->
<g id="node1" class="node">
<title>Node1</title>
<g id="a_node1"><a xlink:title=" ">
<polygon fill="#bfbfbf" stroke="black" points="70.5,-112.5 70.5,-131.5 164.5,-131.5 164.5,-112.5 70.5,-112.5"/>
<text text-anchor="middle" x="117.5" y="-119.5" font-family="Helvetica,sans-Serif" font-size="10.00">TimingFrameRx</text>
</a>
</g>
</g>
<!-- Node4 -->
<g id="node4" class="node">
<title>Node4</title>
<g id="a_node4"><a xlink:href="classTimingRx.html" target="_top" xlink:title=" ">
<polygon fill="white" stroke="black" points="86,-56.5 86,-75.5 149,-75.5 149,-56.5 86,-56.5"/>
<text text-anchor="middle" x="117.5" y="-63.5" font-family="Helvetica,sans-Serif" font-size="10.00">TimingRx</text>
</a>
</g>
</g>
<!-- Node1&#45;&gt;Node4 -->
<g id="edge3" class="edge">
<title>Node1&#45;&gt;Node4</title>
<path fill="none" stroke="midnightblue" d="M117.5,-101.8C117.5,-92.91 117.5,-82.78 117.5,-75.75"/>
<polygon fill="midnightblue" stroke="midnightblue" points="114,-102.08 117.5,-112.08 121,-102.08 114,-102.08"/>
</g>
<!-- Node2 -->
<g id="node2" class="node">
<title>Node2</title>
<g id="a_node2"><a xlink:href="classTimingDeserializer.html" target="_top" xlink:title=" ">
<polygon fill="white" stroke="black" points="0,-168.5 0,-187.5 109,-187.5 109,-168.5 0,-168.5"/>
<text text-anchor="middle" x="54.5" y="-175.5" font-family="Helvetica,sans-Serif" font-size="10.00">TimingDeserializer</text>
</a>
</g>
</g>
<!-- Node2&#45;&gt;Node1 -->
<g id="edge1" class="edge">
<title>Node2&#45;&gt;Node1</title>
<path fill="none" stroke="midnightblue" d="M72.54,-161.54C83.77,-151.91 97.82,-139.87 107.19,-131.83"/>
<polygon fill="midnightblue" stroke="midnightblue" points="69.94,-159.16 64.62,-168.32 74.49,-164.47 69.94,-159.16"/>
</g>
<!-- Node3 -->
<g id="node3" class="node">
<title>Node3</title>
<g id="a_node3"><a xlink:href="classTimingSerialDelay.html" target="_top" xlink:title=" ">
<polygon fill="white" stroke="black" points="127,-168.5 127,-187.5 234,-187.5 234,-168.5 127,-168.5"/>
<text text-anchor="middle" x="180.5" y="-175.5" font-family="Helvetica,sans-Serif" font-size="10.00">TimingSerialDelay</text>
</a>
</g>
</g>
<!-- Node3&#45;&gt;Node1 -->
<g id="edge2" class="edge">
<title>Node3&#45;&gt;Node1</title>
<path fill="none" stroke="midnightblue" d="M162.46,-161.54C151.23,-151.91 137.18,-139.87 127.81,-131.83"/>
<polygon fill="midnightblue" stroke="midnightblue" points="160.51,-164.47 170.38,-168.32 165.06,-159.16 160.51,-164.47"/>
</g>
<!-- Node5 -->
<g id="node5" class="node">
<title>Node5</title>
<g id="a_node5"><a xlink:href="classTimingCore.html" target="_top" xlink:title=" ">
<polygon fill="white" stroke="black" points="81,-0.5 81,-19.5 154,-19.5 154,-0.5 81,-0.5"/>
<text text-anchor="middle" x="117.5" y="-7.5" font-family="Helvetica,sans-Serif" font-size="10.00">TimingCore</text>
</a>
</g>
</g>
<!-- Node4&#45;&gt;Node5 -->
<g id="edge4" class="edge">
<title>Node4&#45;&gt;Node5</title>
<path fill="none" stroke="midnightblue" d="M117.5,-45.8C117.5,-36.91 117.5,-26.78 117.5,-19.75"/>
<polygon fill="midnightblue" stroke="midnightblue" points="114,-46.08 117.5,-56.08 121,-46.08 114,-46.08"/>
</g>
</g>
</svg>
