<?xml version="1.0" encoding="UTF-8" standalone="no"?>
<!DOCTYPE svg PUBLIC "-//W3C//DTD SVG 1.1//EN"
 "http://www.w3.org/Graphics/SVG/1.1/DTD/svg11.dtd">
<!-- Generated by graphviz version 2.43.0 (0)
 -->
<!-- Title: TPGMini Pages: 1 -->
<svg width="454pt" height="140pt"
 viewBox="0.00 0.00 453.50 140.00" xmlns="http://www.w3.org/2000/svg" xmlns:xlink="http://www.w3.org/1999/xlink">
<g id="graph0" class="graph" transform="scale(1 1) rotate(0) translate(4 136)">
<title>TPGMini</title>
<polygon fill="white" stroke="transparent" points="-4,4 -4,-136 449.5,-136 449.5,4 -4,4"/>
<!-- Node1 -->
<g id="node1" class="node">
<title>Node1</title>
<g id="a_node1"><a xlink:title=" ">
<polygon fill="#bfbfbf" stroke="black" points="191,-0.5 191,-19.5 248,-19.5 248,-0.5 191,-0.5"/>
<text text-anchor="middle" x="219.5" y="-7.5" font-family="Helvetica,sans-Serif" font-size="10.00">TPGMini</text>
</a>
</g>
</g>
<!-- Node2 -->
<g id="node2" class="node">
<title>Node2</title>
<g id="a_node2"><a xlink:href="classDivider.html" target="_top" xlink:title=" ">
<polygon fill="white" stroke="black" points="0,-56.5 0,-75.5 65,-75.5 65,-56.5 0,-56.5"/>
<text text-anchor="middle" x="32.5" y="-63.5" font-family="Helvetica,sans-Serif" font-size="10.00">Divider(2)</text>
</a>
</g>
</g>
<!-- Node2&#45;&gt;Node1 -->
<g id="edge1" class="edge">
<title>Node2&#45;&gt;Node1</title>
<path fill="none" stroke="midnightblue" d="M72.18,-53.54C107.8,-43.26 159.21,-28.41 190.93,-19.25"/>
<polygon fill="midnightblue" stroke="midnightblue" points="70.77,-50.31 62.13,-56.44 72.71,-57.03 70.77,-50.31"/>
</g>
<!-- Node3 -->
<g id="node3" class="node">
<title>Node3</title>
<g id="a_node3"><a xlink:href="classBsaControl.html" target="_top" xlink:title=" ">
<polygon fill="white" stroke="black" points="83.5,-56.5 83.5,-75.5 153.5,-75.5 153.5,-56.5 83.5,-56.5"/>
<text text-anchor="middle" x="118.5" y="-63.5" font-family="Helvetica,sans-Serif" font-size="10.00">BsaControl</text>
</a>
</g>
</g>
<!-- Node3&#45;&gt;Node1 -->
<g id="edge2" class="edge">
<title>Node3&#45;&gt;Node1</title>
<path fill="none" stroke="midnightblue" d="M143.58,-51.59C162.26,-41.61 187.2,-28.27 203.31,-19.65"/>
<polygon fill="midnightblue" stroke="midnightblue" points="141.9,-48.52 134.73,-56.32 145.2,-54.7 141.9,-48.52"/>
</g>
<!-- Node4 -->
<g id="node4" class="node">
<title>Node4</title>
<g id="a_node4"><a xlink:href="classEventSelect.html" target="_top" xlink:title=" ">
<polygon fill="white" stroke="black" points="74.5,-112.5 74.5,-131.5 162.5,-131.5 162.5,-112.5 74.5,-112.5"/>
<text text-anchor="middle" x="118.5" y="-119.5" font-family="Helvetica,sans-Serif" font-size="10.00">EventSelect(2)</text>
</a>
</g>
</g>
<!-- Node4&#45;&gt;Node3 -->
<g id="edge3" class="edge">
<title>Node4&#45;&gt;Node3</title>
<path fill="none" stroke="midnightblue" d="M118.5,-101.8C118.5,-92.91 118.5,-82.78 118.5,-75.75"/>
<polygon fill="midnightblue" stroke="midnightblue" points="115,-102.08 118.5,-112.08 122,-102.08 115,-102.08"/>
</g>
<!-- Node5 -->
<g id="node5" class="node">
<title>Node5</title>
<g id="a_node5"><a xlink:href="classTimingSerializer.html" target="_top" xlink:title=" ">
<polygon fill="white" stroke="black" points="171.5,-56.5 171.5,-75.5 267.5,-75.5 267.5,-56.5 171.5,-56.5"/>
<text text-anchor="middle" x="219.5" y="-63.5" font-family="Helvetica,sans-Serif" font-size="10.00">TimingSerializer</text>
</a>
</g>
</g>
<!-- Node5&#45;&gt;Node1 -->
<g id="edge4" class="edge">
<title>Node5&#45;&gt;Node1</title>
<path fill="none" stroke="midnightblue" d="M219.5,-45.8C219.5,-36.91 219.5,-26.78 219.5,-19.75"/>
<polygon fill="midnightblue" stroke="midnightblue" points="216,-46.08 219.5,-56.08 223,-46.08 216,-46.08"/>
</g>
<!-- Node6 -->
<g id="node6" class="node">
<title>Node6</title>
<g id="a_node6"><a xlink:href="classTPSerializer.html" target="_top" xlink:title=" ">
<polygon fill="white" stroke="black" points="285.5,-56.5 285.5,-75.5 359.5,-75.5 359.5,-56.5 285.5,-56.5"/>
<text text-anchor="middle" x="322.5" y="-63.5" font-family="Helvetica,sans-Serif" font-size="10.00">TPSerializer</text>
</a>
</g>
</g>
<!-- Node6&#45;&gt;Node1 -->
<g id="edge5" class="edge">
<title>Node6&#45;&gt;Node1</title>
<path fill="none" stroke="midnightblue" d="M296.92,-51.59C277.88,-41.61 252.44,-28.27 236.01,-19.65"/>
<polygon fill="midnightblue" stroke="midnightblue" points="295.47,-54.78 305.95,-56.32 298.72,-48.58 295.47,-54.78"/>
</g>
<!-- Node7 -->
<g id="node7" class="node">
<title>Node7</title>
<g id="a_node7"><a xlink:href="classClockTime.html" target="_top" xlink:title=" ">
<polygon fill="white" stroke="black" points="377.5,-56.5 377.5,-75.5 445.5,-75.5 445.5,-56.5 377.5,-56.5"/>
<text text-anchor="middle" x="411.5" y="-63.5" font-family="Helvetica,sans-Serif" font-size="10.00">ClockTime</text>
</a>
</g>
</g>
<!-- Node7&#45;&gt;Node1 -->
<g id="edge6" class="edge">
<title>Node7&#45;&gt;Node1</title>
<path fill="none" stroke="midnightblue" d="M371.17,-53.66C334.35,-43.3 280.85,-28.25 248.21,-19.08"/>
<polygon fill="midnightblue" stroke="midnightblue" points="370.5,-57.11 381.08,-56.44 372.4,-50.37 370.5,-57.11"/>
</g>
</g>
</svg>
