<?xml version="1.0" encoding="UTF-8" standalone="no"?>
<!DOCTYPE svg PUBLIC "-//W3C//DTD SVG 1.1//EN"
 "http://www.w3.org/Graphics/SVG/1.1/DTD/svg11.dtd">
<!-- Generated by graphviz version 2.43.0 (0)
 -->
<!-- Title: EvrV2CoreTriggers Pages: 1 -->
<svg width="260pt" height="218pt"
 viewBox="0.00 0.00 260.00 218.00" xmlns="http://www.w3.org/2000/svg" xmlns:xlink="http://www.w3.org/1999/xlink">
<g id="graph0" class="graph" transform="scale(1 1) rotate(0) translate(4 214)">
<title>EvrV2CoreTriggers</title>
<polygon fill="white" stroke="transparent" points="-4,4 -4,-214 256,-214 256,4 -4,4"/>
<!-- Node1 -->
<g id="node1" class="node">
<title>Node1</title>
<g id="a_node1"><a xlink:title=" ">
<polygon fill="#bfbfbf" stroke="black" points="146,-95.5 146,-114.5 252,-114.5 252,-95.5 146,-95.5"/>
<text text-anchor="middle" x="199" y="-102.5" font-family="Helvetica,sans-Serif" font-size="10.00">EvrV2CoreTriggers</text>
</a>
</g>
</g>
<!-- Node2 -->
<g id="node2" class="node">
<title>Node2</title>
<g id="a_node2"><a xlink:href="classEvrV2TrigReg.html" target="_top" xlink:title=" ">
<polygon fill="white" stroke="black" points="14.5,-190.5 14.5,-209.5 95.5,-209.5 95.5,-190.5 14.5,-190.5"/>
<text text-anchor="middle" x="55" y="-197.5" font-family="Helvetica,sans-Serif" font-size="10.00">EvrV2TrigReg</text>
</a>
</g>
</g>
<!-- Node2&#45;&gt;Node1 -->
<g id="edge1" class="edge">
<title>Node2&#45;&gt;Node1</title>
<path fill="none" stroke="midnightblue" d="M98.98,-186.56C102.79,-184.87 106.52,-183.02 110,-181 142.48,-162.17 174.22,-130.58 189.15,-114.72"/>
<polygon fill="midnightblue" stroke="midnightblue" points="97.38,-183.44 89.42,-190.44 100.01,-189.92 97.38,-183.44"/>
</g>
<!-- Node3 -->
<g id="node3" class="node">
<title>Node3</title>
<g id="a_node3"><a xlink:href="classEvrV2ChannelReg.html" target="_top" xlink:title=" ">
<polygon fill="white" stroke="black" points="3,-152.5 3,-171.5 107,-171.5 107,-152.5 3,-152.5"/>
<text text-anchor="middle" x="55" y="-159.5" font-family="Helvetica,sans-Serif" font-size="10.00">EvrV2ChannelReg</text>
</a>
</g>
</g>
<!-- Node3&#45;&gt;Node1 -->
<g id="edge2" class="edge">
<title>Node3&#45;&gt;Node1</title>
<path fill="none" stroke="midnightblue" d="M94,-149C99.39,-147.05 104.85,-145.01 110,-143 133.09,-133.96 159.11,-122.57 176.83,-114.63"/>
<polygon fill="midnightblue" stroke="midnightblue" points="92.69,-145.75 84.44,-152.41 95.04,-152.35 92.69,-145.75"/>
</g>
<!-- Node4 -->
<g id="node4" class="node">
<title>Node4</title>
<g id="a_node4"><a xlink:href="classEvrV2EventSelect.html" target="_top" xlink:title=" ">
<polygon fill="white" stroke="black" points="3.5,-114.5 3.5,-133.5 106.5,-133.5 106.5,-114.5 3.5,-114.5"/>
<text text-anchor="middle" x="55" y="-121.5" font-family="Helvetica,sans-Serif" font-size="10.00">EvrV2EventSelect</text>
</a>
</g>
</g>
<!-- Node4&#45;&gt;Node1 -->
<g id="edge3" class="edge">
<title>Node4&#45;&gt;Node1</title>
<path fill="none" stroke="midnightblue" d="M117.05,-115.83C126.55,-114.56 136.29,-113.26 145.58,-112.01"/>
<polygon fill="midnightblue" stroke="midnightblue" points="116.31,-112.4 106.86,-117.19 117.24,-119.34 116.31,-112.4"/>
</g>
<!-- Node5 -->
<g id="node5" class="node">
<title>Node5</title>
<g id="a_node5"><a xlink:href="classEvrV2Trigger.html" target="_top" xlink:title=" ">
<polygon fill="white" stroke="black" points="16,-76.5 16,-95.5 94,-95.5 94,-76.5 16,-76.5"/>
<text text-anchor="middle" x="55" y="-83.5" font-family="Helvetica,sans-Serif" font-size="10.00">EvrV2Trigger</text>
</a>
</g>
</g>
<!-- Node5&#45;&gt;Node1 -->
<g id="edge4" class="edge">
<title>Node5&#45;&gt;Node1</title>
<path fill="none" stroke="midnightblue" d="M104.08,-92.43C117.56,-94.24 132.27,-96.2 145.96,-98.04"/>
<polygon fill="midnightblue" stroke="midnightblue" points="104.43,-88.95 94.05,-91.09 103.5,-95.89 104.43,-88.95"/>
</g>
<!-- Node6 -->
<g id="node6" class="node">
<title>Node6</title>
<g id="a_node6"><a xlink:href="classEvrV2TriggerCompl.html" target="_top" xlink:title=" ">
<polygon fill="white" stroke="black" points="0,-38.5 0,-57.5 110,-57.5 110,-38.5 0,-38.5"/>
<text text-anchor="middle" x="55" y="-45.5" font-family="Helvetica,sans-Serif" font-size="10.00">EvrV2TriggerCompl</text>
</a>
</g>
</g>
<!-- Node6&#45;&gt;Node1 -->
<g id="edge5" class="edge">
<title>Node6&#45;&gt;Node1</title>
<path fill="none" stroke="midnightblue" d="M94,-61C99.39,-62.95 104.85,-64.99 110,-67 133.09,-76.04 159.11,-87.43 176.83,-95.37"/>
<polygon fill="midnightblue" stroke="midnightblue" points="95.04,-57.65 84.44,-57.59 92.69,-64.25 95.04,-57.65"/>
</g>
<!-- Node7 -->
<g id="node7" class="node">
<title>Node7</title>
<g id="a_node7"><a xlink:href="classEvrV2FromV1.html" target="_top" xlink:title=" ">
<polygon fill="white" stroke="black" points="13.5,-0.5 13.5,-19.5 96.5,-19.5 96.5,-0.5 13.5,-0.5"/>
<text text-anchor="middle" x="55" y="-7.5" font-family="Helvetica,sans-Serif" font-size="10.00">EvrV2FromV1</text>
</a>
</g>
</g>
<!-- Node7&#45;&gt;Node1 -->
<g id="edge6" class="edge">
<title>Node7&#45;&gt;Node1</title>
<path fill="none" stroke="midnightblue" d="M98.98,-23.44C102.79,-25.13 106.52,-26.98 110,-29 142.48,-47.83 174.22,-79.42 189.15,-95.28"/>
<polygon fill="midnightblue" stroke="midnightblue" points="100.01,-20.08 89.42,-19.56 97.38,-26.56 100.01,-20.08"/>
</g>
</g>
</svg>
