<?xml version="1.0" encoding="UTF-8" standalone="no"?>
<!DOCTYPE svg PUBLIC "-//W3C//DTD SVG 1.1//EN"
 "http://www.w3.org/Graphics/SVG/1.1/DTD/svg11.dtd">
<!-- Generated by graphviz version 2.43.0 (0)
 -->
<!-- Title: EvrV2CoreTriggers Pages: 1 -->
<svg width="260pt" height="212pt"
 viewBox="0.00 0.00 260.00 212.00" xmlns="http://www.w3.org/2000/svg" xmlns:xlink="http://www.w3.org/1999/xlink">
<g id="graph0" class="graph" transform="scale(1 1) rotate(0) translate(4 208)">
<title>EvrV2CoreTriggers</title>
<!-- Node1 -->
<g id="Node000001" class="node">
<title>Node1</title>
<g id="a_Node000001"><a xlink:title=" ">
<polygon fill="#999999" stroke="#666666" points="252,-111 146,-111 146,-92 252,-92 252,-111"/>
<text text-anchor="middle" x="199" y="-99" font-family="Helvetica,sans-Serif" font-size="10.00">EvrV2CoreTriggers</text>
</a>
</g>
</g>
<!-- Node2 -->
<g id="Node000002" class="node">
<title>Node2</title>
<g id="a_Node000002"><a xlink:href="classEvrV2TrigReg.html" target="_top" xlink:title=" ">
<polygon fill="white" stroke="#bfbfbf" points="95.5,-204 14.5,-204 14.5,-185 95.5,-185 95.5,-204"/>
<text text-anchor="middle" x="55" y="-192" font-family="Helvetica,sans-Serif" font-size="10.00">EvrV2TrigReg</text>
</a>
</g>
</g>
<!-- Node2&#45;&gt;Node1 -->
<g id="edge1_Node000001_Node000002" class="edge">
<title>Node2&#45;&gt;Node1</title>
<g id="a_edge1_Node000001_Node000002"><a xlink:title=" ">
<path fill="none" stroke="#63b8ff" d="M100.5,-181.23C103.78,-179.78 106.98,-178.2 110,-176.5 142.52,-158.15 174.24,-126.87 189.15,-111.14"/>
<polygon fill="#63b8ff" stroke="#63b8ff" points="99.11,-178.01 91.13,-184.98 101.71,-184.51 99.11,-178.01"/>
</a>
</g>
</g>
<!-- Node3 -->
<g id="Node000003" class="node">
<title>Node3</title>
<g id="a_Node000003"><a xlink:href="classEvrV2ChannelReg.html" target="_top" xlink:title=" ">
<polygon fill="white" stroke="#bfbfbf" points="107,-167 3,-167 3,-148 107,-148 107,-167"/>
<text text-anchor="middle" x="55" y="-155" font-family="Helvetica,sans-Serif" font-size="10.00">EvrV2ChannelReg</text>
</a>
</g>
</g>
<!-- Node3&#45;&gt;Node1 -->
<g id="edge2_Node000001_Node000003" class="edge">
<title>Node3&#45;&gt;Node1</title>
<g id="a_edge2_Node000001_Node000003"><a xlink:title=" ">
<path fill="none" stroke="#63b8ff" d="M95.87,-144.64C100.65,-142.97 105.45,-141.24 110,-139.5 133.32,-130.6 159.52,-119.08 177.23,-111.07"/>
<polygon fill="#63b8ff" stroke="#63b8ff" points="94.49,-141.41 86.15,-147.96 96.75,-148.04 94.49,-141.41"/>
</a>
</g>
</g>
<!-- Node4 -->
<g id="Node000004" class="node">
<title>Node4</title>
<g id="a_Node000004"><a xlink:href="classEvrV2EventSelect.html" target="_top" xlink:title=" ">
<polygon fill="white" stroke="#bfbfbf" points="106.5,-130 3.5,-130 3.5,-111 106.5,-111 106.5,-130"/>
<text text-anchor="middle" x="55" y="-118" font-family="Helvetica,sans-Serif" font-size="10.00">EvrV2EventSelect</text>
</a>
</g>
</g>
<!-- Node4&#45;&gt;Node1 -->
<g id="edge3_Node000001_Node000004" class="edge">
<title>Node4&#45;&gt;Node1</title>
<g id="a_edge3_Node000001_Node000004"><a xlink:title=" ">
<path fill="none" stroke="#63b8ff" d="M117.05,-112.33C126.55,-111.06 136.29,-109.76 145.58,-108.51"/>
<polygon fill="#63b8ff" stroke="#63b8ff" points="116.31,-108.9 106.86,-113.69 117.24,-115.84 116.31,-108.9"/>
</a>
</g>
</g>
<!-- Node5 -->
<g id="Node000005" class="node">
<title>Node5</title>
<g id="a_Node000005"><a xlink:href="classEvrV2Trigger.html" target="_top" xlink:title=" ">
<polygon fill="white" stroke="#bfbfbf" points="94,-93 16,-93 16,-74 94,-74 94,-93"/>
<text text-anchor="middle" x="55" y="-81" font-family="Helvetica,sans-Serif" font-size="10.00">EvrV2Trigger</text>
</a>
</g>
</g>
<!-- Node5&#45;&gt;Node1 -->
<g id="edge4_Node000001_Node000005" class="edge">
<title>Node5&#45;&gt;Node1</title>
<g id="a_edge4_Node000001_Node000005"><a xlink:title=" ">
<path fill="none" stroke="#63b8ff" d="M104.08,-89.59C117.56,-91.3 132.27,-93.17 145.96,-94.9"/>
<polygon fill="#63b8ff" stroke="#63b8ff" points="104.41,-86.11 94.05,-88.32 103.53,-93.05 104.41,-86.11"/>
</a>
</g>
</g>
<!-- Node6 -->
<g id="Node000006" class="node">
<title>Node6</title>
<g id="a_Node000006"><a xlink:href="classEvrV2TriggerCompl.html" target="_top" xlink:title=" ">
<polygon fill="white" stroke="#bfbfbf" points="110,-56 0,-56 0,-37 110,-37 110,-56"/>
<text text-anchor="middle" x="55" y="-44" font-family="Helvetica,sans-Serif" font-size="10.00">EvrV2TriggerCompl</text>
</a>
</g>
</g>
<!-- Node6&#45;&gt;Node1 -->
<g id="edge5_Node000001_Node000006" class="edge">
<title>Node6&#45;&gt;Node1</title>
<g id="a_edge5_Node000001_Node000006"><a xlink:title=" ">
<path fill="none" stroke="#63b8ff" d="M93.78,-59.52C99.24,-61.48 104.77,-63.51 110,-65.5 132.37,-74.01 157.63,-84.43 175.33,-91.86"/>
<polygon fill="#63b8ff" stroke="#63b8ff" points="94.72,-56.14 84.12,-56.1 92.38,-62.74 94.72,-56.14"/>
</a>
</g>
</g>
<!-- Node7 -->
<g id="Node000007" class="node">
<title>Node7</title>
<g id="a_Node000007"><a xlink:href="classEvrV2FromV1.html" target="_top" xlink:title=" ">
<polygon fill="white" stroke="#bfbfbf" points="96.5,-19 13.5,-19 13.5,0 96.5,0 96.5,-19"/>
<text text-anchor="middle" x="55" y="-7" font-family="Helvetica,sans-Serif" font-size="10.00">EvrV2FromV1</text>
</a>
</g>
</g>
<!-- Node7&#45;&gt;Node1 -->
<g id="edge6_Node000001_Node000007" class="edge">
<title>Node7&#45;&gt;Node1</title>
<g id="a_edge6_Node000001_Node000007"><a xlink:title=" ">
<path fill="none" stroke="#63b8ff" d="M98.45,-22.8C102.44,-24.53 106.35,-26.43 110,-28.5 141.78,-46.5 173.34,-76.34 188.57,-91.7"/>
<polygon fill="#63b8ff" stroke="#63b8ff" points="99.67,-19.52 89.09,-19.05 97.07,-26.02 99.67,-19.52"/>
</a>
</g>
</g>
</g>
</svg>
