<?xml version="1.0" encoding="UTF-8" standalone="no"?>
<!DOCTYPE svg PUBLIC "-//W3C//DTD SVG 1.1//EN"
 "http://www.w3.org/Graphics/SVG/1.1/DTD/svg11.dtd">
<!-- Generated by graphviz version 2.43.0 (0)
 -->
<!-- Title: TimingFrameRx Pages: 1 -->
<svg width="242pt" height="192pt"
 viewBox="0.00 0.00 242.00 192.00" xmlns="http://www.w3.org/2000/svg" xmlns:xlink="http://www.w3.org/1999/xlink">
<g id="graph0" class="graph" transform="scale(1 1) rotate(0) translate(4 188)">
<title>TimingFrameRx</title>
<!-- Node1 -->
<g id="Node000001" class="node">
<title>Node1</title>
<g id="a_Node000001"><a xlink:title=" ">
<polygon fill="#999999" stroke="#666666" points="164.5,-129 70.5,-129 70.5,-110 164.5,-110 164.5,-129"/>
<text text-anchor="middle" x="117.5" y="-117" font-family="Helvetica,sans-Serif" font-size="10.00">TimingFrameRx</text>
</a>
</g>
</g>
<!-- Node4 -->
<g id="Node000004" class="node">
<title>Node4</title>
<g id="a_Node000004"><a xlink:href="classTimingRx.html" target="_top" xlink:title=" ">
<polygon fill="white" stroke="#bfbfbf" points="149,-74 86,-74 86,-55 149,-55 149,-74"/>
<text text-anchor="middle" x="117.5" y="-62" font-family="Helvetica,sans-Serif" font-size="10.00">TimingRx</text>
</a>
</g>
</g>
<!-- Node1&#45;&gt;Node4 -->
<g id="edge3_Node000001_Node000004" class="edge">
<title>Node1&#45;&gt;Node4</title>
<g id="a_edge3_Node000001_Node000004"><a xlink:title=" ">
<path fill="none" stroke="#63b8ff" d="M117.5,-99.66C117.5,-90.93 117.5,-80.99 117.5,-74.09"/>
<polygon fill="#63b8ff" stroke="#63b8ff" points="114,-99.75 117.5,-109.75 121,-99.75 114,-99.75"/>
</a>
</g>
</g>
<!-- Node2 -->
<g id="Node000002" class="node">
<title>Node2</title>
<g id="a_Node000002"><a xlink:href="classTimingDeserializer.html" target="_top" xlink:title=" ">
<polygon fill="white" stroke="#bfbfbf" points="109,-184 0,-184 0,-165 109,-165 109,-184"/>
<text text-anchor="middle" x="54.5" y="-172" font-family="Helvetica,sans-Serif" font-size="10.00">TimingDeserializer</text>
</a>
</g>
</g>
<!-- Node2&#45;&gt;Node1 -->
<g id="edge1_Node000001_Node000002" class="edge">
<title>Node2&#45;&gt;Node1</title>
<g id="a_edge1_Node000001_Node000002"><a xlink:title=" ">
<path fill="none" stroke="#63b8ff" d="M72.54,-158.32C83.77,-148.87 97.82,-137.06 107.19,-129.17"/>
<polygon fill="#63b8ff" stroke="#63b8ff" points="70.02,-155.87 64.62,-164.98 74.53,-161.23 70.02,-155.87"/>
</a>
</g>
</g>
<!-- Node3 -->
<g id="Node000003" class="node">
<title>Node3</title>
<g id="a_Node000003"><a xlink:href="classTimingSerialDelay.html" target="_top" xlink:title=" ">
<polygon fill="white" stroke="#bfbfbf" points="234,-184 127,-184 127,-165 234,-165 234,-184"/>
<text text-anchor="middle" x="180.5" y="-172" font-family="Helvetica,sans-Serif" font-size="10.00">TimingSerialDelay</text>
</a>
</g>
</g>
<!-- Node3&#45;&gt;Node1 -->
<g id="edge2_Node000001_Node000003" class="edge">
<title>Node3&#45;&gt;Node1</title>
<g id="a_edge2_Node000001_Node000003"><a xlink:title=" ">
<path fill="none" stroke="#63b8ff" d="M162.46,-158.32C151.23,-148.87 137.18,-137.06 127.81,-129.17"/>
<polygon fill="#63b8ff" stroke="#63b8ff" points="160.47,-161.23 170.38,-164.98 164.98,-155.87 160.47,-161.23"/>
</a>
</g>
</g>
<!-- Node5 -->
<g id="Node000005" class="node">
<title>Node5</title>
<g id="a_Node000005"><a xlink:href="classTimingCore.html" target="_top" xlink:title=" ">
<polygon fill="white" stroke="#bfbfbf" points="154,-19 81,-19 81,0 154,0 154,-19"/>
<text text-anchor="middle" x="117.5" y="-7" font-family="Helvetica,sans-Serif" font-size="10.00">TimingCore</text>
</a>
</g>
</g>
<!-- Node4&#45;&gt;Node5 -->
<g id="edge4_Node000004_Node000005" class="edge">
<title>Node4&#45;&gt;Node5</title>
<g id="a_edge4_Node000004_Node000005"><a xlink:title=" ">
<path fill="none" stroke="#63b8ff" d="M117.5,-44.66C117.5,-35.93 117.5,-25.99 117.5,-19.09"/>
<polygon fill="#63b8ff" stroke="#63b8ff" points="114,-44.75 117.5,-54.75 121,-44.75 114,-44.75"/>
</a>
</g>
</g>
</g>
</svg>
