<?xml version="1.0" encoding="UTF-8" standalone="no"?>
<!DOCTYPE svg PUBLIC "-//W3C//DTD SVG 1.1//EN"
 "http://www.w3.org/Graphics/SVG/1.1/DTD/svg11.dtd">
<!-- Generated by graphviz version 2.43.0 (0)
 -->
<!-- Title: TPGMiniCore Pages: 1 -->
<svg width="655pt" height="192pt"
 viewBox="0.00 0.00 655.00 192.00" xmlns="http://www.w3.org/2000/svg" xmlns:xlink="http://www.w3.org/1999/xlink">
<g id="graph0" class="graph" transform="scale(1 1) rotate(0) translate(4 188)">
<title>TPGMiniCore</title>
<!-- Node1 -->
<g id="Node000001" class="node">
<title>Node1</title>
<g id="a_Node000001"><a xlink:title=" ">
<polygon fill="#999999" stroke="#666666" points="318,-19 238,-19 238,0 318,0 318,-19"/>
<text text-anchor="middle" x="278" y="-7" font-family="Helvetica,sans-Serif" font-size="10.00">TPGMiniCore</text>
</a>
</g>
</g>
<!-- Node2 -->
<g id="Node000002" class="node">
<title>Node2</title>
<g id="a_Node000002"><a xlink:href="classTPGMiniReg.html" target="_top" xlink:title=" ">
<polygon fill="white" stroke="#bfbfbf" points="231,-74 155,-74 155,-55 231,-55 231,-74"/>
<text text-anchor="middle" x="193" y="-62" font-family="Helvetica,sans-Serif" font-size="10.00">TPGMiniReg</text>
</a>
</g>
</g>
<!-- Node2&#45;&gt;Node1 -->
<g id="edge1_Node000001_Node000002" class="edge">
<title>Node2&#45;&gt;Node1</title>
<g id="a_edge1_Node000001_Node000002"><a xlink:title=" ">
<path fill="none" stroke="#63b8ff" d="M215.57,-49.42C231,-39.81 250.95,-27.37 264.09,-19.17"/>
<polygon fill="#63b8ff" stroke="#63b8ff" points="213.29,-46.72 206.66,-54.98 216.99,-52.66 213.29,-46.72"/>
</a>
</g>
</g>
<!-- Node3 -->
<g id="Node000003" class="node">
<title>Node3</title>
<g id="a_Node000003"><a xlink:href="classTPGMini.html" target="_top" xlink:title=" ">
<polygon fill="white" stroke="#bfbfbf" points="306.5,-74 249.5,-74 249.5,-55 306.5,-55 306.5,-74"/>
<text text-anchor="middle" x="278" y="-62" font-family="Helvetica,sans-Serif" font-size="10.00">TPGMini</text>
</a>
</g>
</g>
<!-- Node3&#45;&gt;Node1 -->
<g id="edge2_Node000001_Node000003" class="edge">
<title>Node3&#45;&gt;Node1</title>
<g id="a_edge2_Node000001_Node000003"><a xlink:title=" ">
<path fill="none" stroke="#63b8ff" d="M278,-44.66C278,-35.93 278,-25.99 278,-19.09"/>
<polygon fill="#63b8ff" stroke="#63b8ff" points="274.5,-44.75 278,-54.75 281.5,-44.75 274.5,-44.75"/>
</a>
</g>
</g>
<!-- Node4 -->
<g id="Node000004" class="node">
<title>Node4</title>
<g id="a_Node000004"><a xlink:href="classDivider.html" target="_top" xlink:title=" ">
<polygon fill="white" stroke="#bfbfbf" points="434,-129 382,-129 382,-110 434,-110 434,-129"/>
<text text-anchor="middle" x="408" y="-117" font-family="Helvetica,sans-Serif" font-size="10.00">Divider</text>
</a>
</g>
</g>
<!-- Node4&#45;&gt;Node3 -->
<g id="edge3_Node000003_Node000004" class="edge">
<title>Node4&#45;&gt;Node3</title>
<g id="a_edge3_Node000003_Node000004"><a xlink:title=" ">
<path fill="none" stroke="#63b8ff" d="M377.73,-106.16C353.66,-96.35 320.6,-82.87 299.27,-74.17"/>
<polygon fill="#63b8ff" stroke="#63b8ff" points="376.53,-109.45 387.11,-109.98 379.17,-102.97 376.53,-109.45"/>
</a>
</g>
</g>
<!-- Node10 -->
<g id="Node000010" class="node">
<title>Node10</title>
<g id="a_Node000010"><a xlink:href="classTPGMiniStream.html" target="_top" xlink:title=" ">
<polygon fill="white" stroke="#bfbfbf" points="454,-74 362,-74 362,-55 454,-55 454,-74"/>
<text text-anchor="middle" x="408" y="-62" font-family="Helvetica,sans-Serif" font-size="10.00">TPGMiniStream</text>
</a>
</g>
</g>
<!-- Node4&#45;&gt;Node10 -->
<g id="edge10_Node000010_Node000004" class="edge">
<title>Node4&#45;&gt;Node10</title>
<g id="a_edge10_Node000010_Node000004"><a xlink:title=" ">
<path fill="none" stroke="#63b8ff" d="M408,-99.66C408,-90.93 408,-80.99 408,-74.09"/>
<polygon fill="#63b8ff" stroke="#63b8ff" points="404.5,-99.75 408,-109.75 411.5,-99.75 404.5,-99.75"/>
</a>
</g>
</g>
<!-- Node5 -->
<g id="Node000005" class="node">
<title>Node5</title>
<g id="a_Node000005"><a xlink:href="classBsaControl.html" target="_top" xlink:title=" ">
<polygon fill="white" stroke="#bfbfbf" points="72,-129 2,-129 2,-110 72,-110 72,-129"/>
<text text-anchor="middle" x="37" y="-117" font-family="Helvetica,sans-Serif" font-size="10.00">BsaControl</text>
</a>
</g>
</g>
<!-- Node5&#45;&gt;Node3 -->
<g id="edge4_Node000003_Node000005" class="edge">
<title>Node5&#45;&gt;Node3</title>
<g id="a_edge4_Node000003_Node000005"><a xlink:title=" ">
<path fill="none" stroke="#63b8ff" d="M82.2,-108.65C123.35,-99.67 185.77,-86.01 240,-74 243.04,-73.33 246.21,-72.62 249.37,-71.92"/>
<polygon fill="#63b8ff" stroke="#63b8ff" points="81.24,-105.28 72.22,-110.83 82.73,-112.12 81.24,-105.28"/>
</a>
</g>
</g>
<!-- Node6 -->
<g id="Node000006" class="node">
<title>Node6</title>
<g id="a_Node000006"><a xlink:href="classEventSelect.html" target="_top" xlink:title=" ">
<polygon fill="white" stroke="#bfbfbf" points="74,-184 0,-184 0,-165 74,-165 74,-184"/>
<text text-anchor="middle" x="37" y="-172" font-family="Helvetica,sans-Serif" font-size="10.00">EventSelect</text>
</a>
</g>
</g>
<!-- Node6&#45;&gt;Node5 -->
<g id="edge5_Node000005_Node000006" class="edge">
<title>Node6&#45;&gt;Node5</title>
<g id="a_edge5_Node000005_Node000006"><a xlink:title=" ">
<path fill="none" stroke="#63b8ff" d="M37,-154.66C37,-145.93 37,-135.99 37,-129.09"/>
<polygon fill="#63b8ff" stroke="#63b8ff" points="33.5,-154.75 37,-164.75 40.5,-154.75 33.5,-154.75"/>
</a>
</g>
</g>
<!-- Node7 -->
<g id="Node000007" class="node">
<title>Node7</title>
<g id="a_Node000007"><a xlink:href="classTimingSerializer.html" target="_top" xlink:title=" ">
<polygon fill="white" stroke="#bfbfbf" points="186,-129 90,-129 90,-110 186,-110 186,-129"/>
<text text-anchor="middle" x="138" y="-117" font-family="Helvetica,sans-Serif" font-size="10.00">TimingSerializer</text>
</a>
</g>
</g>
<!-- Node7&#45;&gt;Node3 -->
<g id="edge6_Node000003_Node000007" class="edge">
<title>Node7&#45;&gt;Node3</title>
<g id="a_edge6_Node000003_Node000007"><a xlink:title=" ">
<path fill="none" stroke="#63b8ff" d="M169.91,-106.42C195.88,-96.59 231.92,-82.95 255.1,-74.17"/>
<polygon fill="#63b8ff" stroke="#63b8ff" points="168.61,-103.17 160.49,-109.98 171.08,-109.72 168.61,-103.17"/>
</a>
</g>
</g>
<!-- Node8 -->
<g id="Node000008" class="node">
<title>Node8</title>
<g id="a_Node000008"><a xlink:href="classTPSerializer.html" target="_top" xlink:title=" ">
<polygon fill="white" stroke="#bfbfbf" points="278,-129 204,-129 204,-110 278,-110 278,-129"/>
<text text-anchor="middle" x="241" y="-117" font-family="Helvetica,sans-Serif" font-size="10.00">TPSerializer</text>
</a>
</g>
</g>
<!-- Node8&#45;&gt;Node3 -->
<g id="edge7_Node000003_Node000008" class="edge">
<title>Node8&#45;&gt;Node3</title>
<g id="a_edge7_Node000003_Node000008"><a xlink:title=" ">
<path fill="none" stroke="#63b8ff" d="M252.95,-101.39C259.31,-92.27 266.87,-81.45 272,-74.09"/>
<polygon fill="#63b8ff" stroke="#63b8ff" points="249.96,-99.55 247.11,-109.75 255.7,-103.55 249.96,-99.55"/>
</a>
</g>
</g>
<!-- Node9 -->
<g id="Node000009" class="node">
<title>Node9</title>
<g id="a_Node000009"><a xlink:href="classClockTime.html" target="_top" xlink:title=" ">
<polygon fill="white" stroke="#bfbfbf" points="364,-129 296,-129 296,-110 364,-110 364,-129"/>
<text text-anchor="middle" x="330" y="-117" font-family="Helvetica,sans-Serif" font-size="10.00">ClockTime</text>
</a>
</g>
</g>
<!-- Node9&#45;&gt;Node3 -->
<g id="edge8_Node000003_Node000009" class="edge">
<title>Node9&#45;&gt;Node3</title>
<g id="a_edge8_Node000003_Node000009"><a xlink:title=" ">
<path fill="none" stroke="#63b8ff" d="M314.32,-102.52C305.16,-93.18 293.95,-81.75 286.43,-74.09"/>
<polygon fill="#63b8ff" stroke="#63b8ff" points="311.91,-105.06 321.41,-109.75 316.91,-100.16 311.91,-105.06"/>
</a>
</g>
</g>
<!-- Node9&#45;&gt;Node10 -->
<g id="edge12_Node000010_Node000009" class="edge">
<title>Node9&#45;&gt;Node10</title>
<g id="a_edge12_Node000010_Node000009"><a xlink:title=" ">
<path fill="none" stroke="#63b8ff" d="M351.12,-104.15C365.21,-94.57 383.29,-82.29 395.24,-74.17"/>
<polygon fill="#63b8ff" stroke="#63b8ff" points="348.84,-101.47 342.53,-109.98 352.77,-107.26 348.84,-101.47"/>
</a>
</g>
</g>
<!-- Node10&#45;&gt;Node1 -->
<g id="edge9_Node000001_Node000010" class="edge">
<title>Node10&#45;&gt;Node1</title>
<g id="a_edge9_Node000001_Node000010"><a xlink:title=" ">
<path fill="none" stroke="#63b8ff" d="M377.73,-51.16C353.66,-41.35 320.6,-27.87 299.27,-19.17"/>
<polygon fill="#63b8ff" stroke="#63b8ff" points="376.53,-54.45 387.11,-54.98 379.17,-47.97 376.53,-54.45"/>
</a>
</g>
</g>
<!-- Node11 -->
<g id="Node000011" class="node">
<title>Node11</title>
<g id="a_Node000011"><a xlink:href="classTimingStreamTx.html" target="_top" xlink:title=" ">
<polygon fill="white" stroke="#bfbfbf" points="647,-129 549,-129 549,-110 647,-110 647,-129"/>
<text text-anchor="middle" x="598" y="-117" font-family="Helvetica,sans-Serif" font-size="10.00">TimingStreamTx</text>
</a>
</g>
</g>
<!-- Node11&#45;&gt;Node10 -->
<g id="edge11_Node000010_Node000011" class="edge">
<title>Node11&#45;&gt;Node10</title>
<g id="a_edge11_Node000010_Node000011"><a xlink:title=" ">
<path fill="none" stroke="#63b8ff" d="M557.43,-107.18C521.9,-97.27 471.03,-83.08 438.77,-74.08"/>
<polygon fill="#63b8ff" stroke="#63b8ff" points="556.9,-110.67 567.47,-109.98 558.78,-103.93 556.9,-110.67"/>
</a>
</g>
</g>
<!-- Node12 -->
<g id="Node000012" class="node">
<title>Node12</title>
<g id="a_Node000012"><a xlink:href="classTPGMiniEdef.html" target="_top" xlink:title=" ">
<polygon fill="white" stroke="#bfbfbf" points="531.5,-129 452.5,-129 452.5,-110 531.5,-110 531.5,-129"/>
<text text-anchor="middle" x="492" y="-117" font-family="Helvetica,sans-Serif" font-size="10.00">TPGMiniEdef</text>
</a>
</g>
</g>
<!-- Node12&#45;&gt;Node10 -->
<g id="edge13_Node000010_Node000012" class="edge">
<title>Node12&#45;&gt;Node10</title>
<g id="a_edge13_Node000010_Node000012"><a xlink:title=" ">
<path fill="none" stroke="#63b8ff" d="M469.69,-104.42C454.45,-94.81 434.73,-82.37 421.74,-74.17"/>
<polygon fill="#63b8ff" stroke="#63b8ff" points="468.18,-107.61 478.5,-109.98 471.91,-101.69 468.18,-107.61"/>
</a>
</g>
</g>
</g>
</svg>
