<?xml version="1.0" encoding="UTF-8" standalone="no"?>
<!DOCTYPE svg PUBLIC "-//W3C//DTD SVG 1.1//EN"
 "http://www.w3.org/Graphics/SVG/1.1/DTD/svg11.dtd">
<!-- Generated by graphviz version 2.43.0 (0)
 -->
<!-- Title: EvrV1EventReceiver Pages: 1 -->
<svg width="395pt" height="137pt"
 viewBox="0.00 0.00 394.50 137.00" xmlns="http://www.w3.org/2000/svg" xmlns:xlink="http://www.w3.org/1999/xlink">
<g id="graph0" class="graph" transform="scale(1 1) rotate(0) translate(4 133)">
<title>EvrV1EventReceiver</title>
<!-- Node1 -->
<g id="Node000001" class="node">
<title>Node1</title>
<g id="a_Node000001"><a xlink:title=" ">
<polygon fill="#999999" stroke="#666666" points="266,-74 150,-74 150,-55 266,-55 266,-74"/>
<text text-anchor="middle" x="208" y="-62" font-family="Helvetica,sans-Serif" font-size="10.00">EvrV1EventReceiver</text>
</a>
</g>
</g>
<!-- Node5 -->
<g id="Node000005" class="node">
<title>Node5</title>
<g id="a_Node000005"><a xlink:href="classEvrV1Core.html" target="_top" xlink:title=" ">
<polygon fill="white" stroke="#bfbfbf" points="242,-19 174,-19 174,0 242,0 242,-19"/>
<text text-anchor="middle" x="208" y="-7" font-family="Helvetica,sans-Serif" font-size="10.00">EvrV1Core</text>
</a>
</g>
</g>
<!-- Node1&#45;&gt;Node5 -->
<g id="edge4_Node000001_Node000005" class="edge">
<title>Node1&#45;&gt;Node5</title>
<g id="a_edge4_Node000001_Node000005"><a xlink:title=" ">
<path fill="none" stroke="#63b8ff" d="M208,-44.66C208,-35.93 208,-25.99 208,-19.09"/>
<polygon fill="#63b8ff" stroke="#63b8ff" points="204.5,-44.75 208,-54.75 211.5,-44.75 204.5,-44.75"/>
</a>
</g>
</g>
<!-- Node2 -->
<g id="Node000002" class="node">
<title>Node2</title>
<g id="a_Node000002"><a xlink:href="classEvrV1TimeStampFIFO.html" target="_top" xlink:title=" ">
<polygon fill="white" stroke="#bfbfbf" points="124,-129 0,-129 0,-110 124,-110 124,-129"/>
<text text-anchor="middle" x="62" y="-117" font-family="Helvetica,sans-Serif" font-size="10.00">EvrV1TimeStampFIFO</text>
</a>
</g>
</g>
<!-- Node2&#45;&gt;Node1 -->
<g id="edge1_Node000001_Node000002" class="edge">
<title>Node2&#45;&gt;Node1</title>
<g id="a_edge1_Node000001_Node000002"><a xlink:title=" ">
<path fill="none" stroke="#63b8ff" d="M94.92,-106.55C122.03,-96.71 159.83,-82.98 184.12,-74.17"/>
<polygon fill="#63b8ff" stroke="#63b8ff" points="93.66,-103.28 85.46,-109.98 96.05,-109.86 93.66,-103.28"/>
</a>
</g>
</g>
<!-- Node3 -->
<g id="Node000003" class="node">
<title>Node3</title>
<g id="a_Node000003"><a xlink:href="classEvrV1EventRAM256x32.html" target="_top" xlink:title=" ">
<polygon fill="white" stroke="#bfbfbf" points="273.5,-129 142.5,-129 142.5,-110 273.5,-110 273.5,-129"/>
<text text-anchor="middle" x="208" y="-117" font-family="Helvetica,sans-Serif" font-size="10.00">EvrV1EventRAM256x32</text>
</a>
</g>
</g>
<!-- Node3&#45;&gt;Node1 -->
<g id="edge2_Node000001_Node000003" class="edge">
<title>Node3&#45;&gt;Node1</title>
<g id="a_edge2_Node000001_Node000003"><a xlink:title=" ">
<path fill="none" stroke="#63b8ff" d="M208,-99.66C208,-90.93 208,-80.99 208,-74.09"/>
<polygon fill="#63b8ff" stroke="#63b8ff" points="204.5,-99.75 208,-109.75 211.5,-99.75 204.5,-99.75"/>
</a>
</g>
</g>
<!-- Node4 -->
<g id="Node000004" class="node">
<title>Node4</title>
<g id="a_Node000004"><a xlink:href="classEvrV1HeartBeat.html" target="_top" xlink:title=" ">
<polygon fill="white" stroke="#bfbfbf" points="386.5,-129 291.5,-129 291.5,-110 386.5,-110 386.5,-129"/>
<text text-anchor="middle" x="339" y="-117" font-family="Helvetica,sans-Serif" font-size="10.00">EvrV1HeartBeat</text>
</a>
</g>
</g>
<!-- Node4&#45;&gt;Node1 -->
<g id="edge3_Node000001_Node000004" class="edge">
<title>Node4&#45;&gt;Node1</title>
<g id="a_edge3_Node000001_Node000004"><a xlink:title=" ">
<path fill="none" stroke="#63b8ff" d="M308.5,-106.16C284.25,-96.35 250.93,-82.87 229.43,-74.17"/>
<polygon fill="#63b8ff" stroke="#63b8ff" points="307.37,-109.48 317.95,-109.98 310,-102.99 307.37,-109.48"/>
</a>
</g>
</g>
</g>
</svg>
