<?xml version="1.0" encoding="UTF-8" standalone="no"?>
<!DOCTYPE svg PUBLIC "-//W3C//DTD SVG 1.1//EN"
 "http://www.w3.org/Graphics/SVG/1.1/DTD/svg11.dtd">
<!-- Generated by graphviz version 2.43.0 (0)
 -->
<!-- Title: Graphical Class Hierarchy Pages: 1 -->
<svg width="395pt" height="104pt"
 viewBox="0.00 0.00 395.00 104.00" xmlns="http://www.w3.org/2000/svg" xmlns:xlink="http://www.w3.org/1999/xlink">
<g id="graph0" class="graph" transform="scale(1 1) rotate(0) translate(4 100)">
<title>Graphical Class Hierarchy</title>
<polygon fill="white" stroke="transparent" points="-4,4 -4,-100 391,-100 391,4 -4,4"/>
<!-- Node42 -->
<g id="node1" class="node">
<title>Node42</title>
<g id="a_node1"><a xlink:href="classEvrV1EventRAM256x32.html" target="_top" xlink:title=" ">
<polygon fill="white" stroke="black" points="0,-76.5 0,-95.5 131,-95.5 131,-76.5 0,-76.5"/>
<text text-anchor="middle" x="65.5" y="-83.5" font-family="Helvetica,sans-Serif" font-size="10.00">EvrV1EventRAM256x32</text>
</a>
</g>
</g>
<!-- Node1 -->
<g id="node2" class="node">
<title>Node1</title>
<g id="a_node2"><a xlink:href="classEvrV1EventReceiver.html" target="_top" xlink:title=" ">
<polygon fill="white" stroke="black" points="167,-38.5 167,-57.5 283,-57.5 283,-38.5 167,-38.5"/>
<text text-anchor="middle" x="225" y="-45.5" font-family="Helvetica,sans-Serif" font-size="10.00">EvrV1EventReceiver</text>
</a>
</g>
</g>
<!-- Node42&#45;&gt;Node1 -->
<g id="edge1" class="edge">
<title>Node42&#45;&gt;Node1</title>
<path fill="none" stroke="midnightblue" d="M116.1,-74.03C138.18,-68.71 163.8,-62.52 184.54,-57.52"/>
<polygon fill="midnightblue" stroke="midnightblue" points="115.14,-70.66 106.24,-76.41 116.79,-77.47 115.14,-70.66"/>
</g>
<!-- Node2 -->
<g id="node3" class="node">
<title>Node2</title>
<g id="a_node3"><a xlink:href="classEvrV1Core.html" target="_top" xlink:title=" ">
<polygon fill="white" stroke="black" points="319,-19.5 319,-38.5 387,-38.5 387,-19.5 319,-19.5"/>
<text text-anchor="middle" x="353" y="-26.5" font-family="Helvetica,sans-Serif" font-size="10.00">EvrV1Core</text>
</a>
</g>
</g>
<!-- Node1&#45;&gt;Node2 -->
<g id="edge2" class="edge">
<title>Node1&#45;&gt;Node2</title>
<path fill="none" stroke="midnightblue" d="M293.17,-37.87C302.08,-36.53 310.88,-35.2 318.85,-34"/>
<polygon fill="midnightblue" stroke="midnightblue" points="292.47,-34.44 283.1,-39.39 293.51,-41.36 292.47,-34.44"/>
</g>
<!-- Node41 -->
<g id="node4" class="node">
<title>Node41</title>
<g id="a_node4"><a xlink:href="classEvrV1HeartBeat.html" target="_top" xlink:title=" ">
<polygon fill="white" stroke="black" points="18,-38.5 18,-57.5 113,-57.5 113,-38.5 18,-38.5"/>
<text text-anchor="middle" x="65.5" y="-45.5" font-family="Helvetica,sans-Serif" font-size="10.00">EvrV1HeartBeat</text>
</a>
</g>
</g>
<!-- Node41&#45;&gt;Node1 -->
<g id="edge3" class="edge">
<title>Node41&#45;&gt;Node1</title>
<path fill="none" stroke="midnightblue" d="M123.4,-48C137.51,-48 152.63,-48 166.76,-48"/>
<polygon fill="midnightblue" stroke="midnightblue" points="123.33,-44.5 113.33,-48 123.33,-51.5 123.33,-44.5"/>
</g>
<!-- Node40 -->
<g id="node5" class="node">
<title>Node40</title>
<g id="a_node5"><a xlink:href="classEvrV1Reg.html" target="_top" xlink:title=" ">
<polygon fill="white" stroke="black" points="193,-0.5 193,-19.5 257,-19.5 257,-0.5 193,-0.5"/>
<text text-anchor="middle" x="225" y="-7.5" font-family="Helvetica,sans-Serif" font-size="10.00">EvrV1Reg</text>
</a>
</g>
</g>
<!-- Node40&#45;&gt;Node2 -->
<g id="edge4" class="edge">
<title>Node40&#45;&gt;Node2</title>
<path fill="none" stroke="midnightblue" d="M267.16,-16.21C283.82,-18.72 302.79,-21.58 318.57,-23.96"/>
<polygon fill="midnightblue" stroke="midnightblue" points="267.56,-12.73 257.15,-14.7 266.51,-19.65 267.56,-12.73"/>
</g>
<!-- Node0 -->
<g id="node6" class="node">
<title>Node0</title>
<g id="a_node6"><a xlink:href="classEvrV1TimeStampFIFO.html" target="_top" xlink:title=" ">
<polygon fill="white" stroke="black" points="3.5,-0.5 3.5,-19.5 127.5,-19.5 127.5,-0.5 3.5,-0.5"/>
<text text-anchor="middle" x="65.5" y="-7.5" font-family="Helvetica,sans-Serif" font-size="10.00">EvrV1TimeStampFIFO</text>
</a>
</g>
</g>
<!-- Node0&#45;&gt;Node1 -->
<g id="edge5" class="edge">
<title>Node0&#45;&gt;Node1</title>
<path fill="none" stroke="midnightblue" d="M116.1,-21.97C138.18,-27.29 163.8,-33.48 184.54,-38.48"/>
<polygon fill="midnightblue" stroke="midnightblue" points="116.79,-18.53 106.24,-19.59 115.14,-25.34 116.79,-18.53"/>
</g>
</g>
</svg>
