<?xml version="1.0" encoding="UTF-8" standalone="no"?>
<!DOCTYPE svg PUBLIC "-//W3C//DTD SVG 1.1//EN"
 "http://www.w3.org/Graphics/SVG/1.1/DTD/svg11.dtd">
<!-- Generated by graphviz version 2.43.0 (0)
 -->
<!-- Title: Graphical Class Hierarchy Pages: 1 -->
<svg width="640pt" height="503pt"
 viewBox="0.00 0.00 640.00 503.00" xmlns="http://www.w3.org/2000/svg" xmlns:xlink="http://www.w3.org/1999/xlink">
<g id="graph0" class="graph" transform="scale(1 1) rotate(0) translate(4 499)">
<title>Graphical Class Hierarchy</title>
<polygon fill="white" stroke="transparent" points="-4,4 -4,-499 636,-499 636,4 -4,4"/>
<!-- Node51 -->
<g id="node1" class="node">
<title>Node51</title>
<g id="a_node1"><a xlink:href="classClockTime.html" target="_top" xlink:title=" ">
<polygon fill="white" stroke="black" points="130.5,-361.5 130.5,-380.5 198.5,-380.5 198.5,-361.5 130.5,-361.5"/>
<text text-anchor="middle" x="164.5" y="-368.5" font-family="Helvetica,sans-Serif" font-size="10.00">ClockTime</text>
</a>
</g>
</g>
<!-- Node1 -->
<g id="node2" class="node">
<title>Node1</title>
<g id="a_node2"><a xlink:href="classTPGMini.html" target="_top" xlink:title=" ">
<polygon fill="white" stroke="black" points="286,-418.5 286,-437.5 343,-437.5 343,-418.5 286,-418.5"/>
<text text-anchor="middle" x="314.5" y="-425.5" font-family="Helvetica,sans-Serif" font-size="10.00">TPGMini</text>
</a>
</g>
</g>
<!-- Node51&#45;&gt;Node1 -->
<g id="edge1" class="edge">
<title>Node51&#45;&gt;Node1</title>
<path fill="none" stroke="midnightblue" d="M202.73,-384C208.2,-385.98 213.76,-388.02 219,-390 243.48,-399.26 271.24,-410.52 290.3,-418.36"/>
<polygon fill="midnightblue" stroke="midnightblue" points="203.67,-380.62 193.07,-380.55 201.31,-387.21 203.67,-380.62"/>
</g>
<!-- Node2 -->
<g id="node3" class="node">
<title>Node2</title>
<g id="a_node3"><a xlink:href="classEvrV2__tb.html" target="_top" xlink:title=" ">
<polygon fill="white" stroke="black" points="436.5,-361.5 436.5,-380.5 496.5,-380.5 496.5,-361.5 436.5,-361.5"/>
<text text-anchor="middle" x="466.5" y="-368.5" font-family="Helvetica,sans-Serif" font-size="10.00">EvrV2_tb</text>
</a>
</g>
</g>
<!-- Node1&#45;&gt;Node2 -->
<g id="edge2" class="edge">
<title>Node1&#45;&gt;Node2</title>
<path fill="none" stroke="midnightblue" d="M350.24,-414.8C377.79,-404.33 415.62,-389.95 440.31,-380.57"/>
<polygon fill="midnightblue" stroke="midnightblue" points="348.71,-411.64 340.61,-418.46 351.2,-418.18 348.71,-411.64"/>
</g>
<!-- Node3 -->
<g id="node4" class="node">
<title>Node3</title>
<g id="a_node4"><a xlink:href="classTPGMiniCore.html" target="_top" xlink:title=" ">
<polygon fill="white" stroke="black" points="426.5,-418.5 426.5,-437.5 506.5,-437.5 506.5,-418.5 426.5,-418.5"/>
<text text-anchor="middle" x="466.5" y="-425.5" font-family="Helvetica,sans-Serif" font-size="10.00">TPGMiniCore</text>
</a>
</g>
</g>
<!-- Node1&#45;&gt;Node3 -->
<g id="edge3" class="edge">
<title>Node1&#45;&gt;Node3</title>
<path fill="none" stroke="midnightblue" d="M353.13,-428C375.45,-428 403.7,-428 426.3,-428"/>
<polygon fill="midnightblue" stroke="midnightblue" points="353.01,-424.5 343.01,-428 353.01,-431.5 353.01,-424.5"/>
</g>
<!-- Node4 -->
<g id="node5" class="node">
<title>Node4</title>
<g id="a_node5"><a xlink:href="classTimingCore.html" target="_top" xlink:title=" ">
<polygon fill="white" stroke="black" points="559,-418.5 559,-437.5 632,-437.5 632,-418.5 559,-418.5"/>
<text text-anchor="middle" x="595.5" y="-425.5" font-family="Helvetica,sans-Serif" font-size="10.00">TimingCore</text>
</a>
</g>
</g>
<!-- Node3&#45;&gt;Node4 -->
<g id="edge4" class="edge">
<title>Node3&#45;&gt;Node4</title>
<path fill="none" stroke="midnightblue" d="M517.04,-428C530.95,-428 545.8,-428 558.73,-428"/>
<polygon fill="midnightblue" stroke="midnightblue" points="516.64,-424.5 506.64,-428 516.64,-431.5 516.64,-424.5"/>
</g>
<!-- Node50 -->
<g id="node6" class="node">
<title>Node50</title>
<g id="a_node6"><a xlink:href="classDivider.html" target="_top" xlink:title=" ">
<polygon fill="white" stroke="black" points="138.5,-171.5 138.5,-190.5 190.5,-190.5 190.5,-171.5 138.5,-171.5"/>
<text text-anchor="middle" x="164.5" y="-178.5" font-family="Helvetica,sans-Serif" font-size="10.00">Divider</text>
</a>
</g>
</g>
<!-- Node50&#45;&gt;Node1 -->
<g id="edge6" class="edge">
<title>Node50&#45;&gt;Node1</title>
<path fill="none" stroke="midnightblue" d="M176.99,-199.45C188.46,-218.28 206.16,-248.55 219,-276 238.13,-316.9 230.24,-333.24 255,-371 267.6,-390.21 287.68,-407.93 300.72,-418.36"/>
<polygon fill="midnightblue" stroke="midnightblue" points="179.85,-197.41 171.63,-190.72 173.88,-201.08 179.85,-197.41"/>
</g>
<!-- Node18 -->
<g id="node7" class="node">
<title>Node18</title>
<g id="a_node7"><a xlink:href="classTimingSerialDelayTb.html" target="_top" xlink:title=" ">
<polygon fill="white" stroke="black" points="255,-0.5 255,-19.5 374,-19.5 374,-0.5 255,-0.5"/>
<text text-anchor="middle" x="314.5" y="-7.5" font-family="Helvetica,sans-Serif" font-size="10.00">TimingSerialDelayTb</text>
</a>
</g>
</g>
<!-- Node50&#45;&gt;Node18 -->
<g id="edge5" class="edge">
<title>Node50&#45;&gt;Node18</title>
<path fill="none" stroke="midnightblue" d="M171.79,-161.57C183.21,-129.34 210.37,-64.82 255,-29 259.83,-25.12 265.47,-22.03 271.32,-19.56"/>
<polygon fill="midnightblue" stroke="midnightblue" points="168.43,-160.58 168.52,-171.18 175.06,-162.84 168.43,-160.58"/>
</g>
<!-- Node49 -->
<g id="node8" class="node">
<title>Node49</title>
<g id="a_node8"><a xlink:href="classEthTimingModule.html" target="_top" xlink:title=" ">
<polygon fill="white" stroke="black" points="415.5,-456.5 415.5,-475.5 517.5,-475.5 517.5,-456.5 415.5,-456.5"/>
<text text-anchor="middle" x="466.5" y="-463.5" font-family="Helvetica,sans-Serif" font-size="10.00">EthTimingModule</text>
</a>
</g>
</g>
<!-- Node49&#45;&gt;Node4 -->
<g id="edge7" class="edge">
<title>Node49&#45;&gt;Node4</title>
<path fill="none" stroke="midnightblue" d="M509.39,-453.46C526.67,-448.3 546.37,-442.4 562.46,-437.59"/>
<polygon fill="midnightblue" stroke="midnightblue" points="508.12,-450.19 499.55,-456.41 510.13,-456.9 508.12,-450.19"/>
</g>
<!-- Node46 -->
<g id="node9" class="node">
<title>Node46</title>
<g id="a_node9"><a xlink:href="classEventSelect.html" target="_top" xlink:title=" ">
<polygon fill="white" stroke="black" points="0,-380.5 0,-399.5 74,-399.5 74,-380.5 0,-380.5"/>
<text text-anchor="middle" x="37" y="-387.5" font-family="Helvetica,sans-Serif" font-size="10.00">EventSelect</text>
</a>
</g>
</g>
<!-- Node47 -->
<g id="node10" class="node">
<title>Node47</title>
<g id="a_node10"><a xlink:href="classBsaControl.html" target="_top" xlink:title=" ">
<polygon fill="white" stroke="black" points="129.5,-475.5 129.5,-494.5 199.5,-494.5 199.5,-475.5 129.5,-475.5"/>
<text text-anchor="middle" x="164.5" y="-482.5" font-family="Helvetica,sans-Serif" font-size="10.00">BsaControl</text>
</a>
</g>
</g>
<!-- Node46&#45;&gt;Node47 -->
<g id="edge8" class="edge">
<title>Node46&#45;&gt;Node47</title>
<path fill="none" stroke="midnightblue" d="M50.68,-407.6C63.8,-424.66 85.74,-450.22 110,-466 115.87,-469.82 122.59,-472.98 129.25,-475.55"/>
<polygon fill="midnightblue" stroke="midnightblue" points="53.46,-405.46 44.66,-399.55 47.85,-409.65 53.46,-405.46"/>
</g>
<!-- Node48 -->
<g id="node11" class="node">
<title>Node48</title>
<g id="a_node11"><a xlink:href="classCtrControl.html" target="_top" xlink:title=" ">
<polygon fill="white" stroke="black" points="131.5,-285.5 131.5,-304.5 197.5,-304.5 197.5,-285.5 131.5,-285.5"/>
<text text-anchor="middle" x="164.5" y="-292.5" font-family="Helvetica,sans-Serif" font-size="10.00">CtrControl</text>
</a>
</g>
</g>
<!-- Node46&#45;&gt;Node48 -->
<g id="edge10" class="edge">
<title>Node46&#45;&gt;Node48</title>
<path fill="none" stroke="midnightblue" d="M50.68,-372.4C63.8,-355.34 85.74,-329.78 110,-314 116.44,-309.81 123.93,-306.41 131.22,-303.7"/>
<polygon fill="midnightblue" stroke="midnightblue" points="47.85,-370.35 44.66,-380.45 53.46,-374.54 47.85,-370.35"/>
</g>
<!-- Node47&#45;&gt;Node1 -->
<g id="edge9" class="edge">
<title>Node47&#45;&gt;Node1</title>
<path fill="none" stroke="midnightblue" d="M204.22,-472C209.23,-470.1 214.27,-468.08 219,-466 235.57,-458.73 238.34,-454.04 255,-447 264.84,-442.84 275.91,-439.03 285.76,-435.94"/>
<polygon fill="midnightblue" stroke="midnightblue" points="202.86,-468.77 194.67,-475.5 205.27,-475.34 202.86,-468.77"/>
</g>
<!-- Node37 -->
<g id="node12" class="node">
<title>Node37</title>
<g id="a_node12"><a xlink:href="classEvrV2Axi.html" target="_top" xlink:title=" ">
<polygon fill="white" stroke="black" points="284,-266.5 284,-285.5 345,-285.5 345,-266.5 284,-266.5"/>
<text text-anchor="middle" x="314.5" y="-273.5" font-family="Helvetica,sans-Serif" font-size="10.00">EvrV2Axi</text>
</a>
</g>
</g>
<!-- Node28 -->
<g id="node13" class="node">
<title>Node28</title>
<g id="a_node13"><a xlink:href="classEvrV2CorePulseGen.html" target="_top" xlink:title=" ">
<polygon fill="white" stroke="black" points="410,-304.5 410,-323.5 523,-323.5 523,-304.5 410,-304.5"/>
<text text-anchor="middle" x="466.5" y="-311.5" font-family="Helvetica,sans-Serif" font-size="10.00">EvrV2CorePulseGen</text>
</a>
</g>
</g>
<!-- Node37&#45;&gt;Node28 -->
<g id="edge11" class="edge">
<title>Node37&#45;&gt;Node28</title>
<path fill="none" stroke="midnightblue" d="M355.07,-286.02C377.62,-291.74 405.72,-298.86 427.93,-304.48"/>
<polygon fill="midnightblue" stroke="midnightblue" points="355.69,-282.57 345.14,-283.51 353.97,-289.36 355.69,-282.57"/>
</g>
<!-- Node30 -->
<g id="node14" class="node">
<title>Node30</title>
<g id="a_node14"><a xlink:href="classEvrV2Module.html" target="_top" xlink:title=" ">
<polygon fill="white" stroke="black" points="426,-266.5 426,-285.5 507,-285.5 507,-266.5 426,-266.5"/>
<text text-anchor="middle" x="466.5" y="-273.5" font-family="Helvetica,sans-Serif" font-size="10.00">EvrV2Module</text>
</a>
</g>
</g>
<!-- Node37&#45;&gt;Node30 -->
<g id="edge12" class="edge">
<title>Node37&#45;&gt;Node30</title>
<path fill="none" stroke="midnightblue" d="M355.4,-276C377.24,-276 404.2,-276 425.98,-276"/>
<polygon fill="midnightblue" stroke="midnightblue" points="355.14,-272.5 345.14,-276 355.14,-279.5 355.14,-272.5"/>
</g>
<!-- Node35 -->
<g id="node15" class="node">
<title>Node35</title>
<g id="a_node15"><a xlink:href="classEvrV2ChannelReg.html" target="_top" xlink:title=" ">
<polygon fill="white" stroke="black" points="262.5,-114.5 262.5,-133.5 366.5,-133.5 366.5,-114.5 262.5,-114.5"/>
<text text-anchor="middle" x="314.5" y="-121.5" font-family="Helvetica,sans-Serif" font-size="10.00">EvrV2ChannelReg</text>
</a>
</g>
</g>
<!-- Node29 -->
<g id="node16" class="node">
<title>Node29</title>
<g id="a_node16"><a xlink:href="classEvrV2CoreTriggers.html" target="_top" xlink:title=" ">
<polygon fill="white" stroke="black" points="413.5,-209.5 413.5,-228.5 519.5,-228.5 519.5,-209.5 413.5,-209.5"/>
<text text-anchor="middle" x="466.5" y="-216.5" font-family="Helvetica,sans-Serif" font-size="10.00">EvrV2CoreTriggers</text>
</a>
</g>
</g>
<!-- Node35&#45;&gt;Node29 -->
<g id="edge13" class="edge">
<title>Node35&#45;&gt;Node29</title>
<path fill="none" stroke="midnightblue" d="M361.67,-137.14C365.93,-138.91 370.11,-140.86 374,-143 407.82,-161.63 441.06,-193.6 456.51,-209.47"/>
<polygon fill="midnightblue" stroke="midnightblue" points="362.88,-133.86 352.28,-133.59 360.4,-140.4 362.88,-133.86"/>
</g>
<!-- Node34 -->
<g id="node17" class="node">
<title>Node34</title>
<g id="a_node17"><a xlink:href="classEvrV2EventSelect.html" target="_top" xlink:title=" ">
<polygon fill="white" stroke="black" points="263,-304.5 263,-323.5 366,-323.5 366,-304.5 263,-304.5"/>
<text text-anchor="middle" x="314.5" y="-311.5" font-family="Helvetica,sans-Serif" font-size="10.00">EvrV2EventSelect</text>
</a>
</g>
</g>
<!-- Node34&#45;&gt;Node2 -->
<g id="edge14" class="edge">
<title>Node34&#45;&gt;Node2</title>
<path fill="none" stroke="midnightblue" d="M356.24,-326.77C362.22,-328.78 368.29,-330.89 374,-333 398.2,-341.94 425.46,-353.45 443.88,-361.45"/>
<polygon fill="midnightblue" stroke="midnightblue" points="356.92,-323.31 346.32,-323.5 354.73,-329.96 356.92,-323.31"/>
</g>
<!-- Node34&#45;&gt;Node28 -->
<g id="edge15" class="edge">
<title>Node34&#45;&gt;Node28</title>
<path fill="none" stroke="midnightblue" d="M376.32,-314C387.42,-314 398.94,-314 409.88,-314"/>
<polygon fill="midnightblue" stroke="midnightblue" points="376.28,-310.5 366.28,-314 376.28,-317.5 376.28,-310.5"/>
</g>
<!-- Node34&#45;&gt;Node30 -->
<g id="edge17" class="edge">
<title>Node34&#45;&gt;Node30</title>
<path fill="none" stroke="midnightblue" d="M363.31,-301.89C384.2,-296.6 408.35,-290.48 427.92,-285.52"/>
<polygon fill="midnightblue" stroke="midnightblue" points="362.19,-298.56 353.35,-304.41 363.9,-305.35 362.19,-298.56"/>
</g>
<!-- Node34&#45;&gt;Node29 -->
<g id="edge16" class="edge">
<title>Node34&#45;&gt;Node29</title>
<path fill="none" stroke="midnightblue" d="M363.46,-300.66C367.13,-298.97 370.69,-297.09 374,-295 393.67,-282.58 392.3,-272.1 410,-257 422.44,-246.39 437.87,-236.02 449.3,-228.8"/>
<polygon fill="midnightblue" stroke="midnightblue" points="362.1,-297.43 354.18,-304.47 364.76,-303.91 362.1,-297.43"/>
</g>
<!-- Node33 -->
<g id="node18" class="node">
<title>Node33</title>
<g id="a_node18"><a xlink:href="classEvrV2FromV1.html" target="_top" xlink:title=" ">
<polygon fill="white" stroke="black" points="273,-190.5 273,-209.5 356,-209.5 356,-190.5 273,-190.5"/>
<text text-anchor="middle" x="314.5" y="-197.5" font-family="Helvetica,sans-Serif" font-size="10.00">EvrV2FromV1</text>
</a>
</g>
</g>
<!-- Node33&#45;&gt;Node30 -->
<g id="edge19" class="edge">
<title>Node33&#45;&gt;Node30</title>
<path fill="none" stroke="midnightblue" d="M359.35,-212.95C364.36,-214.81 369.34,-216.83 374,-219 403.52,-232.74 435.18,-254.14 452.44,-266.43"/>
<polygon fill="midnightblue" stroke="midnightblue" points="360.35,-209.59 349.76,-209.58 358.04,-216.19 360.35,-209.59"/>
</g>
<!-- Node33&#45;&gt;Node29 -->
<g id="edge18" class="edge">
<title>Node33&#45;&gt;Node29</title>
<path fill="none" stroke="midnightblue" d="M366.31,-206.44C381.45,-208.35 398.07,-210.46 413.3,-212.39"/>
<polygon fill="midnightblue" stroke="midnightblue" points="366.45,-202.93 356.09,-205.14 365.57,-209.87 366.45,-202.93"/>
</g>
<!-- Node32 -->
<g id="node19" class="node">
<title>Node32</title>
<g id="a_node19"><a xlink:href="classEvrV2Trigger.html" target="_top" xlink:title=" ">
<polygon fill="white" stroke="black" points="275.5,-342.5 275.5,-361.5 353.5,-361.5 353.5,-342.5 275.5,-342.5"/>
<text text-anchor="middle" x="314.5" y="-349.5" font-family="Helvetica,sans-Serif" font-size="10.00">EvrV2Trigger</text>
</a>
</g>
</g>
<!-- Node32&#45;&gt;Node2 -->
<g id="edge20" class="edge">
<title>Node32&#45;&gt;Node2</title>
<path fill="none" stroke="midnightblue" d="M363.7,-358.11C387.61,-361.13 415.72,-364.69 436.33,-367.3"/>
<polygon fill="midnightblue" stroke="midnightblue" points="364.1,-354.63 353.74,-356.84 363.22,-361.57 364.1,-354.63"/>
</g>
<!-- Node32&#45;&gt;Node28 -->
<g id="edge21" class="edge">
<title>Node32&#45;&gt;Node28</title>
<path fill="none" stroke="midnightblue" d="M363.31,-339.89C384.2,-334.6 408.35,-328.48 427.92,-323.52"/>
<polygon fill="midnightblue" stroke="midnightblue" points="362.19,-336.56 353.35,-342.41 363.9,-343.35 362.19,-336.56"/>
</g>
<!-- Node32&#45;&gt;Node30 -->
<g id="edge23" class="edge">
<title>Node32&#45;&gt;Node30</title>
<path fill="none" stroke="midnightblue" d="M363.13,-338.81C366.92,-337.08 370.59,-335.15 374,-333 393.67,-320.58 390.43,-307.58 410,-295 415.91,-291.2 422.67,-288.07 429.39,-285.52"/>
<polygon fill="midnightblue" stroke="midnightblue" points="361.52,-335.69 353.57,-342.69 364.15,-342.17 361.52,-335.69"/>
</g>
<!-- Node32&#45;&gt;Node29 -->
<g id="edge22" class="edge">
<title>Node32&#45;&gt;Node29</title>
<path fill="none" stroke="midnightblue" d="M363.17,-340.35C367.07,-338.28 370.75,-335.86 374,-333 402.07,-308.32 385.74,-285.43 410,-257 420.16,-245.1 434.89,-235.24 446.62,-228.55"/>
<polygon fill="midnightblue" stroke="midnightblue" points="361.48,-337.27 353.77,-344.53 364.33,-343.66 361.48,-337.27"/>
</g>
<!-- Node31 -->
<g id="node20" class="node">
<title>Node31</title>
<g id="a_node20"><a xlink:href="classEvrV2TriggerCompl.html" target="_top" xlink:title=" ">
<polygon fill="white" stroke="black" points="259.5,-152.5 259.5,-171.5 369.5,-171.5 369.5,-152.5 259.5,-152.5"/>
<text text-anchor="middle" x="314.5" y="-159.5" font-family="Helvetica,sans-Serif" font-size="10.00">EvrV2TriggerCompl</text>
</a>
</g>
</g>
<!-- Node31&#45;&gt;Node29 -->
<g id="edge24" class="edge">
<title>Node31&#45;&gt;Node29</title>
<path fill="none" stroke="midnightblue" d="M356.24,-174.77C362.22,-176.78 368.29,-178.89 374,-181 398.2,-189.94 425.46,-201.45 443.88,-209.45"/>
<polygon fill="midnightblue" stroke="midnightblue" points="356.92,-171.31 346.32,-171.5 354.73,-177.96 356.92,-171.31"/>
</g>
<!-- Node27 -->
<g id="node21" class="node">
<title>Node27</title>
<g id="a_node21"><a xlink:href="classEvrV2TrigReg.html" target="_top" xlink:title=" ">
<polygon fill="white" stroke="black" points="274,-228.5 274,-247.5 355,-247.5 355,-228.5 274,-228.5"/>
<text text-anchor="middle" x="314.5" y="-235.5" font-family="Helvetica,sans-Serif" font-size="10.00">EvrV2TrigReg</text>
</a>
</g>
</g>
<!-- Node27&#45;&gt;Node28 -->
<g id="edge25" class="edge">
<title>Node27&#45;&gt;Node28</title>
<path fill="none" stroke="midnightblue" d="M363.46,-251.34C367.13,-253.03 370.69,-254.91 374,-257 393.67,-269.42 390.43,-282.42 410,-295 415.91,-298.8 422.67,-301.93 429.39,-304.48"/>
<polygon fill="midnightblue" stroke="midnightblue" points="364.76,-248.09 354.18,-247.53 362.1,-254.57 364.76,-248.09"/>
</g>
<!-- Node27&#45;&gt;Node30 -->
<g id="edge27" class="edge">
<title>Node27&#45;&gt;Node30</title>
<path fill="none" stroke="midnightblue" d="M363.31,-250.11C384.2,-255.4 408.35,-261.52 427.92,-266.48"/>
<polygon fill="midnightblue" stroke="midnightblue" points="363.9,-246.65 353.35,-247.59 362.19,-253.44 363.9,-246.65"/>
</g>
<!-- Node27&#45;&gt;Node29 -->
<g id="edge26" class="edge">
<title>Node27&#45;&gt;Node29</title>
<path fill="none" stroke="midnightblue" d="M365.64,-231.65C380.97,-229.71 397.88,-227.57 413.35,-225.61"/>
<polygon fill="midnightblue" stroke="midnightblue" points="364.78,-228.23 355.3,-232.96 365.66,-235.17 364.78,-228.23"/>
</g>
<!-- Node23 -->
<g id="node22" class="node">
<title>Node23</title>
<g id="a_node22"><a xlink:href="classTimingDeserializer.html" target="_top" xlink:title=" ">
<polygon fill="white" stroke="black" points="110,-323.5 110,-342.5 219,-342.5 219,-323.5 110,-323.5"/>
<text text-anchor="middle" x="164.5" y="-330.5" font-family="Helvetica,sans-Serif" font-size="10.00">TimingDeserializer</text>
</a>
</g>
</g>
<!-- Node23&#45;&gt;Node2 -->
<g id="edge28" class="edge">
<title>Node23&#45;&gt;Node2</title>
<path fill="none" stroke="midnightblue" d="M204.22,-346C209.23,-347.9 214.27,-349.92 219,-352 235.57,-359.27 237.44,-366.65 255,-371 318.14,-386.64 395.25,-380.53 436.37,-375.36"/>
<polygon fill="midnightblue" stroke="midnightblue" points="205.27,-342.66 194.67,-342.5 202.86,-349.23 205.27,-342.66"/>
</g>
<!-- Node17 -->
<g id="node23" class="node">
<title>Node17</title>
<g id="a_node23"><a xlink:href="classTimingFrameRx.html" target="_top" xlink:title=" ">
<polygon fill="white" stroke="black" points="267.5,-76.5 267.5,-95.5 361.5,-95.5 361.5,-76.5 267.5,-76.5"/>
<text text-anchor="middle" x="314.5" y="-83.5" font-family="Helvetica,sans-Serif" font-size="10.00">TimingFrameRx</text>
</a>
</g>
</g>
<!-- Node23&#45;&gt;Node17 -->
<g id="edge29" class="edge">
<title>Node23&#45;&gt;Node17</title>
<path fill="none" stroke="midnightblue" d="M215.73,-317.38C216.89,-316.33 217.99,-315.2 219,-314 279.73,-241.91 193.3,-176.26 255,-105 258.43,-101.04 262.68,-97.91 267.33,-95.42"/>
<polygon fill="midnightblue" stroke="midnightblue" points="213.41,-314.74 207.25,-323.36 217.44,-320.46 213.41,-314.74"/>
</g>
<!-- Node14 -->
<g id="node24" class="node">
<title>Node14</title>
<g id="a_node24"><a xlink:href="classTimingRx.html" target="_top" xlink:title=" ">
<polygon fill="white" stroke="black" points="435,-76.5 435,-95.5 498,-95.5 498,-76.5 435,-76.5"/>
<text text-anchor="middle" x="466.5" y="-83.5" font-family="Helvetica,sans-Serif" font-size="10.00">TimingRx</text>
</a>
</g>
</g>
<!-- Node17&#45;&gt;Node14 -->
<g id="edge30" class="edge">
<title>Node17&#45;&gt;Node14</title>
<path fill="none" stroke="midnightblue" d="M371.99,-86C393.3,-86 416.74,-86 434.83,-86"/>
<polygon fill="midnightblue" stroke="midnightblue" points="371.73,-82.5 361.73,-86 371.73,-89.5 371.73,-82.5"/>
</g>
<!-- Node14&#45;&gt;Node4 -->
<g id="edge31" class="edge">
<title>Node14&#45;&gt;Node4</title>
<path fill="none" stroke="midnightblue" d="M477.59,-104.53C489.45,-126.78 509.25,-165.41 523,-200 555.8,-282.49 583.73,-386.39 592.01,-418.26"/>
<polygon fill="midnightblue" stroke="midnightblue" points="480.57,-102.69 472.75,-95.54 474.41,-106 480.57,-102.69"/>
</g>
<!-- Node16 -->
<g id="node25" class="node">
<title>Node16</title>
<g id="a_node25"><a xlink:href="classTimingSerialDelay.html" target="_top" xlink:title=" ">
<polygon fill="white" stroke="black" points="111,-38.5 111,-57.5 218,-57.5 218,-38.5 111,-38.5"/>
<text text-anchor="middle" x="164.5" y="-45.5" font-family="Helvetica,sans-Serif" font-size="10.00">TimingSerialDelay</text>
</a>
</g>
</g>
<!-- Node16&#45;&gt;Node18 -->
<g id="edge33" class="edge">
<title>Node16&#45;&gt;Node18</title>
<path fill="none" stroke="midnightblue" d="M212.67,-35.89C233.29,-30.6 257.11,-24.48 276.42,-19.52"/>
<polygon fill="midnightblue" stroke="midnightblue" points="211.66,-32.53 202.85,-38.41 213.4,-39.31 211.66,-32.53"/>
</g>
<!-- Node16&#45;&gt;Node17 -->
<g id="edge32" class="edge">
<title>Node16&#45;&gt;Node17</title>
<path fill="none" stroke="midnightblue" d="M212.67,-60.11C233.29,-65.4 257.11,-71.52 276.42,-76.48"/>
<polygon fill="midnightblue" stroke="midnightblue" points="213.4,-56.69 202.85,-57.59 211.66,-63.47 213.4,-56.69"/>
</g>
<!-- Node15 -->
<g id="node26" class="node">
<title>Node15</title>
<g id="a_node26"><a xlink:href="classTimingSerializer.html" target="_top" xlink:title=" ">
<polygon fill="white" stroke="black" points="116.5,-437.5 116.5,-456.5 212.5,-456.5 212.5,-437.5 116.5,-437.5"/>
<text text-anchor="middle" x="164.5" y="-444.5" font-family="Helvetica,sans-Serif" font-size="10.00">TimingSerializer</text>
</a>
</g>
</g>
<!-- Node15&#45;&gt;Node1 -->
<g id="edge34" class="edge">
<title>Node15&#45;&gt;Node1</title>
<path fill="none" stroke="midnightblue" d="M222.8,-439.64C244.37,-436.87 267.94,-433.85 285.64,-431.58"/>
<polygon fill="midnightblue" stroke="midnightblue" points="222.21,-436.19 212.74,-440.94 223.1,-443.13 222.21,-436.19"/>
</g>
<!-- Node13 -->
<g id="node27" class="node">
<title>Node13</title>
<g id="a_node27"><a xlink:href="classTimingStreamRx.html" target="_top" xlink:title=" ">
<polygon fill="white" stroke="black" points="265.5,-38.5 265.5,-57.5 363.5,-57.5 363.5,-38.5 265.5,-38.5"/>
<text text-anchor="middle" x="314.5" y="-45.5" font-family="Helvetica,sans-Serif" font-size="10.00">TimingStreamRx</text>
</a>
</g>
</g>
<!-- Node13&#45;&gt;Node14 -->
<g id="edge35" class="edge">
<title>Node13&#45;&gt;Node14</title>
<path fill="none" stroke="midnightblue" d="M363.11,-60.06C386.54,-66 414.1,-72.98 434.73,-78.2"/>
<polygon fill="midnightblue" stroke="midnightblue" points="363.9,-56.65 353.35,-57.59 362.19,-63.44 363.9,-56.65"/>
</g>
<!-- Node8 -->
<g id="node28" class="node">
<title>Node8</title>
<g id="a_node28"><a xlink:href="classTPGMiniReg.html" target="_top" xlink:title=" ">
<polygon fill="white" stroke="black" points="276.5,-456.5 276.5,-475.5 352.5,-475.5 352.5,-456.5 276.5,-456.5"/>
<text text-anchor="middle" x="314.5" y="-463.5" font-family="Helvetica,sans-Serif" font-size="10.00">TPGMiniReg</text>
</a>
</g>
</g>
<!-- Node8&#45;&gt;Node3 -->
<g id="edge36" class="edge">
<title>Node8&#45;&gt;Node3</title>
<path fill="none" stroke="midnightblue" d="M362.3,-454.14C383.38,-448.8 407.94,-442.58 427.81,-437.55"/>
<polygon fill="midnightblue" stroke="midnightblue" points="361.41,-450.76 352.58,-456.61 363.13,-457.54 361.41,-450.76"/>
</g>
<!-- Node0 -->
<g id="node29" class="node">
<title>Node0</title>
<g id="a_node29"><a xlink:href="classTPSerializer.html" target="_top" xlink:title=" ">
<polygon fill="white" stroke="black" points="127.5,-399.5 127.5,-418.5 201.5,-418.5 201.5,-399.5 127.5,-399.5"/>
<text text-anchor="middle" x="164.5" y="-406.5" font-family="Helvetica,sans-Serif" font-size="10.00">TPSerializer</text>
</a>
</g>
</g>
<!-- Node0&#45;&gt;Node1 -->
<g id="edge37" class="edge">
<title>Node0&#45;&gt;Node1</title>
<path fill="none" stroke="midnightblue" d="M211.75,-414.94C235.95,-418.04 264.77,-421.74 285.55,-424.41"/>
<polygon fill="midnightblue" stroke="midnightblue" points="212.07,-411.45 201.7,-413.65 211.18,-418.39 212.07,-411.45"/>
</g>
</g>
</svg>
