<?xml version="1.0" encoding="UTF-8" standalone="no"?>
<!DOCTYPE svg PUBLIC "-//W3C//DTD SVG 1.1//EN"
 "http://www.w3.org/Graphics/SVG/1.1/DTD/svg11.dtd">
<!-- Generated by graphviz version 2.43.0 (0)
 -->
<!-- Title: Graphical Class Hierarchy Pages: 1 -->
<svg width="395pt" height="101pt"
 viewBox="0.00 0.00 395.00 101.00" xmlns="http://www.w3.org/2000/svg" xmlns:xlink="http://www.w3.org/1999/xlink">
<g id="graph0" class="graph" transform="scale(1 1) rotate(0) translate(4 97)">
<title>Graphical Class Hierarchy</title>
<!-- Node0 -->
<g id="Node000000" class="node">
<title>Node0</title>
<g id="a_Node000000"><a xlink:href="classEvrV1EventRAM256x32.html" target="_top" xlink:title=" ">
<polygon fill="white" stroke="#666666" points="131,-93 0,-93 0,-74 131,-74 131,-93"/>
<text text-anchor="middle" x="65.5" y="-81" font-family="Helvetica,sans-Serif" font-size="10.00">EvrV1EventRAM256x32</text>
</a>
</g>
</g>
<!-- Node1 -->
<g id="Node000001" class="node">
<title>Node1</title>
<g id="a_Node000001"><a xlink:href="classEvrV1EventReceiver.html" target="_top" xlink:title=" ">
<polygon fill="white" stroke="#666666" points="283,-56 167,-56 167,-37 283,-37 283,-56"/>
<text text-anchor="middle" x="225" y="-44" font-family="Helvetica,sans-Serif" font-size="10.00">EvrV1EventReceiver</text>
</a>
</g>
</g>
<!-- Node0&#45;&gt;Node1 -->
<g id="edge47_Node000000_Node000001" class="edge">
<title>Node0&#45;&gt;Node1</title>
<g id="a_edge47_Node000000_Node000001"><a xlink:title=" ">
<path fill="none" stroke="#63b8ff" d="M116.97,-71.64C138.41,-66.61 163.06,-60.82 183.3,-56.06"/>
<polygon fill="#63b8ff" stroke="#63b8ff" points="115.99,-68.28 107.06,-73.97 117.6,-75.09 115.99,-68.28"/>
</a>
</g>
</g>
<!-- Node2 -->
<g id="Node000002" class="node">
<title>Node2</title>
<g id="a_Node000002"><a xlink:href="classEvrV1Core.html" target="_top" xlink:title=" ">
<polygon fill="white" stroke="#666666" points="387,-37 319,-37 319,-18 387,-18 387,-37"/>
<text text-anchor="middle" x="353" y="-25" font-family="Helvetica,sans-Serif" font-size="10.00">EvrV1Core</text>
</a>
</g>
</g>
<!-- Node1&#45;&gt;Node2 -->
<g id="edge48_Node000001_Node000002" class="edge">
<title>Node1&#45;&gt;Node2</title>
<g id="a_edge48_Node000001_Node000002"><a xlink:title=" ">
<path fill="none" stroke="#63b8ff" d="M293.17,-36.37C302.08,-35.03 310.88,-33.7 318.85,-32.5"/>
<polygon fill="#63b8ff" stroke="#63b8ff" points="292.47,-32.94 283.1,-37.89 293.51,-39.86 292.47,-32.94"/>
</a>
</g>
</g>
<!-- Node4 -->
<g id="Node000004" class="node">
<title>Node4</title>
<g id="a_Node000004"><a xlink:href="classEvrV1HeartBeat.html" target="_top" xlink:title=" ">
<polygon fill="white" stroke="#666666" points="113,-56 18,-56 18,-37 113,-37 113,-56"/>
<text text-anchor="middle" x="65.5" y="-44" font-family="Helvetica,sans-Serif" font-size="10.00">EvrV1HeartBeat</text>
</a>
</g>
</g>
<!-- Node4&#45;&gt;Node1 -->
<g id="edge49_Node000004_Node000001" class="edge">
<title>Node4&#45;&gt;Node1</title>
<g id="a_edge49_Node000004_Node000001"><a xlink:title=" ">
<path fill="none" stroke="#63b8ff" d="M123.4,-46.5C137.51,-46.5 152.63,-46.5 166.76,-46.5"/>
<polygon fill="#63b8ff" stroke="#63b8ff" points="123.33,-43 113.33,-46.5 123.33,-50 123.33,-43"/>
</a>
</g>
</g>
<!-- Node3 -->
<g id="Node000003" class="node">
<title>Node3</title>
<g id="a_Node000003"><a xlink:href="classEvrV1Reg.html" target="_top" xlink:title=" ">
<polygon fill="white" stroke="#666666" points="257,-19 193,-19 193,0 257,0 257,-19"/>
<text text-anchor="middle" x="225" y="-7" font-family="Helvetica,sans-Serif" font-size="10.00">EvrV1Reg</text>
</a>
</g>
</g>
<!-- Node3&#45;&gt;Node2 -->
<g id="edge50_Node000003_Node000002" class="edge">
<title>Node3&#45;&gt;Node2</title>
<g id="a_edge50_Node000003_Node000002"><a xlink:title=" ">
<path fill="none" stroke="#63b8ff" d="M267.16,-15.38C283.82,-17.76 302.79,-20.47 318.57,-22.72"/>
<polygon fill="#63b8ff" stroke="#63b8ff" points="267.54,-11.9 257.15,-13.95 266.55,-18.83 267.54,-11.9"/>
</a>
</g>
</g>
<!-- Node5 -->
<g id="Node000005" class="node">
<title>Node5</title>
<g id="a_Node000005"><a xlink:href="classEvrV1TimeStampFIFO.html" target="_top" xlink:title=" ">
<polygon fill="white" stroke="#666666" points="127.5,-19 3.5,-19 3.5,0 127.5,0 127.5,-19"/>
<text text-anchor="middle" x="65.5" y="-7" font-family="Helvetica,sans-Serif" font-size="10.00">EvrV1TimeStampFIFO</text>
</a>
</g>
</g>
<!-- Node5&#45;&gt;Node1 -->
<g id="edge51_Node000005_Node000001" class="edge">
<title>Node5&#45;&gt;Node1</title>
<g id="a_edge51_Node000005_Node000001"><a xlink:title=" ">
<path fill="none" stroke="#63b8ff" d="M116.97,-21.36C138.41,-26.39 163.06,-32.18 183.3,-36.94"/>
<polygon fill="#63b8ff" stroke="#63b8ff" points="117.6,-17.91 107.06,-19.03 115.99,-24.72 117.6,-17.91"/>
</a>
</g>
</g>
</g>
</svg>
