<?xml version="1.0" encoding="UTF-8" standalone="no"?>
<!DOCTYPE svg PUBLIC "-//W3C//DTD SVG 1.1//EN"
 "http://www.w3.org/Graphics/SVG/1.1/DTD/svg11.dtd">
<!-- Generated by graphviz version 2.43.0 (0)
 -->
<!-- Title: Graphical Class Hierarchy Pages: 1 -->
<svg width="640pt" height="565pt"
 viewBox="0.00 0.00 640.00 565.00" xmlns="http://www.w3.org/2000/svg" xmlns:xlink="http://www.w3.org/1999/xlink">
<g id="graph0" class="graph" transform="scale(1 1) rotate(0) translate(4 561)">
<title>Graphical Class Hierarchy</title>
<!-- Node0 -->
<g id="Node000000" class="node">
<title>Node0</title>
<g id="a_Node000000"><a xlink:href="classClockTime.html" target="_top" xlink:title=" ">
<polygon fill="white" stroke="#666666" points="198.5,-446 130.5,-446 130.5,-427 198.5,-427 198.5,-446"/>
<text text-anchor="middle" x="164.5" y="-434" font-family="Helvetica,sans-Serif" font-size="10.00">ClockTime</text>
</a>
</g>
</g>
<!-- Node1 -->
<g id="Node000001" class="node">
<title>Node1</title>
<g id="a_Node000001"><a xlink:href="classTPGMini.html" target="_top" xlink:title=" ">
<polygon fill="white" stroke="#666666" points="343,-465 286,-465 286,-446 343,-446 343,-465"/>
<text text-anchor="middle" x="314.5" y="-453" font-family="Helvetica,sans-Serif" font-size="10.00">TPGMini</text>
</a>
</g>
</g>
<!-- Node0&#45;&gt;Node1 -->
<g id="edge1_Node000000_Node000001" class="edge">
<title>Node0&#45;&gt;Node1</title>
<g id="a_edge1_Node000000_Node000001"><a xlink:title=" ">
<path fill="none" stroke="#63b8ff" d="M208.65,-442.04C233.56,-445.24 264.16,-449.17 285.85,-451.95"/>
<polygon fill="#63b8ff" stroke="#63b8ff" points="209.08,-438.57 198.71,-440.76 208.19,-445.51 209.08,-438.57"/>
</a>
</g>
</g>
<!-- Node22 -->
<g id="Node000022" class="node">
<title>Node22</title>
<g id="a_Node000022"><a xlink:href="classTPGMiniStream.html" target="_top" xlink:title=" ">
<polygon fill="white" stroke="#666666" points="360.5,-428 268.5,-428 268.5,-409 360.5,-409 360.5,-428"/>
<text text-anchor="middle" x="314.5" y="-416" font-family="Helvetica,sans-Serif" font-size="10.00">TPGMiniStream</text>
</a>
</g>
</g>
<!-- Node0&#45;&gt;Node22 -->
<g id="edge5_Node000000_Node000022" class="edge">
<title>Node0&#45;&gt;Node22</title>
<g id="a_edge5_Node000000_Node000022"><a xlink:title=" ">
<path fill="none" stroke="#63b8ff" d="M208.75,-431.24C227.47,-428.96 249.4,-426.3 268.33,-423.99"/>
<polygon fill="#63b8ff" stroke="#63b8ff" points="208.22,-427.78 198.71,-432.46 209.06,-434.73 208.22,-427.78"/>
</a>
</g>
</g>
<!-- Node2 -->
<g id="Node000002" class="node">
<title>Node2</title>
<g id="a_Node000002"><a xlink:href="classTPGMiniCore.html" target="_top" xlink:title=" ">
<polygon fill="white" stroke="#666666" points="506.5,-465 426.5,-465 426.5,-446 506.5,-446 506.5,-465"/>
<text text-anchor="middle" x="466.5" y="-453" font-family="Helvetica,sans-Serif" font-size="10.00">TPGMiniCore</text>
</a>
</g>
</g>
<!-- Node1&#45;&gt;Node2 -->
<g id="edge2_Node000001_Node000002" class="edge">
<title>Node1&#45;&gt;Node2</title>
<g id="a_edge2_Node000001_Node000002"><a xlink:title=" ">
<path fill="none" stroke="#63b8ff" d="M353.13,-455.5C375.45,-455.5 403.7,-455.5 426.3,-455.5"/>
<polygon fill="#63b8ff" stroke="#63b8ff" points="353.01,-452 343.01,-455.5 353.01,-459 353.01,-452"/>
</a>
</g>
</g>
<!-- Node8 -->
<g id="Node000008" class="node">
<title>Node8</title>
<g id="a_Node000008"><a xlink:href="classEvrV2__tb.html" target="_top" xlink:title=" ">
<polygon fill="white" stroke="#666666" points="496.5,-334 436.5,-334 436.5,-315 496.5,-315 496.5,-334"/>
<text text-anchor="middle" x="466.5" y="-322" font-family="Helvetica,sans-Serif" font-size="10.00">EvrV2_tb</text>
</a>
</g>
</g>
<!-- Node1&#45;&gt;Node8 -->
<g id="edge4_Node000001_Node000008" class="edge">
<title>Node1&#45;&gt;Node8</title>
<g id="a_edge4_Node000001_Node000008"><a xlink:title=" ">
<path fill="none" stroke="#63b8ff" d="M352.75,-448.35C360.39,-445.59 367.94,-441.77 374,-436.5 401.59,-412.49 386.12,-390.2 410,-362.5 420.22,-350.65 434.95,-340.79 446.66,-334.09"/>
<polygon fill="#63b8ff" stroke="#63b8ff" points="351.65,-445.02 343.12,-451.31 353.71,-451.71 351.65,-445.02"/>
</a>
</g>
</g>
<!-- Node3 -->
<g id="Node000003" class="node">
<title>Node3</title>
<g id="a_Node000003"><a xlink:href="classTimingCore.html" target="_top" xlink:title=" ">
<polygon fill="white" stroke="#666666" points="632,-428 559,-428 559,-409 632,-409 632,-428"/>
<text text-anchor="middle" x="595.5" y="-416" font-family="Helvetica,sans-Serif" font-size="10.00">TimingCore</text>
</a>
</g>
</g>
<!-- Node2&#45;&gt;Node3 -->
<g id="edge3_Node000002_Node000003" class="edge">
<title>Node2&#45;&gt;Node3</title>
<g id="a_edge3_Node000002_Node000003"><a xlink:title=" ">
<path fill="none" stroke="#63b8ff" d="M509.81,-443.17C526.63,-438.27 545.69,-432.72 561.46,-428.12"/>
<polygon fill="#63b8ff" stroke="#63b8ff" points="508.83,-439.81 500.21,-445.97 510.79,-446.53 508.83,-439.81"/>
</a>
</g>
</g>
<!-- Node22&#45;&gt;Node2 -->
<g id="edge6_Node000022_Node000002" class="edge">
<title>Node22&#45;&gt;Node2</title>
<g id="a_edge6_Node000022_Node000002"><a xlink:title=" ">
<path fill="none" stroke="#63b8ff" d="M363.84,-430.43C384.19,-435.44 407.55,-441.21 426.74,-445.94"/>
<polygon fill="#63b8ff" stroke="#63b8ff" points="364.68,-427.03 354.13,-428.03 363,-433.82 364.68,-427.03"/>
</a>
</g>
</g>
<!-- Node23 -->
<g id="Node000023" class="node">
<title>Node23</title>
<g id="a_Node000023"><a xlink:href="classTPGMiniEdefTb.html" target="_top" xlink:title=" ">
<polygon fill="white" stroke="#666666" points="512,-391 421,-391 421,-372 512,-372 512,-391"/>
<text text-anchor="middle" x="466.5" y="-379" font-family="Helvetica,sans-Serif" font-size="10.00">TPGMiniEdefTb</text>
</a>
</g>
</g>
<!-- Node22&#45;&gt;Node23 -->
<g id="edge7_Node000022_Node000023" class="edge">
<title>Node22&#45;&gt;Node23</title>
<g id="a_edge7_Node000022_Node000023"><a xlink:title=" ">
<path fill="none" stroke="#63b8ff" d="M363.84,-406.57C384.19,-401.56 407.55,-395.79 426.74,-391.06"/>
<polygon fill="#63b8ff" stroke="#63b8ff" points="363,-403.18 354.13,-408.97 364.68,-409.97 363,-403.18"/>
</a>
</g>
</g>
<!-- Node21 -->
<g id="Node000021" class="node">
<title>Node21</title>
<g id="a_Node000021"><a xlink:href="classDivider.html" target="_top" xlink:title=" ">
<polygon fill="white" stroke="#666666" points="190.5,-409 138.5,-409 138.5,-390 190.5,-390 190.5,-409"/>
<text text-anchor="middle" x="164.5" y="-397" font-family="Helvetica,sans-Serif" font-size="10.00">Divider</text>
</a>
</g>
</g>
<!-- Node21&#45;&gt;Node1 -->
<g id="edge8_Node000021_Node000001" class="edge">
<title>Node21&#45;&gt;Node1</title>
<g id="a_edge8_Node000021_Node000001"><a xlink:title=" ">
<path fill="none" stroke="#63b8ff" d="M200.26,-410.29C206.57,-412.5 213.03,-414.94 219,-417.5 235.63,-424.63 238.34,-429.46 255,-436.5 264.84,-440.66 275.91,-444.47 285.76,-447.56"/>
<polygon fill="#63b8ff" stroke="#63b8ff" points="201.18,-406.9 190.58,-407.02 198.94,-413.53 201.18,-406.9"/>
</a>
</g>
</g>
<!-- Node21&#45;&gt;Node22 -->
<g id="edge9_Node000021_Node000022" class="edge">
<title>Node21&#45;&gt;Node22</title>
<g id="a_edge9_Node000021_Node000022"><a xlink:title=" ">
<path fill="none" stroke="#63b8ff" d="M200.68,-404.02C220.98,-406.62 246.72,-409.93 268.48,-412.72"/>
<polygon fill="#63b8ff" stroke="#63b8ff" points="200.97,-400.53 190.61,-402.72 200.08,-407.47 200.97,-400.53"/>
</a>
</g>
</g>
<!-- Node20 -->
<g id="Node000020" class="node">
<title>Node20</title>
<g id="a_Node000020"><a xlink:href="classTimingSerialDelayTb.html" target="_top" xlink:title=" ">
<polygon fill="white" stroke="#666666" points="374,-391 255,-391 255,-372 374,-372 374,-391"/>
<text text-anchor="middle" x="314.5" y="-379" font-family="Helvetica,sans-Serif" font-size="10.00">TimingSerialDelayTb</text>
</a>
</g>
</g>
<!-- Node21&#45;&gt;Node20 -->
<g id="edge10_Node000021_Node000020" class="edge">
<title>Node21&#45;&gt;Node20</title>
<g id="a_edge10_Node000021_Node000020"><a xlink:title=" ">
<path fill="none" stroke="#63b8ff" d="M200.67,-395.22C216.81,-393.26 236.4,-390.88 254.69,-388.65"/>
<polygon fill="#63b8ff" stroke="#63b8ff" points="200.11,-391.76 190.61,-396.45 200.96,-398.71 200.11,-391.76"/>
</a>
</g>
</g>
<!-- Node4 -->
<g id="Node000004" class="node">
<title>Node4</title>
<g id="a_Node000004"><a xlink:href="classEthTimingModule.html" target="_top" xlink:title=" ">
<polygon fill="white" stroke="#666666" points="517.5,-428 415.5,-428 415.5,-409 517.5,-409 517.5,-428"/>
<text text-anchor="middle" x="466.5" y="-416" font-family="Helvetica,sans-Serif" font-size="10.00">EthTimingModule</text>
</a>
</g>
</g>
<!-- Node4&#45;&gt;Node3 -->
<g id="edge11_Node000004_Node000003" class="edge">
<title>Node4&#45;&gt;Node3</title>
<g id="a_edge11_Node000004_Node000003"><a xlink:title=" ">
<path fill="none" stroke="#63b8ff" d="M527.78,-418.5C538.38,-418.5 549.1,-418.5 558.76,-418.5"/>
<polygon fill="#63b8ff" stroke="#63b8ff" points="527.69,-415 517.69,-418.5 527.69,-422 527.69,-415"/>
</a>
</g>
</g>
<!-- Node29 -->
<g id="Node000029" class="node">
<title>Node29</title>
<g id="a_Node000029"><a xlink:href="classEventSelect.html" target="_top" xlink:title=" ">
<polygon fill="white" stroke="#666666" points="74,-390 0,-390 0,-371 74,-371 74,-390"/>
<text text-anchor="middle" x="37" y="-378" font-family="Helvetica,sans-Serif" font-size="10.00">EventSelect</text>
</a>
</g>
</g>
<!-- Node28 -->
<g id="Node000028" class="node">
<title>Node28</title>
<g id="a_Node000028"><a xlink:href="classBsaControl.html" target="_top" xlink:title=" ">
<polygon fill="white" stroke="#666666" points="199.5,-557 129.5,-557 129.5,-538 199.5,-538 199.5,-557"/>
<text text-anchor="middle" x="164.5" y="-545" font-family="Helvetica,sans-Serif" font-size="10.00">BsaControl</text>
</a>
</g>
</g>
<!-- Node29&#45;&gt;Node28 -->
<g id="edge12_Node000029_Node000028" class="edge">
<title>Node29&#45;&gt;Node28</title>
<g id="a_edge12_Node000029_Node000028"><a xlink:title=" ">
<path fill="none" stroke="#63b8ff" d="M42.21,-399.87C50.06,-431.47 69.9,-494.15 110,-529.5 115.51,-534.36 122.39,-537.92 129.35,-540.52"/>
<polygon fill="#63b8ff" stroke="#63b8ff" points="45.6,-399.02 39.92,-390.08 38.79,-400.62 45.6,-399.02"/>
</a>
</g>
</g>
<!-- Node30 -->
<g id="Node000030" class="node">
<title>Node30</title>
<g id="a_Node000030"><a xlink:href="classCtrControl.html" target="_top" xlink:title=" ">
<polygon fill="white" stroke="#666666" points="197.5,-224 131.5,-224 131.5,-205 197.5,-205 197.5,-224"/>
<text text-anchor="middle" x="164.5" y="-212" font-family="Helvetica,sans-Serif" font-size="10.00">CtrControl</text>
</a>
</g>
</g>
<!-- Node29&#45;&gt;Node30 -->
<g id="edge14_Node000029_Node000030" class="edge">
<title>Node29&#45;&gt;Node30</title>
<g id="a_edge14_Node000029_Node000030"><a xlink:title=" ">
<path fill="none" stroke="#63b8ff" d="M42.35,-360.85C50.33,-329.32 70.25,-267.45 110,-232.5 116.03,-227.19 123.69,-223.44 131.31,-220.79"/>
<polygon fill="#63b8ff" stroke="#63b8ff" points="38.85,-360.44 39.94,-370.98 45.66,-362.06 38.85,-360.44"/>
</a>
</g>
</g>
<!-- Node28&#45;&gt;Node1 -->
<g id="edge13_Node000028_Node000001" class="edge">
<title>Node28&#45;&gt;Node1</title>
<g id="a_edge13_Node000028_Node000001"><a xlink:title=" ">
<path fill="none" stroke="#63b8ff" d="M208.76,-535.89C212.4,-534.05 215.87,-531.94 219,-529.5 242.34,-511.31 231.43,-491.38 255,-473.5 263.89,-466.76 275.33,-462.52 285.73,-459.86"/>
<polygon fill="#63b8ff" stroke="#63b8ff" points="207.29,-532.72 199.5,-539.9 210.07,-539.14 207.29,-532.72"/>
</a>
</g>
</g>
<!-- Node11 -->
<g id="Node000011" class="node">
<title>Node11</title>
<g id="a_Node000011"><a xlink:href="classEvrV2Axi.html" target="_top" xlink:title=" ">
<polygon fill="white" stroke="#666666" points="345,-241 284,-241 284,-222 345,-222 345,-241"/>
<text text-anchor="middle" x="314.5" y="-229" font-family="Helvetica,sans-Serif" font-size="10.00">EvrV2Axi</text>
</a>
</g>
</g>
<!-- Node10 -->
<g id="Node000010" class="node">
<title>Node10</title>
<g id="a_Node000010"><a xlink:href="classEvrV2CorePulseGen.html" target="_top" xlink:title=" ">
<polygon fill="white" stroke="#666666" points="523,-278 410,-278 410,-259 523,-259 523,-278"/>
<text text-anchor="middle" x="466.5" y="-266" font-family="Helvetica,sans-Serif" font-size="10.00">EvrV2CorePulseGen</text>
</a>
</g>
</g>
<!-- Node11&#45;&gt;Node10 -->
<g id="edge15_Node000011_Node000010" class="edge">
<title>Node11&#45;&gt;Node10</title>
<g id="a_edge15_Node000011_Node000010"><a xlink:title=" ">
<path fill="none" stroke="#63b8ff" d="M354.92,-241.22C377.12,-246.7 404.74,-253.51 426.82,-258.96"/>
<polygon fill="#63b8ff" stroke="#63b8ff" points="355.68,-237.81 345.14,-238.81 354.01,-244.6 355.68,-237.81"/>
</a>
</g>
</g>
<!-- Node12 -->
<g id="Node000012" class="node">
<title>Node12</title>
<g id="a_Node000012"><a xlink:href="classEvrV2Module.html" target="_top" xlink:title=" ">
<polygon fill="white" stroke="#666666" points="507,-241 426,-241 426,-222 507,-222 507,-241"/>
<text text-anchor="middle" x="466.5" y="-229" font-family="Helvetica,sans-Serif" font-size="10.00">EvrV2Module</text>
</a>
</g>
</g>
<!-- Node11&#45;&gt;Node12 -->
<g id="edge16_Node000011_Node000012" class="edge">
<title>Node11&#45;&gt;Node12</title>
<g id="a_edge16_Node000011_Node000012"><a xlink:title=" ">
<path fill="none" stroke="#63b8ff" d="M355.4,-231.5C377.24,-231.5 404.2,-231.5 425.98,-231.5"/>
<polygon fill="#63b8ff" stroke="#63b8ff" points="355.14,-228 345.14,-231.5 355.14,-235 355.14,-228"/>
</a>
</g>
</g>
<!-- Node15 -->
<g id="Node000015" class="node">
<title>Node15</title>
<g id="a_Node000015"><a xlink:href="classEvrV2ChannelReg.html" target="_top" xlink:title=" ">
<polygon fill="white" stroke="#666666" points="366.5,-130 262.5,-130 262.5,-111 366.5,-111 366.5,-130"/>
<text text-anchor="middle" x="314.5" y="-118" font-family="Helvetica,sans-Serif" font-size="10.00">EvrV2ChannelReg</text>
</a>
</g>
</g>
<!-- Node14 -->
<g id="Node000014" class="node">
<title>Node14</title>
<g id="a_Node000014"><a xlink:href="classEvrV2CoreTriggers.html" target="_top" xlink:title=" ">
<polygon fill="white" stroke="#666666" points="519.5,-185 413.5,-185 413.5,-166 519.5,-166 519.5,-185"/>
<text text-anchor="middle" x="466.5" y="-173" font-family="Helvetica,sans-Serif" font-size="10.00">EvrV2CoreTriggers</text>
</a>
</g>
</g>
<!-- Node15&#45;&gt;Node14 -->
<g id="edge17_Node000015_Node000014" class="edge">
<title>Node15&#45;&gt;Node14</title>
<g id="a_edge17_Node000015_Node000014"><a xlink:title=" ">
<path fill="none" stroke="#63b8ff" d="M357.86,-133.06C363.31,-134.82 368.81,-136.65 374,-138.5 398.06,-147.05 425.11,-158.18 443.52,-165.99"/>
<polygon fill="#63b8ff" stroke="#63b8ff" points="358.74,-129.67 348.15,-130.01 356.64,-136.35 358.74,-129.67"/>
</a>
</g>
</g>
<!-- Node9 -->
<g id="Node000009" class="node">
<title>Node9</title>
<g id="a_Node000009"><a xlink:href="classEvrV2EventSelect.html" target="_top" xlink:title=" ">
<polygon fill="white" stroke="#666666" points="366,-315 263,-315 263,-296 366,-296 366,-315"/>
<text text-anchor="middle" x="314.5" y="-303" font-family="Helvetica,sans-Serif" font-size="10.00">EvrV2EventSelect</text>
</a>
</g>
</g>
<!-- Node9&#45;&gt;Node8 -->
<g id="edge21_Node000009_Node000008" class="edge">
<title>Node9&#45;&gt;Node8</title>
<g id="a_edge21_Node000009_Node000008"><a xlink:title=" ">
<path fill="none" stroke="#63b8ff" d="M376.29,-313.2C396.97,-315.82 419.14,-318.63 436.21,-320.79"/>
<polygon fill="#63b8ff" stroke="#63b8ff" points="376.64,-309.72 366.28,-311.93 375.76,-316.66 376.64,-309.72"/>
</a>
</g>
</g>
<!-- Node9&#45;&gt;Node10 -->
<g id="edge18_Node000009_Node000010" class="edge">
<title>Node9&#45;&gt;Node10</title>
<g id="a_edge18_Node000009_Node000010"><a xlink:title=" ">
<path fill="none" stroke="#63b8ff" d="M363.84,-293.57C384.19,-288.56 407.55,-282.79 426.74,-278.06"/>
<polygon fill="#63b8ff" stroke="#63b8ff" points="363,-290.18 354.13,-295.97 364.68,-296.97 363,-290.18"/>
</a>
</g>
</g>
<!-- Node9&#45;&gt;Node12 -->
<g id="edge20_Node000009_Node000012" class="edge">
<title>Node9&#45;&gt;Node12</title>
<g id="a_edge20_Node000009_Node000012"><a xlink:title=" ">
<path fill="none" stroke="#63b8ff" d="M363.43,-292.11C367.11,-290.43 370.68,-288.57 374,-286.5 393.48,-274.38 390.52,-261.62 410,-249.5 415.42,-246.13 421.53,-243.33 427.67,-241.02"/>
<polygon fill="#63b8ff" stroke="#63b8ff" points="362.08,-288.88 354.14,-295.9 364.72,-295.36 362.08,-288.88"/>
</a>
</g>
</g>
<!-- Node9&#45;&gt;Node14 -->
<g id="edge19_Node000009_Node000014" class="edge">
<title>Node9&#45;&gt;Node14</title>
<g id="a_edge19_Node000009_Node000014"><a xlink:title=" ">
<path fill="none" stroke="#63b8ff" d="M367.77,-291.13C369.97,-289.72 372.06,-288.19 374,-286.5 401.59,-262.49 385.94,-240.05 410,-212.5 420.05,-200.99 434.5,-191.51 446.13,-185.03"/>
<polygon fill="#63b8ff" stroke="#63b8ff" points="366.04,-288.08 358.87,-295.88 369.33,-294.26 366.04,-288.08"/>
</a>
</g>
</g>
<!-- Node13 -->
<g id="Node000013" class="node">
<title>Node13</title>
<g id="a_Node000013"><a xlink:href="classEvrV2FromV1.html" target="_top" xlink:title=" ">
<polygon fill="white" stroke="#666666" points="356,-167 273,-167 273,-148 356,-148 356,-167"/>
<text text-anchor="middle" x="314.5" y="-155" font-family="Helvetica,sans-Serif" font-size="10.00">EvrV2FromV1</text>
</a>
</g>
</g>
<!-- Node13&#45;&gt;Node12 -->
<g id="edge23_Node000013_Node000012" class="edge">
<title>Node13&#45;&gt;Node12</title>
<g id="a_edge23_Node000013_Node000012"><a xlink:title=" ">
<path fill="none" stroke="#63b8ff" d="M361.2,-170.33C365.58,-171.93 369.91,-173.66 374,-175.5 403.37,-188.75 434.83,-209.67 452.14,-221.84"/>
<polygon fill="#63b8ff" stroke="#63b8ff" points="362.2,-166.98 351.6,-167.05 359.93,-173.6 362.2,-166.98"/>
</a>
</g>
</g>
<!-- Node13&#45;&gt;Node14 -->
<g id="edge22_Node000013_Node000014" class="edge">
<title>Node13&#45;&gt;Node14</title>
<g id="a_edge22_Node000013_Node000014"><a xlink:title=" ">
<path fill="none" stroke="#63b8ff" d="M366.31,-163.6C381.45,-165.41 398.07,-167.41 413.3,-169.24"/>
<polygon fill="#63b8ff" stroke="#63b8ff" points="366.44,-160.09 356.09,-162.37 365.6,-167.04 366.44,-160.09"/>
</a>
</g>
</g>
<!-- Node16 -->
<g id="Node000016" class="node">
<title>Node16</title>
<g id="a_Node000016"><a xlink:href="classEvrV2Trigger.html" target="_top" xlink:title=" ">
<polygon fill="white" stroke="#666666" points="353.5,-278 275.5,-278 275.5,-259 353.5,-259 353.5,-278"/>
<text text-anchor="middle" x="314.5" y="-266" font-family="Helvetica,sans-Serif" font-size="10.00">EvrV2Trigger</text>
</a>
</g>
</g>
<!-- Node16&#45;&gt;Node8 -->
<g id="edge27_Node000016_Node000008" class="edge">
<title>Node16&#45;&gt;Node8</title>
<g id="a_edge27_Node000016_Node000008"><a xlink:title=" ">
<path fill="none" stroke="#63b8ff" d="M358.07,-281.08C363.46,-282.82 368.88,-284.65 374,-286.5 398.27,-295.25 425.51,-306.79 443.91,-314.85"/>
<polygon fill="#63b8ff" stroke="#63b8ff" points="359.07,-277.72 348.48,-278.05 356.96,-284.4 359.07,-277.72"/>
</a>
</g>
</g>
<!-- Node16&#45;&gt;Node10 -->
<g id="edge24_Node000016_Node000010" class="edge">
<title>Node16&#45;&gt;Node10</title>
<g id="a_edge24_Node000016_Node000010"><a xlink:title=" ">
<path fill="none" stroke="#63b8ff" d="M364.05,-268.5C378.64,-268.5 394.76,-268.5 409.78,-268.5"/>
<polygon fill="#63b8ff" stroke="#63b8ff" points="363.74,-265 353.74,-268.5 363.74,-272 363.74,-265"/>
</a>
</g>
</g>
<!-- Node16&#45;&gt;Node12 -->
<g id="edge26_Node000016_Node000012" class="edge">
<title>Node16&#45;&gt;Node12</title>
<g id="a_edge26_Node000016_Node000012"><a xlink:title=" ">
<path fill="none" stroke="#63b8ff" d="M363.5,-256.66C383.95,-251.62 407.5,-245.81 426.81,-241.04"/>
<polygon fill="#63b8ff" stroke="#63b8ff" points="362.61,-253.27 353.74,-259.07 364.29,-260.07 362.61,-253.27"/>
</a>
</g>
</g>
<!-- Node16&#45;&gt;Node14 -->
<g id="edge25_Node000016_Node000014" class="edge">
<title>Node16&#45;&gt;Node14</title>
<g id="a_edge25_Node000016_Node000014"><a xlink:title=" ">
<path fill="none" stroke="#63b8ff" d="M363.1,-255.26C366.89,-253.54 370.58,-251.63 374,-249.5 393.48,-237.38 392.36,-227.17 410,-212.5 422.47,-202.14 437.9,-192.04 449.32,-185.02"/>
<polygon fill="#63b8ff" stroke="#63b8ff" points="361.49,-252.14 353.53,-259.13 364.11,-258.63 361.49,-252.14"/>
</a>
</g>
</g>
<!-- Node17 -->
<g id="Node000017" class="node">
<title>Node17</title>
<g id="a_Node000017"><a xlink:href="classEvrV2TriggerCompl.html" target="_top" xlink:title=" ">
<polygon fill="white" stroke="#666666" points="369.5,-93 259.5,-93 259.5,-74 369.5,-74 369.5,-93"/>
<text text-anchor="middle" x="314.5" y="-81" font-family="Helvetica,sans-Serif" font-size="10.00">EvrV2TriggerCompl</text>
</a>
</g>
</g>
<!-- Node17&#45;&gt;Node14 -->
<g id="edge28_Node000017_Node000014" class="edge">
<title>Node17&#45;&gt;Node14</title>
<g id="a_edge28_Node000017_Node000014"><a xlink:title=" ">
<path fill="none" stroke="#63b8ff" d="M363.66,-96.67C367.23,-98.14 370.71,-99.75 374,-101.5 407.54,-119.36 440.65,-150.33 456.24,-165.93"/>
<polygon fill="#63b8ff" stroke="#63b8ff" points="364.7,-93.32 354.11,-93.08 362.24,-99.87 364.7,-93.32"/>
</a>
</g>
</g>
<!-- Node18 -->
<g id="Node000018" class="node">
<title>Node18</title>
<g id="a_Node000018"><a xlink:href="classEvrV2TrigReg.html" target="_top" xlink:title=" ">
<polygon fill="white" stroke="#666666" points="355,-204 274,-204 274,-185 355,-185 355,-204"/>
<text text-anchor="middle" x="314.5" y="-192" font-family="Helvetica,sans-Serif" font-size="10.00">EvrV2TrigReg</text>
</a>
</g>
</g>
<!-- Node18&#45;&gt;Node10 -->
<g id="edge29_Node000018_Node000010" class="edge">
<title>Node18&#45;&gt;Node10</title>
<g id="a_edge29_Node000018_Node000010"><a xlink:title=" ">
<path fill="none" stroke="#63b8ff" d="M364.52,-207.52C367.82,-209.01 371.01,-210.67 374,-212.5 393.57,-224.47 390.62,-237.23 410,-249.5 415.94,-253.26 422.71,-256.37 429.43,-258.91"/>
<polygon fill="#63b8ff" stroke="#63b8ff" points="365.65,-204.2 355.07,-203.7 363.03,-210.69 365.65,-204.2"/>
</a>
</g>
</g>
<!-- Node18&#45;&gt;Node12 -->
<g id="edge31_Node000018_Node000012" class="edge">
<title>Node18&#45;&gt;Node12</title>
<g id="a_edge31_Node000018_Node000012"><a xlink:title=" ">
<path fill="none" stroke="#63b8ff" d="M363.84,-206.43C384.19,-211.44 407.55,-217.21 426.74,-221.94"/>
<polygon fill="#63b8ff" stroke="#63b8ff" points="364.68,-203.03 354.13,-204.03 363,-209.82 364.68,-203.03"/>
</a>
</g>
</g>
<!-- Node18&#45;&gt;Node14 -->
<g id="edge30_Node000018_Node000014" class="edge">
<title>Node18&#45;&gt;Node14</title>
<g id="a_edge30_Node000018_Node000014"><a xlink:title=" ">
<path fill="none" stroke="#63b8ff" d="M365.64,-188.15C380.97,-186.21 397.88,-184.07 413.35,-182.11"/>
<polygon fill="#63b8ff" stroke="#63b8ff" points="364.78,-184.73 355.3,-189.46 365.66,-191.67 364.78,-184.73"/>
</a>
</g>
</g>
<!-- Node7 -->
<g id="Node000007" class="node">
<title>Node7</title>
<g id="a_Node000007"><a xlink:href="classTimingDeserializer.html" target="_top" xlink:title=" ">
<polygon fill="white" stroke="#666666" points="219,-261 110,-261 110,-242 219,-242 219,-261"/>
<text text-anchor="middle" x="164.5" y="-249" font-family="Helvetica,sans-Serif" font-size="10.00">TimingDeserializer</text>
</a>
</g>
</g>
<!-- Node7&#45;&gt;Node8 -->
<g id="edge35_Node000007_Node000008" class="edge">
<title>Node7&#45;&gt;Node8</title>
<g id="a_edge35_Node000007_Node000008"><a xlink:title=" ">
<path fill="none" stroke="#63b8ff" d="M213.3,-265.66C215.29,-266.84 217.2,-268.12 219,-269.5 241.9,-287.04 229.6,-309.83 255,-323.5 312.92,-354.68 393.46,-342.51 436.17,-332.53"/>
<polygon fill="#63b8ff" stroke="#63b8ff" points="214.69,-262.44 204.19,-261.06 211.54,-268.69 214.69,-262.44"/>
</a>
</g>
</g>
<!-- Node6 -->
<g id="Node000006" class="node">
<title>Node6</title>
<g id="a_Node000006"><a xlink:href="classTimingFrameRx.html" target="_top" xlink:title=" ">
<polygon fill="white" stroke="#666666" points="361.5,-19 267.5,-19 267.5,0 361.5,0 361.5,-19"/>
<text text-anchor="middle" x="314.5" y="-7" font-family="Helvetica,sans-Serif" font-size="10.00">TimingFrameRx</text>
</a>
</g>
</g>
<!-- Node7&#45;&gt;Node6 -->
<g id="edge32_Node000007_Node000006" class="edge">
<title>Node7&#45;&gt;Node6</title>
<g id="a_edge32_Node000007_Node000006"><a xlink:title=" ">
<path fill="none" stroke="#63b8ff" d="M215.3,-236.26C216.62,-235.1 217.86,-233.85 219,-232.5 278.71,-161.85 193.79,-96.86 255,-27.5 258.45,-23.6 262.71,-20.53 267.37,-18.12"/>
<polygon fill="#63b8ff" stroke="#63b8ff" points="213.23,-233.44 206.97,-241.99 217.19,-239.2 213.23,-233.44"/>
</a>
</g>
</g>
<!-- Node5 -->
<g id="Node000005" class="node">
<title>Node5</title>
<g id="a_Node000005"><a xlink:href="classTimingRx.html" target="_top" xlink:title=" ">
<polygon fill="white" stroke="#666666" points="498,-56 435,-56 435,-37 498,-37 498,-56"/>
<text text-anchor="middle" x="466.5" y="-44" font-family="Helvetica,sans-Serif" font-size="10.00">TimingRx</text>
</a>
</g>
</g>
<!-- Node6&#45;&gt;Node5 -->
<g id="edge33_Node000006_Node000005" class="edge">
<title>Node6&#45;&gt;Node5</title>
<g id="a_edge33_Node000006_Node000005"><a xlink:title=" ">
<path fill="none" stroke="#63b8ff" d="M364.12,-21.49C387.26,-27.2 414.25,-33.86 434.56,-38.87"/>
<polygon fill="#63b8ff" stroke="#63b8ff" points="364.68,-18.03 354.13,-19.03 363,-24.82 364.68,-18.03"/>
</a>
</g>
</g>
<!-- Node5&#45;&gt;Node3 -->
<g id="edge34_Node000005_Node000003" class="edge">
<title>Node5&#45;&gt;Node3</title>
<g id="a_edge34_Node000005_Node000003"><a xlink:title=" ">
<path fill="none" stroke="#63b8ff" d="M478.23,-64.91C490.39,-86.34 510.16,-123.08 523,-156.5 559.7,-252.01 585.56,-373.85 592.58,-408.76"/>
<polygon fill="#63b8ff" stroke="#63b8ff" points="481.25,-63.14 473.24,-56.21 475.18,-66.62 481.25,-63.14"/>
</a>
</g>
</g>
<!-- Node19 -->
<g id="Node000019" class="node">
<title>Node19</title>
<g id="a_Node000019"><a xlink:href="classTimingSerialDelay.html" target="_top" xlink:title=" ">
<polygon fill="white" stroke="#666666" points="218,-298 111,-298 111,-279 218,-279 218,-298"/>
<text text-anchor="middle" x="164.5" y="-286" font-family="Helvetica,sans-Serif" font-size="10.00">TimingSerialDelay</text>
</a>
</g>
</g>
<!-- Node19&#45;&gt;Node20 -->
<g id="edge37_Node000019_Node000020" class="edge">
<title>Node19&#45;&gt;Node20</title>
<g id="a_edge37_Node000019_Node000020"><a xlink:title=" ">
<path fill="none" stroke="#63b8ff" d="M213.14,-302.66C215.18,-303.84 217.15,-305.12 219,-306.5 241.25,-323.08 233.3,-340.21 255,-357.5 262.64,-363.59 272.04,-368.34 281.05,-371.96"/>
<polygon fill="#63b8ff" stroke="#63b8ff" points="214.34,-299.35 203.83,-298.05 211.24,-305.62 214.34,-299.35"/>
</a>
</g>
</g>
<!-- Node19&#45;&gt;Node6 -->
<g id="edge36_Node000019_Node000006" class="edge">
<title>Node19&#45;&gt;Node6</title>
<g id="a_edge36_Node000019_Node000006"><a xlink:title=" ">
<path fill="none" stroke="#63b8ff" d="M215.77,-272.91C216.92,-271.85 218,-270.71 219,-269.5 288.1,-185.54 184.12,-109.96 255,-27.5 258.39,-23.55 262.63,-20.45 267.27,-18.03"/>
<polygon fill="#63b8ff" stroke="#63b8ff" points="213.44,-270.27 207.33,-278.93 217.51,-275.97 213.44,-270.27"/>
</a>
</g>
</g>
<!-- Node31 -->
<g id="Node000031" class="node">
<title>Node31</title>
<g id="a_Node000031"><a xlink:href="classTimingSerializer.html" target="_top" xlink:title=" ">
<polygon fill="white" stroke="#666666" points="212.5,-520 116.5,-520 116.5,-501 212.5,-501 212.5,-520"/>
<text text-anchor="middle" x="164.5" y="-508" font-family="Helvetica,sans-Serif" font-size="10.00">TimingSerializer</text>
</a>
</g>
</g>
<!-- Node31&#45;&gt;Node1 -->
<g id="edge38_Node000031_Node000001" class="edge">
<title>Node31&#45;&gt;Node1</title>
<g id="a_edge38_Node000031_Node000001"><a xlink:title=" ">
<path fill="none" stroke="#63b8ff" d="M206.17,-497.59C210.54,-495.97 214.89,-494.26 219,-492.5 235.63,-485.37 238.28,-480.41 255,-473.5 264.82,-469.44 275.89,-465.81 285.74,-462.88"/>
<polygon fill="#63b8ff" stroke="#63b8ff" points="204.91,-494.32 196.66,-500.96 207.25,-500.92 204.91,-494.32"/>
</a>
</g>
</g>
<!-- Node26 -->
<g id="Node000026" class="node">
<title>Node26</title>
<g id="a_Node000026"><a xlink:href="classTimingStreamRx.html" target="_top" xlink:title=" ">
<polygon fill="white" stroke="#666666" points="363.5,-56 265.5,-56 265.5,-37 363.5,-37 363.5,-56"/>
<text text-anchor="middle" x="314.5" y="-44" font-family="Helvetica,sans-Serif" font-size="10.00">TimingStreamRx</text>
</a>
</g>
</g>
<!-- Node26&#45;&gt;Node5 -->
<g id="edge39_Node000026_Node000005" class="edge">
<title>Node26&#45;&gt;Node5</title>
<g id="a_edge39_Node000026_Node000005"><a xlink:title=" ">
<path fill="none" stroke="#63b8ff" d="M373.82,-46.5C394.61,-46.5 417.2,-46.5 434.76,-46.5"/>
<polygon fill="#63b8ff" stroke="#63b8ff" points="373.79,-43 363.79,-46.5 373.79,-50 373.79,-43"/>
</a>
</g>
</g>
<!-- Node24 -->
<g id="Node000024" class="node">
<title>Node24</title>
<g id="a_Node000024"><a xlink:href="classTimingStreamTx.html" target="_top" xlink:title=" ">
<polygon fill="white" stroke="#666666" points="213.5,-372 115.5,-372 115.5,-353 213.5,-353 213.5,-372"/>
<text text-anchor="middle" x="164.5" y="-360" font-family="Helvetica,sans-Serif" font-size="10.00">TimingStreamTx</text>
</a>
</g>
</g>
<!-- Node24&#45;&gt;Node22 -->
<g id="edge40_Node000024_Node000022" class="edge">
<title>Node24&#45;&gt;Node22</title>
<g id="a_edge40_Node000024_Node000022"><a xlink:title=" ">
<path fill="none" stroke="#63b8ff" d="M206.17,-375.41C210.54,-377.03 214.89,-378.74 219,-380.5 235.63,-387.63 238.34,-392.46 255,-399.5 263.16,-402.95 272.18,-406.16 280.65,-408.92"/>
<polygon fill="#63b8ff" stroke="#63b8ff" points="207.25,-372.08 196.66,-372.04 204.91,-378.68 207.25,-372.08"/>
</a>
</g>
</g>
<!-- Node25 -->
<g id="Node000025" class="node">
<title>Node25</title>
<g id="a_Node000025"><a xlink:href="classTPGMiniEdef.html" target="_top" xlink:title=" ">
<polygon fill="white" stroke="#666666" points="204,-335 125,-335 125,-316 204,-316 204,-335"/>
<text text-anchor="middle" x="164.5" y="-323" font-family="Helvetica,sans-Serif" font-size="10.00">TPGMiniEdef</text>
</a>
</g>
</g>
<!-- Node25&#45;&gt;Node22 -->
<g id="edge41_Node000025_Node000022" class="edge">
<title>Node25&#45;&gt;Node22</title>
<g id="a_edge41_Node000025_Node000022"><a xlink:title=" ">
<path fill="none" stroke="#63b8ff" d="M213.32,-339.62C215.31,-340.82 217.21,-342.11 219,-343.5 242.34,-361.69 231.57,-381.44 255,-399.5 259.99,-403.35 265.79,-406.43 271.75,-408.9"/>
<polygon fill="#63b8ff" stroke="#63b8ff" points="214.74,-336.41 204.24,-335 211.56,-342.65 214.74,-336.41"/>
</a>
</g>
</g>
<!-- Node27 -->
<g id="Node000027" class="node">
<title>Node27</title>
<g id="a_Node000027"><a xlink:href="classTPGMiniReg.html" target="_top" xlink:title=" ">
<polygon fill="white" stroke="#666666" points="352.5,-502 276.5,-502 276.5,-483 352.5,-483 352.5,-502"/>
<text text-anchor="middle" x="314.5" y="-490" font-family="Helvetica,sans-Serif" font-size="10.00">TPGMiniReg</text>
</a>
</g>
</g>
<!-- Node27&#45;&gt;Node2 -->
<g id="edge42_Node000027_Node000002" class="edge">
<title>Node27&#45;&gt;Node2</title>
<g id="a_edge42_Node000027_Node000002"><a xlink:title=" ">
<path fill="none" stroke="#63b8ff" d="M362.43,-480.92C383.11,-475.82 407.12,-469.9 426.76,-465.06"/>
<polygon fill="#63b8ff" stroke="#63b8ff" points="361.45,-477.56 352.58,-483.35 363.13,-484.36 361.45,-477.56"/>
</a>
</g>
</g>
<!-- Node32 -->
<g id="Node000032" class="node">
<title>Node32</title>
<g id="a_Node000032"><a xlink:href="classTPSerializer.html" target="_top" xlink:title=" ">
<polygon fill="white" stroke="#666666" points="201.5,-483 127.5,-483 127.5,-464 201.5,-464 201.5,-483"/>
<text text-anchor="middle" x="164.5" y="-471" font-family="Helvetica,sans-Serif" font-size="10.00">TPSerializer</text>
</a>
</g>
</g>
<!-- Node32&#45;&gt;Node1 -->
<g id="edge43_Node000032_Node000001" class="edge">
<title>Node32&#45;&gt;Node1</title>
<g id="a_edge43_Node000032_Node000001"><a xlink:title=" ">
<path fill="none" stroke="#63b8ff" d="M211.75,-467.87C235.95,-464.93 264.77,-461.43 285.55,-458.9"/>
<polygon fill="#63b8ff" stroke="#63b8ff" points="211.21,-464.41 201.7,-469.1 212.05,-471.36 211.21,-464.41"/>
</a>
</g>
</g>
</g>
</svg>
