<?xml version="1.0" encoding="UTF-8" standalone="no"?>
<!DOCTYPE svg PUBLIC "-//W3C//DTD SVG 1.1//EN"
 "http://www.w3.org/Graphics/SVG/1.1/DTD/svg11.dtd">
<!-- Generated by graphviz version 2.43.0 (0)
 -->
<!-- Title: Graphical Class Hierarchy Pages: 1 -->
<svg width="640pt" height="565pt"
 viewBox="0.00 0.00 640.00 565.00" xmlns="http://www.w3.org/2000/svg" xmlns:xlink="http://www.w3.org/1999/xlink">
<g id="graph0" class="graph" transform="scale(1 1) rotate(0) translate(4 561)">
<title>Graphical Class Hierarchy</title>
<!-- Node0 -->
<g id="Node000000" class="node">
<title>Node0</title>
<g id="a_Node000000"><a xlink:href="classClockTime.html" target="_top" xlink:title=" ">
<polygon fill="white" stroke="#666666" points="198.5,-483 130.5,-483 130.5,-464 198.5,-464 198.5,-483"/>
<text text-anchor="middle" x="164.5" y="-471" font-family="Helvetica,sans-Serif" font-size="10.00">ClockTime</text>
</a>
</g>
</g>
<!-- Node1 -->
<g id="Node000001" class="node">
<title>Node1</title>
<g id="a_Node000001"><a xlink:href="classTPGMini.html" target="_top" xlink:title=" ">
<polygon fill="white" stroke="#666666" points="343,-428 286,-428 286,-409 343,-409 343,-428"/>
<text text-anchor="middle" x="314.5" y="-416" font-family="Helvetica,sans-Serif" font-size="10.00">TPGMini</text>
</a>
</g>
</g>
<!-- Node0&#45;&gt;Node1 -->
<g id="edge1_Node000000_Node000001" class="edge">
<title>Node0&#45;&gt;Node1</title>
<g id="a_edge1_Node000000_Node000001"><a xlink:title=" ">
<path fill="none" stroke="#63b8ff" d="M205.96,-460.56C210.4,-458.94 214.82,-457.24 219,-455.5 235.52,-448.63 238.45,-444.28 255,-437.5 264.88,-433.45 275.97,-429.67 285.81,-426.56"/>
<polygon fill="#63b8ff" stroke="#63b8ff" points="204.6,-457.32 196.33,-463.94 206.92,-463.93 204.6,-457.32"/>
</a>
</g>
</g>
<!-- Node23 -->
<g id="Node000023" class="node">
<title>Node23</title>
<g id="a_Node000023"><a xlink:href="classTPGMiniStream.html" target="_top" xlink:title=" ">
<polygon fill="white" stroke="#666666" points="360.5,-502 268.5,-502 268.5,-483 360.5,-483 360.5,-502"/>
<text text-anchor="middle" x="314.5" y="-490" font-family="Helvetica,sans-Serif" font-size="10.00">TPGMiniStream</text>
</a>
</g>
</g>
<!-- Node0&#45;&gt;Node23 -->
<g id="edge5_Node000000_Node000023" class="edge">
<title>Node0&#45;&gt;Node23</title>
<g id="a_edge5_Node000000_Node000023"><a xlink:title=" ">
<path fill="none" stroke="#63b8ff" d="M208.75,-479.05C227.47,-481.46 249.4,-484.27 268.33,-486.7"/>
<polygon fill="#63b8ff" stroke="#63b8ff" points="209.08,-475.57 198.71,-477.76 208.19,-482.51 209.08,-475.57"/>
</a>
</g>
</g>
<!-- Node2 -->
<g id="Node000002" class="node">
<title>Node2</title>
<g id="a_Node000002"><a xlink:href="classTPGMiniCore.html" target="_top" xlink:title=" ">
<polygon fill="white" stroke="#666666" points="506.5,-446 426.5,-446 426.5,-427 506.5,-427 506.5,-446"/>
<text text-anchor="middle" x="466.5" y="-434" font-family="Helvetica,sans-Serif" font-size="10.00">TPGMiniCore</text>
</a>
</g>
</g>
<!-- Node1&#45;&gt;Node2 -->
<g id="edge2_Node000001_Node000002" class="edge">
<title>Node1&#45;&gt;Node2</title>
<g id="a_edge2_Node000001_Node000002"><a xlink:title=" ">
<path fill="none" stroke="#63b8ff" d="M353.13,-423.02C375.45,-425.69 403.7,-429.08 426.3,-431.8"/>
<polygon fill="#63b8ff" stroke="#63b8ff" points="353.36,-419.52 343.01,-421.8 352.52,-426.47 353.36,-419.52"/>
</a>
</g>
</g>
<!-- Node8 -->
<g id="Node000008" class="node">
<title>Node8</title>
<g id="a_Node000008"><a xlink:href="classEvrV2__tb.html" target="_top" xlink:title=" ">
<polygon fill="white" stroke="#666666" points="496.5,-390 436.5,-390 436.5,-371 496.5,-371 496.5,-390"/>
<text text-anchor="middle" x="466.5" y="-378" font-family="Helvetica,sans-Serif" font-size="10.00">EvrV2_tb</text>
</a>
</g>
</g>
<!-- Node1&#45;&gt;Node8 -->
<g id="edge4_Node000001_Node000008" class="edge">
<title>Node1&#45;&gt;Node8</title>
<g id="a_edge4_Node000001_Node000008"><a xlink:title=" ">
<path fill="none" stroke="#63b8ff" d="M352.83,-409.04C378.66,-402.5 412.53,-393.92 436.37,-387.88"/>
<polygon fill="#63b8ff" stroke="#63b8ff" points="351.85,-405.68 343.01,-411.53 353.57,-412.47 351.85,-405.68"/>
</a>
</g>
</g>
<!-- Node3 -->
<g id="Node000003" class="node">
<title>Node3</title>
<g id="a_Node000003"><a xlink:href="classTimingCore.html" target="_top" xlink:title=" ">
<polygon fill="white" stroke="#666666" points="632,-352 559,-352 559,-333 632,-333 632,-352"/>
<text text-anchor="middle" x="595.5" y="-340" font-family="Helvetica,sans-Serif" font-size="10.00">TimingCore</text>
</a>
</g>
</g>
<!-- Node2&#45;&gt;Node3 -->
<g id="edge3_Node000002_Node000003" class="edge">
<title>Node2&#45;&gt;Node3</title>
<g id="a_edge3_Node000002_Node000003"><a xlink:title=" ">
<path fill="none" stroke="#63b8ff" d="M491.38,-421.22C501.29,-414.71 512.83,-406.92 523,-399.5 544.8,-383.59 569.18,-363.67 583.09,-352.09"/>
<polygon fill="#63b8ff" stroke="#63b8ff" points="489.29,-418.4 482.81,-426.79 493.1,-424.27 489.29,-418.4"/>
</a>
</g>
</g>
<!-- Node23&#45;&gt;Node2 -->
<g id="edge6_Node000023_Node000002" class="edge">
<title>Node23&#45;&gt;Node2</title>
<g id="a_edge6_Node000023_Node000002"><a xlink:title=" ">
<path fill="none" stroke="#63b8ff" d="M358.07,-479.92C363.46,-478.18 368.88,-476.35 374,-474.5 398.27,-465.75 425.51,-454.21 443.91,-446.15"/>
<polygon fill="#63b8ff" stroke="#63b8ff" points="356.96,-476.6 348.48,-482.95 359.07,-483.28 356.96,-476.6"/>
</a>
</g>
</g>
<!-- Node24 -->
<g id="Node000024" class="node">
<title>Node24</title>
<g id="a_Node000024"><a xlink:href="classTPGMiniEdefTb.html" target="_top" xlink:title=" ">
<polygon fill="white" stroke="#666666" points="512,-502 421,-502 421,-483 512,-483 512,-502"/>
<text text-anchor="middle" x="466.5" y="-490" font-family="Helvetica,sans-Serif" font-size="10.00">TPGMiniEdefTb</text>
</a>
</g>
</g>
<!-- Node23&#45;&gt;Node24 -->
<g id="edge7_Node000023_Node000024" class="edge">
<title>Node23&#45;&gt;Node24</title>
<g id="a_edge7_Node000023_Node000024"><a xlink:title=" ">
<path fill="none" stroke="#63b8ff" d="M370.58,-492.5C387.1,-492.5 405.02,-492.5 420.79,-492.5"/>
<polygon fill="#63b8ff" stroke="#63b8ff" points="370.5,-489 360.5,-492.5 370.5,-496 370.5,-489"/>
</a>
</g>
</g>
<!-- Node22 -->
<g id="Node000022" class="node">
<title>Node22</title>
<g id="a_Node000022"><a xlink:href="classDivider.html" target="_top" xlink:title=" ">
<polygon fill="white" stroke="#666666" points="190.5,-335 138.5,-335 138.5,-316 190.5,-316 190.5,-335"/>
<text text-anchor="middle" x="164.5" y="-323" font-family="Helvetica,sans-Serif" font-size="10.00">Divider</text>
</a>
</g>
</g>
<!-- Node22&#45;&gt;Node1 -->
<g id="edge8_Node000022_Node000001" class="edge">
<title>Node22&#45;&gt;Node1</title>
<g id="a_edge8_Node000022_Node000001"><a xlink:title=" ">
<path fill="none" stroke="#63b8ff" d="M200.32,-333.65C206.9,-336.15 213.46,-339.37 219,-343.5 241.25,-360.08 233.3,-377.21 255,-394.5 264.02,-401.68 275.48,-407.01 285.86,-410.8"/>
<polygon fill="#63b8ff" stroke="#63b8ff" points="201.36,-330.31 190.77,-330.48 199.16,-336.95 201.36,-330.31"/>
</a>
</g>
</g>
<!-- Node22&#45;&gt;Node23 -->
<g id="edge9_Node000022_Node000023" class="edge">
<title>Node22&#45;&gt;Node23</title>
<g id="a_edge9_Node000022_Node000023"><a xlink:title=" ">
<path fill="none" stroke="#63b8ff" d="M200.65,-331.88C207.46,-334.51 214.03,-338.24 219,-343.5 260.48,-387.38 212.96,-431.16 255,-474.5 258.77,-478.39 263.37,-481.44 268.3,-483.84"/>
<polygon fill="#63b8ff" stroke="#63b8ff" points="201.22,-328.39 190.63,-328.74 199.13,-335.07 201.22,-328.39"/>
</a>
</g>
</g>
<!-- Node21 -->
<g id="Node000021" class="node">
<title>Node21</title>
<g id="a_Node000021"><a xlink:href="classTimingSerialDelayTb.html" target="_top" xlink:title=" ">
<polygon fill="white" stroke="#666666" points="374,-93 255,-93 255,-74 374,-74 374,-93"/>
<text text-anchor="middle" x="314.5" y="-81" font-family="Helvetica,sans-Serif" font-size="10.00">TimingSerialDelayTb</text>
</a>
</g>
</g>
<!-- Node22&#45;&gt;Node21 -->
<g id="edge10_Node000022_Node000021" class="edge">
<title>Node22&#45;&gt;Node21</title>
<g id="a_edge10_Node000022_Node000021"><a xlink:title=" ">
<path fill="none" stroke="#63b8ff" d="M200.4,-319.05C207.43,-316.25 214.14,-312.24 219,-306.5 278.71,-235.85 193.79,-170.86 255,-101.5 258.02,-98.07 261.68,-95.29 265.68,-93.03"/>
<polygon fill="#63b8ff" stroke="#63b8ff" points="199.19,-315.76 190.75,-322.16 201.34,-322.42 199.19,-315.76"/>
</a>
</g>
</g>
<!-- Node4 -->
<g id="Node000004" class="node">
<title>Node4</title>
<g id="a_Node000004"><a xlink:href="classEthTimingModule.html" target="_top" xlink:title=" ">
<polygon fill="white" stroke="#666666" points="517.5,-352 415.5,-352 415.5,-333 517.5,-333 517.5,-352"/>
<text text-anchor="middle" x="466.5" y="-340" font-family="Helvetica,sans-Serif" font-size="10.00">EthTimingModule</text>
</a>
</g>
</g>
<!-- Node4&#45;&gt;Node3 -->
<g id="edge11_Node000004_Node000003" class="edge">
<title>Node4&#45;&gt;Node3</title>
<g id="a_edge11_Node000004_Node000003"><a xlink:title=" ">
<path fill="none" stroke="#63b8ff" d="M527.78,-342.5C538.38,-342.5 549.1,-342.5 558.76,-342.5"/>
<polygon fill="#63b8ff" stroke="#63b8ff" points="527.69,-339 517.69,-342.5 527.69,-346 527.69,-339"/>
</a>
</g>
</g>
<!-- Node30 -->
<g id="Node000030" class="node">
<title>Node30</title>
<g id="a_Node000030"><a xlink:href="classEventSelect.html" target="_top" xlink:title=" ">
<polygon fill="white" stroke="#666666" points="74,-372 0,-372 0,-353 74,-353 74,-372"/>
<text text-anchor="middle" x="37" y="-360" font-family="Helvetica,sans-Serif" font-size="10.00">EventSelect</text>
</a>
</g>
</g>
<!-- Node29 -->
<g id="Node000029" class="node">
<title>Node29</title>
<g id="a_Node000029"><a xlink:href="classBsaControl.html" target="_top" xlink:title=" ">
<polygon fill="white" stroke="#666666" points="199.5,-446 129.5,-446 129.5,-427 199.5,-427 199.5,-446"/>
<text text-anchor="middle" x="164.5" y="-434" font-family="Helvetica,sans-Serif" font-size="10.00">BsaControl</text>
</a>
</g>
</g>
<!-- Node30&#45;&gt;Node29 -->
<g id="edge12_Node000030_Node000029" class="edge">
<title>Node30&#45;&gt;Node29</title>
<g id="a_edge12_Node000030_Node000029"><a xlink:title=" ">
<path fill="none" stroke="#63b8ff" d="M55.72,-379.06C69.61,-391.32 89.9,-407.7 110,-418.5 116.04,-421.75 122.78,-424.56 129.38,-426.94"/>
<polygon fill="#63b8ff" stroke="#63b8ff" points="57.72,-376.15 47.96,-372.04 53.03,-381.34 57.72,-376.15"/>
</a>
</g>
</g>
<!-- Node31 -->
<g id="Node000031" class="node">
<title>Node31</title>
<g id="a_Node000031"><a xlink:href="classCtrControl.html" target="_top" xlink:title=" ">
<polygon fill="white" stroke="#666666" points="197.5,-298 131.5,-298 131.5,-279 197.5,-279 197.5,-298"/>
<text text-anchor="middle" x="164.5" y="-286" font-family="Helvetica,sans-Serif" font-size="10.00">CtrControl</text>
</a>
</g>
</g>
<!-- Node30&#45;&gt;Node31 -->
<g id="edge14_Node000030_Node000031" class="edge">
<title>Node30&#45;&gt;Node31</title>
<g id="a_edge14_Node000030_Node000031"><a xlink:title=" ">
<path fill="none" stroke="#63b8ff" d="M55.72,-345.94C69.61,-333.68 89.9,-317.3 110,-306.5 116.65,-302.93 124.14,-299.88 131.36,-297.36"/>
<polygon fill="#63b8ff" stroke="#63b8ff" points="53.03,-343.66 47.96,-352.96 57.72,-348.85 53.03,-343.66"/>
</a>
</g>
</g>
<!-- Node29&#45;&gt;Node1 -->
<g id="edge13_Node000029_Node000001" class="edge">
<title>Node29&#45;&gt;Node1</title>
<g id="a_edge13_Node000029_Node000001"><a xlink:title=" ">
<path fill="none" stroke="#63b8ff" d="M210.02,-431.08C234.66,-428.09 264.5,-424.46 285.79,-421.87"/>
<polygon fill="#63b8ff" stroke="#63b8ff" points="209.33,-427.64 199.83,-432.33 210.18,-434.59 209.33,-427.64"/>
</a>
</g>
</g>
<!-- Node15 -->
<g id="Node000015" class="node">
<title>Node15</title>
<g id="a_Node000015"><a xlink:href="classEvrV2Axi.html" target="_top" xlink:title=" ">
<polygon fill="white" stroke="#666666" points="345,-352 284,-352 284,-333 345,-333 345,-352"/>
<text text-anchor="middle" x="314.5" y="-340" font-family="Helvetica,sans-Serif" font-size="10.00">EvrV2Axi</text>
</a>
</g>
</g>
<!-- Node16 -->
<g id="Node000016" class="node">
<title>Node16</title>
<g id="a_Node000016"><a xlink:href="classEvrV2CorePulseGen.html" target="_top" xlink:title=" ">
<polygon fill="white" stroke="#666666" points="523,-315 410,-315 410,-296 523,-296 523,-315"/>
<text text-anchor="middle" x="466.5" y="-303" font-family="Helvetica,sans-Serif" font-size="10.00">EvrV2CorePulseGen</text>
</a>
</g>
</g>
<!-- Node15&#45;&gt;Node16 -->
<g id="edge15_Node000015_Node000016" class="edge">
<title>Node15&#45;&gt;Node16</title>
<g id="a_edge15_Node000015_Node000016"><a xlink:title=" ">
<path fill="none" stroke="#63b8ff" d="M354.92,-332.78C377.12,-327.3 404.74,-320.49 426.82,-315.04"/>
<polygon fill="#63b8ff" stroke="#63b8ff" points="354.01,-329.4 345.14,-335.19 355.68,-336.19 354.01,-329.4"/>
</a>
</g>
</g>
<!-- Node14 -->
<g id="Node000014" class="node">
<title>Node14</title>
<g id="a_Node000014"><a xlink:href="classEvrV2Module.html" target="_top" xlink:title=" ">
<polygon fill="white" stroke="#666666" points="507,-278 426,-278 426,-259 507,-259 507,-278"/>
<text text-anchor="middle" x="466.5" y="-266" font-family="Helvetica,sans-Serif" font-size="10.00">EvrV2Module</text>
</a>
</g>
</g>
<!-- Node15&#45;&gt;Node14 -->
<g id="edge16_Node000015_Node000014" class="edge">
<title>Node15&#45;&gt;Node14</title>
<g id="a_edge16_Node000015_Node000014"><a xlink:title=" ">
<path fill="none" stroke="#63b8ff" d="M354.91,-332.62C361.54,-330.15 368.15,-327.14 374,-323.5 393.48,-311.38 390.52,-298.62 410,-286.5 415.42,-283.13 421.53,-280.33 427.67,-278.02"/>
<polygon fill="#63b8ff" stroke="#63b8ff" points="353.65,-329.35 345.29,-335.86 355.88,-335.98 353.65,-329.35"/>
</a>
</g>
</g>
<!-- Node11 -->
<g id="Node000011" class="node">
<title>Node11</title>
<g id="a_Node000011"><a xlink:href="classEvrV2ChannelReg.html" target="_top" xlink:title=" ">
<polygon fill="white" stroke="#666666" points="366.5,-130 262.5,-130 262.5,-111 366.5,-111 366.5,-130"/>
<text text-anchor="middle" x="314.5" y="-118" font-family="Helvetica,sans-Serif" font-size="10.00">EvrV2ChannelReg</text>
</a>
</g>
</g>
<!-- Node10 -->
<g id="Node000010" class="node">
<title>Node10</title>
<g id="a_Node000010"><a xlink:href="classEvrV2CoreChannels.html" target="_top" xlink:title=" ">
<polygon fill="white" stroke="#666666" points="523,-167 410,-167 410,-148 523,-148 523,-167"/>
<text text-anchor="middle" x="466.5" y="-155" font-family="Helvetica,sans-Serif" font-size="10.00">EvrV2CoreChannels</text>
</a>
</g>
</g>
<!-- Node11&#45;&gt;Node10 -->
<g id="edge17_Node000011_Node000010" class="edge">
<title>Node11&#45;&gt;Node10</title>
<g id="a_edge17_Node000011_Node000010"><a xlink:title=" ">
<path fill="none" stroke="#63b8ff" d="M363.84,-132.43C384.19,-137.44 407.55,-143.21 426.74,-147.94"/>
<polygon fill="#63b8ff" stroke="#63b8ff" points="364.68,-129.03 354.13,-130.03 363,-135.82 364.68,-129.03"/>
</a>
</g>
</g>
<!-- Node12 -->
<g id="Node000012" class="node">
<title>Node12</title>
<g id="a_Node000012"><a xlink:href="classEvrV2CoreTriggers.html" target="_top" xlink:title=" ">
<polygon fill="white" stroke="#666666" points="519.5,-222 413.5,-222 413.5,-203 519.5,-203 519.5,-222"/>
<text text-anchor="middle" x="466.5" y="-210" font-family="Helvetica,sans-Serif" font-size="10.00">EvrV2CoreTriggers</text>
</a>
</g>
</g>
<!-- Node11&#45;&gt;Node12 -->
<g id="edge18_Node000011_Node000012" class="edge">
<title>Node11&#45;&gt;Node12</title>
<g id="a_edge18_Node000011_Node000012"><a xlink:title=" ">
<path fill="none" stroke="#63b8ff" d="M365.27,-133.86C368.3,-135.27 371.23,-136.81 374,-138.5 393.57,-150.47 392.36,-160.83 410,-175.5 422.47,-185.86 437.9,-195.96 449.32,-202.98"/>
<polygon fill="#63b8ff" stroke="#63b8ff" points="366.57,-130.61 355.99,-130.04 363.9,-137.08 366.57,-130.61"/>
</a>
</g>
</g>
<!-- Node9 -->
<g id="Node000009" class="node">
<title>Node9</title>
<g id="a_Node000009"><a xlink:href="classEvrV2EventSelect.html" target="_top" xlink:title=" ">
<polygon fill="white" stroke="#666666" points="366,-241 263,-241 263,-222 366,-222 366,-241"/>
<text text-anchor="middle" x="314.5" y="-229" font-family="Helvetica,sans-Serif" font-size="10.00">EvrV2EventSelect</text>
</a>
</g>
</g>
<!-- Node9&#45;&gt;Node8 -->
<g id="edge23_Node000009_Node000008" class="edge">
<title>Node9&#45;&gt;Node8</title>
<g id="a_edge23_Node000009_Node000008"><a xlink:title=" ">
<path fill="none" stroke="#63b8ff" d="M370.56,-246.47C371.76,-247.42 372.91,-248.43 374,-249.5 410.95,-285.89 373.92,-323.24 410,-360.5 417.05,-367.78 426.95,-372.43 436.44,-375.38"/>
<polygon fill="#63b8ff" stroke="#63b8ff" points="372.3,-243.43 361.98,-241.04 368.56,-249.35 372.3,-243.43"/>
</a>
</g>
</g>
<!-- Node9&#45;&gt;Node16 -->
<g id="edge20_Node000009_Node000016" class="edge">
<title>Node9&#45;&gt;Node16</title>
<g id="a_edge20_Node000009_Node000016"><a xlink:title=" ">
<path fill="none" stroke="#63b8ff" d="M365.27,-244.86C368.3,-246.27 371.23,-247.81 374,-249.5 393.57,-261.47 390.62,-274.23 410,-286.5 415.94,-290.26 422.71,-293.37 429.43,-295.91"/>
<polygon fill="#63b8ff" stroke="#63b8ff" points="366.57,-241.61 355.99,-241.04 363.9,-248.08 366.57,-241.61"/>
</a>
</g>
</g>
<!-- Node9&#45;&gt;Node14 -->
<g id="edge22_Node000009_Node000014" class="edge">
<title>Node9&#45;&gt;Node14</title>
<g id="a_edge22_Node000009_Node000014"><a xlink:title=" ">
<path fill="none" stroke="#63b8ff" d="M363.84,-243.43C384.19,-248.44 407.55,-254.21 426.74,-258.94"/>
<polygon fill="#63b8ff" stroke="#63b8ff" points="364.68,-240.03 354.13,-241.03 363,-246.82 364.68,-240.03"/>
</a>
</g>
</g>
<!-- Node9&#45;&gt;Node10 -->
<g id="edge19_Node000009_Node000010" class="edge">
<title>Node9&#45;&gt;Node10</title>
<g id="a_edge19_Node000009_Node000010"><a xlink:title=" ">
<path fill="none" stroke="#63b8ff" d="M359.13,-218.55C364.21,-216.68 369.26,-214.66 374,-212.5 389.26,-205.54 428.68,-180.93 450.47,-167.1"/>
<polygon fill="#63b8ff" stroke="#63b8ff" points="357.7,-215.34 349.41,-221.93 360,-221.95 357.7,-215.34"/>
</a>
</g>
</g>
<!-- Node9&#45;&gt;Node12 -->
<g id="edge21_Node000009_Node000012" class="edge">
<title>Node9&#45;&gt;Node12</title>
<g id="a_edge21_Node000009_Node000012"><a xlink:title=" ">
<path fill="none" stroke="#63b8ff" d="M376.45,-223.78C388.74,-222.22 401.54,-220.6 413.49,-219.09"/>
<polygon fill="#63b8ff" stroke="#63b8ff" points="375.76,-220.34 366.28,-225.07 376.64,-227.28 375.76,-220.34"/>
</a>
</g>
</g>
<!-- Node13 -->
<g id="Node000013" class="node">
<title>Node13</title>
<g id="a_Node000013"><a xlink:href="classEvrV2FromV1.html" target="_top" xlink:title=" ">
<polygon fill="white" stroke="#666666" points="356,-167 273,-167 273,-148 356,-148 356,-167"/>
<text text-anchor="middle" x="314.5" y="-155" font-family="Helvetica,sans-Serif" font-size="10.00">EvrV2FromV1</text>
</a>
</g>
</g>
<!-- Node13&#45;&gt;Node14 -->
<g id="edge26_Node000013_Node000014" class="edge">
<title>Node13&#45;&gt;Node14</title>
<g id="a_edge26_Node000013_Node000014"><a xlink:title=" ">
<path fill="none" stroke="#63b8ff" d="M365.53,-170.18C368.51,-171.76 371.37,-173.52 374,-175.5 397.35,-193.06 389.56,-209.63 410,-230.5 421.19,-241.93 436.3,-252.01 447.93,-258.91"/>
<polygon fill="#63b8ff" stroke="#63b8ff" points="366.85,-166.94 356.3,-166.02 363.98,-173.32 366.85,-166.94"/>
</a>
</g>
</g>
<!-- Node13&#45;&gt;Node10 -->
<g id="edge24_Node000013_Node000010" class="edge">
<title>Node13&#45;&gt;Node10</title>
<g id="a_edge24_Node000013_Node000010"><a xlink:title=" ">
<path fill="none" stroke="#63b8ff" d="M366.1,-157.5C380.19,-157.5 395.58,-157.5 409.95,-157.5"/>
<polygon fill="#63b8ff" stroke="#63b8ff" points="366.09,-154 356.09,-157.5 366.09,-161 366.09,-154"/>
</a>
</g>
</g>
<!-- Node13&#45;&gt;Node12 -->
<g id="edge25_Node000013_Node000012" class="edge">
<title>Node13&#45;&gt;Node12</title>
<g id="a_edge25_Node000013_Node000012"><a xlink:title=" ">
<path fill="none" stroke="#63b8ff" d="M357.86,-170.06C363.31,-171.82 368.81,-173.65 374,-175.5 398.06,-184.05 425.11,-195.18 443.52,-202.99"/>
<polygon fill="#63b8ff" stroke="#63b8ff" points="358.74,-166.67 348.15,-167.01 356.64,-173.35 358.74,-166.67"/>
</a>
</g>
</g>
<!-- Node17 -->
<g id="Node000017" class="node">
<title>Node17</title>
<g id="a_Node000017"><a xlink:href="classEvrV2Trigger.html" target="_top" xlink:title=" ">
<polygon fill="white" stroke="#666666" points="353.5,-315 275.5,-315 275.5,-296 353.5,-296 353.5,-315"/>
<text text-anchor="middle" x="314.5" y="-303" font-family="Helvetica,sans-Serif" font-size="10.00">EvrV2Trigger</text>
</a>
</g>
</g>
<!-- Node17&#45;&gt;Node8 -->
<g id="edge30_Node000017_Node000008" class="edge">
<title>Node17&#45;&gt;Node8</title>
<g id="a_edge30_Node000017_Node000008"><a xlink:title=" ">
<path fill="none" stroke="#63b8ff" d="M363.1,-317.88C366.9,-319.54 370.58,-321.41 374,-323.5 393.57,-335.47 390.71,-348.07 410,-360.5 418.01,-365.66 427.52,-369.71 436.39,-372.78"/>
<polygon fill="#63b8ff" stroke="#63b8ff" points="364.12,-314.52 353.53,-314.16 361.58,-321.04 364.12,-314.52"/>
</a>
</g>
</g>
<!-- Node17&#45;&gt;Node16 -->
<g id="edge27_Node000017_Node000016" class="edge">
<title>Node17&#45;&gt;Node16</title>
<g id="a_edge27_Node000017_Node000016"><a xlink:title=" ">
<path fill="none" stroke="#63b8ff" d="M364.05,-305.5C378.64,-305.5 394.76,-305.5 409.78,-305.5"/>
<polygon fill="#63b8ff" stroke="#63b8ff" points="363.74,-302 353.74,-305.5 363.74,-309 363.74,-302"/>
</a>
</g>
</g>
<!-- Node17&#45;&gt;Node14 -->
<g id="edge29_Node000017_Node000014" class="edge">
<title>Node17&#45;&gt;Node14</title>
<g id="a_edge29_Node000017_Node000014"><a xlink:title=" ">
<path fill="none" stroke="#63b8ff" d="M363.5,-293.66C383.95,-288.62 407.5,-282.81 426.81,-278.04"/>
<polygon fill="#63b8ff" stroke="#63b8ff" points="362.61,-290.27 353.74,-296.07 364.29,-297.07 362.61,-290.27"/>
</a>
</g>
</g>
<!-- Node17&#45;&gt;Node12 -->
<g id="edge28_Node000017_Node000012" class="edge">
<title>Node17&#45;&gt;Node12</title>
<g id="a_edge28_Node000017_Node000012"><a xlink:title=" ">
<path fill="none" stroke="#63b8ff" d="M363.1,-292.26C366.89,-290.54 370.58,-288.63 374,-286.5 393.48,-274.38 392.36,-264.17 410,-249.5 422.47,-239.14 437.9,-229.04 449.32,-222.02"/>
<polygon fill="#63b8ff" stroke="#63b8ff" points="361.49,-289.14 353.53,-296.13 364.11,-295.63 361.49,-289.14"/>
</a>
</g>
</g>
<!-- Node19 -->
<g id="Node000019" class="node">
<title>Node19</title>
<g id="a_Node000019"><a xlink:href="classEvrV2TriggerCompl.html" target="_top" xlink:title=" ">
<polygon fill="white" stroke="#666666" points="369.5,-204 259.5,-204 259.5,-185 369.5,-185 369.5,-204"/>
<text text-anchor="middle" x="314.5" y="-192" font-family="Helvetica,sans-Serif" font-size="10.00">EvrV2TriggerCompl</text>
</a>
</g>
</g>
<!-- Node19&#45;&gt;Node12 -->
<g id="edge31_Node000019_Node000012" class="edge">
<title>Node19&#45;&gt;Node12</title>
<g id="a_edge31_Node000019_Node000012"><a xlink:title=" ">
<path fill="none" stroke="#63b8ff" d="M379.83,-202.22C391.05,-203.57 402.6,-204.95 413.43,-206.25"/>
<polygon fill="#63b8ff" stroke="#63b8ff" points="380,-198.71 369.65,-201 379.17,-205.67 380,-198.71"/>
</a>
</g>
</g>
<!-- Node18 -->
<g id="Node000018" class="node">
<title>Node18</title>
<g id="a_Node000018"><a xlink:href="classEvrV2TrigReg.html" target="_top" xlink:title=" ">
<polygon fill="white" stroke="#666666" points="355,-278 274,-278 274,-259 355,-259 355,-278"/>
<text text-anchor="middle" x="314.5" y="-266" font-family="Helvetica,sans-Serif" font-size="10.00">EvrV2TrigReg</text>
</a>
</g>
</g>
<!-- Node18&#45;&gt;Node16 -->
<g id="edge32_Node000018_Node000016" class="edge">
<title>Node18&#45;&gt;Node16</title>
<g id="a_edge32_Node000018_Node000016"><a xlink:title=" ">
<path fill="none" stroke="#63b8ff" d="M363.84,-280.43C384.19,-285.44 407.55,-291.21 426.74,-295.94"/>
<polygon fill="#63b8ff" stroke="#63b8ff" points="364.68,-277.03 354.13,-278.03 363,-283.82 364.68,-277.03"/>
</a>
</g>
</g>
<!-- Node18&#45;&gt;Node14 -->
<g id="edge34_Node000018_Node000014" class="edge">
<title>Node18&#45;&gt;Node14</title>
<g id="a_edge34_Node000018_Node000014"><a xlink:title=" ">
<path fill="none" stroke="#63b8ff" d="M365.31,-268.5C384.96,-268.5 407.23,-268.5 425.77,-268.5"/>
<polygon fill="#63b8ff" stroke="#63b8ff" points="365.3,-265 355.3,-268.5 365.3,-272 365.3,-265"/>
</a>
</g>
</g>
<!-- Node18&#45;&gt;Node12 -->
<g id="edge33_Node000018_Node000012" class="edge">
<title>Node18&#45;&gt;Node12</title>
<g id="a_edge33_Node000018_Node000012"><a xlink:title=" ">
<path fill="none" stroke="#63b8ff" d="M356.22,-255.68C362.2,-253.68 368.28,-251.58 374,-249.5 397.83,-240.82 424.69,-229.81 443.11,-222.07"/>
<polygon fill="#63b8ff" stroke="#63b8ff" points="354.71,-252.49 346.3,-258.94 356.9,-259.14 354.71,-252.49"/>
</a>
</g>
</g>
<!-- Node7 -->
<g id="Node000007" class="node">
<title>Node7</title>
<g id="a_Node000007"><a xlink:href="classTimingDeserializer.html" target="_top" xlink:title=" ">
<polygon fill="white" stroke="#666666" points="219,-186 110,-186 110,-167 219,-167 219,-186"/>
<text text-anchor="middle" x="164.5" y="-174" font-family="Helvetica,sans-Serif" font-size="10.00">TimingDeserializer</text>
</a>
</g>
</g>
<!-- Node7&#45;&gt;Node8 -->
<g id="edge38_Node000007_Node000008" class="edge">
<title>Node7&#45;&gt;Node8</title>
<g id="a_edge38_Node000007_Node000008"><a xlink:title=" ">
<path fill="none" stroke="#63b8ff" d="M176.95,-194.57C188.37,-213 206.05,-242.64 219,-269.5 237.89,-308.68 220.23,-334.37 255,-360.5 308.41,-400.64 392.27,-393.81 436.29,-386.51"/>
<polygon fill="#63b8ff" stroke="#63b8ff" points="179.87,-192.64 171.6,-186.02 173.94,-196.36 179.87,-192.64"/>
</a>
</g>
</g>
<!-- Node6 -->
<g id="Node000006" class="node">
<title>Node6</title>
<g id="a_Node000006"><a xlink:href="classTimingFrameRx.html" target="_top" xlink:title=" ">
<polygon fill="white" stroke="#666666" points="361.5,-19 267.5,-19 267.5,0 361.5,0 361.5,-19"/>
<text text-anchor="middle" x="314.5" y="-7" font-family="Helvetica,sans-Serif" font-size="10.00">TimingFrameRx</text>
</a>
</g>
</g>
<!-- Node7&#45;&gt;Node6 -->
<g id="edge35_Node000007_Node000006" class="edge">
<title>Node7&#45;&gt;Node6</title>
<g id="a_edge35_Node000007_Node000006"><a xlink:title=" ">
<path fill="none" stroke="#63b8ff" d="M171.84,-157.38C183.33,-125.67 210.6,-62.26 255,-27.5 259.35,-24.09 264.35,-21.33 269.55,-19.08"/>
<polygon fill="#63b8ff" stroke="#63b8ff" points="168.53,-156.24 168.55,-166.83 175.14,-158.54 168.53,-156.24"/>
</a>
</g>
</g>
<!-- Node5 -->
<g id="Node000005" class="node">
<title>Node5</title>
<g id="a_Node000005"><a xlink:href="classTimingRx.html" target="_top" xlink:title=" ">
<polygon fill="white" stroke="#666666" points="498,-56 435,-56 435,-37 498,-37 498,-56"/>
<text text-anchor="middle" x="466.5" y="-44" font-family="Helvetica,sans-Serif" font-size="10.00">TimingRx</text>
</a>
</g>
</g>
<!-- Node6&#45;&gt;Node5 -->
<g id="edge36_Node000006_Node000005" class="edge">
<title>Node6&#45;&gt;Node5</title>
<g id="a_edge36_Node000006_Node000005"><a xlink:title=" ">
<path fill="none" stroke="#63b8ff" d="M364.12,-21.49C387.26,-27.2 414.25,-33.86 434.56,-38.87"/>
<polygon fill="#63b8ff" stroke="#63b8ff" points="364.68,-18.03 354.13,-19.03 363,-24.82 364.68,-18.03"/>
</a>
</g>
</g>
<!-- Node5&#45;&gt;Node3 -->
<g id="edge37_Node000005_Node000003" class="edge">
<title>Node5&#45;&gt;Node3</title>
<g id="a_edge37_Node000005_Node000003"><a xlink:title=" ">
<path fill="none" stroke="#63b8ff" d="M479.87,-64.48C491.96,-82.59 510.35,-111.62 523,-138.5 556.89,-210.48 583.68,-303.15 591.89,-332.87"/>
<polygon fill="#63b8ff" stroke="#63b8ff" points="482.69,-62.39 474.18,-56.07 476.89,-66.31 482.69,-62.39"/>
</a>
</g>
</g>
<!-- Node20 -->
<g id="Node000020" class="node">
<title>Node20</title>
<g id="a_Node000020"><a xlink:href="classTimingSerialDelay.html" target="_top" xlink:title=" ">
<polygon fill="white" stroke="#666666" points="218,-56 111,-56 111,-37 218,-37 218,-56"/>
<text text-anchor="middle" x="164.5" y="-44" font-family="Helvetica,sans-Serif" font-size="10.00">TimingSerialDelay</text>
</a>
</g>
</g>
<!-- Node20&#45;&gt;Node21 -->
<g id="edge40_Node000020_Node000021" class="edge">
<title>Node20&#45;&gt;Node21</title>
<g id="a_edge40_Node000020_Node000021"><a xlink:title=" ">
<path fill="none" stroke="#63b8ff" d="M213.47,-58.49C233.49,-63.5 256.41,-69.23 275.26,-73.94"/>
<polygon fill="#63b8ff" stroke="#63b8ff" points="214.16,-55.06 203.61,-56.03 212.47,-61.85 214.16,-55.06"/>
</a>
</g>
</g>
<!-- Node20&#45;&gt;Node6 -->
<g id="edge39_Node000020_Node000006" class="edge">
<title>Node20&#45;&gt;Node6</title>
<g id="a_edge39_Node000020_Node000006"><a xlink:title=" ">
<path fill="none" stroke="#63b8ff" d="M213.47,-34.51C233.49,-29.5 256.41,-23.77 275.26,-19.06"/>
<polygon fill="#63b8ff" stroke="#63b8ff" points="212.47,-31.15 203.61,-36.97 214.16,-37.94 212.47,-31.15"/>
</a>
</g>
</g>
<!-- Node32 -->
<g id="Node000032" class="node">
<title>Node32</title>
<g id="a_Node000032"><a xlink:href="classTimingSerializer.html" target="_top" xlink:title=" ">
<polygon fill="white" stroke="#666666" points="212.5,-409 116.5,-409 116.5,-390 212.5,-390 212.5,-409"/>
<text text-anchor="middle" x="164.5" y="-397" font-family="Helvetica,sans-Serif" font-size="10.00">TimingSerializer</text>
</a>
</g>
</g>
<!-- Node32&#45;&gt;Node1 -->
<g id="edge41_Node000032_Node000001" class="edge">
<title>Node32&#45;&gt;Node1</title>
<g id="a_edge41_Node000032_Node000001"><a xlink:title=" ">
<path fill="none" stroke="#63b8ff" d="M222.8,-406.86C244.37,-409.63 267.94,-412.65 285.64,-414.92"/>
<polygon fill="#63b8ff" stroke="#63b8ff" points="223.1,-403.37 212.74,-405.56 222.21,-410.31 223.1,-403.37"/>
</a>
</g>
</g>
<!-- Node27 -->
<g id="Node000027" class="node">
<title>Node27</title>
<g id="a_Node000027"><a xlink:href="classTimingStreamRx.html" target="_top" xlink:title=" ">
<polygon fill="white" stroke="#666666" points="363.5,-56 265.5,-56 265.5,-37 363.5,-37 363.5,-56"/>
<text text-anchor="middle" x="314.5" y="-44" font-family="Helvetica,sans-Serif" font-size="10.00">TimingStreamRx</text>
</a>
</g>
</g>
<!-- Node27&#45;&gt;Node5 -->
<g id="edge42_Node000027_Node000005" class="edge">
<title>Node27&#45;&gt;Node5</title>
<g id="a_edge42_Node000027_Node000005"><a xlink:title=" ">
<path fill="none" stroke="#63b8ff" d="M373.82,-46.5C394.61,-46.5 417.2,-46.5 434.76,-46.5"/>
<polygon fill="#63b8ff" stroke="#63b8ff" points="373.79,-43 363.79,-46.5 373.79,-50 373.79,-43"/>
</a>
</g>
</g>
<!-- Node25 -->
<g id="Node000025" class="node">
<title>Node25</title>
<g id="a_Node000025"><a xlink:href="classTimingStreamTx.html" target="_top" xlink:title=" ">
<polygon fill="white" stroke="#666666" points="213.5,-557 115.5,-557 115.5,-538 213.5,-538 213.5,-557"/>
<text text-anchor="middle" x="164.5" y="-545" font-family="Helvetica,sans-Serif" font-size="10.00">TimingStreamTx</text>
</a>
</g>
</g>
<!-- Node25&#45;&gt;Node23 -->
<g id="edge43_Node000025_Node000023" class="edge">
<title>Node25&#45;&gt;Node23</title>
<g id="a_edge43_Node000025_Node000023"><a xlink:title=" ">
<path fill="none" stroke="#63b8ff" d="M204.59,-534.59C209.46,-532.91 214.35,-531.19 219,-529.5 243.34,-520.65 270.89,-509.76 289.93,-502.1"/>
<polygon fill="#63b8ff" stroke="#63b8ff" points="203.08,-531.41 194.74,-537.95 205.34,-538.04 203.08,-531.41"/>
</a>
</g>
</g>
<!-- Node26 -->
<g id="Node000026" class="node">
<title>Node26</title>
<g id="a_Node000026"><a xlink:href="classTPGMiniEdef.html" target="_top" xlink:title=" ">
<polygon fill="white" stroke="#666666" points="204,-520 125,-520 125,-501 204,-501 204,-520"/>
<text text-anchor="middle" x="164.5" y="-508" font-family="Helvetica,sans-Serif" font-size="10.00">TPGMiniEdef</text>
</a>
</g>
</g>
<!-- Node26&#45;&gt;Node23 -->
<g id="edge44_Node000026_Node000023" class="edge">
<title>Node26&#45;&gt;Node23</title>
<g id="a_edge44_Node000026_Node000023"><a xlink:title=" ">
<path fill="none" stroke="#63b8ff" d="M214.35,-504.56C231.75,-502.44 251.25,-500.07 268.32,-497.99"/>
<polygon fill="#63b8ff" stroke="#63b8ff" points="213.89,-501.09 204.39,-505.77 214.73,-508.04 213.89,-501.09"/>
</a>
</g>
</g>
<!-- Node28 -->
<g id="Node000028" class="node">
<title>Node28</title>
<g id="a_Node000028"><a xlink:href="classTPGMiniReg.html" target="_top" xlink:title=" ">
<polygon fill="white" stroke="#666666" points="352.5,-465 276.5,-465 276.5,-446 352.5,-446 352.5,-465"/>
<text text-anchor="middle" x="314.5" y="-453" font-family="Helvetica,sans-Serif" font-size="10.00">TPGMiniReg</text>
</a>
</g>
</g>
<!-- Node28&#45;&gt;Node2 -->
<g id="edge45_Node000028_Node000002" class="edge">
<title>Node28&#45;&gt;Node2</title>
<g id="a_edge45_Node000028_Node000002"><a xlink:title=" ">
<path fill="none" stroke="#63b8ff" d="M362.67,-449.52C383.2,-446.92 406.98,-443.91 426.49,-441.44"/>
<polygon fill="#63b8ff" stroke="#63b8ff" points="362.06,-446.07 352.58,-450.8 362.94,-453.02 362.06,-446.07"/>
</a>
</g>
</g>
<!-- Node33 -->
<g id="Node000033" class="node">
<title>Node33</title>
<g id="a_Node000033"><a xlink:href="classTPSerializer.html" target="_top" xlink:title=" ">
<polygon fill="white" stroke="#666666" points="201.5,-372 127.5,-372 127.5,-353 201.5,-353 201.5,-372"/>
<text text-anchor="middle" x="164.5" y="-360" font-family="Helvetica,sans-Serif" font-size="10.00">TPSerializer</text>
</a>
</g>
</g>
<!-- Node33&#45;&gt;Node1 -->
<g id="edge46_Node000033_Node000001" class="edge">
<title>Node33&#45;&gt;Node1</title>
<g id="a_edge46_Node000033_Node000001"><a xlink:title=" ">
<path fill="none" stroke="#63b8ff" d="M204.61,-375.37C209.47,-377.05 214.36,-378.79 219,-380.5 232.44,-385.46 266.71,-399.36 290.07,-408.9"/>
<polygon fill="#63b8ff" stroke="#63b8ff" points="205.36,-371.92 194.76,-372.01 203.09,-378.55 205.36,-371.92"/>
</a>
</g>
</g>
</g>
</svg>
