<?xml version="1.0" encoding="UTF-8" standalone="no"?>
<!DOCTYPE svg PUBLIC "-//W3C//DTD SVG 1.1//EN"
 "http://www.w3.org/Graphics/SVG/1.1/DTD/svg11.dtd">
<!-- Generated by graphviz version 2.43.0 (0)
 -->
<!-- Title: Graphical Class Hierarchy Pages: 1 -->
<svg width="640pt" height="579pt"
 viewBox="0.00 0.00 640.00 579.00" xmlns="http://www.w3.org/2000/svg" xmlns:xlink="http://www.w3.org/1999/xlink">
<g id="graph0" class="graph" transform="scale(1 1) rotate(0) translate(4 575)">
<title>Graphical Class Hierarchy</title>
<polygon fill="white" stroke="transparent" points="-4,4 -4,-575 636,-575 636,4 -4,4"/>
<!-- Node0 -->
<g id="node1" class="node">
<title>Node0</title>
<g id="a_node1"><a xlink:href="classClockTime.html" target="_top" xlink:title=" ">
<polygon fill="white" stroke="black" points="130.5,-437.5 130.5,-456.5 198.5,-456.5 198.5,-437.5 130.5,-437.5"/>
<text text-anchor="middle" x="164.5" y="-444.5" font-family="Helvetica,sans-Serif" font-size="10.00">ClockTime</text>
</a>
</g>
</g>
<!-- Node1 -->
<g id="node2" class="node">
<title>Node1</title>
<g id="a_node2"><a xlink:href="classTPGMini.html" target="_top" xlink:title=" ">
<polygon fill="white" stroke="black" points="286,-456.5 286,-475.5 343,-475.5 343,-456.5 286,-456.5"/>
<text text-anchor="middle" x="314.5" y="-463.5" font-family="Helvetica,sans-Serif" font-size="10.00">TPGMini</text>
</a>
</g>
</g>
<!-- Node0&#45;&gt;Node1 -->
<g id="edge1" class="edge">
<title>Node0&#45;&gt;Node1</title>
<path fill="none" stroke="midnightblue" d="M208.65,-452.54C233.56,-455.74 264.16,-459.67 285.85,-462.45"/>
<polygon fill="midnightblue" stroke="midnightblue" points="209.08,-449.07 198.71,-451.26 208.19,-456.01 209.08,-449.07"/>
</g>
<!-- Node5 -->
<g id="node6" class="node">
<title>Node5</title>
<g id="a_node6"><a xlink:href="classTPGMiniStream.html" target="_top" xlink:title=" ">
<polygon fill="white" stroke="black" points="268.5,-418.5 268.5,-437.5 360.5,-437.5 360.5,-418.5 268.5,-418.5"/>
<text text-anchor="middle" x="314.5" y="-425.5" font-family="Helvetica,sans-Serif" font-size="10.00">TPGMiniStream</text>
</a>
</g>
</g>
<!-- Node0&#45;&gt;Node5 -->
<g id="edge5" class="edge">
<title>Node0&#45;&gt;Node5</title>
<path fill="none" stroke="midnightblue" d="M208.75,-441.45C227.47,-439.04 249.4,-436.23 268.33,-433.8"/>
<polygon fill="midnightblue" stroke="midnightblue" points="208.19,-437.99 198.71,-442.74 209.08,-444.93 208.19,-437.99"/>
</g>
<!-- Node2 -->
<g id="node3" class="node">
<title>Node2</title>
<g id="a_node3"><a xlink:href="classTPGMiniCore.html" target="_top" xlink:title=" ">
<polygon fill="white" stroke="black" points="426.5,-456.5 426.5,-475.5 506.5,-475.5 506.5,-456.5 426.5,-456.5"/>
<text text-anchor="middle" x="466.5" y="-463.5" font-family="Helvetica,sans-Serif" font-size="10.00">TPGMiniCore</text>
</a>
</g>
</g>
<!-- Node1&#45;&gt;Node2 -->
<g id="edge2" class="edge">
<title>Node1&#45;&gt;Node2</title>
<path fill="none" stroke="midnightblue" d="M353.13,-466C375.45,-466 403.7,-466 426.3,-466"/>
<polygon fill="midnightblue" stroke="midnightblue" points="353.01,-462.5 343.01,-466 353.01,-469.5 353.01,-462.5"/>
</g>
<!-- Node4 -->
<g id="node5" class="node">
<title>Node4</title>
<g id="a_node5"><a xlink:href="classEvrV2__tb.html" target="_top" xlink:title=" ">
<polygon fill="white" stroke="black" points="436.5,-323.5 436.5,-342.5 496.5,-342.5 496.5,-323.5 436.5,-323.5"/>
<text text-anchor="middle" x="466.5" y="-330.5" font-family="Helvetica,sans-Serif" font-size="10.00">EvrV2_tb</text>
</a>
</g>
</g>
<!-- Node1&#45;&gt;Node4 -->
<g id="edge4" class="edge">
<title>Node1&#45;&gt;Node4</title>
<path fill="none" stroke="midnightblue" d="M352.79,-458.89C360.43,-456.13 367.97,-452.3 374,-447 402.07,-422.32 385.74,-399.43 410,-371 420.16,-359.1 434.89,-349.24 446.62,-342.55"/>
<polygon fill="midnightblue" stroke="midnightblue" points="351.69,-455.57 343.16,-461.85 353.75,-462.26 351.69,-455.57"/>
</g>
<!-- Node3 -->
<g id="node4" class="node">
<title>Node3</title>
<g id="a_node4"><a xlink:href="classTimingCore.html" target="_top" xlink:title=" ">
<polygon fill="white" stroke="black" points="559,-418.5 559,-437.5 632,-437.5 632,-418.5 559,-418.5"/>
<text text-anchor="middle" x="595.5" y="-425.5" font-family="Helvetica,sans-Serif" font-size="10.00">TimingCore</text>
</a>
</g>
</g>
<!-- Node2&#45;&gt;Node3 -->
<g id="edge3" class="edge">
<title>Node2&#45;&gt;Node3</title>
<path fill="none" stroke="midnightblue" d="M509.39,-453.46C526.67,-448.3 546.37,-442.4 562.46,-437.59"/>
<polygon fill="midnightblue" stroke="midnightblue" points="508.12,-450.19 499.55,-456.41 510.13,-456.9 508.12,-450.19"/>
</g>
<!-- Node5&#45;&gt;Node2 -->
<g id="edge6" class="edge">
<title>Node5&#45;&gt;Node2</title>
<path fill="none" stroke="midnightblue" d="M363.31,-440.11C384.2,-445.4 408.35,-451.52 427.92,-456.48"/>
<polygon fill="midnightblue" stroke="midnightblue" points="363.9,-436.65 353.35,-437.59 362.19,-443.44 363.9,-436.65"/>
</g>
<!-- Node6 -->
<g id="node7" class="node">
<title>Node6</title>
<g id="a_node7"><a xlink:href="classTPGMiniEdefTb.html" target="_top" xlink:title=" ">
<polygon fill="white" stroke="black" points="421,-380.5 421,-399.5 512,-399.5 512,-380.5 421,-380.5"/>
<text text-anchor="middle" x="466.5" y="-387.5" font-family="Helvetica,sans-Serif" font-size="10.00">TPGMiniEdefTb</text>
</a>
</g>
</g>
<!-- Node5&#45;&gt;Node6 -->
<g id="edge7" class="edge">
<title>Node5&#45;&gt;Node6</title>
<path fill="none" stroke="midnightblue" d="M363.31,-415.89C384.2,-410.6 408.35,-404.48 427.92,-399.52"/>
<polygon fill="midnightblue" stroke="midnightblue" points="362.19,-412.56 353.35,-418.41 363.9,-419.35 362.19,-412.56"/>
</g>
<!-- Node9 -->
<g id="node8" class="node">
<title>Node9</title>
<g id="a_node8"><a xlink:href="classDivider.html" target="_top" xlink:title=" ">
<polygon fill="white" stroke="black" points="138.5,-399.5 138.5,-418.5 190.5,-418.5 190.5,-399.5 138.5,-399.5"/>
<text text-anchor="middle" x="164.5" y="-406.5" font-family="Helvetica,sans-Serif" font-size="10.00">Divider</text>
</a>
</g>
</g>
<!-- Node9&#45;&gt;Node1 -->
<g id="edge8" class="edge">
<title>Node9&#45;&gt;Node1</title>
<path fill="none" stroke="midnightblue" d="M200.24,-420.51C206.55,-422.84 213.02,-425.38 219,-428 235.57,-435.27 238.34,-439.96 255,-447 264.84,-451.16 275.91,-454.97 285.76,-458.06"/>
<polygon fill="midnightblue" stroke="midnightblue" points="201.16,-417.12 190.56,-417.06 198.81,-423.72 201.16,-417.12"/>
</g>
<!-- Node9&#45;&gt;Node5 -->
<g id="edge9" class="edge">
<title>Node9&#45;&gt;Node5</title>
<path fill="none" stroke="midnightblue" d="M200.68,-413.52C220.98,-416.12 246.72,-419.43 268.48,-422.22"/>
<polygon fill="midnightblue" stroke="midnightblue" points="200.97,-410.03 190.61,-412.22 200.08,-416.97 200.97,-410.03"/>
</g>
<!-- Node10 -->
<g id="node9" class="node">
<title>Node10</title>
<g id="a_node9"><a xlink:href="classTimingSerialDelayTb.html" target="_top" xlink:title=" ">
<polygon fill="white" stroke="black" points="255,-380.5 255,-399.5 374,-399.5 374,-380.5 255,-380.5"/>
<text text-anchor="middle" x="314.5" y="-387.5" font-family="Helvetica,sans-Serif" font-size="10.00">TimingSerialDelayTb</text>
</a>
</g>
</g>
<!-- Node9&#45;&gt;Node10 -->
<g id="edge10" class="edge">
<title>Node9&#45;&gt;Node10</title>
<path fill="none" stroke="midnightblue" d="M200.67,-404.48C216.81,-402.41 236.4,-399.9 254.69,-397.55"/>
<polygon fill="midnightblue" stroke="midnightblue" points="200.08,-401.03 190.61,-405.78 200.97,-407.97 200.08,-401.03"/>
</g>
<!-- Node11 -->
<g id="node10" class="node">
<title>Node11</title>
<g id="a_node10"><a xlink:href="classEthTimingModule.html" target="_top" xlink:title=" ">
<polygon fill="white" stroke="black" points="415.5,-418.5 415.5,-437.5 517.5,-437.5 517.5,-418.5 415.5,-418.5"/>
<text text-anchor="middle" x="466.5" y="-425.5" font-family="Helvetica,sans-Serif" font-size="10.00">EthTimingModule</text>
</a>
</g>
</g>
<!-- Node11&#45;&gt;Node3 -->
<g id="edge11" class="edge">
<title>Node11&#45;&gt;Node3</title>
<path fill="none" stroke="midnightblue" d="M527.78,-428C538.38,-428 549.1,-428 558.76,-428"/>
<polygon fill="midnightblue" stroke="midnightblue" points="527.69,-424.5 517.69,-428 527.69,-431.5 527.69,-424.5"/>
</g>
<!-- Node12 -->
<g id="node11" class="node">
<title>Node12</title>
<g id="a_node11"><a xlink:href="classEventSelect.html" target="_top" xlink:title=" ">
<polygon fill="white" stroke="black" points="0,-380.5 0,-399.5 74,-399.5 74,-380.5 0,-380.5"/>
<text text-anchor="middle" x="37" y="-387.5" font-family="Helvetica,sans-Serif" font-size="10.00">EventSelect</text>
</a>
</g>
</g>
<!-- Node13 -->
<g id="node12" class="node">
<title>Node13</title>
<g id="a_node12"><a xlink:href="classBsaControl.html" target="_top" xlink:title=" ">
<polygon fill="white" stroke="black" points="129.5,-551.5 129.5,-570.5 199.5,-570.5 199.5,-551.5 129.5,-551.5"/>
<text text-anchor="middle" x="164.5" y="-558.5" font-family="Helvetica,sans-Serif" font-size="10.00">BsaControl</text>
</a>
</g>
</g>
<!-- Node12&#45;&gt;Node13 -->
<g id="edge12" class="edge">
<title>Node12&#45;&gt;Node13</title>
<path fill="none" stroke="midnightblue" d="M42.16,-409.68C49.94,-441.8 69.69,-505.57 110,-542 115.48,-546.96 122.35,-550.64 129.31,-553.37"/>
<polygon fill="midnightblue" stroke="midnightblue" points="45.53,-408.7 39.89,-399.73 38.7,-410.26 45.53,-408.7"/>
</g>
<!-- Node14 -->
<g id="node13" class="node">
<title>Node14</title>
<g id="a_node13"><a xlink:href="classCtrControl.html" target="_top" xlink:title=" ">
<polygon fill="white" stroke="black" points="131.5,-209.5 131.5,-228.5 197.5,-228.5 197.5,-209.5 131.5,-209.5"/>
<text text-anchor="middle" x="164.5" y="-216.5" font-family="Helvetica,sans-Serif" font-size="10.00">CtrControl</text>
</a>
</g>
</g>
<!-- Node12&#45;&gt;Node14 -->
<g id="edge14" class="edge">
<title>Node12&#45;&gt;Node14</title>
<path fill="none" stroke="midnightblue" d="M42.16,-370.32C49.94,-338.2 69.69,-274.43 110,-238 116,-232.58 123.64,-228.68 131.26,-225.89"/>
<polygon fill="midnightblue" stroke="midnightblue" points="38.7,-369.74 39.89,-380.27 45.53,-371.3 38.7,-369.74"/>
</g>
<!-- Node13&#45;&gt;Node1 -->
<g id="edge13" class="edge">
<title>Node13&#45;&gt;Node1</title>
<path fill="none" stroke="midnightblue" d="M208.79,-548.57C212.42,-546.67 215.88,-544.49 219,-542 242.4,-523.29 231.34,-503.39 255,-485 263.94,-478.05 275.5,-473.6 285.99,-470.77"/>
<polygon fill="midnightblue" stroke="midnightblue" points="207.21,-545.44 199.53,-552.75 210.09,-551.82 207.21,-545.44"/>
</g>
<!-- Node23 -->
<g id="node14" class="node">
<title>Node23</title>
<g id="a_node14"><a xlink:href="classEvrV2Axi.html" target="_top" xlink:title=" ">
<polygon fill="white" stroke="black" points="284,-228.5 284,-247.5 345,-247.5 345,-228.5 284,-228.5"/>
<text text-anchor="middle" x="314.5" y="-235.5" font-family="Helvetica,sans-Serif" font-size="10.00">EvrV2Axi</text>
</a>
</g>
</g>
<!-- Node24 -->
<g id="node15" class="node">
<title>Node24</title>
<g id="a_node15"><a xlink:href="classEvrV2CorePulseGen.html" target="_top" xlink:title=" ">
<polygon fill="white" stroke="black" points="410,-266.5 410,-285.5 523,-285.5 523,-266.5 410,-266.5"/>
<text text-anchor="middle" x="466.5" y="-273.5" font-family="Helvetica,sans-Serif" font-size="10.00">EvrV2CorePulseGen</text>
</a>
</g>
</g>
<!-- Node23&#45;&gt;Node24 -->
<g id="edge15" class="edge">
<title>Node23&#45;&gt;Node24</title>
<path fill="none" stroke="midnightblue" d="M355.07,-248.02C377.62,-253.74 405.72,-260.86 427.93,-266.48"/>
<polygon fill="midnightblue" stroke="midnightblue" points="355.69,-244.57 345.14,-245.51 353.97,-251.36 355.69,-244.57"/>
</g>
<!-- Node25 -->
<g id="node16" class="node">
<title>Node25</title>
<g id="a_node16"><a xlink:href="classEvrV2Module.html" target="_top" xlink:title=" ">
<polygon fill="white" stroke="black" points="426,-228.5 426,-247.5 507,-247.5 507,-228.5 426,-228.5"/>
<text text-anchor="middle" x="466.5" y="-235.5" font-family="Helvetica,sans-Serif" font-size="10.00">EvrV2Module</text>
</a>
</g>
</g>
<!-- Node23&#45;&gt;Node25 -->
<g id="edge16" class="edge">
<title>Node23&#45;&gt;Node25</title>
<path fill="none" stroke="midnightblue" d="M355.4,-238C377.24,-238 404.2,-238 425.98,-238"/>
<polygon fill="midnightblue" stroke="midnightblue" points="355.14,-234.5 345.14,-238 355.14,-241.5 355.14,-234.5"/>
</g>
<!-- Node27 -->
<g id="node17" class="node">
<title>Node27</title>
<g id="a_node17"><a xlink:href="classEvrV2ChannelReg.html" target="_top" xlink:title=" ">
<polygon fill="white" stroke="black" points="262.5,-114.5 262.5,-133.5 366.5,-133.5 366.5,-114.5 262.5,-114.5"/>
<text text-anchor="middle" x="314.5" y="-121.5" font-family="Helvetica,sans-Serif" font-size="10.00">EvrV2ChannelReg</text>
</a>
</g>
</g>
<!-- Node28 -->
<g id="node18" class="node">
<title>Node28</title>
<g id="a_node18"><a xlink:href="classEvrV2CoreTriggers.html" target="_top" xlink:title=" ">
<polygon fill="white" stroke="black" points="413.5,-171.5 413.5,-190.5 519.5,-190.5 519.5,-171.5 413.5,-171.5"/>
<text text-anchor="middle" x="466.5" y="-178.5" font-family="Helvetica,sans-Serif" font-size="10.00">EvrV2CoreTriggers</text>
</a>
</g>
</g>
<!-- Node27&#45;&gt;Node28 -->
<g id="edge17" class="edge">
<title>Node27&#45;&gt;Node28</title>
<path fill="none" stroke="midnightblue" d="M356.24,-136.77C362.22,-138.78 368.29,-140.89 374,-143 398.2,-151.94 425.46,-163.45 443.88,-171.45"/>
<polygon fill="midnightblue" stroke="midnightblue" points="356.92,-133.31 346.32,-133.5 354.73,-139.96 356.92,-133.31"/>
</g>
<!-- Node29 -->
<g id="node19" class="node">
<title>Node29</title>
<g id="a_node19"><a xlink:href="classEvrV2EventSelect.html" target="_top" xlink:title=" ">
<polygon fill="white" stroke="black" points="263,-304.5 263,-323.5 366,-323.5 366,-304.5 263,-304.5"/>
<text text-anchor="middle" x="314.5" y="-311.5" font-family="Helvetica,sans-Serif" font-size="10.00">EvrV2EventSelect</text>
</a>
</g>
</g>
<!-- Node29&#45;&gt;Node4 -->
<g id="edge21" class="edge">
<title>Node29&#45;&gt;Node4</title>
<path fill="none" stroke="midnightblue" d="M376.29,-321.7C396.97,-324.32 419.14,-327.13 436.21,-329.29"/>
<polygon fill="midnightblue" stroke="midnightblue" points="376.64,-318.22 366.28,-320.43 375.76,-325.16 376.64,-318.22"/>
</g>
<!-- Node29&#45;&gt;Node24 -->
<g id="edge18" class="edge">
<title>Node29&#45;&gt;Node24</title>
<path fill="none" stroke="midnightblue" d="M363.31,-301.89C384.2,-296.6 408.35,-290.48 427.92,-285.52"/>
<polygon fill="midnightblue" stroke="midnightblue" points="362.19,-298.56 353.35,-304.41 363.9,-305.35 362.19,-298.56"/>
</g>
<!-- Node29&#45;&gt;Node25 -->
<g id="edge20" class="edge">
<title>Node29&#45;&gt;Node25</title>
<path fill="none" stroke="midnightblue" d="M363.46,-300.66C367.13,-298.97 370.69,-297.09 374,-295 393.67,-282.58 390.43,-269.58 410,-257 415.91,-253.2 422.67,-250.07 429.39,-247.52"/>
<polygon fill="midnightblue" stroke="midnightblue" points="362.1,-297.43 354.18,-304.47 364.76,-303.91 362.1,-297.43"/>
</g>
<!-- Node29&#45;&gt;Node28 -->
<g id="edge19" class="edge">
<title>Node29&#45;&gt;Node28</title>
<path fill="none" stroke="midnightblue" d="M367.79,-299.65C369.99,-298.24 372.07,-296.7 374,-295 402.07,-270.32 385.74,-247.43 410,-219 420.16,-207.1 434.89,-197.24 446.62,-190.55"/>
<polygon fill="midnightblue" stroke="midnightblue" points="366.06,-296.61 358.9,-304.43 369.37,-302.78 366.06,-296.61"/>
</g>
<!-- Node30 -->
<g id="node20" class="node">
<title>Node30</title>
<g id="a_node20"><a xlink:href="classEvrV2FromV1.html" target="_top" xlink:title=" ">
<polygon fill="white" stroke="black" points="273,-152.5 273,-171.5 356,-171.5 356,-152.5 273,-152.5"/>
<text text-anchor="middle" x="314.5" y="-159.5" font-family="Helvetica,sans-Serif" font-size="10.00">EvrV2FromV1</text>
</a>
</g>
</g>
<!-- Node30&#45;&gt;Node25 -->
<g id="edge23" class="edge">
<title>Node30&#45;&gt;Node25</title>
<path fill="none" stroke="midnightblue" d="M359.35,-174.95C364.36,-176.81 369.34,-178.83 374,-181 403.52,-194.74 435.18,-216.14 452.44,-228.43"/>
<polygon fill="midnightblue" stroke="midnightblue" points="360.35,-171.59 349.76,-171.58 358.04,-178.19 360.35,-171.59"/>
</g>
<!-- Node30&#45;&gt;Node28 -->
<g id="edge22" class="edge">
<title>Node30&#45;&gt;Node28</title>
<path fill="none" stroke="midnightblue" d="M366.31,-168.44C381.45,-170.35 398.07,-172.46 413.3,-174.39"/>
<polygon fill="midnightblue" stroke="midnightblue" points="366.45,-164.93 356.09,-167.14 365.57,-171.87 366.45,-164.93"/>
</g>
<!-- Node31 -->
<g id="node21" class="node">
<title>Node31</title>
<g id="a_node21"><a xlink:href="classEvrV2Trigger.html" target="_top" xlink:title=" ">
<polygon fill="white" stroke="black" points="275.5,-266.5 275.5,-285.5 353.5,-285.5 353.5,-266.5 275.5,-266.5"/>
<text text-anchor="middle" x="314.5" y="-273.5" font-family="Helvetica,sans-Serif" font-size="10.00">EvrV2Trigger</text>
</a>
</g>
</g>
<!-- Node31&#45;&gt;Node4 -->
<g id="edge27" class="edge">
<title>Node31&#45;&gt;Node4</title>
<path fill="none" stroke="midnightblue" d="M356.24,-288.77C362.22,-290.78 368.29,-292.89 374,-295 398.2,-303.94 425.46,-315.45 443.88,-323.45"/>
<polygon fill="midnightblue" stroke="midnightblue" points="356.92,-285.31 346.32,-285.5 354.73,-291.96 356.92,-285.31"/>
</g>
<!-- Node31&#45;&gt;Node24 -->
<g id="edge24" class="edge">
<title>Node31&#45;&gt;Node24</title>
<path fill="none" stroke="midnightblue" d="M364.05,-276C378.64,-276 394.76,-276 409.78,-276"/>
<polygon fill="midnightblue" stroke="midnightblue" points="363.74,-272.5 353.74,-276 363.74,-279.5 363.74,-272.5"/>
</g>
<!-- Node31&#45;&gt;Node25 -->
<g id="edge26" class="edge">
<title>Node31&#45;&gt;Node25</title>
<path fill="none" stroke="midnightblue" d="M363.31,-263.89C384.2,-258.6 408.35,-252.48 427.92,-247.52"/>
<polygon fill="midnightblue" stroke="midnightblue" points="362.19,-260.56 353.35,-266.41 363.9,-267.35 362.19,-260.56"/>
</g>
<!-- Node31&#45;&gt;Node28 -->
<g id="edge25" class="edge">
<title>Node31&#45;&gt;Node28</title>
<path fill="none" stroke="midnightblue" d="M363.13,-262.81C366.92,-261.08 370.59,-259.15 374,-257 393.67,-244.58 392.3,-234.1 410,-219 422.44,-208.39 437.87,-198.02 449.3,-190.8"/>
<polygon fill="midnightblue" stroke="midnightblue" points="361.52,-259.69 353.57,-266.69 364.15,-266.17 361.52,-259.69"/>
</g>
<!-- Node32 -->
<g id="node22" class="node">
<title>Node32</title>
<g id="a_node22"><a xlink:href="classEvrV2TriggerCompl.html" target="_top" xlink:title=" ">
<polygon fill="white" stroke="black" points="259.5,-76.5 259.5,-95.5 369.5,-95.5 369.5,-76.5 259.5,-76.5"/>
<text text-anchor="middle" x="314.5" y="-83.5" font-family="Helvetica,sans-Serif" font-size="10.00">EvrV2TriggerCompl</text>
</a>
</g>
</g>
<!-- Node32&#45;&gt;Node28 -->
<g id="edge28" class="edge">
<title>Node32&#45;&gt;Node28</title>
<path fill="none" stroke="midnightblue" d="M361.67,-99.14C365.93,-100.91 370.11,-102.86 374,-105 407.82,-123.63 441.06,-155.6 456.51,-171.47"/>
<polygon fill="midnightblue" stroke="midnightblue" points="362.88,-95.86 352.28,-95.59 360.4,-102.4 362.88,-95.86"/>
</g>
<!-- Node33 -->
<g id="node23" class="node">
<title>Node33</title>
<g id="a_node23"><a xlink:href="classEvrV2TrigReg.html" target="_top" xlink:title=" ">
<polygon fill="white" stroke="black" points="274,-190.5 274,-209.5 355,-209.5 355,-190.5 274,-190.5"/>
<text text-anchor="middle" x="314.5" y="-197.5" font-family="Helvetica,sans-Serif" font-size="10.00">EvrV2TrigReg</text>
</a>
</g>
</g>
<!-- Node33&#45;&gt;Node24 -->
<g id="edge29" class="edge">
<title>Node33&#45;&gt;Node24</title>
<path fill="none" stroke="midnightblue" d="M363.46,-213.34C367.13,-215.03 370.69,-216.91 374,-219 393.67,-231.42 390.43,-244.42 410,-257 415.91,-260.8 422.67,-263.93 429.39,-266.48"/>
<polygon fill="midnightblue" stroke="midnightblue" points="364.76,-210.09 354.18,-209.53 362.1,-216.57 364.76,-210.09"/>
</g>
<!-- Node33&#45;&gt;Node25 -->
<g id="edge31" class="edge">
<title>Node33&#45;&gt;Node25</title>
<path fill="none" stroke="midnightblue" d="M363.31,-212.11C384.2,-217.4 408.35,-223.52 427.92,-228.48"/>
<polygon fill="midnightblue" stroke="midnightblue" points="363.9,-208.65 353.35,-209.59 362.19,-215.44 363.9,-208.65"/>
</g>
<!-- Node33&#45;&gt;Node28 -->
<g id="edge30" class="edge">
<title>Node33&#45;&gt;Node28</title>
<path fill="none" stroke="midnightblue" d="M365.64,-193.65C380.97,-191.71 397.88,-189.57 413.35,-187.61"/>
<polygon fill="midnightblue" stroke="midnightblue" points="364.78,-190.23 355.3,-194.96 365.66,-197.17 364.78,-190.23"/>
</g>
<!-- Node37 -->
<g id="node24" class="node">
<title>Node37</title>
<g id="a_node24"><a xlink:href="classTimingDeserializer.html" target="_top" xlink:title=" ">
<polygon fill="white" stroke="black" points="110,-247.5 110,-266.5 219,-266.5 219,-247.5 110,-247.5"/>
<text text-anchor="middle" x="164.5" y="-254.5" font-family="Helvetica,sans-Serif" font-size="10.00">TimingDeserializer</text>
</a>
</g>
</g>
<!-- Node37&#45;&gt;Node4 -->
<g id="edge35" class="edge">
<title>Node37&#45;&gt;Node4</title>
<path fill="none" stroke="midnightblue" d="M211.69,-271.03C214.27,-272.53 216.73,-274.18 219,-276 242.4,-294.71 228.76,-318.54 255,-333 312.77,-364.84 393.72,-351.78 436.45,-341.31"/>
<polygon fill="midnightblue" stroke="midnightblue" points="213.12,-267.83 202.6,-266.5 209.99,-274.1 213.12,-267.83"/>
</g>
<!-- Node38 -->
<g id="node25" class="node">
<title>Node38</title>
<g id="a_node25"><a xlink:href="classTimingFrameRx.html" target="_top" xlink:title=" ">
<polygon fill="white" stroke="black" points="267.5,-0.5 267.5,-19.5 361.5,-19.5 361.5,-0.5 267.5,-0.5"/>
<text text-anchor="middle" x="314.5" y="-7.5" font-family="Helvetica,sans-Serif" font-size="10.00">TimingFrameRx</text>
</a>
</g>
</g>
<!-- Node37&#45;&gt;Node38 -->
<g id="edge32" class="edge">
<title>Node37&#45;&gt;Node38</title>
<path fill="none" stroke="midnightblue" d="M215.73,-241.38C216.89,-240.33 217.99,-239.2 219,-238 279.73,-165.91 193.3,-100.26 255,-29 258.43,-25.04 262.68,-21.91 267.33,-19.42"/>
<polygon fill="midnightblue" stroke="midnightblue" points="213.41,-238.74 207.25,-247.36 217.44,-244.46 213.41,-238.74"/>
</g>
<!-- Node39 -->
<g id="node26" class="node">
<title>Node39</title>
<g id="a_node26"><a xlink:href="classTimingRx.html" target="_top" xlink:title=" ">
<polygon fill="white" stroke="black" points="435,-38.5 435,-57.5 498,-57.5 498,-38.5 435,-38.5"/>
<text text-anchor="middle" x="466.5" y="-45.5" font-family="Helvetica,sans-Serif" font-size="10.00">TimingRx</text>
</a>
</g>
</g>
<!-- Node38&#45;&gt;Node39 -->
<g id="edge33" class="edge">
<title>Node38&#45;&gt;Node39</title>
<path fill="none" stroke="midnightblue" d="M363.11,-22.06C386.54,-28 414.1,-34.98 434.73,-40.2"/>
<polygon fill="midnightblue" stroke="midnightblue" points="363.9,-18.65 353.35,-19.59 362.19,-25.44 363.9,-18.65"/>
</g>
<!-- Node39&#45;&gt;Node3 -->
<g id="edge34" class="edge">
<title>Node39&#45;&gt;Node3</title>
<path fill="none" stroke="midnightblue" d="M478.02,-66.78C490.14,-88.98 510.03,-127.31 523,-162 559.34,-259.2 585.45,-382.74 592.56,-418.13"/>
<polygon fill="midnightblue" stroke="midnightblue" points="480.95,-64.85 473.06,-57.78 474.83,-68.23 480.95,-64.85"/>
</g>
<!-- Node44 -->
<g id="node27" class="node">
<title>Node44</title>
<g id="a_node27"><a xlink:href="classTimingSerialDelay.html" target="_top" xlink:title=" ">
<polygon fill="white" stroke="black" points="111,-285.5 111,-304.5 218,-304.5 218,-285.5 111,-285.5"/>
<text text-anchor="middle" x="164.5" y="-292.5" font-family="Helvetica,sans-Serif" font-size="10.00">TimingSerialDelay</text>
</a>
</g>
</g>
<!-- Node44&#45;&gt;Node10 -->
<g id="edge37" class="edge">
<title>Node44&#45;&gt;Node10</title>
<path fill="none" stroke="midnightblue" d="M211.21,-308.93C213.95,-310.46 216.57,-312.14 219,-314 241.32,-331.08 233.1,-348.38 255,-366 262.53,-372.05 271.79,-376.78 280.71,-380.38"/>
<polygon fill="midnightblue" stroke="midnightblue" points="212.71,-305.77 202.19,-304.56 209.66,-312.07 212.71,-305.77"/>
</g>
<!-- Node44&#45;&gt;Node38 -->
<g id="edge36" class="edge">
<title>Node44&#45;&gt;Node38</title>
<path fill="none" stroke="midnightblue" d="M215.78,-279.42C216.92,-278.35 218,-277.21 219,-276 289.37,-190.24 183.47,-113.8 255,-29 258.37,-25 262.6,-21.84 267.23,-19.33"/>
<polygon fill="midnightblue" stroke="midnightblue" points="213.45,-276.78 207.34,-285.44 217.51,-282.47 213.45,-276.78"/>
</g>
<!-- Node45 -->
<g id="node28" class="node">
<title>Node45</title>
<g id="a_node28"><a xlink:href="classTimingSerializer.html" target="_top" xlink:title=" ">
<polygon fill="white" stroke="black" points="116.5,-513.5 116.5,-532.5 212.5,-532.5 212.5,-513.5 116.5,-513.5"/>
<text text-anchor="middle" x="164.5" y="-520.5" font-family="Helvetica,sans-Serif" font-size="10.00">TimingSerializer</text>
</a>
</g>
</g>
<!-- Node45&#45;&gt;Node1 -->
<g id="edge38" class="edge">
<title>Node45&#45;&gt;Node1</title>
<path fill="none" stroke="midnightblue" d="M204.22,-510C209.23,-508.1 214.27,-506.08 219,-504 235.57,-496.73 238.34,-492.04 255,-485 264.84,-480.84 275.91,-477.03 285.76,-473.94"/>
<polygon fill="midnightblue" stroke="midnightblue" points="202.86,-506.77 194.67,-513.5 205.27,-513.34 202.86,-506.77"/>
</g>
<!-- Node46 -->
<g id="node29" class="node">
<title>Node46</title>
<g id="a_node29"><a xlink:href="classTimingStreamRx.html" target="_top" xlink:title=" ">
<polygon fill="white" stroke="black" points="265.5,-38.5 265.5,-57.5 363.5,-57.5 363.5,-38.5 265.5,-38.5"/>
<text text-anchor="middle" x="314.5" y="-45.5" font-family="Helvetica,sans-Serif" font-size="10.00">TimingStreamRx</text>
</a>
</g>
</g>
<!-- Node46&#45;&gt;Node39 -->
<g id="edge39" class="edge">
<title>Node46&#45;&gt;Node39</title>
<path fill="none" stroke="midnightblue" d="M373.82,-48C394.61,-48 417.2,-48 434.76,-48"/>
<polygon fill="midnightblue" stroke="midnightblue" points="373.79,-44.5 363.79,-48 373.79,-51.5 373.79,-44.5"/>
</g>
<!-- Node47 -->
<g id="node30" class="node">
<title>Node47</title>
<g id="a_node30"><a xlink:href="classTimingStreamTx.html" target="_top" xlink:title=" ">
<polygon fill="white" stroke="black" points="115.5,-361.5 115.5,-380.5 213.5,-380.5 213.5,-361.5 115.5,-361.5"/>
<text text-anchor="middle" x="164.5" y="-368.5" font-family="Helvetica,sans-Serif" font-size="10.00">TimingStreamTx</text>
</a>
</g>
</g>
<!-- Node47&#45;&gt;Node5 -->
<g id="edge40" class="edge">
<title>Node47&#45;&gt;Node5</title>
<path fill="none" stroke="midnightblue" d="M204.22,-384C209.23,-385.9 214.27,-387.92 219,-390 235.57,-397.27 238.34,-401.96 255,-409 263.16,-412.45 272.18,-415.66 280.65,-418.42"/>
<polygon fill="midnightblue" stroke="midnightblue" points="205.27,-380.66 194.67,-380.5 202.86,-387.23 205.27,-380.66"/>
</g>
<!-- Node49 -->
<g id="node31" class="node">
<title>Node49</title>
<g id="a_node31"><a xlink:href="classTPGMiniEdef.html" target="_top" xlink:title=" ">
<polygon fill="white" stroke="black" points="125,-323.5 125,-342.5 204,-342.5 204,-323.5 125,-323.5"/>
<text text-anchor="middle" x="164.5" y="-330.5" font-family="Helvetica,sans-Serif" font-size="10.00">TPGMiniEdef</text>
</a>
</g>
</g>
<!-- Node49&#45;&gt;Node5 -->
<g id="edge41" class="edge">
<title>Node49&#45;&gt;Node5</title>
<path fill="none" stroke="midnightblue" d="M211.69,-347.03C214.27,-348.53 216.73,-350.18 219,-352 242.4,-370.71 231.34,-390.61 255,-409 259.97,-412.87 265.76,-415.96 271.73,-418.43"/>
<polygon fill="midnightblue" stroke="midnightblue" points="213.12,-343.83 202.6,-342.5 209.99,-350.1 213.12,-343.83"/>
</g>
<!-- Node50 -->
<g id="node32" class="node">
<title>Node50</title>
<g id="a_node32"><a xlink:href="classTPGMiniReg.html" target="_top" xlink:title=" ">
<polygon fill="white" stroke="black" points="276.5,-494.5 276.5,-513.5 352.5,-513.5 352.5,-494.5 276.5,-494.5"/>
<text text-anchor="middle" x="314.5" y="-501.5" font-family="Helvetica,sans-Serif" font-size="10.00">TPGMiniReg</text>
</a>
</g>
</g>
<!-- Node50&#45;&gt;Node2 -->
<g id="edge42" class="edge">
<title>Node50&#45;&gt;Node2</title>
<path fill="none" stroke="midnightblue" d="M362.3,-492.14C383.38,-486.8 407.94,-480.58 427.81,-475.55"/>
<polygon fill="midnightblue" stroke="midnightblue" points="361.41,-488.76 352.58,-494.61 363.13,-495.54 361.41,-488.76"/>
</g>
<!-- Node52 -->
<g id="node33" class="node">
<title>Node52</title>
<g id="a_node33"><a xlink:href="classTPSerializer.html" target="_top" xlink:title=" ">
<polygon fill="white" stroke="black" points="127.5,-475.5 127.5,-494.5 201.5,-494.5 201.5,-475.5 127.5,-475.5"/>
<text text-anchor="middle" x="164.5" y="-482.5" font-family="Helvetica,sans-Serif" font-size="10.00">TPSerializer</text>
</a>
</g>
</g>
<!-- Node52&#45;&gt;Node1 -->
<g id="edge43" class="edge">
<title>Node52&#45;&gt;Node1</title>
<path fill="none" stroke="midnightblue" d="M211.75,-479.06C235.95,-475.96 264.77,-472.26 285.55,-469.59"/>
<polygon fill="midnightblue" stroke="midnightblue" points="211.18,-475.61 201.7,-480.35 212.07,-482.55 211.18,-475.61"/>
</g>
</g>
</svg>
