<?xml version="1.0" encoding="UTF-8" standalone="no"?>
<!DOCTYPE svg PUBLIC "-//W3C//DTD SVG 1.1//EN"
 "http://www.w3.org/Graphics/SVG/1.1/DTD/svg11.dtd">
<!-- Generated by graphviz version 2.43.0 (0)
 -->
<!-- Title: TimingCore Pages: 1 -->
<svg width="633pt" height="256pt"
 viewBox="0.00 0.00 633.00 256.00" xmlns="http://www.w3.org/2000/svg" xmlns:xlink="http://www.w3.org/1999/xlink">
<g id="graph0" class="graph" transform="scale(1 1) rotate(0) translate(4 252)">
<title>TimingCore</title>
<polygon fill="white" stroke="transparent" points="-4,4 -4,-252 629,-252 629,4 -4,4"/>
<!-- Node1 -->
<g id="node1" class="node">
<title>Node1</title>
<g id="a_node1"><a xlink:title=" ">
<polygon fill="#bfbfbf" stroke="black" points="552,-143.5 552,-162.5 625,-162.5 625,-143.5 552,-143.5"/>
<text text-anchor="middle" x="588.5" y="-150.5" font-family="Helvetica,sans-Serif" font-size="10.00">TimingCore</text>
</a>
</g>
</g>
<!-- Node2 -->
<g id="node2" class="node">
<title>Node2</title>
<g id="a_node2"><a xlink:href="classTimingRx.html" target="_top" xlink:title=" ">
<polygon fill="white" stroke="black" points="433.5,-190.5 433.5,-209.5 496.5,-209.5 496.5,-190.5 433.5,-190.5"/>
<text text-anchor="middle" x="465" y="-197.5" font-family="Helvetica,sans-Serif" font-size="10.00">TimingRx</text>
</a>
</g>
</g>
<!-- Node2&#45;&gt;Node1 -->
<g id="edge1" class="edge">
<title>Node2&#45;&gt;Node1</title>
<path fill="none" stroke="midnightblue" d="M500.18,-186.78C520,-179.11 544.53,-169.62 562.53,-162.66"/>
<polygon fill="midnightblue" stroke="midnightblue" points="498.65,-183.62 490.59,-190.49 501.18,-190.15 498.65,-183.62"/>
</g>
<!-- Node3 -->
<g id="node3" class="node">
<title>Node3</title>
<g id="a_node3"><a xlink:href="classTimingStreamRx.html" target="_top" xlink:title=" ">
<polygon fill="white" stroke="black" points="280,-228.5 280,-247.5 378,-247.5 378,-228.5 280,-228.5"/>
<text text-anchor="middle" x="329" y="-235.5" font-family="Helvetica,sans-Serif" font-size="10.00">TimingStreamRx</text>
</a>
</g>
</g>
<!-- Node3&#45;&gt;Node2 -->
<g id="edge2" class="edge">
<title>Node3&#45;&gt;Node2</title>
<path fill="none" stroke="midnightblue" d="M373.7,-225.61C393.21,-220.07 415.73,-213.69 433.4,-208.68"/>
<polygon fill="midnightblue" stroke="midnightblue" points="372.48,-222.32 363.81,-228.41 374.39,-229.05 372.48,-222.32"/>
</g>
<!-- Node4 -->
<g id="node4" class="node">
<title>Node4</title>
<g id="a_node4"><a xlink:href="classTimingFrameRx.html" target="_top" xlink:title=" ">
<polygon fill="white" stroke="black" points="282,-190.5 282,-209.5 376,-209.5 376,-190.5 282,-190.5"/>
<text text-anchor="middle" x="329" y="-197.5" font-family="Helvetica,sans-Serif" font-size="10.00">TimingFrameRx</text>
</a>
</g>
</g>
<!-- Node4&#45;&gt;Node2 -->
<g id="edge3" class="edge">
<title>Node4&#45;&gt;Node2</title>
<path fill="none" stroke="midnightblue" d="M386.52,-200C402.59,-200 419.48,-200 433.38,-200"/>
<polygon fill="midnightblue" stroke="midnightblue" points="386.12,-196.5 376.12,-200 386.12,-203.5 386.12,-196.5"/>
</g>
<!-- Node5 -->
<g id="node5" class="node">
<title>Node5</title>
<g id="a_node5"><a xlink:href="classTimingDeserializer.html" target="_top" xlink:title=" ">
<polygon fill="white" stroke="black" points="129.5,-228.5 129.5,-247.5 238.5,-247.5 238.5,-228.5 129.5,-228.5"/>
<text text-anchor="middle" x="184" y="-235.5" font-family="Helvetica,sans-Serif" font-size="10.00">TimingDeserializer</text>
</a>
</g>
</g>
<!-- Node5&#45;&gt;Node4 -->
<g id="edge4" class="edge">
<title>Node5&#45;&gt;Node4</title>
<path fill="none" stroke="midnightblue" d="M230.81,-225.83C250.59,-220.57 273.38,-214.51 291.93,-209.59"/>
<polygon fill="midnightblue" stroke="midnightblue" points="229.85,-222.46 221.08,-228.41 231.65,-229.23 229.85,-222.46"/>
</g>
<!-- Node6 -->
<g id="node6" class="node">
<title>Node6</title>
<g id="a_node6"><a xlink:href="classTimingSerialDelay.html" target="_top" xlink:title=" ">
<polygon fill="white" stroke="black" points="124,-190.5 124,-209.5 244,-209.5 244,-190.5 124,-190.5"/>
<text text-anchor="middle" x="184" y="-197.5" font-family="Helvetica,sans-Serif" font-size="10.00">TimingSerialDelay(2)</text>
</a>
</g>
</g>
<!-- Node6&#45;&gt;Node4 -->
<g id="edge5" class="edge">
<title>Node6&#45;&gt;Node4</title>
<path fill="none" stroke="midnightblue" d="M254.68,-200C263.83,-200 273.01,-200 281.64,-200"/>
<polygon fill="midnightblue" stroke="midnightblue" points="254.4,-196.5 244.4,-200 254.4,-203.5 254.4,-196.5"/>
</g>
<!-- Node7 -->
<g id="node7" class="node">
<title>Node7</title>
<g id="a_node7"><a xlink:href="classTPGMiniCore.html" target="_top" xlink:title=" ">
<polygon fill="white" stroke="black" points="425,-143.5 425,-162.5 505,-162.5 505,-143.5 425,-143.5"/>
<text text-anchor="middle" x="465" y="-150.5" font-family="Helvetica,sans-Serif" font-size="10.00">TPGMiniCore</text>
</a>
</g>
</g>
<!-- Node7&#45;&gt;Node1 -->
<g id="edge6" class="edge">
<title>Node7&#45;&gt;Node1</title>
<path fill="none" stroke="midnightblue" d="M515.19,-153C527.42,-153 540.31,-153 551.75,-153"/>
<polygon fill="midnightblue" stroke="midnightblue" points="515.11,-149.5 505.11,-153 515.11,-156.5 515.11,-149.5"/>
</g>
<!-- Node8 -->
<g id="node8" class="node">
<title>Node8</title>
<g id="a_node8"><a xlink:href="classTPGMiniReg.html" target="_top" xlink:title=" ">
<polygon fill="white" stroke="black" points="291,-143.5 291,-162.5 367,-162.5 367,-143.5 291,-143.5"/>
<text text-anchor="middle" x="329" y="-150.5" font-family="Helvetica,sans-Serif" font-size="10.00">TPGMiniReg</text>
</a>
</g>
</g>
<!-- Node8&#45;&gt;Node7 -->
<g id="edge7" class="edge">
<title>Node8&#45;&gt;Node7</title>
<path fill="none" stroke="midnightblue" d="M377.67,-153C393.02,-153 409.85,-153 424.53,-153"/>
<polygon fill="midnightblue" stroke="midnightblue" points="377.33,-149.5 367.33,-153 377.33,-156.5 377.33,-149.5"/>
</g>
<!-- Node9 -->
<g id="node9" class="node">
<title>Node9</title>
<g id="a_node9"><a xlink:href="classTPGMini.html" target="_top" xlink:title=" ">
<polygon fill="white" stroke="black" points="300.5,-95.5 300.5,-114.5 357.5,-114.5 357.5,-95.5 300.5,-95.5"/>
<text text-anchor="middle" x="329" y="-102.5" font-family="Helvetica,sans-Serif" font-size="10.00">TPGMini</text>
</a>
</g>
</g>
<!-- Node9&#45;&gt;Node7 -->
<g id="edge8" class="edge">
<title>Node9&#45;&gt;Node7</title>
<path fill="none" stroke="midnightblue" d="M366.3,-118C388.69,-126.02 416.91,-136.13 437.25,-143.42"/>
<polygon fill="midnightblue" stroke="midnightblue" points="367.39,-114.68 356.79,-114.6 365.03,-121.27 367.39,-114.68"/>
</g>
<!-- Node10 -->
<g id="node10" class="node">
<title>Node10</title>
<g id="a_node10"><a xlink:href="classDivider.html" target="_top" xlink:title=" ">
<polygon fill="white" stroke="black" points="151.5,-152.5 151.5,-171.5 216.5,-171.5 216.5,-152.5 151.5,-152.5"/>
<text text-anchor="middle" x="184" y="-159.5" font-family="Helvetica,sans-Serif" font-size="10.00">Divider(2)</text>
</a>
</g>
</g>
<!-- Node10&#45;&gt;Node9 -->
<g id="edge9" class="edge">
<title>Node10&#45;&gt;Node9</title>
<path fill="none" stroke="midnightblue" d="M226.55,-149.27C232.45,-147.28 238.4,-145.16 244,-143 266.55,-134.3 291.72,-122.64 308.58,-114.54"/>
<polygon fill="midnightblue" stroke="midnightblue" points="225.17,-146.04 216.77,-152.5 227.36,-152.69 225.17,-146.04"/>
</g>
<!-- Node11 -->
<g id="node11" class="node">
<title>Node11</title>
<g id="a_node11"><a xlink:href="classBsaControl.html" target="_top" xlink:title=" ">
<polygon fill="white" stroke="black" points="149,-114.5 149,-133.5 219,-133.5 219,-114.5 149,-114.5"/>
<text text-anchor="middle" x="184" y="-121.5" font-family="Helvetica,sans-Serif" font-size="10.00">BsaControl</text>
</a>
</g>
</g>
<!-- Node11&#45;&gt;Node9 -->
<g id="edge10" class="edge">
<title>Node11&#45;&gt;Node9</title>
<path fill="none" stroke="midnightblue" d="M229.21,-118.13C252.4,-115.04 280.1,-111.36 300.26,-108.69"/>
<polygon fill="midnightblue" stroke="midnightblue" points="228.7,-114.66 219.25,-119.45 229.63,-121.6 228.7,-114.66"/>
</g>
<!-- Node12 -->
<g id="node12" class="node">
<title>Node12</title>
<g id="a_node12"><a xlink:href="classEventSelect.html" target="_top" xlink:title=" ">
<polygon fill="white" stroke="black" points="0,-114.5 0,-133.5 88,-133.5 88,-114.5 0,-114.5"/>
<text text-anchor="middle" x="44" y="-121.5" font-family="Helvetica,sans-Serif" font-size="10.00">EventSelect(2)</text>
</a>
</g>
</g>
<!-- Node12&#45;&gt;Node11 -->
<g id="edge11" class="edge">
<title>Node12&#45;&gt;Node11</title>
<path fill="none" stroke="midnightblue" d="M98.56,-124C115.38,-124 133.49,-124 148.61,-124"/>
<polygon fill="midnightblue" stroke="midnightblue" points="98.29,-120.5 88.29,-124 98.29,-127.5 98.29,-120.5"/>
</g>
<!-- Node13 -->
<g id="node13" class="node">
<title>Node13</title>
<g id="a_node13"><a xlink:href="classTimingSerializer.html" target="_top" xlink:title=" ">
<polygon fill="white" stroke="black" points="136,-76.5 136,-95.5 232,-95.5 232,-76.5 136,-76.5"/>
<text text-anchor="middle" x="184" y="-83.5" font-family="Helvetica,sans-Serif" font-size="10.00">TimingSerializer</text>
</a>
</g>
</g>
<!-- Node13&#45;&gt;Node9 -->
<g id="edge12" class="edge">
<title>Node13&#45;&gt;Node9</title>
<path fill="none" stroke="midnightblue" d="M242.22,-93.6C262.29,-96.27 283.92,-99.14 300.44,-101.34"/>
<polygon fill="midnightblue" stroke="midnightblue" points="242.59,-90.12 232.22,-92.27 241.67,-97.06 242.59,-90.12"/>
</g>
<!-- Node14 -->
<g id="node14" class="node">
<title>Node14</title>
<g id="a_node14"><a xlink:href="classTPSerializer.html" target="_top" xlink:title=" ">
<polygon fill="white" stroke="black" points="147,-38.5 147,-57.5 221,-57.5 221,-38.5 147,-38.5"/>
<text text-anchor="middle" x="184" y="-45.5" font-family="Helvetica,sans-Serif" font-size="10.00">TPSerializer</text>
</a>
</g>
</g>
<!-- Node14&#45;&gt;Node9 -->
<g id="edge13" class="edge">
<title>Node14&#45;&gt;Node9</title>
<path fill="none" stroke="midnightblue" d="M226.55,-60.73C232.45,-62.72 238.4,-64.84 244,-67 266.55,-75.7 291.72,-87.36 308.58,-95.46"/>
<polygon fill="midnightblue" stroke="midnightblue" points="227.36,-57.31 216.77,-57.5 225.17,-63.96 227.36,-57.31"/>
</g>
<!-- Node15 -->
<g id="node15" class="node">
<title>Node15</title>
<g id="a_node15"><a xlink:href="classClockTime.html" target="_top" xlink:title=" ">
<polygon fill="white" stroke="black" points="150,-0.5 150,-19.5 218,-19.5 218,-0.5 150,-0.5"/>
<text text-anchor="middle" x="184" y="-7.5" font-family="Helvetica,sans-Serif" font-size="10.00">ClockTime</text>
</a>
</g>
</g>
<!-- Node15&#45;&gt;Node9 -->
<g id="edge14" class="edge">
<title>Node15&#45;&gt;Node9</title>
<path fill="none" stroke="midnightblue" d="M227.69,-21.34C233.34,-23.53 238.92,-26.07 244,-29 275.85,-47.38 305.99,-79.46 319.92,-95.42"/>
<polygon fill="midnightblue" stroke="midnightblue" points="228.8,-18.02 218.2,-17.99 226.46,-24.62 228.8,-18.02"/>
</g>
<!-- Node16 -->
<g id="node16" class="node">
<title>Node16</title>
<g id="a_node16"><a xlink:href="classEthTimingModule.html" target="_top" xlink:title=" ">
<polygon fill="white" stroke="black" points="414,-105.5 414,-124.5 516,-124.5 516,-105.5 414,-105.5"/>
<text text-anchor="middle" x="465" y="-112.5" font-family="Helvetica,sans-Serif" font-size="10.00">EthTimingModule</text>
</a>
</g>
</g>
<!-- Node16&#45;&gt;Node1 -->
<g id="edge15" class="edge">
<title>Node16&#45;&gt;Node1</title>
<path fill="none" stroke="midnightblue" d="M506.54,-127.68C522.96,-132.81 541.6,-138.64 556.85,-143.41"/>
<polygon fill="midnightblue" stroke="midnightblue" points="507.25,-124.23 496.66,-124.59 505.16,-130.91 507.25,-124.23"/>
</g>
</g>
</svg>
