<?xml version="1.0" encoding="UTF-8" standalone="no"?>
<!DOCTYPE svg PUBLIC "-//W3C//DTD SVG 1.1//EN"
 "http://www.w3.org/Graphics/SVG/1.1/DTD/svg11.dtd">
<!-- Generated by graphviz version 2.40.1 (20161225.0304)
 -->
<!-- Title: EvrV2Module Pages: 1 -->
<svg width="486pt" height="84pt"
 viewBox="0.00 0.00 485.50 84.00" xmlns="http://www.w3.org/2000/svg" xmlns:xlink="http://www.w3.org/1999/xlink">
<g id="graph0" class="graph" transform="scale(1 1) rotate(0) translate(4 80)">
<title>EvrV2Module</title>
<polygon fill="#ffffff" stroke="transparent" points="-4,4 -4,-80 481.5,-80 481.5,4 -4,4"/>
<!-- Node0 -->
<g id="node1" class="node">
<title>Node0</title>
<polygon fill="#bfbfbf" stroke="#000000" points="220.5,-.5 220.5,-19.5 300.5,-19.5 300.5,-.5 220.5,-.5"/>
<text text-anchor="middle" x="260.5" y="-7.5" font-family="Helvetica,sans-Serif" font-size="10.00" fill="#000000">EvrV2Module</text>
</g>
<!-- Node1 -->
<g id="node2" class="node">
<title>Node1</title>
<g id="a_node2"><a xlink:href="classEvrV2EventSelect.html" target="_top" xlink:title="EvrV2EventSelect">
<polygon fill="#ffffff" stroke="#000000" points="0,-56.5 0,-75.5 103,-75.5 103,-56.5 0,-56.5"/>
<text text-anchor="middle" x="51.5" y="-63.5" font-family="Helvetica,sans-Serif" font-size="10.00" fill="#000000">EvrV2EventSelect</text>
</a>
</g>
</g>
<!-- Node1&#45;&gt;Node0 -->
<g id="edge1" class="edge">
<title>Node1&#45;&gt;Node0</title>
<path fill="none" stroke="#191970" d="M97.3311,-53.7199C135.7613,-43.4228 189.852,-28.9296 225.0405,-19.5011"/>
<polygon fill="#191970" stroke="#191970" points="96.1818,-50.4043 87.4284,-56.3733 97.9935,-57.1658 96.1818,-50.4043"/>
</g>
<!-- Node2 -->
<g id="node3" class="node">
<title>Node2</title>
<g id="a_node3"><a xlink:href="classEvrV2FromV1.html" target="_top" xlink:title="EvrV2FromV1">
<polygon fill="#ffffff" stroke="#000000" points="121.5,-56.5 121.5,-75.5 203.5,-75.5 203.5,-56.5 121.5,-56.5"/>
<text text-anchor="middle" x="162.5" y="-63.5" font-family="Helvetica,sans-Serif" font-size="10.00" fill="#000000">EvrV2FromV1</text>
</a>
</g>
</g>
<!-- Node2&#45;&gt;Node0 -->
<g id="edge2" class="edge">
<title>Node2&#45;&gt;Node0</title>
<path fill="none" stroke="#191970" d="M188.6686,-51.0465C206.1058,-41.0824 228.5111,-28.2794 243.6253,-19.6427"/>
<polygon fill="#191970" stroke="#191970" points="186.5162,-48.2453 179.5703,-56.2455 189.9892,-54.323 186.5162,-48.2453"/>
</g>
<!-- Node3 -->
<g id="node4" class="node">
<title>Node3</title>
<g id="a_node4"><a xlink:href="classEvrV2Trigger.html" target="_top" xlink:title="EvrV2Trigger">
<polygon fill="#ffffff" stroke="#000000" points="221.5,-56.5 221.5,-75.5 299.5,-75.5 299.5,-56.5 221.5,-56.5"/>
<text text-anchor="middle" x="260.5" y="-63.5" font-family="Helvetica,sans-Serif" font-size="10.00" fill="#000000">EvrV2Trigger</text>
</a>
</g>
</g>
<!-- Node3&#45;&gt;Node0 -->
<g id="edge3" class="edge">
<title>Node3&#45;&gt;Node0</title>
<path fill="none" stroke="#191970" d="M260.5,-46.1575C260.5,-37.155 260.5,-26.9199 260.5,-19.6427"/>
<polygon fill="#191970" stroke="#191970" points="257.0001,-46.2455 260.5,-56.2455 264.0001,-46.2456 257.0001,-46.2455"/>
</g>
<!-- Node4 -->
<g id="node5" class="node">
<title>Node4</title>
<g id="a_node5"><a xlink:href="classEvrV2Axi.html" target="_top" xlink:title="EvrV2Axi">
<polygon fill="#ffffff" stroke="#000000" points="318,-56.5 318,-75.5 379,-75.5 379,-56.5 318,-56.5"/>
<text text-anchor="middle" x="348.5" y="-63.5" font-family="Helvetica,sans-Serif" font-size="10.00" fill="#000000">EvrV2Axi</text>
</a>
</g>
</g>
<!-- Node4&#45;&gt;Node0 -->
<g id="edge4" class="edge">
<title>Node4&#45;&gt;Node0</title>
<path fill="none" stroke="#191970" d="M324.5655,-50.769C308.9717,-40.8456 289.099,-28.1994 275.6528,-19.6427"/>
<polygon fill="#191970" stroke="#191970" points="322.8559,-53.8296 333.1716,-56.2455 326.614,-47.9239 322.8559,-53.8296"/>
</g>
<!-- Node5 -->
<g id="node6" class="node">
<title>Node5</title>
<g id="a_node6"><a xlink:href="classEvrV2TrigReg.html" target="_top" xlink:title="EvrV2TrigReg">
<polygon fill="#ffffff" stroke="#000000" points="397.5,-56.5 397.5,-75.5 477.5,-75.5 477.5,-56.5 397.5,-56.5"/>
<text text-anchor="middle" x="437.5" y="-63.5" font-family="Helvetica,sans-Serif" font-size="10.00" fill="#000000">EvrV2TrigReg</text>
</a>
</g>
</g>
<!-- Node5&#45;&gt;Node0 -->
<g id="edge5" class="edge">
<title>Node5&#45;&gt;Node0</title>
<path fill="none" stroke="#191970" d="M397.4332,-53.3235C364.973,-43.0536 319.9507,-28.8093 290.5303,-19.5011"/>
<polygon fill="#191970" stroke="#191970" points="396.4826,-56.6937 407.0726,-56.3733 398.5942,-50.0197 396.4826,-56.6937"/>
</g>
</g>
</svg>
