<?xml version="1.0" encoding="UTF-8" standalone="no"?>
<!DOCTYPE svg PUBLIC "-//W3C//DTD SVG 1.1//EN"
 "http://www.w3.org/Graphics/SVG/1.1/DTD/svg11.dtd">
<!-- Generated by graphviz version 2.40.1 (20161225.0304)
 -->
<!-- Title: TPGMini Pages: 1 -->
<svg width="454pt" height="140pt"
 viewBox="0.00 0.00 453.50 140.00" xmlns="http://www.w3.org/2000/svg" xmlns:xlink="http://www.w3.org/1999/xlink">
<g id="graph0" class="graph" transform="scale(1 1) rotate(0) translate(4 136)">
<title>TPGMini</title>
<polygon fill="#ffffff" stroke="transparent" points="-4,4 -4,-136 449.5,-136 449.5,4 -4,4"/>
<!-- Node10 -->
<g id="node1" class="node">
<title>Node10</title>
<polygon fill="#bfbfbf" stroke="#000000" points="191.5,-.5 191.5,-19.5 247.5,-19.5 247.5,-.5 191.5,-.5"/>
<text text-anchor="middle" x="219.5" y="-7.5" font-family="Helvetica,sans-Serif" font-size="10.00" fill="#000000">TPGMini</text>
</g>
<!-- Node11 -->
<g id="node2" class="node">
<title>Node11</title>
<g id="a_node2"><a xlink:href="classDivider.html" target="_top" xlink:title="Divider(2)">
<polygon fill="#ffffff" stroke="#000000" points="0,-56.5 0,-75.5 65,-75.5 65,-56.5 0,-56.5"/>
<text text-anchor="middle" x="32.5" y="-63.5" font-family="Helvetica,sans-Serif" font-size="10.00" fill="#000000">Divider(2)</text>
</a>
</g>
</g>
<!-- Node11&#45;&gt;Node10 -->
<g id="edge1" class="edge">
<title>Node11&#45;&gt;Node10</title>
<path fill="none" stroke="#191970" d="M74.2994,-53.4825C110.0026,-42.7907 160.3754,-27.7058 191.4331,-18.4051"/>
<polygon fill="#191970" stroke="#191970" points="73.222,-50.1515 64.6464,-56.3733 75.2302,-56.8573 73.222,-50.1515"/>
</g>
<!-- Node12 -->
<g id="node3" class="node">
<title>Node12</title>
<g id="a_node3"><a xlink:href="classBsaControl.html" target="_top" xlink:title="BsaControl">
<polygon fill="#ffffff" stroke="#000000" points="83.5,-56.5 83.5,-75.5 153.5,-75.5 153.5,-56.5 83.5,-56.5"/>
<text text-anchor="middle" x="118.5" y="-63.5" font-family="Helvetica,sans-Serif" font-size="10.00" fill="#000000">BsaControl</text>
</a>
</g>
</g>
<!-- Node12&#45;&gt;Node10 -->
<g id="edge2" class="edge">
<title>Node12&#45;&gt;Node10</title>
<path fill="none" stroke="#191970" d="M144.9719,-51.3225C163.0125,-41.3198 186.3877,-28.3593 202.1087,-19.6427"/>
<polygon fill="#191970" stroke="#191970" points="143.1413,-48.3354 136.0929,-56.2455 146.5357,-54.4574 143.1413,-48.3354"/>
</g>
<!-- Node13 -->
<g id="node4" class="node">
<title>Node13</title>
<g id="a_node4"><a xlink:href="classEventSelect.html" target="_top" xlink:title="EventSelect(2)">
<polygon fill="#ffffff" stroke="#000000" points="74.5,-112.5 74.5,-131.5 162.5,-131.5 162.5,-112.5 74.5,-112.5"/>
<text text-anchor="middle" x="118.5" y="-119.5" font-family="Helvetica,sans-Serif" font-size="10.00" fill="#000000">EventSelect(2)</text>
</a>
</g>
</g>
<!-- Node13&#45;&gt;Node12 -->
<g id="edge3" class="edge">
<title>Node13&#45;&gt;Node12</title>
<path fill="none" stroke="#191970" d="M118.5,-102.1575C118.5,-93.155 118.5,-82.9199 118.5,-75.6427"/>
<polygon fill="#191970" stroke="#191970" points="115.0001,-102.2455 118.5,-112.2455 122.0001,-102.2456 115.0001,-102.2455"/>
</g>
<!-- Node14 -->
<g id="node5" class="node">
<title>Node14</title>
<g id="a_node5"><a xlink:href="classTimingSerializer.html" target="_top" xlink:title="TimingSerializer">
<polygon fill="#ffffff" stroke="#000000" points="171.5,-56.5 171.5,-75.5 267.5,-75.5 267.5,-56.5 171.5,-56.5"/>
<text text-anchor="middle" x="219.5" y="-63.5" font-family="Helvetica,sans-Serif" font-size="10.00" fill="#000000">TimingSerializer</text>
</a>
</g>
</g>
<!-- Node14&#45;&gt;Node10 -->
<g id="edge4" class="edge">
<title>Node14&#45;&gt;Node10</title>
<path fill="none" stroke="#191970" d="M219.5,-46.1575C219.5,-37.155 219.5,-26.9199 219.5,-19.6427"/>
<polygon fill="#191970" stroke="#191970" points="216.0001,-46.2455 219.5,-56.2455 223.0001,-46.2456 216.0001,-46.2455"/>
</g>
<!-- Node15 -->
<g id="node6" class="node">
<title>Node15</title>
<g id="a_node6"><a xlink:href="classTPSerializer.html" target="_top" xlink:title="TPSerializer">
<polygon fill="#ffffff" stroke="#000000" points="285.5,-56.5 285.5,-75.5 359.5,-75.5 359.5,-56.5 285.5,-56.5"/>
<text text-anchor="middle" x="322.5" y="-63.5" font-family="Helvetica,sans-Serif" font-size="10.00" fill="#000000">TPSerializer</text>
</a>
</g>
</g>
<!-- Node15&#45;&gt;Node10 -->
<g id="edge5" class="edge">
<title>Node15&#45;&gt;Node10</title>
<path fill="none" stroke="#191970" d="M295.7568,-51.46C277.325,-41.4388 253.3416,-28.3993 237.2356,-19.6427"/>
<polygon fill="#191970" stroke="#191970" points="294.1015,-54.5438 304.5588,-56.2455 297.4451,-48.394 294.1015,-54.5438"/>
</g>
<!-- Node16 -->
<g id="node7" class="node">
<title>Node16</title>
<g id="a_node7"><a xlink:href="classClockTime.html" target="_top" xlink:title="ClockTime">
<polygon fill="#ffffff" stroke="#000000" points="377.5,-56.5 377.5,-75.5 445.5,-75.5 445.5,-56.5 377.5,-56.5"/>
<text text-anchor="middle" x="411.5" y="-63.5" font-family="Helvetica,sans-Serif" font-size="10.00" fill="#000000">ClockTime</text>
</a>
</g>
</g>
<!-- Node16&#45;&gt;Node10 -->
<g id="edge6" class="edge">
<title>Node16&#45;&gt;Node10</title>
<path fill="none" stroke="#191970" d="M368.5225,-53.4649C331.6336,-42.7056 279.5257,-27.5075 247.7078,-18.2273"/>
<polygon fill="#191970" stroke="#191970" points="367.914,-56.9332 378.494,-56.3733 369.874,-50.2132 367.914,-56.9332"/>
</g>
</g>
</svg>
