<?xml version="1.0" encoding="UTF-8" standalone="no"?>
<!DOCTYPE svg PUBLIC "-//W3C//DTD SVG 1.1//EN"
 "http://www.w3.org/Graphics/SVG/1.1/DTD/svg11.dtd">
<!-- Generated by graphviz version 2.40.1 (20161225.0304)
 -->
<!-- Title: EvrV1EventReceiver Pages: 1 -->
<svg width="405pt" height="84pt"
 viewBox="0.00 0.00 404.50 84.00" xmlns="http://www.w3.org/2000/svg" xmlns:xlink="http://www.w3.org/1999/xlink">
<g id="graph0" class="graph" transform="scale(1 1) rotate(0) translate(4 80)">
<title>EvrV1EventReceiver</title>
<polygon fill="#ffffff" stroke="transparent" points="-4,4 -4,-80 400.5,-80 400.5,4 -4,4"/>
<!-- Node5 -->
<g id="node1" class="node">
<title>Node5</title>
<polygon fill="#bfbfbf" stroke="#000000" points="154.5,-.5 154.5,-19.5 269.5,-19.5 269.5,-.5 154.5,-.5"/>
<text text-anchor="middle" x="212" y="-7.5" font-family="Helvetica,sans-Serif" font-size="10.00" fill="#000000">EvrV1EventReceiver</text>
</g>
<!-- Node6 -->
<g id="node2" class="node">
<title>Node6</title>
<g id="a_node2"><a xlink:href="classEvrV1TimeStampFIFO.html" target="_top" xlink:title="EvrV1TimeStampFIFO">
<polygon fill="#ffffff" stroke="#000000" points="0,-56.5 0,-75.5 122,-75.5 122,-56.5 0,-56.5"/>
<text text-anchor="middle" x="61" y="-63.5" font-family="Helvetica,sans-Serif" font-size="10.00" fill="#000000">EvrV1TimeStampFIFO</text>
</a>
</g>
</g>
<!-- Node6&#45;&gt;Node5 -->
<g id="edge1" class="edge">
<title>Node6&#45;&gt;Node5</title>
<path fill="none" stroke="#191970" d="M96.623,-52.7888C124.1938,-42.5639 161.7149,-28.6488 186.3809,-19.5011"/>
<polygon fill="#191970" stroke="#191970" points="95.1168,-49.6144 86.9578,-56.3733 97.5509,-56.1776 95.1168,-49.6144"/>
</g>
<!-- Node7 -->
<g id="node3" class="node">
<title>Node7</title>
<g id="a_node3"><a xlink:href="classEvrV1EventRAM256x32.html" target="_top" xlink:title="EvrV1EventRAM256x32(4)">
<polygon fill="#ffffff" stroke="#000000" points="140.5,-56.5 140.5,-75.5 283.5,-75.5 283.5,-56.5 140.5,-56.5"/>
<text text-anchor="middle" x="212" y="-63.5" font-family="Helvetica,sans-Serif" font-size="10.00" fill="#000000">EvrV1EventRAM256x32(4)</text>
</a>
</g>
</g>
<!-- Node7&#45;&gt;Node5 -->
<g id="edge2" class="edge">
<title>Node7&#45;&gt;Node5</title>
<path fill="none" stroke="#191970" d="M212,-46.1575C212,-37.155 212,-26.9199 212,-19.6427"/>
<polygon fill="#191970" stroke="#191970" points="208.5001,-46.2455 212,-56.2455 215.5001,-46.2456 208.5001,-46.2455"/>
</g>
<!-- Node8 -->
<g id="node4" class="node">
<title>Node8</title>
<g id="a_node4"><a xlink:href="classEvrV1HeartBeat.html" target="_top" xlink:title="EvrV1HeartBeat">
<polygon fill="#ffffff" stroke="#000000" points="301.5,-56.5 301.5,-75.5 396.5,-75.5 396.5,-56.5 301.5,-56.5"/>
<text text-anchor="middle" x="349" y="-63.5" font-family="Helvetica,sans-Serif" font-size="10.00" fill="#000000">EvrV1HeartBeat</text>
</a>
</g>
</g>
<!-- Node8&#45;&gt;Node5 -->
<g id="edge3" class="edge">
<title>Node8&#45;&gt;Node5</title>
<path fill="none" stroke="#191970" d="M316.0194,-52.5189C291.0689,-42.3201 257.4266,-28.5685 235.2438,-19.5011"/>
<polygon fill="#191970" stroke="#191970" points="314.868,-55.8293 325.4489,-56.3733 317.5166,-49.3497 314.868,-55.8293"/>
</g>
</g>
</svg>
