<?xml version="1.0" encoding="UTF-8" standalone="no"?>
<!DOCTYPE svg PUBLIC "-//W3C//DTD SVG 1.1//EN"
 "http://www.w3.org/Graphics/SVG/1.1/DTD/svg11.dtd">
<!-- Generated by graphviz version 2.43.0 (0)
 -->
<!-- Title: TimingRx Pages: 1 -->
<svg width="297pt" height="140pt"
 viewBox="0.00 0.00 297.00 140.00" xmlns="http://www.w3.org/2000/svg" xmlns:xlink="http://www.w3.org/1999/xlink">
<g id="graph0" class="graph" transform="scale(1 1) rotate(0) translate(4 136)">
<title>TimingRx</title>
<polygon fill="white" stroke="transparent" points="-4,4 -4,-136 293,-136 293,4 -4,4"/>
<!-- Node1 -->
<g id="node1" class="node">
<title>Node1</title>
<g id="a_node1"><a xlink:title=" ">
<polygon fill="#bfbfbf" stroke="black" points="74.5,-0.5 74.5,-19.5 137.5,-19.5 137.5,-0.5 74.5,-0.5"/>
<text text-anchor="middle" x="106" y="-7.5" font-family="Helvetica,sans-Serif" font-size="10.00">TimingRx</text>
</a>
</g>
</g>
<!-- Node2 -->
<g id="node2" class="node">
<title>Node2</title>
<g id="a_node2"><a xlink:href="classTimingStreamRx.html" target="_top" xlink:title=" ">
<polygon fill="white" stroke="black" points="0,-56.5 0,-75.5 98,-75.5 98,-56.5 0,-56.5"/>
<text text-anchor="middle" x="49" y="-63.5" font-family="Helvetica,sans-Serif" font-size="10.00">TimingStreamRx</text>
</a>
</g>
</g>
<!-- Node2&#45;&gt;Node1 -->
<g id="edge1" class="edge">
<title>Node2&#45;&gt;Node1</title>
<path fill="none" stroke="midnightblue" d="M65.62,-49.25C75.73,-39.67 88.28,-27.79 96.68,-19.83"/>
<polygon fill="midnightblue" stroke="midnightblue" points="63.01,-46.91 58.16,-56.32 67.82,-51.99 63.01,-46.91"/>
</g>
<!-- Node3 -->
<g id="node3" class="node">
<title>Node3</title>
<g id="a_node3"><a xlink:href="classTimingFrameRx.html" target="_top" xlink:title=" ">
<polygon fill="white" stroke="black" points="116,-56.5 116,-75.5 210,-75.5 210,-56.5 116,-56.5"/>
<text text-anchor="middle" x="163" y="-63.5" font-family="Helvetica,sans-Serif" font-size="10.00">TimingFrameRx</text>
</a>
</g>
</g>
<!-- Node3&#45;&gt;Node1 -->
<g id="edge2" class="edge">
<title>Node3&#45;&gt;Node1</title>
<path fill="none" stroke="midnightblue" d="M146.38,-49.25C136.27,-39.67 123.72,-27.79 115.32,-19.83"/>
<polygon fill="midnightblue" stroke="midnightblue" points="144.18,-51.99 153.84,-56.32 148.99,-46.91 144.18,-51.99"/>
</g>
<!-- Node4 -->
<g id="node4" class="node">
<title>Node4</title>
<g id="a_node4"><a xlink:href="classTimingDeserializer.html" target="_top" xlink:title=" ">
<polygon fill="white" stroke="black" points="41.5,-112.5 41.5,-131.5 150.5,-131.5 150.5,-112.5 41.5,-112.5"/>
<text text-anchor="middle" x="96" y="-119.5" font-family="Helvetica,sans-Serif" font-size="10.00">TimingDeserializer</text>
</a>
</g>
</g>
<!-- Node4&#45;&gt;Node3 -->
<g id="edge3" class="edge">
<title>Node4&#45;&gt;Node3</title>
<path fill="none" stroke="midnightblue" d="M114.83,-105.82C126.84,-96.15 141.97,-83.95 152.04,-75.83"/>
<polygon fill="midnightblue" stroke="midnightblue" points="112.35,-103.32 106.76,-112.32 116.75,-108.77 112.35,-103.32"/>
</g>
<!-- Node5 -->
<g id="node5" class="node">
<title>Node5</title>
<g id="a_node5"><a xlink:href="classTimingSerialDelay.html" target="_top" xlink:title=" ">
<polygon fill="white" stroke="black" points="169,-112.5 169,-131.5 289,-131.5 289,-112.5 169,-112.5"/>
<text text-anchor="middle" x="229" y="-119.5" font-family="Helvetica,sans-Serif" font-size="10.00">TimingSerialDelay(2)</text>
</a>
</g>
</g>
<!-- Node5&#45;&gt;Node3 -->
<g id="edge4" class="edge">
<title>Node5&#45;&gt;Node3</title>
<path fill="none" stroke="midnightblue" d="M210.45,-105.82C198.62,-96.15 183.71,-83.95 173.8,-75.83"/>
<polygon fill="midnightblue" stroke="midnightblue" points="208.44,-108.7 218.4,-112.32 212.87,-103.28 208.44,-108.7"/>
</g>
</g>
</svg>
