<?xml version="1.0" encoding="UTF-8" standalone="no"?>
<!DOCTYPE svg PUBLIC "-//W3C//DTD SVG 1.1//EN"
 "http://www.w3.org/Graphics/SVG/1.1/DTD/svg11.dtd">
<!-- Generated by graphviz version 2.40.1 (20161225.0304)
 -->
<!-- Title: EvrV2Axi Pages: 1 -->
<svg width="220pt" height="84pt"
 viewBox="0.00 0.00 219.50 84.00" xmlns="http://www.w3.org/2000/svg" xmlns:xlink="http://www.w3.org/1999/xlink">
<g id="graph0" class="graph" transform="scale(1 1) rotate(0) translate(4 80)">
<title>EvrV2Axi</title>
<polygon fill="#ffffff" stroke="transparent" points="-4,4 -4,-80 215.5,-80 215.5,4 -4,4"/>
<!-- Node0 -->
<g id="node1" class="node">
<title>Node0</title>
<polygon fill="#bfbfbf" stroke="#000000" points="83,-56.5 83,-75.5 144,-75.5 144,-56.5 83,-56.5"/>
<text text-anchor="middle" x="113.5" y="-63.5" font-family="Helvetica,sans-Serif" font-size="10.00" fill="#000000">EvrV2Axi</text>
</g>
<!-- Node1 -->
<g id="node2" class="node">
<title>Node1</title>
<g id="a_node2"><a xlink:href="classEvrV2CorePulseGen.html" target="_top" xlink:title="EvrV2CorePulseGen">
<polygon fill="#ffffff" stroke="#000000" points="0,-.5 0,-19.5 113,-19.5 113,-.5 0,-.5"/>
<text text-anchor="middle" x="56.5" y="-7.5" font-family="Helvetica,sans-Serif" font-size="10.00" fill="#000000">EvrV2CorePulseGen</text>
</a>
</g>
</g>
<!-- Node0&#45;&gt;Node1 -->
<g id="edge1" class="edge">
<title>Node0&#45;&gt;Node1</title>
<path fill="none" stroke="#191970" d="M96.2729,-49.0751C86.4659,-39.4402 74.536,-27.7196 66.3149,-19.6427"/>
<polygon fill="#191970" stroke="#191970" points="93.9851,-51.734 103.5714,-56.2455 98.8909,-46.7406 93.9851,-51.734"/>
</g>
<!-- Node2 -->
<g id="node3" class="node">
<title>Node2</title>
<g id="a_node3"><a xlink:href="classEvrV2Module.html" target="_top" xlink:title="EvrV2Module">
<polygon fill="#ffffff" stroke="#000000" points="131.5,-.5 131.5,-19.5 211.5,-19.5 211.5,-.5 131.5,-.5"/>
<text text-anchor="middle" x="171.5" y="-7.5" font-family="Helvetica,sans-Serif" font-size="10.00" fill="#000000">EvrV2Module</text>
</a>
</g>
</g>
<!-- Node0&#45;&gt;Node2 -->
<g id="edge2" class="edge">
<title>Node0&#45;&gt;Node2</title>
<path fill="none" stroke="#191970" d="M131.0293,-49.0751C141.0083,-39.4402 153.1476,-27.7196 161.5129,-19.6427"/>
<polygon fill="#191970" stroke="#191970" points="128.3658,-46.7817 123.6028,-56.2455 133.228,-51.8175 128.3658,-46.7817"/>
</g>
</g>
</svg>
