<?xml version="1.0" encoding="UTF-8" standalone="no"?>
<!DOCTYPE svg PUBLIC "-//W3C//DTD SVG 1.1//EN"
 "http://www.w3.org/Graphics/SVG/1.1/DTD/svg11.dtd">
<!-- Generated by graphviz version 2.40.1 (20161225.0304)
 -->
<!-- Title: TimingDeserializer Pages: 1 -->
<svg width="180pt" height="196pt"
 viewBox="0.00 0.00 179.50 196.00" xmlns="http://www.w3.org/2000/svg" xmlns:xlink="http://www.w3.org/1999/xlink">
<g id="graph0" class="graph" transform="scale(1 1) rotate(0) translate(4 192)">
<title>TimingDeserializer</title>
<polygon fill="#ffffff" stroke="transparent" points="-4,4 -4,-192 175.5,-192 175.5,4 -4,4"/>
<!-- Node0 -->
<g id="node1" class="node">
<title>Node0</title>
<polygon fill="#bfbfbf" stroke="#000000" points="22.5,-168.5 22.5,-187.5 131.5,-187.5 131.5,-168.5 22.5,-168.5"/>
<text text-anchor="middle" x="77" y="-175.5" font-family="Helvetica,sans-Serif" font-size="10.00" fill="#000000">TimingDeserializer</text>
</g>
<!-- Node1 -->
<g id="node2" class="node">
<title>Node1</title>
<g id="a_node2"><a xlink:href="classEvrV2__tb.html" target="_top" xlink:title="EvrV2_tb">
<polygon fill="#ffffff" stroke="#000000" points="0,-112.5 0,-131.5 60,-131.5 60,-112.5 0,-112.5"/>
<text text-anchor="middle" x="30" y="-119.5" font-family="Helvetica,sans-Serif" font-size="10.00" fill="#000000">EvrV2_tb</text>
</a>
</g>
</g>
<!-- Node0&#45;&gt;Node1 -->
<g id="edge1" class="edge">
<title>Node0&#45;&gt;Node1</title>
<path fill="none" stroke="#191970" d="M62.3128,-160.5004C54.3204,-150.9775 44.7375,-139.5596 38.093,-131.6427"/>
<polygon fill="#191970" stroke="#191970" points="59.7036,-162.8358 68.8132,-168.2455 65.0654,-158.3357 59.7036,-162.8358"/>
</g>
<!-- Node2 -->
<g id="node3" class="node">
<title>Node2</title>
<g id="a_node3"><a xlink:href="classTimingFrameRx.html" target="_top" xlink:title="TimingFrameRx">
<polygon fill="#ffffff" stroke="#000000" points="78.5,-112.5 78.5,-131.5 171.5,-131.5 171.5,-112.5 78.5,-112.5"/>
<text text-anchor="middle" x="125" y="-119.5" font-family="Helvetica,sans-Serif" font-size="10.00" fill="#000000">TimingFrameRx</text>
</a>
</g>
</g>
<!-- Node0&#45;&gt;Node2 -->
<g id="edge2" class="edge">
<title>Node0&#45;&gt;Node2</title>
<path fill="none" stroke="#191970" d="M91.9997,-160.5004C100.1622,-150.9775 109.9489,-139.5596 116.7349,-131.6427"/>
<polygon fill="#191970" stroke="#191970" points="89.2115,-158.3752 85.361,-168.2455 94.5263,-162.9307 89.2115,-158.3752"/>
</g>
<!-- Node3 -->
<g id="node4" class="node">
<title>Node3</title>
<g id="a_node4"><a xlink:href="classTimingRx.html" target="_top" xlink:title="TimingRx">
<polygon fill="#ffffff" stroke="#000000" points="93.5,-56.5 93.5,-75.5 156.5,-75.5 156.5,-56.5 93.5,-56.5"/>
<text text-anchor="middle" x="125" y="-63.5" font-family="Helvetica,sans-Serif" font-size="10.00" fill="#000000">TimingRx</text>
</a>
</g>
</g>
<!-- Node2&#45;&gt;Node3 -->
<g id="edge3" class="edge">
<title>Node2&#45;&gt;Node3</title>
<path fill="none" stroke="#191970" d="M125,-102.1575C125,-93.155 125,-82.9199 125,-75.6427"/>
<polygon fill="#191970" stroke="#191970" points="121.5001,-102.2455 125,-112.2455 128.5001,-102.2456 121.5001,-102.2455"/>
</g>
<!-- Node4 -->
<g id="node5" class="node">
<title>Node4</title>
<g id="a_node5"><a xlink:href="classTimingCore.html" target="_top" xlink:title="TimingCore">
<polygon fill="#ffffff" stroke="#000000" points="88.5,-.5 88.5,-19.5 161.5,-19.5 161.5,-.5 88.5,-.5"/>
<text text-anchor="middle" x="125" y="-7.5" font-family="Helvetica,sans-Serif" font-size="10.00" fill="#000000">TimingCore</text>
</a>
</g>
</g>
<!-- Node3&#45;&gt;Node4 -->
<g id="edge4" class="edge">
<title>Node3&#45;&gt;Node4</title>
<path fill="none" stroke="#191970" d="M125,-46.1575C125,-37.155 125,-26.9199 125,-19.6427"/>
<polygon fill="#191970" stroke="#191970" points="121.5001,-46.2455 125,-56.2455 128.5001,-46.2456 121.5001,-46.2455"/>
</g>
</g>
</svg>
