<?xml version="1.0" encoding="UTF-8" standalone="no"?>
<!DOCTYPE svg PUBLIC "-//W3C//DTD SVG 1.1//EN"
 "http://www.w3.org/Graphics/SVG/1.1/DTD/svg11.dtd">
<!-- Generated by graphviz version 2.40.1 (20161225.0304)
 -->
<!-- Title: EvrV1Core Pages: 1 -->
<svg width="405pt" height="140pt"
 viewBox="0.00 0.00 404.50 140.00" xmlns="http://www.w3.org/2000/svg" xmlns:xlink="http://www.w3.org/1999/xlink">
<g id="graph0" class="graph" transform="scale(1 1) rotate(0) translate(4 136)">
<title>EvrV1Core</title>
<polygon fill="#ffffff" stroke="transparent" points="-4,4 -4,-136 400.5,-136 400.5,4 -4,4"/>
<!-- Node6 -->
<g id="node1" class="node">
<title>Node6</title>
<polygon fill="#bfbfbf" stroke="#000000" points="121,-.5 121,-19.5 189,-19.5 189,-.5 121,-.5"/>
<text text-anchor="middle" x="155" y="-7.5" font-family="Helvetica,sans-Serif" font-size="10.00" fill="#000000">EvrV1Core</text>
</g>
<!-- Node7 -->
<g id="node2" class="node">
<title>Node7</title>
<g id="a_node2"><a xlink:href="classEvrV1Reg.html" target="_top" xlink:title="EvrV1Reg(2)">
<polygon fill="#ffffff" stroke="#000000" points="59.5,-56.5 59.5,-75.5 136.5,-75.5 136.5,-56.5 59.5,-56.5"/>
<text text-anchor="middle" x="98" y="-63.5" font-family="Helvetica,sans-Serif" font-size="10.00" fill="#000000">EvrV1Reg(2)</text>
</a>
</g>
</g>
<!-- Node7&#45;&gt;Node6 -->
<g id="edge1" class="edge">
<title>Node7&#45;&gt;Node6</title>
<path fill="none" stroke="#191970" d="M115.2271,-49.0751C125.0341,-39.4402 136.964,-27.7196 145.1851,-19.6427"/>
<polygon fill="#191970" stroke="#191970" points="112.6091,-46.7406 107.9286,-56.2455 117.5149,-51.734 112.6091,-46.7406"/>
</g>
<!-- Node8 -->
<g id="node3" class="node">
<title>Node8</title>
<g id="a_node3"><a xlink:href="classEvrV1EventReceiver.html" target="_top" xlink:title="EvrV1EventReceiver">
<polygon fill="#ffffff" stroke="#000000" points="154.5,-56.5 154.5,-75.5 269.5,-75.5 269.5,-56.5 154.5,-56.5"/>
<text text-anchor="middle" x="212" y="-63.5" font-family="Helvetica,sans-Serif" font-size="10.00" fill="#000000">EvrV1EventReceiver</text>
</a>
</g>
</g>
<!-- Node8&#45;&gt;Node6 -->
<g id="edge2" class="edge">
<title>Node8&#45;&gt;Node6</title>
<path fill="none" stroke="#191970" d="M194.7729,-49.0751C184.9659,-39.4402 173.036,-27.7196 164.8149,-19.6427"/>
<polygon fill="#191970" stroke="#191970" points="192.4851,-51.734 202.0714,-56.2455 197.3909,-46.7406 192.4851,-51.734"/>
</g>
<!-- Node9 -->
<g id="node4" class="node">
<title>Node9</title>
<g id="a_node4"><a xlink:href="classEvrV1TimeStampFIFO.html" target="_top" xlink:title="EvrV1TimeStampFIFO">
<polygon fill="#ffffff" stroke="#000000" points="0,-112.5 0,-131.5 122,-131.5 122,-112.5 0,-112.5"/>
<text text-anchor="middle" x="61" y="-119.5" font-family="Helvetica,sans-Serif" font-size="10.00" fill="#000000">EvrV1TimeStampFIFO</text>
</a>
</g>
</g>
<!-- Node9&#45;&gt;Node8 -->
<g id="edge3" class="edge">
<title>Node9&#45;&gt;Node8</title>
<path fill="none" stroke="#191970" d="M96.623,-108.7888C124.1938,-98.5639 161.7149,-84.6488 186.3809,-75.5011"/>
<polygon fill="#191970" stroke="#191970" points="95.1168,-105.6144 86.9578,-112.3733 97.5509,-112.1776 95.1168,-105.6144"/>
</g>
<!-- Node10 -->
<g id="node5" class="node">
<title>Node10</title>
<g id="a_node5"><a xlink:href="classEvrV1EventRAM256x32.html" target="_top" xlink:title="EvrV1EventRAM256x32(4)">
<polygon fill="#ffffff" stroke="#000000" points="140.5,-112.5 140.5,-131.5 283.5,-131.5 283.5,-112.5 140.5,-112.5"/>
<text text-anchor="middle" x="212" y="-119.5" font-family="Helvetica,sans-Serif" font-size="10.00" fill="#000000">EvrV1EventRAM256x32(4)</text>
</a>
</g>
</g>
<!-- Node10&#45;&gt;Node8 -->
<g id="edge4" class="edge">
<title>Node10&#45;&gt;Node8</title>
<path fill="none" stroke="#191970" d="M212,-102.1575C212,-93.155 212,-82.9199 212,-75.6427"/>
<polygon fill="#191970" stroke="#191970" points="208.5001,-102.2455 212,-112.2455 215.5001,-102.2456 208.5001,-102.2455"/>
</g>
<!-- Node11 -->
<g id="node6" class="node">
<title>Node11</title>
<g id="a_node6"><a xlink:href="classEvrV1HeartBeat.html" target="_top" xlink:title="EvrV1HeartBeat">
<polygon fill="#ffffff" stroke="#000000" points="301.5,-112.5 301.5,-131.5 396.5,-131.5 396.5,-112.5 301.5,-112.5"/>
<text text-anchor="middle" x="349" y="-119.5" font-family="Helvetica,sans-Serif" font-size="10.00" fill="#000000">EvrV1HeartBeat</text>
</a>
</g>
</g>
<!-- Node11&#45;&gt;Node8 -->
<g id="edge5" class="edge">
<title>Node11&#45;&gt;Node8</title>
<path fill="none" stroke="#191970" d="M316.0194,-108.5189C291.0689,-98.3201 257.4266,-84.5685 235.2438,-75.5011"/>
<polygon fill="#191970" stroke="#191970" points="314.868,-111.8293 325.4489,-112.3733 317.5166,-105.3497 314.868,-111.8293"/>
</g>
</g>
</svg>
