<?xml version="1.0" encoding="UTF-8" standalone="no"?>
<!DOCTYPE svg PUBLIC "-//W3C//DTD SVG 1.1//EN"
 "http://www.w3.org/Graphics/SVG/1.1/DTD/svg11.dtd">
<!-- Generated by graphviz version 2.40.1 (20161225.0304)
 -->
<!-- Title: TimingFrameRx Pages: 1 -->
<svg width="256pt" height="84pt"
 viewBox="0.00 0.00 255.50 84.00" xmlns="http://www.w3.org/2000/svg" xmlns:xlink="http://www.w3.org/1999/xlink">
<g id="graph0" class="graph" transform="scale(1 1) rotate(0) translate(4 80)">
<title>TimingFrameRx</title>
<polygon fill="#ffffff" stroke="transparent" points="-4,4 -4,-80 251.5,-80 251.5,4 -4,4"/>
<!-- Node5 -->
<g id="node1" class="node">
<title>Node5</title>
<polygon fill="#bfbfbf" stroke="#000000" points="74,-.5 74,-19.5 167,-19.5 167,-.5 74,-.5"/>
<text text-anchor="middle" x="120.5" y="-7.5" font-family="Helvetica,sans-Serif" font-size="10.00" fill="#000000">TimingFrameRx</text>
</g>
<!-- Node6 -->
<g id="node2" class="node">
<title>Node6</title>
<g id="a_node2"><a xlink:href="classTimingDeserializer.html" target="_top" xlink:title="TimingDeserializer">
<polygon fill="#ffffff" stroke="#000000" points="0,-56.5 0,-75.5 109,-75.5 109,-56.5 0,-56.5"/>
<text text-anchor="middle" x="54.5" y="-63.5" font-family="Helvetica,sans-Serif" font-size="10.00" fill="#000000">TimingDeserializer</text>
</a>
</g>
</g>
<!-- Node6&#45;&gt;Node5 -->
<g id="edge1" class="edge">
<title>Node6&#45;&gt;Node5</title>
<path fill="none" stroke="#191970" d="M73.7755,-49.645C85.2538,-39.9058 99.4277,-27.8795 109.1354,-19.6427"/>
<polygon fill="#191970" stroke="#191970" points="71.357,-47.1069 65.9963,-56.2455 75.8859,-52.4445 71.357,-47.1069"/>
</g>
<!-- Node7 -->
<g id="node3" class="node">
<title>Node7</title>
<g id="a_node3"><a xlink:href="classTimingSerialDelay.html" target="_top" xlink:title="TimingSerialDelay(2)">
<polygon fill="#ffffff" stroke="#000000" points="127.5,-56.5 127.5,-75.5 247.5,-75.5 247.5,-56.5 127.5,-56.5"/>
<text text-anchor="middle" x="187.5" y="-63.5" font-family="Helvetica,sans-Serif" font-size="10.00" fill="#000000">TimingSerialDelay(2)</text>
</a>
</g>
</g>
<!-- Node7&#45;&gt;Node5 -->
<g id="edge2" class="edge">
<title>Node7&#45;&gt;Node5</title>
<path fill="none" stroke="#191970" d="M167.9324,-49.645C156.2802,-39.9058 141.8916,-27.8795 132.0368,-19.6427"/>
<polygon fill="#191970" stroke="#191970" points="165.9121,-52.5179 175.8295,-56.2455 170.4012,-47.1469 165.9121,-52.5179"/>
</g>
</g>
</svg>
