<?xml version="1.0" encoding="UTF-8" standalone="no"?>
<!DOCTYPE svg PUBLIC "-//W3C//DTD SVG 1.1//EN"
 "http://www.w3.org/Graphics/SVG/1.1/DTD/svg11.dtd">
<!-- Generated by graphviz version 2.43.0 (0)
 -->
<!-- Title: EvrV2EventSelect Pages: 1 -->
<svg width="424pt" height="84pt"
 viewBox="0.00 0.00 423.50 84.00" xmlns="http://www.w3.org/2000/svg" xmlns:xlink="http://www.w3.org/1999/xlink">
<g id="graph0" class="graph" transform="scale(1 1) rotate(0) translate(4 80)">
<title>EvrV2EventSelect</title>
<polygon fill="white" stroke="transparent" points="-4,4 -4,-80 419.5,-80 419.5,4 -4,4"/>
<!-- Node1 -->
<g id="node1" class="node">
<title>Node1</title>
<g id="a_node1"><a xlink:title=" ">
<polygon fill="#bfbfbf" stroke="black" points="147.5,-56.5 147.5,-75.5 250.5,-75.5 250.5,-56.5 147.5,-56.5"/>
<text text-anchor="middle" x="199" y="-63.5" font-family="Helvetica,sans-Serif" font-size="10.00">EvrV2EventSelect</text>
</a>
</g>
</g>
<!-- Node2 -->
<g id="node2" class="node">
<title>Node2</title>
<g id="a_node2"><a xlink:href="classEvrV2__tb.html" target="_top" xlink:title=" ">
<polygon fill="white" stroke="black" points="0,-0.5 0,-19.5 60,-19.5 60,-0.5 0,-0.5"/>
<text text-anchor="middle" x="30" y="-7.5" font-family="Helvetica,sans-Serif" font-size="10.00">EvrV2_tb</text>
</a>
</g>
</g>
<!-- Node1&#45;&gt;Node2 -->
<g id="edge1" class="edge">
<title>Node1&#45;&gt;Node2</title>
<path fill="none" stroke="midnightblue" d="M162.4,-53.3C130.55,-43.13 85.16,-28.62 56.65,-19.52"/>
<polygon fill="midnightblue" stroke="midnightblue" points="161.63,-56.73 172.22,-56.44 163.76,-50.07 161.63,-56.73"/>
</g>
<!-- Node3 -->
<g id="node3" class="node">
<title>Node3</title>
<g id="a_node3"><a xlink:href="classEvrV2CorePulseGen.html" target="_top" xlink:title=" ">
<polygon fill="white" stroke="black" points="78.5,-0.5 78.5,-19.5 191.5,-19.5 191.5,-0.5 78.5,-0.5"/>
<text text-anchor="middle" x="135" y="-7.5" font-family="Helvetica,sans-Serif" font-size="10.00">EvrV2CorePulseGen</text>
</a>
</g>
</g>
<!-- Node1&#45;&gt;Node3 -->
<g id="edge2" class="edge">
<title>Node1&#45;&gt;Node3</title>
<path fill="none" stroke="midnightblue" d="M181.01,-49.82C169.54,-40.15 155.09,-27.95 145.47,-19.83"/>
<polygon fill="midnightblue" stroke="midnightblue" points="178.82,-52.55 188.72,-56.32 183.33,-47.2 178.82,-52.55"/>
</g>
<!-- Node4 -->
<g id="node4" class="node">
<title>Node4</title>
<g id="a_node4"><a xlink:href="classEvrV2CoreTriggers.html" target="_top" xlink:title=" ">
<polygon fill="white" stroke="black" points="210,-0.5 210,-19.5 316,-19.5 316,-0.5 210,-0.5"/>
<text text-anchor="middle" x="263" y="-7.5" font-family="Helvetica,sans-Serif" font-size="10.00">EvrV2CoreTriggers</text>
</a>
</g>
</g>
<!-- Node1&#45;&gt;Node4 -->
<g id="edge3" class="edge">
<title>Node1&#45;&gt;Node4</title>
<path fill="none" stroke="midnightblue" d="M216.99,-49.82C228.46,-40.15 242.91,-27.95 252.53,-19.83"/>
<polygon fill="midnightblue" stroke="midnightblue" points="214.67,-47.2 209.28,-56.32 219.18,-52.55 214.67,-47.2"/>
</g>
<!-- Node5 -->
<g id="node5" class="node">
<title>Node5</title>
<g id="a_node5"><a xlink:href="classEvrV2Module.html" target="_top" xlink:title=" ">
<polygon fill="white" stroke="black" points="334.5,-0.5 334.5,-19.5 415.5,-19.5 415.5,-0.5 334.5,-0.5"/>
<text text-anchor="middle" x="375" y="-7.5" font-family="Helvetica,sans-Serif" font-size="10.00">EvrV2Module</text>
</a>
</g>
</g>
<!-- Node1&#45;&gt;Node5 -->
<g id="edge4" class="edge">
<title>Node1&#45;&gt;Node5</title>
<path fill="none" stroke="midnightblue" d="M236.69,-53.44C269.87,-43.26 317.43,-28.66 347.24,-19.52"/>
<polygon fill="midnightblue" stroke="midnightblue" points="235.42,-50.16 226.89,-56.44 237.47,-56.86 235.42,-50.16"/>
</g>
</g>
</svg>
