<?xml version="1.0" encoding="UTF-8" standalone="no"?>
<!DOCTYPE svg PUBLIC "-//W3C//DTD SVG 1.1//EN"
 "http://www.w3.org/Graphics/SVG/1.1/DTD/svg11.dtd">
<!-- Generated by graphviz version 2.40.1 (20161225.0304)
 -->
<!-- Title: TimingSerialDelay Pages: 1 -->
<svg width="238pt" height="196pt"
 viewBox="0.00 0.00 238.00 196.00" xmlns="http://www.w3.org/2000/svg" xmlns:xlink="http://www.w3.org/1999/xlink">
<g id="graph0" class="graph" transform="scale(1 1) rotate(0) translate(4 192)">
<title>TimingSerialDelay</title>
<polygon fill="#ffffff" stroke="transparent" points="-4,4 -4,-192 234,-192 234,4 -4,4"/>
<!-- Node0 -->
<g id="node1" class="node">
<title>Node0</title>
<polygon fill="#bfbfbf" stroke="#000000" points="55,-168.5 55,-187.5 162,-187.5 162,-168.5 55,-168.5"/>
<text text-anchor="middle" x="108.5" y="-175.5" font-family="Helvetica,sans-Serif" font-size="10.00" fill="#000000">TimingSerialDelay</text>
</g>
<!-- Node1 -->
<g id="node2" class="node">
<title>Node1</title>
<g id="a_node2"><a xlink:href="classTimingFrameRx.html" target="_top" xlink:title="TimingFrameRx">
<polygon fill="#ffffff" stroke="#000000" points="0,-112.5 0,-131.5 93,-131.5 93,-112.5 0,-112.5"/>
<text text-anchor="middle" x="46.5" y="-119.5" font-family="Helvetica,sans-Serif" font-size="10.00" fill="#000000">TimingFrameRx</text>
</a>
</g>
</g>
<!-- Node0&#45;&gt;Node1 -->
<g id="edge1" class="edge">
<title>Node0&#45;&gt;Node1</title>
<path fill="none" stroke="#191970" d="M90.0779,-161.3607C79.3519,-151.6727 66.2066,-139.7995 57.1758,-131.6427"/>
<polygon fill="#191970" stroke="#191970" points="87.9334,-164.14 97.7004,-168.2455 92.6254,-158.9453 87.9334,-164.14"/>
</g>
<!-- Node4 -->
<g id="node5" class="node">
<title>Node4</title>
<g id="a_node5"><a xlink:href="classTimingSerialDelayTb.html" target="_top" xlink:title="TimingSerialDelayTb">
<polygon fill="#ffffff" stroke="#000000" points="111,-112.5 111,-131.5 230,-131.5 230,-112.5 111,-112.5"/>
<text text-anchor="middle" x="170.5" y="-119.5" font-family="Helvetica,sans-Serif" font-size="10.00" fill="#000000">TimingSerialDelayTb</text>
</a>
</g>
</g>
<!-- Node0&#45;&gt;Node4 -->
<g id="edge4" class="edge">
<title>Node0&#45;&gt;Node4</title>
<path fill="none" stroke="#191970" d="M126.9221,-161.3607C137.6481,-151.6727 150.7934,-139.7995 159.8242,-131.6427"/>
<polygon fill="#191970" stroke="#191970" points="124.3746,-158.9453 119.2996,-168.2455 129.0666,-164.14 124.3746,-158.9453"/>
</g>
<!-- Node2 -->
<g id="node3" class="node">
<title>Node2</title>
<g id="a_node3"><a xlink:href="classTimingRx.html" target="_top" xlink:title="TimingRx">
<polygon fill="#ffffff" stroke="#000000" points="15,-56.5 15,-75.5 78,-75.5 78,-56.5 15,-56.5"/>
<text text-anchor="middle" x="46.5" y="-63.5" font-family="Helvetica,sans-Serif" font-size="10.00" fill="#000000">TimingRx</text>
</a>
</g>
</g>
<!-- Node1&#45;&gt;Node2 -->
<g id="edge2" class="edge">
<title>Node1&#45;&gt;Node2</title>
<path fill="none" stroke="#191970" d="M46.5,-102.1575C46.5,-93.155 46.5,-82.9199 46.5,-75.6427"/>
<polygon fill="#191970" stroke="#191970" points="43.0001,-102.2455 46.5,-112.2455 50.0001,-102.2456 43.0001,-102.2455"/>
</g>
<!-- Node3 -->
<g id="node4" class="node">
<title>Node3</title>
<g id="a_node4"><a xlink:href="classTimingCore.html" target="_top" xlink:title="TimingCore">
<polygon fill="#ffffff" stroke="#000000" points="10,-.5 10,-19.5 83,-19.5 83,-.5 10,-.5"/>
<text text-anchor="middle" x="46.5" y="-7.5" font-family="Helvetica,sans-Serif" font-size="10.00" fill="#000000">TimingCore</text>
</a>
</g>
</g>
<!-- Node2&#45;&gt;Node3 -->
<g id="edge3" class="edge">
<title>Node2&#45;&gt;Node3</title>
<path fill="none" stroke="#191970" d="M46.5,-46.1575C46.5,-37.155 46.5,-26.9199 46.5,-19.6427"/>
<polygon fill="#191970" stroke="#191970" points="43.0001,-46.2455 46.5,-56.2455 50.0001,-46.2456 43.0001,-46.2455"/>
</g>
</g>
</svg>
