<?xml version="1.0" encoding="UTF-8" standalone="no"?>
<!DOCTYPE svg PUBLIC "-//W3C//DTD SVG 1.1//EN"
 "http://www.w3.org/Graphics/SVG/1.1/DTD/svg11.dtd">
<!-- Generated by graphviz version 2.43.0 (0)
 -->
<!-- Title: TPGMiniCore Pages: 1 -->
<svg width="454pt" height="196pt"
 viewBox="0.00 0.00 453.50 196.00" xmlns="http://www.w3.org/2000/svg" xmlns:xlink="http://www.w3.org/1999/xlink">
<g id="graph0" class="graph" transform="scale(1 1) rotate(0) translate(4 192)">
<title>TPGMiniCore</title>
<polygon fill="white" stroke="transparent" points="-4,4 -4,-192 449.5,-192 449.5,4 -4,4"/>
<!-- Node1 -->
<g id="node1" class="node">
<title>Node1</title>
<g id="a_node1"><a xlink:title=" ">
<polygon fill="#bfbfbf" stroke="black" points="136.5,-0.5 136.5,-19.5 216.5,-19.5 216.5,-0.5 136.5,-0.5"/>
<text text-anchor="middle" x="176.5" y="-7.5" font-family="Helvetica,sans-Serif" font-size="10.00">TPGMiniCore</text>
</a>
</g>
</g>
<!-- Node2 -->
<g id="node2" class="node">
<title>Node2</title>
<g id="a_node2"><a xlink:href="classTPGMiniReg.html" target="_top" xlink:title=" ">
<polygon fill="white" stroke="black" points="96.5,-56.5 96.5,-75.5 172.5,-75.5 172.5,-56.5 96.5,-56.5"/>
<text text-anchor="middle" x="134.5" y="-63.5" font-family="Helvetica,sans-Serif" font-size="10.00">TPGMiniReg</text>
</a>
</g>
</g>
<!-- Node2&#45;&gt;Node1 -->
<g id="edge1" class="edge">
<title>Node2&#45;&gt;Node1</title>
<path fill="none" stroke="midnightblue" d="M147.61,-48.14C154.93,-38.74 163.74,-27.4 169.69,-19.75"/>
<polygon fill="midnightblue" stroke="midnightblue" points="144.81,-46.04 141.44,-56.08 150.34,-50.34 144.81,-46.04"/>
</g>
<!-- Node3 -->
<g id="node3" class="node">
<title>Node3</title>
<g id="a_node3"><a xlink:href="classTPGMini.html" target="_top" xlink:title=" ">
<polygon fill="white" stroke="black" points="191,-56.5 191,-75.5 248,-75.5 248,-56.5 191,-56.5"/>
<text text-anchor="middle" x="219.5" y="-63.5" font-family="Helvetica,sans-Serif" font-size="10.00">TPGMini</text>
</a>
</g>
</g>
<!-- Node3&#45;&gt;Node1 -->
<g id="edge2" class="edge">
<title>Node3&#45;&gt;Node1</title>
<path fill="none" stroke="midnightblue" d="M206.08,-48.14C198.59,-38.74 189.56,-27.4 183.47,-19.75"/>
<polygon fill="midnightblue" stroke="midnightblue" points="203.43,-50.44 212.4,-56.08 208.91,-46.08 203.43,-50.44"/>
</g>
<!-- Node4 -->
<g id="node4" class="node">
<title>Node4</title>
<g id="a_node4"><a xlink:href="classDivider.html" target="_top" xlink:title=" ">
<polygon fill="white" stroke="black" points="0,-112.5 0,-131.5 65,-131.5 65,-112.5 0,-112.5"/>
<text text-anchor="middle" x="32.5" y="-119.5" font-family="Helvetica,sans-Serif" font-size="10.00">Divider(2)</text>
</a>
</g>
</g>
<!-- Node4&#45;&gt;Node3 -->
<g id="edge3" class="edge">
<title>Node4&#45;&gt;Node3</title>
<path fill="none" stroke="midnightblue" d="M72.18,-109.54C107.8,-99.26 159.21,-84.41 190.93,-75.25"/>
<polygon fill="midnightblue" stroke="midnightblue" points="70.77,-106.31 62.13,-112.44 72.71,-113.03 70.77,-106.31"/>
</g>
<!-- Node5 -->
<g id="node5" class="node">
<title>Node5</title>
<g id="a_node5"><a xlink:href="classBsaControl.html" target="_top" xlink:title=" ">
<polygon fill="white" stroke="black" points="83.5,-112.5 83.5,-131.5 153.5,-131.5 153.5,-112.5 83.5,-112.5"/>
<text text-anchor="middle" x="118.5" y="-119.5" font-family="Helvetica,sans-Serif" font-size="10.00">BsaControl</text>
</a>
</g>
</g>
<!-- Node5&#45;&gt;Node3 -->
<g id="edge4" class="edge">
<title>Node5&#45;&gt;Node3</title>
<path fill="none" stroke="midnightblue" d="M143.58,-107.59C162.26,-97.61 187.2,-84.27 203.31,-75.65"/>
<polygon fill="midnightblue" stroke="midnightblue" points="141.9,-104.52 134.73,-112.32 145.2,-110.7 141.9,-104.52"/>
</g>
<!-- Node6 -->
<g id="node6" class="node">
<title>Node6</title>
<g id="a_node6"><a xlink:href="classEventSelect.html" target="_top" xlink:title=" ">
<polygon fill="white" stroke="black" points="74.5,-168.5 74.5,-187.5 162.5,-187.5 162.5,-168.5 74.5,-168.5"/>
<text text-anchor="middle" x="118.5" y="-175.5" font-family="Helvetica,sans-Serif" font-size="10.00">EventSelect(2)</text>
</a>
</g>
</g>
<!-- Node6&#45;&gt;Node5 -->
<g id="edge5" class="edge">
<title>Node6&#45;&gt;Node5</title>
<path fill="none" stroke="midnightblue" d="M118.5,-157.8C118.5,-148.91 118.5,-138.78 118.5,-131.75"/>
<polygon fill="midnightblue" stroke="midnightblue" points="115,-158.08 118.5,-168.08 122,-158.08 115,-158.08"/>
</g>
<!-- Node7 -->
<g id="node7" class="node">
<title>Node7</title>
<g id="a_node7"><a xlink:href="classTimingSerializer.html" target="_top" xlink:title=" ">
<polygon fill="white" stroke="black" points="171.5,-112.5 171.5,-131.5 267.5,-131.5 267.5,-112.5 171.5,-112.5"/>
<text text-anchor="middle" x="219.5" y="-119.5" font-family="Helvetica,sans-Serif" font-size="10.00">TimingSerializer</text>
</a>
</g>
</g>
<!-- Node7&#45;&gt;Node3 -->
<g id="edge6" class="edge">
<title>Node7&#45;&gt;Node3</title>
<path fill="none" stroke="midnightblue" d="M219.5,-101.8C219.5,-92.91 219.5,-82.78 219.5,-75.75"/>
<polygon fill="midnightblue" stroke="midnightblue" points="216,-102.08 219.5,-112.08 223,-102.08 216,-102.08"/>
</g>
<!-- Node8 -->
<g id="node8" class="node">
<title>Node8</title>
<g id="a_node8"><a xlink:href="classTPSerializer.html" target="_top" xlink:title=" ">
<polygon fill="white" stroke="black" points="285.5,-112.5 285.5,-131.5 359.5,-131.5 359.5,-112.5 285.5,-112.5"/>
<text text-anchor="middle" x="322.5" y="-119.5" font-family="Helvetica,sans-Serif" font-size="10.00">TPSerializer</text>
</a>
</g>
</g>
<!-- Node8&#45;&gt;Node3 -->
<g id="edge7" class="edge">
<title>Node8&#45;&gt;Node3</title>
<path fill="none" stroke="midnightblue" d="M296.92,-107.59C277.88,-97.61 252.44,-84.27 236.01,-75.65"/>
<polygon fill="midnightblue" stroke="midnightblue" points="295.47,-110.78 305.95,-112.32 298.72,-104.58 295.47,-110.78"/>
</g>
<!-- Node9 -->
<g id="node9" class="node">
<title>Node9</title>
<g id="a_node9"><a xlink:href="classClockTime.html" target="_top" xlink:title=" ">
<polygon fill="white" stroke="black" points="377.5,-112.5 377.5,-131.5 445.5,-131.5 445.5,-112.5 377.5,-112.5"/>
<text text-anchor="middle" x="411.5" y="-119.5" font-family="Helvetica,sans-Serif" font-size="10.00">ClockTime</text>
</a>
</g>
</g>
<!-- Node9&#45;&gt;Node3 -->
<g id="edge8" class="edge">
<title>Node9&#45;&gt;Node3</title>
<path fill="none" stroke="midnightblue" d="M371.17,-109.66C334.35,-99.3 280.85,-84.25 248.21,-75.08"/>
<polygon fill="midnightblue" stroke="midnightblue" points="370.5,-113.11 381.08,-112.44 372.4,-106.37 370.5,-113.11"/>
</g>
</g>
</svg>
