<?xml version="1.0" encoding="UTF-8" standalone="no"?>
<!DOCTYPE svg PUBLIC "-//W3C//DTD SVG 1.1//EN"
 "http://www.w3.org/Graphics/SVG/1.1/DTD/svg11.dtd">
<!-- Generated by graphviz version 2.40.1 (20161225.0304)
 -->
<!-- Title: EvrV2Trigger Pages: 1 -->
<svg width="422pt" height="84pt"
 viewBox="0.00 0.00 422.00 84.00" xmlns="http://www.w3.org/2000/svg" xmlns:xlink="http://www.w3.org/1999/xlink">
<g id="graph0" class="graph" transform="scale(1 1) rotate(0) translate(4 80)">
<title>EvrV2Trigger</title>
<polygon fill="#ffffff" stroke="transparent" points="-4,4 -4,-80 418,-80 418,4 -4,4"/>
<!-- Node0 -->
<g id="node1" class="node">
<title>Node0</title>
<polygon fill="#bfbfbf" stroke="#000000" points="160,-56.5 160,-75.5 238,-75.5 238,-56.5 160,-56.5"/>
<text text-anchor="middle" x="199" y="-63.5" font-family="Helvetica,sans-Serif" font-size="10.00" fill="#000000">EvrV2Trigger</text>
</g>
<!-- Node1 -->
<g id="node2" class="node">
<title>Node1</title>
<g id="a_node2"><a xlink:href="classEvrV2__tb.html" target="_top" xlink:title="EvrV2_tb">
<polygon fill="#ffffff" stroke="#000000" points="0,-.5 0,-19.5 60,-19.5 60,-.5 0,-.5"/>
<text text-anchor="middle" x="30" y="-7.5" font-family="Helvetica,sans-Serif" font-size="10.00" fill="#000000">EvrV2_tb</text>
</a>
</g>
</g>
<!-- Node0&#45;&gt;Node1 -->
<g id="edge1" class="edge">
<title>Node0&#45;&gt;Node1</title>
<path fill="none" stroke="#191970" d="M160.3427,-53.1905C129.3807,-42.9309 86.6426,-28.7691 58.673,-19.5011"/>
<polygon fill="#191970" stroke="#191970" points="159.3545,-56.5501 169.9479,-56.3733 161.5563,-49.9054 159.3545,-56.5501"/>
</g>
<!-- Node2 -->
<g id="node3" class="node">
<title>Node2</title>
<g id="a_node3"><a xlink:href="classEvrV2CorePulseGen.html" target="_top" xlink:title="EvrV2CorePulseGen">
<polygon fill="#ffffff" stroke="#000000" points="78.5,-.5 78.5,-19.5 191.5,-19.5 191.5,-.5 78.5,-.5"/>
<text text-anchor="middle" x="135" y="-7.5" font-family="Helvetica,sans-Serif" font-size="10.00" fill="#000000">EvrV2CorePulseGen</text>
</a>
</g>
</g>
<!-- Node0&#45;&gt;Node2 -->
<g id="edge2" class="edge">
<title>Node0&#45;&gt;Node2</title>
<path fill="none" stroke="#191970" d="M180.3086,-49.645C169.1781,-39.9058 155.4337,-27.8795 146.0202,-19.6427"/>
<polygon fill="#191970" stroke="#191970" points="178.0215,-52.2945 187.8521,-56.2455 182.631,-47.0264 178.0215,-52.2945"/>
</g>
<!-- Node3 -->
<g id="node4" class="node">
<title>Node3</title>
<g id="a_node4"><a xlink:href="classEvrV2CoreTriggers.html" target="_top" xlink:title="EvrV2CoreTriggers">
<polygon fill="#ffffff" stroke="#000000" points="210,-.5 210,-19.5 316,-19.5 316,-.5 210,-.5"/>
<text text-anchor="middle" x="263" y="-7.5" font-family="Helvetica,sans-Serif" font-size="10.00" fill="#000000">EvrV2CoreTriggers</text>
</a>
</g>
</g>
<!-- Node0&#45;&gt;Node3 -->
<g id="edge3" class="edge">
<title>Node0&#45;&gt;Node3</title>
<path fill="none" stroke="#191970" d="M217.6914,-49.645C228.8219,-39.9058 242.5663,-27.8795 251.9798,-19.6427"/>
<polygon fill="#191970" stroke="#191970" points="215.369,-47.0264 210.1479,-56.2455 219.9785,-52.2945 215.369,-47.0264"/>
</g>
<!-- Node4 -->
<g id="node5" class="node">
<title>Node4</title>
<g id="a_node5"><a xlink:href="classEvrV2Module.html" target="_top" xlink:title="EvrV2Module">
<polygon fill="#ffffff" stroke="#000000" points="334,-.5 334,-19.5 414,-19.5 414,-.5 334,-.5"/>
<text text-anchor="middle" x="374" y="-7.5" font-family="Helvetica,sans-Serif" font-size="10.00" fill="#000000">EvrV2Module</text>
</a>
</g>
</g>
<!-- Node0&#45;&gt;Node4 -->
<g id="edge4" class="edge">
<title>Node0&#45;&gt;Node4</title>
<path fill="none" stroke="#191970" d="M238.614,-53.3235C270.7075,-43.0536 315.2211,-28.8093 344.309,-19.5011"/>
<polygon fill="#191970" stroke="#191970" points="237.5411,-49.9919 229.0836,-56.3733 239.6746,-56.6589 237.5411,-49.9919"/>
</g>
</g>
</svg>
