<?xml version="1.0" encoding="UTF-8" standalone="no"?>
<!DOCTYPE svg PUBLIC "-//W3C//DTD SVG 1.1//EN"
 "http://www.w3.org/Graphics/SVG/1.1/DTD/svg11.dtd">
<!-- Generated by graphviz version 2.40.1 (20161225.0304)
 -->
<!-- Title: TimingSerialDelayTb Pages: 1 -->
<svg width="198pt" height="84pt"
 viewBox="0.00 0.00 198.00 84.00" xmlns="http://www.w3.org/2000/svg" xmlns:xlink="http://www.w3.org/1999/xlink">
<g id="graph0" class="graph" transform="scale(1 1) rotate(0) translate(4 80)">
<title>TimingSerialDelayTb</title>
<polygon fill="#ffffff" stroke="transparent" points="-4,4 -4,-80 194,-80 194,4 -4,4"/>
<!-- Node0 -->
<g id="node1" class="node">
<title>Node0</title>
<polygon fill="#bfbfbf" stroke="#000000" points="25,-.5 25,-19.5 144,-19.5 144,-.5 25,-.5"/>
<text text-anchor="middle" x="84.5" y="-7.5" font-family="Helvetica,sans-Serif" font-size="10.00" fill="#000000">TimingSerialDelayTb</text>
</g>
<!-- Node1 -->
<g id="node2" class="node">
<title>Node1</title>
<g id="a_node2"><a xlink:href="classDivider.html" target="_top" xlink:title="Divider(2)">
<polygon fill="#ffffff" stroke="#000000" points="0,-56.5 0,-75.5 65,-75.5 65,-56.5 0,-56.5"/>
<text text-anchor="middle" x="32.5" y="-63.5" font-family="Helvetica,sans-Serif" font-size="10.00" fill="#000000">Divider(2)</text>
</a>
</g>
</g>
<!-- Node1&#45;&gt;Node0 -->
<g id="edge1" class="edge">
<title>Node1&#45;&gt;Node0</title>
<path fill="none" stroke="#191970" d="M48.4822,-48.7884C57.3778,-39.2085 68.1204,-27.6396 75.5461,-19.6427"/>
<polygon fill="#191970" stroke="#191970" points="45.7975,-46.536 41.5577,-56.2455 50.927,-51.2992 45.7975,-46.536"/>
</g>
<!-- Node2 -->
<g id="node3" class="node">
<title>Node2</title>
<g id="a_node3"><a xlink:href="classTimingSerialDelay.html" target="_top" xlink:title="TimingSerialDelay">
<polygon fill="#ffffff" stroke="#000000" points="83,-56.5 83,-75.5 190,-75.5 190,-56.5 83,-56.5"/>
<text text-anchor="middle" x="136.5" y="-63.5" font-family="Helvetica,sans-Serif" font-size="10.00" fill="#000000">TimingSerialDelay</text>
</a>
</g>
</g>
<!-- Node2&#45;&gt;Node0 -->
<g id="edge2" class="edge">
<title>Node2&#45;&gt;Node0</title>
<path fill="none" stroke="#191970" d="M120.5178,-48.7884C111.6222,-39.2085 100.8796,-27.6396 93.4539,-19.6427"/>
<polygon fill="#191970" stroke="#191970" points="118.073,-51.2992 127.4423,-56.2455 123.2025,-46.536 118.073,-51.2992"/>
</g>
</g>
</svg>
