<?xml version="1.0" encoding="UTF-8" standalone="no"?>
<!DOCTYPE svg PUBLIC "-//W3C//DTD SVG 1.1//EN"
 "http://www.w3.org/Graphics/SVG/1.1/DTD/svg11.dtd">
<!-- Generated by graphviz version 2.40.1 (20161225.0304)
 -->
<!-- Title: TimingRx Pages: 1 -->
<svg width="297pt" height="140pt"
 viewBox="0.00 0.00 297.00 140.00" xmlns="http://www.w3.org/2000/svg" xmlns:xlink="http://www.w3.org/1999/xlink">
<g id="graph0" class="graph" transform="scale(1 1) rotate(0) translate(4 136)">
<title>TimingRx</title>
<polygon fill="#ffffff" stroke="transparent" points="-4,4 -4,-136 293,-136 293,4 -4,4"/>
<!-- Node6 -->
<g id="node1" class="node">
<title>Node6</title>
<polygon fill="#bfbfbf" stroke="#000000" points="74.5,-.5 74.5,-19.5 137.5,-19.5 137.5,-.5 74.5,-.5"/>
<text text-anchor="middle" x="106" y="-7.5" font-family="Helvetica,sans-Serif" font-size="10.00" fill="#000000">TimingRx</text>
</g>
<!-- Node7 -->
<g id="node2" class="node">
<title>Node7</title>
<g id="a_node2"><a xlink:href="classTimingStreamRx.html" target="_top" xlink:title="TimingStreamRx">
<polygon fill="#ffffff" stroke="#000000" points="0,-56.5 0,-75.5 98,-75.5 98,-56.5 0,-56.5"/>
<text text-anchor="middle" x="49" y="-63.5" font-family="Helvetica,sans-Serif" font-size="10.00" fill="#000000">TimingStreamRx</text>
</a>
</g>
</g>
<!-- Node7&#45;&gt;Node6 -->
<g id="edge1" class="edge">
<title>Node7&#45;&gt;Node6</title>
<path fill="none" stroke="#191970" d="M66.2271,-49.0751C76.0341,-39.4402 87.964,-27.7196 96.1851,-19.6427"/>
<polygon fill="#191970" stroke="#191970" points="63.6091,-46.7406 58.9286,-56.2455 68.5149,-51.734 63.6091,-46.7406"/>
</g>
<!-- Node8 -->
<g id="node3" class="node">
<title>Node8</title>
<g id="a_node3"><a xlink:href="classTimingFrameRx.html" target="_top" xlink:title="TimingFrameRx">
<polygon fill="#ffffff" stroke="#000000" points="116.5,-56.5 116.5,-75.5 209.5,-75.5 209.5,-56.5 116.5,-56.5"/>
<text text-anchor="middle" x="163" y="-63.5" font-family="Helvetica,sans-Serif" font-size="10.00" fill="#000000">TimingFrameRx</text>
</a>
</g>
</g>
<!-- Node8&#45;&gt;Node6 -->
<g id="edge2" class="edge">
<title>Node8&#45;&gt;Node6</title>
<path fill="none" stroke="#191970" d="M145.7729,-49.0751C135.9659,-39.4402 124.036,-27.7196 115.8149,-19.6427"/>
<polygon fill="#191970" stroke="#191970" points="143.4851,-51.734 153.0714,-56.2455 148.3909,-46.7406 143.4851,-51.734"/>
</g>
<!-- Node9 -->
<g id="node4" class="node">
<title>Node9</title>
<g id="a_node4"><a xlink:href="classTimingDeserializer.html" target="_top" xlink:title="TimingDeserializer">
<polygon fill="#ffffff" stroke="#000000" points="41.5,-112.5 41.5,-131.5 150.5,-131.5 150.5,-112.5 41.5,-112.5"/>
<text text-anchor="middle" x="96" y="-119.5" font-family="Helvetica,sans-Serif" font-size="10.00" fill="#000000">TimingDeserializer</text>
</a>
</g>
</g>
<!-- Node9&#45;&gt;Node8 -->
<g id="edge3" class="edge">
<title>Node9&#45;&gt;Node8</title>
<path fill="none" stroke="#191970" d="M115.5676,-105.645C127.2198,-95.9058 141.6084,-83.8795 151.4632,-75.6427"/>
<polygon fill="#191970" stroke="#191970" points="113.0988,-103.1469 107.6705,-112.2455 117.5879,-108.5179 113.0988,-103.1469"/>
</g>
<!-- Node10 -->
<g id="node5" class="node">
<title>Node10</title>
<g id="a_node5"><a xlink:href="classTimingSerialDelay.html" target="_top" xlink:title="TimingSerialDelay(2)">
<polygon fill="#ffffff" stroke="#000000" points="169,-112.5 169,-131.5 289,-131.5 289,-112.5 169,-112.5"/>
<text text-anchor="middle" x="229" y="-119.5" font-family="Helvetica,sans-Serif" font-size="10.00" fill="#000000">TimingSerialDelay(2)</text>
</a>
</g>
</g>
<!-- Node10&#45;&gt;Node8 -->
<g id="edge4" class="edge">
<title>Node10&#45;&gt;Node8</title>
<path fill="none" stroke="#191970" d="M209.7245,-105.645C198.2462,-95.9058 184.0723,-83.8795 174.3646,-75.6427"/>
<polygon fill="#191970" stroke="#191970" points="207.6141,-108.4445 217.5037,-112.2455 212.143,-103.1069 207.6141,-108.4445"/>
</g>
</g>
</svg>
