<?xml version="1.0" encoding="UTF-8" standalone="no"?>
<!DOCTYPE svg PUBLIC "-//W3C//DTD SVG 1.1//EN"
 "http://www.w3.org/Graphics/SVG/1.1/DTD/svg11.dtd">
<!-- Generated by graphviz version 2.40.1 (20161225.0304)
 -->
<!-- Title: EvrV2_tb Pages: 1 -->
<!--zoomable 196 -->
<svg id="main" version="1.1" xmlns="http://www.w3.org/2000/svg" xmlns:xlink="http://www.w3.org/1999/xlink" xml:space="preserve" onload="init(evt)">
<style type="text/css"><![CDATA[
.edge:hover path { stroke: red; }
.edge:hover polygon { stroke: red; fill: red; }
]]></style>
<script type="text/javascript"><![CDATA[
var edges = document.getElementsByTagName('g');
if (edges && edges.length) {
  for (var i=0;i<edges.length;i++) {
    if (edges[i].id.substr(0,4)=='edge') {
      edges[i].setAttribute('class','edge');
    }
  }
}
]]></script>
        <defs>
                <circle id="rim" cx="0" cy="0" r="7"/>
                <circle id="rim2" cx="0" cy="0" r="3.5"/>
                <g id="zoomPlus">
                        <use xlink:href="#rim" fill="#404040">
                                <set attributeName="fill" to="#808080" begin="zoomplus.mouseover" end="zoomplus.mouseout"/>
                        </use>
                        <path d="M-4,0h8M0,-4v8" fill="none" stroke="white" stroke-width="1.5" pointer-events="none"/>
                </g>
                <g id="zoomMin">
                        <use xlink:href="#rim" fill="#404040">
                                <set attributeName="fill" to="#808080" begin="zoomminus.mouseover" end="zoomminus.mouseout"/>
                        </use>
                        <path d="M-4,0h8" fill="none" stroke="white" stroke-width="1.5" pointer-events="none"/>
                </g>
                <g id="dirArrow">
                        <path fill="none" stroke="white" stroke-width="1.5" d="M0,-3.0v7 M-2.5,-0.5L0,-3.0L2.5,-0.5"/>
                </g>
               <g id="resetDef">
                       <use xlink:href="#rim2" fill="#404040">
                               <set attributeName="fill" to="#808080" begin="reset.mouseover" end="reset.mouseout"/>
                       </use>
               </g>
        </defs>

<script type="text/javascript">
var viewWidth = 601;
var viewHeight = 196;
var sectionId = 'dynsection-0';
</script>
<script xlink:href="svgpan.js"/>
<svg id="graph" class="graph">
<g id="viewport">
<title>EvrV2_tb</title>
<polygon fill="#ffffff" stroke="transparent" points="-4,4 -4,-192 596.5,-192 596.5,4 -4,4"/>
<!-- Node0 -->
<g id="node1" class="node">
<title>Node0</title>
<polygon fill="#bfbfbf" stroke="#000000" points="352.5,-.5 352.5,-19.5 412.5,-19.5 412.5,-.5 352.5,-.5"/>
<text text-anchor="middle" x="382.5" y="-7.5" font-family="Helvetica,sans-Serif" font-size="10.00" fill="#000000">EvrV2_tb</text>
</g>
<!-- Node1 -->
<g id="node2" class="node">
<title>Node1</title>
<g id="a_node2"><a xlink:href="classTPGMini.html" target="_top" xlink:title="TPGMini">
<polygon fill="#ffffff" stroke="#000000" points="191.5,-56.5 191.5,-75.5 247.5,-75.5 247.5,-56.5 191.5,-56.5"/>
<text text-anchor="middle" x="219.5" y="-63.5" font-family="Helvetica,sans-Serif" font-size="10.00" fill="#000000">TPGMini</text>
</a>
</g>
</g>
<!-- Node1&#45;&gt;Node0 -->
<g id="edge1" class="edge">
<title>Node1&#45;&gt;Node0</title>
<path fill="none" stroke="#191970" d="M257.1733,-53.057C287.0042,-42.8084 327.9852,-28.729 354.8449,-19.5011"/>
<polygon fill="#191970" stroke="#191970" points="255.8409,-49.8139 247.5207,-56.3733 258.1154,-56.4341 255.8409,-49.8139"/>
</g>
<!-- Node2 -->
<g id="node3" class="node">
<title>Node2</title>
<g id="a_node3"><a xlink:href="classDivider.html" target="_top" xlink:title="Divider(2)">
<polygon fill="#ffffff" stroke="#000000" points="0,-112.5 0,-131.5 65,-131.5 65,-112.5 0,-112.5"/>
<text text-anchor="middle" x="32.5" y="-119.5" font-family="Helvetica,sans-Serif" font-size="10.00" fill="#000000">Divider(2)</text>
</a>
</g>
</g>
<!-- Node2&#45;&gt;Node1 -->
<g id="edge2" class="edge">
<title>Node2&#45;&gt;Node1</title>
<path fill="none" stroke="#191970" d="M74.2994,-109.4825C110.0026,-98.7907 160.3754,-83.7058 191.4331,-74.4051"/>
<polygon fill="#191970" stroke="#191970" points="73.222,-106.1515 64.6464,-112.3733 75.2302,-112.8573 73.222,-106.1515"/>
</g>
<!-- Node3 -->
<g id="node4" class="node">
<title>Node3</title>
<g id="a_node4"><a xlink:href="classBsaControl.html" target="_top" xlink:title="BsaControl">
<polygon fill="#ffffff" stroke="#000000" points="83.5,-112.5 83.5,-131.5 153.5,-131.5 153.5,-112.5 83.5,-112.5"/>
<text text-anchor="middle" x="118.5" y="-119.5" font-family="Helvetica,sans-Serif" font-size="10.00" fill="#000000">BsaControl</text>
</a>
</g>
</g>
<!-- Node3&#45;&gt;Node1 -->
<g id="edge3" class="edge">
<title>Node3&#45;&gt;Node1</title>
<path fill="none" stroke="#191970" d="M144.9719,-107.3225C163.0125,-97.3198 186.3877,-84.3593 202.1087,-75.6427"/>
<polygon fill="#191970" stroke="#191970" points="143.1413,-104.3354 136.0929,-112.2455 146.5357,-110.4574 143.1413,-104.3354"/>
</g>
<!-- Node4 -->
<g id="node5" class="node">
<title>Node4</title>
<g id="a_node5"><a xlink:href="classEventSelect.html" target="_top" xlink:title="EventSelect(2)">
<polygon fill="#ffffff" stroke="#000000" points="74.5,-168.5 74.5,-187.5 162.5,-187.5 162.5,-168.5 74.5,-168.5"/>
<text text-anchor="middle" x="118.5" y="-175.5" font-family="Helvetica,sans-Serif" font-size="10.00" fill="#000000">EventSelect(2)</text>
</a>
</g>
</g>
<!-- Node4&#45;&gt;Node3 -->
<g id="edge4" class="edge">
<title>Node4&#45;&gt;Node3</title>
<path fill="none" stroke="#191970" d="M118.5,-158.1575C118.5,-149.155 118.5,-138.9199 118.5,-131.6427"/>
<polygon fill="#191970" stroke="#191970" points="115.0001,-158.2455 118.5,-168.2455 122.0001,-158.2456 115.0001,-158.2455"/>
</g>
<!-- Node5 -->
<g id="node6" class="node">
<title>Node5</title>
<g id="a_node6"><a xlink:href="classTimingSerializer.html" target="_top" xlink:title="TimingSerializer">
<polygon fill="#ffffff" stroke="#000000" points="171.5,-112.5 171.5,-131.5 267.5,-131.5 267.5,-112.5 171.5,-112.5"/>
<text text-anchor="middle" x="219.5" y="-119.5" font-family="Helvetica,sans-Serif" font-size="10.00" fill="#000000">TimingSerializer</text>
</a>
</g>
</g>
<!-- Node5&#45;&gt;Node1 -->
<g id="edge5" class="edge">
<title>Node5&#45;&gt;Node1</title>
<path fill="none" stroke="#191970" d="M219.5,-102.1575C219.5,-93.155 219.5,-82.9199 219.5,-75.6427"/>
<polygon fill="#191970" stroke="#191970" points="216.0001,-102.2455 219.5,-112.2455 223.0001,-102.2456 216.0001,-102.2455"/>
</g>
<!-- Node6 -->
<g id="node7" class="node">
<title>Node6</title>
<g id="a_node7"><a xlink:href="classTPSerializer.html" target="_top" xlink:title="TPSerializer">
<polygon fill="#ffffff" stroke="#000000" points="285.5,-112.5 285.5,-131.5 359.5,-131.5 359.5,-112.5 285.5,-112.5"/>
<text text-anchor="middle" x="322.5" y="-119.5" font-family="Helvetica,sans-Serif" font-size="10.00" fill="#000000">TPSerializer</text>
</a>
</g>
</g>
<!-- Node6&#45;&gt;Node1 -->
<g id="edge6" class="edge">
<title>Node6&#45;&gt;Node1</title>
<path fill="none" stroke="#191970" d="M295.7568,-107.46C277.325,-97.4388 253.3416,-84.3993 237.2356,-75.6427"/>
<polygon fill="#191970" stroke="#191970" points="294.1015,-110.5438 304.5588,-112.2455 297.4451,-104.394 294.1015,-110.5438"/>
</g>
<!-- Node7 -->
<g id="node8" class="node">
<title>Node7</title>
<g id="a_node8"><a xlink:href="classClockTime.html" target="_top" xlink:title="ClockTime">
<polygon fill="#ffffff" stroke="#000000" points="377.5,-112.5 377.5,-131.5 445.5,-131.5 445.5,-112.5 377.5,-112.5"/>
<text text-anchor="middle" x="411.5" y="-119.5" font-family="Helvetica,sans-Serif" font-size="10.00" fill="#000000">ClockTime</text>
</a>
</g>
</g>
<!-- Node7&#45;&gt;Node1 -->
<g id="edge7" class="edge">
<title>Node7&#45;&gt;Node1</title>
<path fill="none" stroke="#191970" d="M368.5225,-109.4649C331.6336,-98.7056 279.5257,-83.5075 247.7078,-74.2273"/>
<polygon fill="#191970" stroke="#191970" points="367.914,-112.9332 378.494,-112.3733 369.874,-106.2132 367.914,-112.9332"/>
</g>
<!-- Node8 -->
<g id="node9" class="node">
<title>Node8</title>
<g id="a_node9"><a xlink:href="classTimingDeserializer.html" target="_top" xlink:title="TimingDeserializer">
<polygon fill="#ffffff" stroke="#000000" points="266,-56.5 266,-75.5 375,-75.5 375,-56.5 266,-56.5"/>
<text text-anchor="middle" x="320.5" y="-63.5" font-family="Helvetica,sans-Serif" font-size="10.00" fill="#000000">TimingDeserializer</text>
</a>
</g>
</g>
<!-- Node8&#45;&gt;Node0 -->
<g id="edge8" class="edge">
<title>Node8&#45;&gt;Node0</title>
<path fill="none" stroke="#191970" d="M338.9221,-49.3607C349.6481,-39.6727 362.7934,-27.7995 371.8242,-19.6427"/>
<polygon fill="#191970" stroke="#191970" points="336.3746,-46.9453 331.2996,-56.2455 341.0666,-52.14 336.3746,-46.9453"/>
</g>
<!-- Node9 -->
<g id="node10" class="node">
<title>Node9</title>
<g id="a_node10"><a xlink:href="classEvrV2EventSelect.html" target="_top" xlink:title="EvrV2EventSelect">
<polygon fill="#ffffff" stroke="#000000" points="393,-56.5 393,-75.5 496,-75.5 496,-56.5 393,-56.5"/>
<text text-anchor="middle" x="444.5" y="-63.5" font-family="Helvetica,sans-Serif" font-size="10.00" fill="#000000">EvrV2EventSelect</text>
</a>
</g>
</g>
<!-- Node9&#45;&gt;Node0 -->
<g id="edge9" class="edge">
<title>Node9&#45;&gt;Node0</title>
<path fill="none" stroke="#191970" d="M426.0779,-49.3607C415.3519,-39.6727 402.2066,-27.7995 393.1758,-19.6427"/>
<polygon fill="#191970" stroke="#191970" points="423.9334,-52.14 433.7004,-56.2455 428.6254,-46.9453 423.9334,-52.14"/>
</g>
<!-- Node10 -->
<g id="node11" class="node">
<title>Node10</title>
<g id="a_node11"><a xlink:href="classEvrV2Trigger.html" target="_top" xlink:title="EvrV2Trigger">
<polygon fill="#ffffff" stroke="#000000" points="514.5,-56.5 514.5,-75.5 592.5,-75.5 592.5,-56.5 514.5,-56.5"/>
<text text-anchor="middle" x="553.5" y="-63.5" font-family="Helvetica,sans-Serif" font-size="10.00" fill="#000000">EvrV2Trigger</text>
</a>
</g>
</g>
<!-- Node10&#45;&gt;Node0 -->
<g id="edge10" class="edge">
<title>Node10&#45;&gt;Node0</title>
<path fill="none" stroke="#191970" d="M514.3852,-53.1905C483.0568,-42.9309 439.8129,-28.7691 411.5124,-19.5011"/>
<polygon fill="#191970" stroke="#191970" points="513.5114,-56.5872 524.1041,-56.3733 515.69,-49.9348 513.5114,-56.5872"/>
</g>
</g>
</svg>
        <g id="navigator" transform="translate(0 0)" fill="#404254">
                <rect fill="#f2f5e9" fill-opacity="0.5" stroke="#606060" stroke-width=".5" x="0" y="0" width="60" height="60"/>
                <use id="zoomplus" xlink:href="#zoomPlus" x="17" y="9" onmousedown="handleZoom(evt,'in')"/>
                <use id="zoomminus" xlink:href="#zoomMin" x="42" y="9" onmousedown="handleZoom(evt,'out')"/>
                <use id="reset" xlink:href="#resetDef" x="30" y="36" onmousedown="handleReset()"/>
                <g id="arrowUp" xlink:href="#dirArrow" transform="translate(30 24)" onmousedown="handlePan(0,-1)">
                  <use xlink:href="#rim" fill="#404040">
                        <set attributeName="fill" to="#808080" begin="arrowUp.mouseover" end="arrowUp.mouseout"/>
                  </use>
                  <path fill="none" stroke="white" stroke-width="1.5" d="M0,-3.0v7 M-2.5,-0.5L0,-3.0L2.5,-0.5"/>
                </g>
                <g id="arrowRight" xlink:href="#dirArrow" transform="rotate(90) translate(36 -43)" onmousedown="handlePan(1,0)">
                  <use xlink:href="#rim" fill="#404040">
                        <set attributeName="fill" to="#808080" begin="arrowRight.mouseover" end="arrowRight.mouseout"/>
                  </use>
                  <path fill="none" stroke="white" stroke-width="1.5" d="M0,-3.0v7 M-2.5,-0.5L0,-3.0L2.5,-0.5"/>
                </g>
                <g id="arrowDown" xlink:href="#dirArrow" transform="rotate(180) translate(-30 -48)" onmousedown="handlePan(0,1)">
                  <use xlink:href="#rim" fill="#404040">
                        <set attributeName="fill" to="#808080" begin="arrowDown.mouseover" end="arrowDown.mouseout"/>
                  </use>
                  <path fill="none" stroke="white" stroke-width="1.5" d="M0,-3.0v7 M-2.5,-0.5L0,-3.0L2.5,-0.5"/>
                </g>
                <g id="arrowLeft" xlink:href="#dirArrow" transform="rotate(270) translate(-36 17)" onmousedown="handlePan(-1,0)">
                  <use xlink:href="#rim" fill="#404040">
                        <set attributeName="fill" to="#808080" begin="arrowLeft.mouseover" end="arrowLeft.mouseout"/>
                  </use>
                  <path fill="none" stroke="white" stroke-width="1.5" d="M0,-3.0v7 M-2.5,-0.5L0,-3.0L2.5,-0.5"/>
                </g>
        </g>
        <svg viewBox="0 0 15 15" width="100%" height="30px" preserveAspectRatio="xMaxYMin meet">
         <g id="arrow_out" transform="scale(0.3 0.3)">
          <a xlink:href="classEvrV2__tb__inherit__graph_org.svg" target="_base">
           <rect id="button" ry="5" rx="5" y="6" x="6" height="38" width="38"
                fill="#f2f5e9" fill-opacity="0.5" stroke="#606060" stroke-width="1.0"/>
           <path id="arrow"
             d="M 11.500037,31.436501 C 11.940474,20.09759 22.043105,11.32322 32.158766,21.979434 L 37.068811,17.246167 C 37.068811,17.246167 37.088388,32 37.088388,32 L 22.160133,31.978069 C 22.160133,31.978069 26.997745,27.140456 26.997745,27.140456 C 18.528582,18.264221 13.291696,25.230495 11.500037,31.436501 z"
             style="fill:#404040;"/>
          </a>
         </g>
        </svg>
</svg>
