<?xml version="1.0" encoding="UTF-8" standalone="no"?>
<!DOCTYPE svg PUBLIC "-//W3C//DTD SVG 1.1//EN"
 "http://www.w3.org/Graphics/SVG/1.1/DTD/svg11.dtd">
<!-- Generated by graphviz version 2.40.1 (20161225.0304)
 -->
<!-- Title: EvrV2FromV1 Pages: 1 -->
<svg width="212pt" height="84pt"
 viewBox="0.00 0.00 212.00 84.00" xmlns="http://www.w3.org/2000/svg" xmlns:xlink="http://www.w3.org/1999/xlink">
<g id="graph0" class="graph" transform="scale(1 1) rotate(0) translate(4 80)">
<title>EvrV2FromV1</title>
<polygon fill="#ffffff" stroke="transparent" points="-4,4 -4,-80 208,-80 208,4 -4,4"/>
<!-- Node0 -->
<g id="node1" class="node">
<title>Node0</title>
<polygon fill="#bfbfbf" stroke="#000000" points="67,-56.5 67,-75.5 149,-75.5 149,-56.5 67,-56.5"/>
<text text-anchor="middle" x="108" y="-63.5" font-family="Helvetica,sans-Serif" font-size="10.00" fill="#000000">EvrV2FromV1</text>
</g>
<!-- Node1 -->
<g id="node2" class="node">
<title>Node1</title>
<g id="a_node2"><a xlink:href="classEvrV2CoreTriggers.html" target="_top" xlink:title="EvrV2CoreTriggers">
<polygon fill="#ffffff" stroke="#000000" points="0,-.5 0,-19.5 106,-19.5 106,-.5 0,-.5"/>
<text text-anchor="middle" x="53" y="-7.5" font-family="Helvetica,sans-Serif" font-size="10.00" fill="#000000">EvrV2CoreTriggers</text>
</a>
</g>
</g>
<!-- Node0&#45;&gt;Node1 -->
<g id="edge1" class="edge">
<title>Node0&#45;&gt;Node1</title>
<path fill="none" stroke="#191970" d="M91.3774,-49.0751C81.9145,-39.4402 70.4031,-27.7196 62.4705,-19.6427"/>
<polygon fill="#191970" stroke="#191970" points="88.9155,-51.5635 98.4197,-56.2455 93.9097,-46.6585 88.9155,-51.5635"/>
</g>
<!-- Node2 -->
<g id="node3" class="node">
<title>Node2</title>
<g id="a_node3"><a xlink:href="classEvrV2Module.html" target="_top" xlink:title="EvrV2Module">
<polygon fill="#ffffff" stroke="#000000" points="124,-.5 124,-19.5 204,-19.5 204,-.5 124,-.5"/>
<text text-anchor="middle" x="164" y="-7.5" font-family="Helvetica,sans-Serif" font-size="10.00" fill="#000000">EvrV2Module</text>
</a>
</g>
</g>
<!-- Node0&#45;&gt;Node2 -->
<g id="edge2" class="edge">
<title>Node0&#45;&gt;Node2</title>
<path fill="none" stroke="#191970" d="M124.9249,-49.0751C134.5598,-39.4402 146.2804,-27.7196 154.3573,-19.6427"/>
<polygon fill="#191970" stroke="#191970" points="122.3507,-46.6996 117.7545,-56.2455 127.3004,-51.6493 122.3507,-46.6996"/>
</g>
</g>
</svg>
