<?xml version="1.0" encoding="UTF-8" standalone="no"?>
<!DOCTYPE svg PUBLIC "-//W3C//DTD SVG 1.1//EN"
 "http://www.w3.org/Graphics/SVG/1.1/DTD/svg11.dtd">
<!-- Generated by graphviz version 2.40.1 (20161225.0304)
 -->
<!-- Title: EvrV2CorePulseGen Pages: 1 -->
<svg width="386pt" height="84pt"
 viewBox="0.00 0.00 385.50 84.00" xmlns="http://www.w3.org/2000/svg" xmlns:xlink="http://www.w3.org/1999/xlink">
<g id="graph0" class="graph" transform="scale(1 1) rotate(0) translate(4 80)">
<title>EvrV2CorePulseGen</title>
<polygon fill="#ffffff" stroke="transparent" points="-4,4 -4,-80 381.5,-80 381.5,4 -4,4"/>
<!-- Node5 -->
<g id="node1" class="node">
<title>Node5</title>
<polygon fill="#bfbfbf" stroke="#000000" points="148,-.5 148,-19.5 261,-19.5 261,-.5 148,-.5"/>
<text text-anchor="middle" x="204.5" y="-7.5" font-family="Helvetica,sans-Serif" font-size="10.00" fill="#000000">EvrV2CorePulseGen</text>
</g>
<!-- Node6 -->
<g id="node2" class="node">
<title>Node6</title>
<g id="a_node2"><a xlink:href="classEvrV2EventSelect.html" target="_top" xlink:title="EvrV2EventSelect">
<polygon fill="#ffffff" stroke="#000000" points="0,-56.5 0,-75.5 103,-75.5 103,-56.5 0,-56.5"/>
<text text-anchor="middle" x="51.5" y="-63.5" font-family="Helvetica,sans-Serif" font-size="10.00" fill="#000000">EvrV2EventSelect</text>
</a>
</g>
</g>
<!-- Node6&#45;&gt;Node5 -->
<g id="edge1" class="edge">
<title>Node6&#45;&gt;Node5</title>
<path fill="none" stroke="#191970" d="M87.2279,-52.9231C115.1971,-42.686 153.4393,-28.6889 178.5416,-19.5011"/>
<polygon fill="#191970" stroke="#191970" points="85.9894,-49.6493 77.8016,-56.3733 88.3954,-56.2228 85.9894,-49.6493"/>
</g>
<!-- Node7 -->
<g id="node3" class="node">
<title>Node7</title>
<g id="a_node3"><a xlink:href="classEvrV2Trigger.html" target="_top" xlink:title="EvrV2Trigger">
<polygon fill="#ffffff" stroke="#000000" points="121.5,-56.5 121.5,-75.5 199.5,-75.5 199.5,-56.5 121.5,-56.5"/>
<text text-anchor="middle" x="160.5" y="-63.5" font-family="Helvetica,sans-Serif" font-size="10.00" fill="#000000">EvrV2Trigger</text>
</a>
</g>
</g>
<!-- Node7&#45;&gt;Node5 -->
<g id="edge2" class="edge">
<title>Node7&#45;&gt;Node5</title>
<path fill="none" stroke="#191970" d="M174.4769,-48.2112C181.9129,-38.7472 190.766,-27.4797 196.9236,-19.6427"/>
<polygon fill="#191970" stroke="#191970" points="171.5903,-46.22 168.1642,-56.2455 177.0946,-50.5447 171.5903,-46.22"/>
</g>
<!-- Node8 -->
<g id="node4" class="node">
<title>Node8</title>
<g id="a_node4"><a xlink:href="classEvrV2Axi.html" target="_top" xlink:title="EvrV2Axi">
<polygon fill="#ffffff" stroke="#000000" points="218,-56.5 218,-75.5 279,-75.5 279,-56.5 218,-56.5"/>
<text text-anchor="middle" x="248.5" y="-63.5" font-family="Helvetica,sans-Serif" font-size="10.00" fill="#000000">EvrV2Axi</text>
</a>
</g>
</g>
<!-- Node8&#45;&gt;Node5 -->
<g id="edge3" class="edge">
<title>Node8&#45;&gt;Node5</title>
<path fill="none" stroke="#191970" d="M234.5231,-48.2112C227.0871,-38.7472 218.234,-27.4797 212.0764,-19.6427"/>
<polygon fill="#191970" stroke="#191970" points="231.9054,-50.5447 240.8358,-56.2455 237.4097,-46.22 231.9054,-50.5447"/>
</g>
<!-- Node9 -->
<g id="node5" class="node">
<title>Node9</title>
<g id="a_node5"><a xlink:href="classEvrV2TrigReg.html" target="_top" xlink:title="EvrV2TrigReg">
<polygon fill="#ffffff" stroke="#000000" points="297.5,-56.5 297.5,-75.5 377.5,-75.5 377.5,-56.5 297.5,-56.5"/>
<text text-anchor="middle" x="337.5" y="-63.5" font-family="Helvetica,sans-Serif" font-size="10.00" fill="#000000">EvrV2TrigReg</text>
</a>
</g>
</g>
<!-- Node9&#45;&gt;Node5 -->
<g id="edge4" class="edge">
<title>Node9&#45;&gt;Node5</title>
<path fill="none" stroke="#191970" d="M305.1603,-52.3833C280.9715,-42.1985 248.505,-28.5284 227.0652,-19.5011"/>
<polygon fill="#191970" stroke="#191970" points="304.0619,-55.7184 314.6365,-56.3733 306.7783,-49.2669 304.0619,-55.7184"/>
</g>
</g>
</svg>
