<?xml version="1.0" encoding="UTF-8" standalone="no"?>
<!DOCTYPE svg PUBLIC "-//W3C//DTD SVG 1.1//EN"
 "http://www.w3.org/Graphics/SVG/1.1/DTD/svg11.dtd">
<!-- Generated by graphviz version 2.40.1 (20161225.0304)
 -->
<!-- Title: EvrV2CoreTriggers Pages: 1 -->
<svg width="527pt" height="84pt"
 viewBox="0.00 0.00 527.00 84.00" xmlns="http://www.w3.org/2000/svg" xmlns:xlink="http://www.w3.org/1999/xlink">
<g id="graph0" class="graph" transform="scale(1 1) rotate(0) translate(4 80)">
<title>EvrV2CoreTriggers</title>
<polygon fill="#ffffff" stroke="transparent" points="-4,4 -4,-80 523,-80 523,4 -4,4"/>
<!-- Node0 -->
<g id="node1" class="node">
<title>Node0</title>
<polygon fill="#bfbfbf" stroke="#000000" points="218,-.5 218,-19.5 324,-19.5 324,-.5 218,-.5"/>
<text text-anchor="middle" x="271" y="-7.5" font-family="Helvetica,sans-Serif" font-size="10.00" fill="#000000">EvrV2CoreTriggers</text>
</g>
<!-- Node1 -->
<g id="node2" class="node">
<title>Node1</title>
<g id="a_node2"><a xlink:href="classEvrV2TrigReg.html" target="_top" xlink:title="EvrV2TrigReg">
<polygon fill="#ffffff" stroke="#000000" points="0,-56.5 0,-75.5 80,-75.5 80,-56.5 0,-56.5"/>
<text text-anchor="middle" x="40" y="-63.5" font-family="Helvetica,sans-Serif" font-size="10.00" fill="#000000">EvrV2TrigReg</text>
</a>
</g>
</g>
<!-- Node1&#45;&gt;Node0 -->
<g id="edge1" class="edge">
<title>Node1&#45;&gt;Node0</title>
<path fill="none" stroke="#191970" d="M89.3049,-54.0473C131.8222,-43.7401 192.4057,-29.0532 231.7149,-19.5237"/>
<polygon fill="#191970" stroke="#191970" points="88.3417,-50.6793 79.4478,-56.4369 89.991,-57.4823 88.3417,-50.6793"/>
</g>
<!-- Node2 -->
<g id="node3" class="node">
<title>Node2</title>
<g id="a_node3"><a xlink:href="classEvrV2ChannelReg.html" target="_top" xlink:title="EvrV2ChannelReg">
<polygon fill="#ffffff" stroke="#000000" points="98.5,-56.5 98.5,-75.5 201.5,-75.5 201.5,-56.5 98.5,-56.5"/>
<text text-anchor="middle" x="150" y="-63.5" font-family="Helvetica,sans-Serif" font-size="10.00" fill="#000000">EvrV2ChannelReg</text>
</a>
</g>
</g>
<!-- Node2&#45;&gt;Node0 -->
<g id="edge2" class="edge">
<title>Node2&#45;&gt;Node0</title>
<path fill="none" stroke="#191970" d="M180.0104,-52.1109C201.9525,-41.9559 231.1388,-28.4482 250.4708,-19.5011"/>
<polygon fill="#191970" stroke="#191970" points="178.4058,-48.9968 170.8006,-56.3733 181.3459,-55.3494 178.4058,-48.9968"/>
</g>
<!-- Node3 -->
<g id="node4" class="node">
<title>Node3</title>
<g id="a_node4"><a xlink:href="classEvrV2EventSelect.html" target="_top" xlink:title="EvrV2EventSelect">
<polygon fill="#ffffff" stroke="#000000" points="219.5,-56.5 219.5,-75.5 322.5,-75.5 322.5,-56.5 219.5,-56.5"/>
<text text-anchor="middle" x="271" y="-63.5" font-family="Helvetica,sans-Serif" font-size="10.00" fill="#000000">EvrV2EventSelect</text>
</a>
</g>
</g>
<!-- Node3&#45;&gt;Node0 -->
<g id="edge3" class="edge">
<title>Node3&#45;&gt;Node0</title>
<path fill="none" stroke="#191970" d="M271,-46.1575C271,-37.155 271,-26.9199 271,-19.6427"/>
<polygon fill="#191970" stroke="#191970" points="267.5001,-46.2455 271,-56.2455 274.5001,-46.2456 267.5001,-46.2455"/>
</g>
<!-- Node4 -->
<g id="node5" class="node">
<title>Node4</title>
<g id="a_node5"><a xlink:href="classEvrV2Trigger.html" target="_top" xlink:title="EvrV2Trigger">
<polygon fill="#ffffff" stroke="#000000" points="341,-56.5 341,-75.5 419,-75.5 419,-56.5 341,-56.5"/>
<text text-anchor="middle" x="380" y="-63.5" font-family="Helvetica,sans-Serif" font-size="10.00" fill="#000000">EvrV2Trigger</text>
</a>
</g>
</g>
<!-- Node4&#45;&gt;Node0 -->
<g id="edge4" class="edge">
<title>Node4&#45;&gt;Node0</title>
<path fill="none" stroke="#191970" d="M351.9658,-51.5971C332.4254,-41.558 306.8908,-28.4393 289.7688,-19.6427"/>
<polygon fill="#191970" stroke="#191970" points="350.5194,-54.7889 361.0136,-56.2455 353.7183,-48.5625 350.5194,-54.7889"/>
</g>
<!-- Node5 -->
<g id="node6" class="node">
<title>Node5</title>
<g id="a_node6"><a xlink:href="classEvrV2FromV1.html" target="_top" xlink:title="EvrV2FromV1">
<polygon fill="#ffffff" stroke="#000000" points="437,-56.5 437,-75.5 519,-75.5 519,-56.5 437,-56.5"/>
<text text-anchor="middle" x="478" y="-63.5" font-family="Helvetica,sans-Serif" font-size="10.00" fill="#000000">EvrV2FromV1</text>
</a>
</g>
</g>
<!-- Node5&#45;&gt;Node0 -->
<g id="edge5" class="edge">
<title>Node5&#45;&gt;Node0</title>
<path fill="none" stroke="#191970" d="M432.6075,-53.7199C394.545,-43.4228 340.972,-28.9296 306.1202,-19.5011"/>
<polygon fill="#191970" stroke="#191970" points="431.8484,-57.1403 442.4154,-56.3733 433.6765,-50.3832 431.8484,-57.1403"/>
</g>
</g>
</svg>
