<?xml version="1.0" encoding="UTF-8" standalone="no"?>
<!DOCTYPE svg PUBLIC "-//W3C//DTD SVG 1.1//EN"
 "http://www.w3.org/Graphics/SVG/1.1/DTD/svg11.dtd">
<!-- Generated by graphviz version 2.43.0 (0)
 -->
<!-- Title: EventSelect Pages: 1 -->
<svg width="201pt" height="252pt"
 viewBox="0.00 0.00 201.00 252.00" xmlns="http://www.w3.org/2000/svg" xmlns:xlink="http://www.w3.org/1999/xlink">
<g id="graph0" class="graph" transform="scale(1 1) rotate(0) translate(4 248)">
<title>EventSelect</title>
<polygon fill="white" stroke="transparent" points="-4,4 -4,-248 197,-248 197,4 -4,4"/>
<!-- Node1 -->
<g id="node1" class="node">
<title>Node1</title>
<g id="a_node1"><a xlink:title=" ">
<polygon fill="#bfbfbf" stroke="black" points="80,-224.5 80,-243.5 154,-243.5 154,-224.5 80,-224.5"/>
<text text-anchor="middle" x="117" y="-231.5" font-family="Helvetica,sans-Serif" font-size="10.00">EventSelect</text>
</a>
</g>
</g>
<!-- Node2 -->
<g id="node2" class="node">
<title>Node2</title>
<g id="a_node2"><a xlink:href="classBsaControl.html" target="_top" xlink:title=" ">
<polygon fill="white" stroke="black" points="39,-168.5 39,-187.5 109,-187.5 109,-168.5 39,-168.5"/>
<text text-anchor="middle" x="74" y="-175.5" font-family="Helvetica,sans-Serif" font-size="10.00">BsaControl</text>
</a>
</g>
</g>
<!-- Node1&#45;&gt;Node2 -->
<g id="edge1" class="edge">
<title>Node1&#45;&gt;Node2</title>
<path fill="none" stroke="midnightblue" d="M103.58,-216.14C96.09,-206.74 87.06,-195.4 80.97,-187.75"/>
<polygon fill="midnightblue" stroke="midnightblue" points="100.93,-218.44 109.9,-224.08 106.41,-214.08 100.93,-218.44"/>
</g>
<!-- Node7 -->
<g id="node7" class="node">
<title>Node7</title>
<g id="a_node7"><a xlink:href="classCtrControl.html" target="_top" xlink:title=" ">
<polygon fill="white" stroke="black" points="127,-168.5 127,-187.5 193,-187.5 193,-168.5 127,-168.5"/>
<text text-anchor="middle" x="160" y="-175.5" font-family="Helvetica,sans-Serif" font-size="10.00">CtrControl</text>
</a>
</g>
</g>
<!-- Node1&#45;&gt;Node7 -->
<g id="edge6" class="edge">
<title>Node1&#45;&gt;Node7</title>
<path fill="none" stroke="midnightblue" d="M130.42,-216.14C137.91,-206.74 146.94,-195.4 153.03,-187.75"/>
<polygon fill="midnightblue" stroke="midnightblue" points="127.59,-214.08 124.1,-224.08 133.07,-218.44 127.59,-214.08"/>
</g>
<!-- Node3 -->
<g id="node3" class="node">
<title>Node3</title>
<g id="a_node3"><a xlink:href="classTPGMini.html" target="_top" xlink:title=" ">
<polygon fill="white" stroke="black" points="45.5,-112.5 45.5,-131.5 102.5,-131.5 102.5,-112.5 45.5,-112.5"/>
<text text-anchor="middle" x="74" y="-119.5" font-family="Helvetica,sans-Serif" font-size="10.00">TPGMini</text>
</a>
</g>
</g>
<!-- Node2&#45;&gt;Node3 -->
<g id="edge2" class="edge">
<title>Node2&#45;&gt;Node3</title>
<path fill="none" stroke="midnightblue" d="M74,-157.8C74,-148.91 74,-138.78 74,-131.75"/>
<polygon fill="midnightblue" stroke="midnightblue" points="70.5,-158.08 74,-168.08 77.5,-158.08 70.5,-158.08"/>
</g>
<!-- Node4 -->
<g id="node4" class="node">
<title>Node4</title>
<g id="a_node4"><a xlink:href="classEvrV2__tb.html" target="_top" xlink:title=" ">
<polygon fill="white" stroke="black" points="0,-56.5 0,-75.5 60,-75.5 60,-56.5 0,-56.5"/>
<text text-anchor="middle" x="30" y="-63.5" font-family="Helvetica,sans-Serif" font-size="10.00">EvrV2_tb</text>
</a>
</g>
</g>
<!-- Node3&#45;&gt;Node4 -->
<g id="edge3" class="edge">
<title>Node3&#45;&gt;Node4</title>
<path fill="none" stroke="midnightblue" d="M60.27,-104.14C52.6,-94.74 43.37,-83.4 37.13,-75.75"/>
<polygon fill="midnightblue" stroke="midnightblue" points="57.7,-106.54 66.73,-112.08 63.13,-102.12 57.7,-106.54"/>
</g>
<!-- Node5 -->
<g id="node5" class="node">
<title>Node5</title>
<g id="a_node5"><a xlink:href="classTPGMiniCore.html" target="_top" xlink:title=" ">
<polygon fill="white" stroke="black" points="78,-56.5 78,-75.5 158,-75.5 158,-56.5 78,-56.5"/>
<text text-anchor="middle" x="118" y="-63.5" font-family="Helvetica,sans-Serif" font-size="10.00">TPGMiniCore</text>
</a>
</g>
</g>
<!-- Node3&#45;&gt;Node5 -->
<g id="edge4" class="edge">
<title>Node3&#45;&gt;Node5</title>
<path fill="none" stroke="midnightblue" d="M87.73,-104.14C95.4,-94.74 104.63,-83.4 110.87,-75.75"/>
<polygon fill="midnightblue" stroke="midnightblue" points="84.87,-102.12 81.27,-112.08 90.3,-106.54 84.87,-102.12"/>
</g>
<!-- Node6 -->
<g id="node6" class="node">
<title>Node6</title>
<g id="a_node6"><a xlink:href="classTimingCore.html" target="_top" xlink:title=" ">
<polygon fill="white" stroke="black" points="81.5,-0.5 81.5,-19.5 154.5,-19.5 154.5,-0.5 81.5,-0.5"/>
<text text-anchor="middle" x="118" y="-7.5" font-family="Helvetica,sans-Serif" font-size="10.00">TimingCore</text>
</a>
</g>
</g>
<!-- Node5&#45;&gt;Node6 -->
<g id="edge5" class="edge">
<title>Node5&#45;&gt;Node6</title>
<path fill="none" stroke="midnightblue" d="M118,-45.8C118,-36.91 118,-26.78 118,-19.75"/>
<polygon fill="midnightblue" stroke="midnightblue" points="114.5,-46.08 118,-56.08 121.5,-46.08 114.5,-46.08"/>
</g>
</g>
</svg>
