<?xml version="1.0" encoding="UTF-8" standalone="no"?>
<!DOCTYPE svg PUBLIC "-//W3C//DTD SVG 1.1//EN"
 "http://www.w3.org/Graphics/SVG/1.1/DTD/svg11.dtd">
<!-- Generated by graphviz version 2.40.1 (20161225.0304)
 -->
<!-- Title: EvrV2TrigReg Pages: 1 -->
<svg width="344pt" height="84pt"
 viewBox="0.00 0.00 343.50 84.00" xmlns="http://www.w3.org/2000/svg" xmlns:xlink="http://www.w3.org/1999/xlink">
<g id="graph0" class="graph" transform="scale(1 1) rotate(0) translate(4 80)">
<title>EvrV2TrigReg</title>
<polygon fill="#ffffff" stroke="transparent" points="-4,4 -4,-80 339.5,-80 339.5,4 -4,4"/>
<!-- Node0 -->
<g id="node1" class="node">
<title>Node0</title>
<polygon fill="#bfbfbf" stroke="#000000" points="144.5,-56.5 144.5,-75.5 224.5,-75.5 224.5,-56.5 144.5,-56.5"/>
<text text-anchor="middle" x="184.5" y="-63.5" font-family="Helvetica,sans-Serif" font-size="10.00" fill="#000000">EvrV2TrigReg</text>
</g>
<!-- Node1 -->
<g id="node2" class="node">
<title>Node1</title>
<g id="a_node2"><a xlink:href="classEvrV2CorePulseGen.html" target="_top" xlink:title="EvrV2CorePulseGen">
<polygon fill="#ffffff" stroke="#000000" points="0,-.5 0,-19.5 113,-19.5 113,-.5 0,-.5"/>
<text text-anchor="middle" x="56.5" y="-7.5" font-family="Helvetica,sans-Serif" font-size="10.00" fill="#000000">EvrV2CorePulseGen</text>
</a>
</g>
</g>
<!-- Node0&#45;&gt;Node1 -->
<g id="edge1" class="edge">
<title>Node0&#45;&gt;Node1</title>
<path fill="none" stroke="#191970" d="M153.0652,-52.2473C129.8191,-42.0771 98.7589,-28.4883 78.2169,-19.5011"/>
<polygon fill="#191970" stroke="#191970" points="151.9315,-55.5716 162.496,-56.3733 154.7373,-49.1585 151.9315,-55.5716"/>
</g>
<!-- Node2 -->
<g id="node3" class="node">
<title>Node2</title>
<g id="a_node3"><a xlink:href="classEvrV2CoreTriggers.html" target="_top" xlink:title="EvrV2CoreTriggers">
<polygon fill="#ffffff" stroke="#000000" points="131.5,-.5 131.5,-19.5 237.5,-19.5 237.5,-.5 131.5,-.5"/>
<text text-anchor="middle" x="184.5" y="-7.5" font-family="Helvetica,sans-Serif" font-size="10.00" fill="#000000">EvrV2CoreTriggers</text>
</a>
</g>
</g>
<!-- Node0&#45;&gt;Node2 -->
<g id="edge2" class="edge">
<title>Node0&#45;&gt;Node2</title>
<path fill="none" stroke="#191970" d="M184.5,-46.1575C184.5,-37.155 184.5,-26.9199 184.5,-19.6427"/>
<polygon fill="#191970" stroke="#191970" points="181.0001,-46.2455 184.5,-56.2455 188.0001,-46.2456 181.0001,-46.2455"/>
</g>
<!-- Node3 -->
<g id="node4" class="node">
<title>Node3</title>
<g id="a_node4"><a xlink:href="classEvrV2Module.html" target="_top" xlink:title="EvrV2Module">
<polygon fill="#ffffff" stroke="#000000" points="255.5,-.5 255.5,-19.5 335.5,-19.5 335.5,-.5 255.5,-.5"/>
<text text-anchor="middle" x="295.5" y="-7.5" font-family="Helvetica,sans-Serif" font-size="10.00" fill="#000000">EvrV2Module</text>
</a>
</g>
</g>
<!-- Node0&#45;&gt;Node3 -->
<g id="edge3" class="edge">
<title>Node0&#45;&gt;Node3</title>
<path fill="none" stroke="#191970" d="M212.5734,-51.8368C232.6385,-41.7139 259.0922,-28.3679 276.6674,-19.5011"/>
<polygon fill="#191970" stroke="#191970" points="210.9332,-48.7441 203.5816,-56.3733 214.0862,-54.9938 210.9332,-48.7441"/>
</g>
</g>
</svg>
