<?xml version="1.0" encoding="UTF-8" standalone="no"?>
<!DOCTYPE svg PUBLIC "-//W3C//DTD SVG 1.1//EN"
 "http://www.w3.org/Graphics/SVG/1.1/DTD/svg11.dtd">
<!-- Generated by graphviz version 2.40.1 (20161225.0304)
 -->
<!-- Title: TimingCore Pages: 1 -->
<!--zoomable 256 -->
<svg id="main" version="1.1" xmlns="http://www.w3.org/2000/svg" xmlns:xlink="http://www.w3.org/1999/xlink" xml:space="preserve" onload="init(evt)">
<style type="text/css"><![CDATA[
.edge:hover path { stroke: red; }
.edge:hover polygon { stroke: red; fill: red; }
]]></style>
<script type="text/javascript"><![CDATA[
var edges = document.getElementsByTagName('g');
if (edges && edges.length) {
  for (var i=0;i<edges.length;i++) {
    if (edges[i].id.substr(0,4)=='edge') {
      edges[i].setAttribute('class','edge');
    }
  }
}
]]></script>
        <defs>
                <circle id="rim" cx="0" cy="0" r="7"/>
                <circle id="rim2" cx="0" cy="0" r="3.5"/>
                <g id="zoomPlus">
                        <use xlink:href="#rim" fill="#404040">
                                <set attributeName="fill" to="#808080" begin="zoomplus.mouseover" end="zoomplus.mouseout"/>
                        </use>
                        <path d="M-4,0h8M0,-4v8" fill="none" stroke="white" stroke-width="1.5" pointer-events="none"/>
                </g>
                <g id="zoomMin">
                        <use xlink:href="#rim" fill="#404040">
                                <set attributeName="fill" to="#808080" begin="zoomminus.mouseover" end="zoomminus.mouseout"/>
                        </use>
                        <path d="M-4,0h8" fill="none" stroke="white" stroke-width="1.5" pointer-events="none"/>
                </g>
                <g id="dirArrow">
                        <path fill="none" stroke="white" stroke-width="1.5" d="M0,-3.0v7 M-2.5,-0.5L0,-3.0L2.5,-0.5"/>
                </g>
               <g id="resetDef">
                       <use xlink:href="#rim2" fill="#404040">
                               <set attributeName="fill" to="#808080" begin="reset.mouseover" end="reset.mouseout"/>
                       </use>
               </g>
        </defs>

<script type="text/javascript">
var viewWidth = 632;
var viewHeight = 256;
var sectionId = 'dynsection-0';
</script>
<script xlink:href="svgpan.js"/>
<svg id="graph" class="graph">
<g id="viewport">
<title>TimingCore</title>
<polygon fill="#ffffff" stroke="transparent" points="-4,4 -4,-252 628,-252 628,4 -4,4"/>
<!-- Node0 -->
<g id="node1" class="node">
<title>Node0</title>
<polygon fill="#bfbfbf" stroke="#000000" points="551,-143.5 551,-162.5 624,-162.5 624,-143.5 551,-143.5"/>
<text text-anchor="middle" x="587.5" y="-150.5" font-family="Helvetica,sans-Serif" font-size="10.00" fill="#000000">TimingCore</text>
</g>
<!-- Node1 -->
<g id="node2" class="node">
<title>Node1</title>
<g id="a_node2"><a xlink:href="classTimingRx.html" target="_top" xlink:title="TimingRx">
<polygon fill="#ffffff" stroke="#000000" points="433,-190.5 433,-209.5 496,-209.5 496,-190.5 433,-190.5"/>
<text text-anchor="middle" x="464.5" y="-197.5" font-family="Helvetica,sans-Serif" font-size="10.00" fill="#000000">TimingRx</text>
</a>
</g>
</g>
<!-- Node1&#45;&gt;Node0 -->
<g id="edge1" class="edge">
<title>Node1&#45;&gt;Node0</title>
<path fill="none" stroke="#191970" d="M498.8253,-186.8838C518.9409,-179.1974 543.9114,-169.6558 562.224,-162.6583"/>
<polygon fill="#191970" stroke="#191970" points="497.4828,-183.6499 489.3909,-190.4888 499.9815,-190.1888 497.4828,-183.6499"/>
</g>
<!-- Node2 -->
<g id="node3" class="node">
<title>Node2</title>
<g id="a_node3"><a xlink:href="classTimingStreamRx.html" target="_top" xlink:title="TimingStreamRx">
<polygon fill="#ffffff" stroke="#000000" points="280,-228.5 280,-247.5 378,-247.5 378,-228.5 280,-228.5"/>
<text text-anchor="middle" x="329" y="-235.5" font-family="Helvetica,sans-Serif" font-size="10.00" fill="#000000">TimingStreamRx</text>
</a>
</g>
</g>
<!-- Node2&#45;&gt;Node1 -->
<g id="edge2" class="edge">
<title>Node2&#45;&gt;Node1</title>
<path fill="none" stroke="#191970" d="M373.0405,-225.6492C392.4689,-220.2006 414.8739,-213.9173 432.6457,-208.9333"/>
<polygon fill="#191970" stroke="#191970" points="371.8758,-222.3407 363.1924,-228.411 373.766,-229.0807 371.8758,-222.3407"/>
</g>
<!-- Node3 -->
<g id="node4" class="node">
<title>Node3</title>
<g id="a_node4"><a xlink:href="classTimingFrameRx.html" target="_top" xlink:title="TimingFrameRx">
<polygon fill="#ffffff" stroke="#000000" points="282.5,-190.5 282.5,-209.5 375.5,-209.5 375.5,-190.5 282.5,-190.5"/>
<text text-anchor="middle" x="329" y="-197.5" font-family="Helvetica,sans-Serif" font-size="10.00" fill="#000000">TimingFrameRx</text>
</a>
</g>
</g>
<!-- Node3&#45;&gt;Node1 -->
<g id="edge3" class="edge">
<title>Node3&#45;&gt;Node1</title>
<path fill="none" stroke="#191970" d="M385.9787,-200C401.9633,-200 418.7688,-200 432.7125,-200"/>
<polygon fill="#191970" stroke="#191970" points="385.6314,-196.5001 375.6314,-200 385.6314,-203.5001 385.6314,-196.5001"/>
</g>
<!-- Node4 -->
<g id="node5" class="node">
<title>Node4</title>
<g id="a_node5"><a xlink:href="classTimingDeserializer.html" target="_top" xlink:title="TimingDeserializer">
<polygon fill="#ffffff" stroke="#000000" points="129.5,-228.5 129.5,-247.5 238.5,-247.5 238.5,-228.5 129.5,-228.5"/>
<text text-anchor="middle" x="184" y="-235.5" font-family="Helvetica,sans-Serif" font-size="10.00" fill="#000000">TimingDeserializer</text>
</a>
</g>
</g>
<!-- Node4&#45;&gt;Node3 -->
<g id="edge4" class="edge">
<title>Node4&#45;&gt;Node3</title>
<path fill="none" stroke="#191970" d="M230.4928,-225.8157C250.6237,-220.54 273.8383,-214.4562 292.6735,-209.5201"/>
<polygon fill="#191970" stroke="#191970" points="229.3757,-222.4902 220.5896,-228.411 231.1503,-229.2615 229.3757,-222.4902"/>
</g>
<!-- Node5 -->
<g id="node6" class="node">
<title>Node5</title>
<g id="a_node6"><a xlink:href="classTimingSerialDelay.html" target="_top" xlink:title="TimingSerialDelay(2)">
<polygon fill="#ffffff" stroke="#000000" points="124,-190.5 124,-209.5 244,-209.5 244,-190.5 124,-190.5"/>
<text text-anchor="middle" x="184" y="-197.5" font-family="Helvetica,sans-Serif" font-size="10.00" fill="#000000">TimingSerialDelay(2)</text>
</a>
</g>
</g>
<!-- Node5&#45;&gt;Node3 -->
<g id="edge5" class="edge">
<title>Node5&#45;&gt;Node3</title>
<path fill="none" stroke="#191970" d="M254.4818,-200C263.9716,-200 273.5075,-200 282.4385,-200"/>
<polygon fill="#191970" stroke="#191970" points="254.2334,-196.5001 244.2334,-200 254.2333,-203.5001 254.2334,-196.5001"/>
</g>
<!-- Node6 -->
<g id="node7" class="node">
<title>Node6</title>
<g id="a_node7"><a xlink:href="classTPGMiniCore.html" target="_top" xlink:title="TPGMiniCore">
<polygon fill="#ffffff" stroke="#000000" points="425,-143.5 425,-162.5 504,-162.5 504,-143.5 425,-143.5"/>
<text text-anchor="middle" x="464.5" y="-150.5" font-family="Helvetica,sans-Serif" font-size="10.00" fill="#000000">TPGMiniCore</text>
</a>
</g>
</g>
<!-- Node6&#45;&gt;Node0 -->
<g id="edge6" class="edge">
<title>Node6&#45;&gt;Node0</title>
<path fill="none" stroke="#191970" d="M514.2008,-153C526.4674,-153 539.3846,-153 550.9004,-153"/>
<polygon fill="#191970" stroke="#191970" points="514.0951,-149.5001 504.095,-153 514.095,-156.5001 514.0951,-149.5001"/>
</g>
<!-- Node7 -->
<g id="node8" class="node">
<title>Node7</title>
<g id="a_node8"><a xlink:href="classTPGMiniReg.html" target="_top" xlink:title="TPGMiniReg">
<polygon fill="#ffffff" stroke="#000000" points="292,-143.5 292,-162.5 366,-162.5 366,-143.5 292,-143.5"/>
<text text-anchor="middle" x="329" y="-150.5" font-family="Helvetica,sans-Serif" font-size="10.00" fill="#000000">TPGMiniReg</text>
</a>
</g>
</g>
<!-- Node7&#45;&gt;Node6 -->
<g id="edge7" class="edge">
<title>Node7&#45;&gt;Node6</title>
<path fill="none" stroke="#191970" d="M376.1469,-153C391.9744,-153 409.4598,-153 424.6698,-153"/>
<polygon fill="#191970" stroke="#191970" points="376.026,-149.5001 366.026,-153 376.0259,-156.5001 376.026,-149.5001"/>
</g>
<!-- Node8 -->
<g id="node9" class="node">
<title>Node8</title>
<g id="a_node9"><a xlink:href="classTPGMini.html" target="_top" xlink:title="TPGMini">
<polygon fill="#ffffff" stroke="#000000" points="301,-95.5 301,-114.5 357,-114.5 357,-95.5 301,-95.5"/>
<text text-anchor="middle" x="329" y="-102.5" font-family="Helvetica,sans-Serif" font-size="10.00" fill="#000000">TPGMini</text>
</a>
</g>
</g>
<!-- Node8&#45;&gt;Node6 -->
<g id="edge8" class="edge">
<title>Node8&#45;&gt;Node6</title>
<path fill="none" stroke="#191970" d="M365.7112,-118.0047C388.3462,-126.023 416.8779,-136.1302 437.4522,-143.4185"/>
<polygon fill="#191970" stroke="#191970" points="366.6895,-114.6382 356.0948,-114.5982 364.3521,-121.2364 366.6895,-114.6382"/>
</g>
<!-- Node9 -->
<g id="node10" class="node">
<title>Node9</title>
<g id="a_node10"><a xlink:href="classDivider.html" target="_top" xlink:title="Divider(2)">
<polygon fill="#ffffff" stroke="#000000" points="151.5,-152.5 151.5,-171.5 216.5,-171.5 216.5,-152.5 151.5,-152.5"/>
<text text-anchor="middle" x="184" y="-159.5" font-family="Helvetica,sans-Serif" font-size="10.00" fill="#000000">Divider(2)</text>
</a>
</g>
</g>
<!-- Node9&#45;&gt;Node8 -->
<g id="edge9" class="edge">
<title>Node9&#45;&gt;Node8</title>
<path fill="none" stroke="#191970" d="M226.4636,-149.2163C232.39,-147.2398 238.3736,-145.1406 244,-143 266.8131,-134.3207 292.2867,-122.6595 309.3452,-114.5537"/>
<polygon fill="#191970" stroke="#191970" points="225.0477,-145.996 216.6168,-152.4124 227.2089,-152.6541 225.0477,-145.996"/>
</g>
<!-- Node10 -->
<g id="node11" class="node">
<title>Node10</title>
<g id="a_node11"><a xlink:href="classBsaControl.html" target="_top" xlink:title="BsaControl">
<polygon fill="#ffffff" stroke="#000000" points="149,-114.5 149,-133.5 219,-133.5 219,-114.5 149,-114.5"/>
<text text-anchor="middle" x="184" y="-121.5" font-family="Helvetica,sans-Serif" font-size="10.00" fill="#000000">BsaControl</text>
</a>
</g>
</g>
<!-- Node10&#45;&gt;Node8 -->
<g id="edge10" class="edge">
<title>Node10&#45;&gt;Node8</title>
<path fill="none" stroke="#191970" d="M229.1275,-118.0867C252.4562,-115.0299 280.2168,-111.3923 300.5419,-108.729"/>
<polygon fill="#191970" stroke="#191970" points="228.5609,-114.631 219.1005,-119.4006 229.4705,-121.5716 228.5609,-114.631"/>
</g>
<!-- Node11 -->
<g id="node12" class="node">
<title>Node11</title>
<g id="a_node12"><a xlink:href="classEventSelect.html" target="_top" xlink:title="EventSelect(2)">
<polygon fill="#ffffff" stroke="#000000" points="0,-114.5 0,-133.5 88,-133.5 88,-114.5 0,-114.5"/>
<text text-anchor="middle" x="44" y="-121.5" font-family="Helvetica,sans-Serif" font-size="10.00" fill="#000000">EventSelect(2)</text>
</a>
</g>
</g>
<!-- Node11&#45;&gt;Node10 -->
<g id="edge11" class="edge">
<title>Node11&#45;&gt;Node10</title>
<path fill="none" stroke="#191970" d="M98.6132,-124C115.503,-124 133.6502,-124 148.8528,-124"/>
<polygon fill="#191970" stroke="#191970" points="98.2969,-120.5001 88.2969,-124 98.2968,-127.5001 98.2969,-120.5001"/>
</g>
<!-- Node12 -->
<g id="node13" class="node">
<title>Node12</title>
<g id="a_node13"><a xlink:href="classTimingSerializer.html" target="_top" xlink:title="TimingSerializer">
<polygon fill="#ffffff" stroke="#000000" points="136,-76.5 136,-95.5 232,-95.5 232,-76.5 136,-76.5"/>
<text text-anchor="middle" x="184" y="-83.5" font-family="Helvetica,sans-Serif" font-size="10.00" fill="#000000">TimingSerializer</text>
</a>
</g>
</g>
<!-- Node12&#45;&gt;Node8 -->
<g id="edge12" class="edge">
<title>Node12&#45;&gt;Node8</title>
<path fill="none" stroke="#191970" d="M242.3353,-93.6439C262.4876,-96.2846 284.1591,-99.1243 300.7899,-101.3035"/>
<polygon fill="#191970" stroke="#191970" points="242.6529,-90.1557 232.2829,-92.3267 241.7434,-97.0964 242.6529,-90.1557"/>
</g>
<!-- Node13 -->
<g id="node14" class="node">
<title>Node13</title>
<g id="a_node14"><a xlink:href="classTPSerializer.html" target="_top" xlink:title="TPSerializer">
<polygon fill="#ffffff" stroke="#000000" points="147,-38.5 147,-57.5 221,-57.5 221,-38.5 147,-38.5"/>
<text text-anchor="middle" x="184" y="-45.5" font-family="Helvetica,sans-Serif" font-size="10.00" fill="#000000">TPSerializer</text>
</a>
</g>
</g>
<!-- Node13&#45;&gt;Node8 -->
<g id="edge13" class="edge">
<title>Node13&#45;&gt;Node8</title>
<path fill="none" stroke="#191970" d="M226.4636,-60.7837C232.39,-62.7602 238.3736,-64.8594 244,-67 266.8131,-75.6793 292.2867,-87.3405 309.3452,-95.4463"/>
<polygon fill="#191970" stroke="#191970" points="227.2089,-57.3459 216.6168,-57.5876 225.0477,-64.004 227.2089,-57.3459"/>
</g>
<!-- Node14 -->
<g id="node15" class="node">
<title>Node14</title>
<g id="a_node15"><a xlink:href="classClockTime.html" target="_top" xlink:title="ClockTime">
<polygon fill="#ffffff" stroke="#000000" points="150,-.5 150,-19.5 218,-19.5 218,-.5 150,-.5"/>
<text text-anchor="middle" x="184" y="-7.5" font-family="Helvetica,sans-Serif" font-size="10.00" fill="#000000">ClockTime</text>
</a>
</g>
</g>
<!-- Node14&#45;&gt;Node8 -->
<g id="edge14" class="edge">
<title>Node14&#45;&gt;Node8</title>
<path fill="none" stroke="#191970" d="M227.6021,-21.3851C233.2801,-23.5608 238.8919,-26.0881 244,-29 276.1591,-47.3327 306.6905,-79.4349 320.8125,-95.4082"/>
<polygon fill="#191970" stroke="#191970" points="228.656,-18.0459 218.0612,-18.0498 226.346,-24.6538 228.656,-18.0459"/>
</g>
<!-- Node15 -->
<g id="node16" class="node">
<title>Node15</title>
<g id="a_node16"><a xlink:href="classEthTimingModule.html" target="_top" xlink:title="EthTimingModule">
<polygon fill="#ffffff" stroke="#000000" points="414,-105.5 414,-124.5 515,-124.5 515,-105.5 414,-105.5"/>
<text text-anchor="middle" x="464.5" y="-112.5" font-family="Helvetica,sans-Serif" font-size="10.00" fill="#000000">EthTimingModule</text>
</a>
</g>
</g>
<!-- Node15&#45;&gt;Node0 -->
<g id="edge15" class="edge">
<title>Node15&#45;&gt;Node0</title>
<path fill="none" stroke="#191970" d="M505.5445,-127.6804C522.1638,-132.8148 541.0322,-138.6441 556.4718,-143.4141"/>
<polygon fill="#191970" stroke="#191970" points="506.1257,-124.1968 495.5381,-124.589 504.0594,-130.8849 506.1257,-124.1968"/>
</g>
</g>
</svg>
        <g id="navigator" transform="translate(0 0)" fill="#404254">
                <rect fill="#f2f5e9" fill-opacity="0.5" stroke="#606060" stroke-width=".5" x="0" y="0" width="60" height="60"/>
                <use id="zoomplus" xlink:href="#zoomPlus" x="17" y="9" onmousedown="handleZoom(evt,'in')"/>
                <use id="zoomminus" xlink:href="#zoomMin" x="42" y="9" onmousedown="handleZoom(evt,'out')"/>
                <use id="reset" xlink:href="#resetDef" x="30" y="36" onmousedown="handleReset()"/>
                <g id="arrowUp" xlink:href="#dirArrow" transform="translate(30 24)" onmousedown="handlePan(0,-1)">
                  <use xlink:href="#rim" fill="#404040">
                        <set attributeName="fill" to="#808080" begin="arrowUp.mouseover" end="arrowUp.mouseout"/>
                  </use>
                  <path fill="none" stroke="white" stroke-width="1.5" d="M0,-3.0v7 M-2.5,-0.5L0,-3.0L2.5,-0.5"/>
                </g>
                <g id="arrowRight" xlink:href="#dirArrow" transform="rotate(90) translate(36 -43)" onmousedown="handlePan(1,0)">
                  <use xlink:href="#rim" fill="#404040">
                        <set attributeName="fill" to="#808080" begin="arrowRight.mouseover" end="arrowRight.mouseout"/>
                  </use>
                  <path fill="none" stroke="white" stroke-width="1.5" d="M0,-3.0v7 M-2.5,-0.5L0,-3.0L2.5,-0.5"/>
                </g>
                <g id="arrowDown" xlink:href="#dirArrow" transform="rotate(180) translate(-30 -48)" onmousedown="handlePan(0,1)">
                  <use xlink:href="#rim" fill="#404040">
                        <set attributeName="fill" to="#808080" begin="arrowDown.mouseover" end="arrowDown.mouseout"/>
                  </use>
                  <path fill="none" stroke="white" stroke-width="1.5" d="M0,-3.0v7 M-2.5,-0.5L0,-3.0L2.5,-0.5"/>
                </g>
                <g id="arrowLeft" xlink:href="#dirArrow" transform="rotate(270) translate(-36 17)" onmousedown="handlePan(-1,0)">
                  <use xlink:href="#rim" fill="#404040">
                        <set attributeName="fill" to="#808080" begin="arrowLeft.mouseover" end="arrowLeft.mouseout"/>
                  </use>
                  <path fill="none" stroke="white" stroke-width="1.5" d="M0,-3.0v7 M-2.5,-0.5L0,-3.0L2.5,-0.5"/>
                </g>
        </g>
        <svg viewBox="0 0 15 15" width="100%" height="30px" preserveAspectRatio="xMaxYMin meet">
         <g id="arrow_out" transform="scale(0.3 0.3)">
          <a xlink:href="classTimingCore__inherit__graph_org.svg" target="_base">
           <rect id="button" ry="5" rx="5" y="6" x="6" height="38" width="38"
                fill="#f2f5e9" fill-opacity="0.5" stroke="#606060" stroke-width="1.0"/>
           <path id="arrow"
             d="M 11.500037,31.436501 C 11.940474,20.09759 22.043105,11.32322 32.158766,21.979434 L 37.068811,17.246167 C 37.068811,17.246167 37.088388,32 37.088388,32 L 22.160133,31.978069 C 22.160133,31.978069 26.997745,27.140456 26.997745,27.140456 C 18.528582,18.264221 13.291696,25.230495 11.500037,31.436501 z"
             style="fill:#404040;"/>
          </a>
         </g>
        </svg>
</svg>
