<?xml version="1.0" encoding="UTF-8" standalone="no"?>
<!DOCTYPE svg PUBLIC "-//W3C//DTD SVG 1.1//EN"
 "http://www.w3.org/Graphics/SVG/1.1/DTD/svg11.dtd">
<!-- Generated by graphviz version 2.40.1 (20161225.0304)
 -->
<!-- Title: TPGMiniCore Pages: 1 -->
<svg width="454pt" height="252pt"
 viewBox="0.00 0.00 453.50 252.00" xmlns="http://www.w3.org/2000/svg" xmlns:xlink="http://www.w3.org/1999/xlink">
<g id="graph0" class="graph" transform="scale(1 1) rotate(0) translate(4 248)">
<title>TPGMiniCore</title>
<polygon fill="#ffffff" stroke="transparent" points="-4,4 -4,-248 449.5,-248 449.5,4 -4,4"/>
<!-- Node0 -->
<g id="node1" class="node">
<title>Node0</title>
<polygon fill="#bfbfbf" stroke="#000000" points="138,-56.5 138,-75.5 217,-75.5 217,-56.5 138,-56.5"/>
<text text-anchor="middle" x="177.5" y="-63.5" font-family="Helvetica,sans-Serif" font-size="10.00" fill="#000000">TPGMiniCore</text>
</g>
<!-- Node9 -->
<g id="node10" class="node">
<title>Node9</title>
<g id="a_node10"><a xlink:href="classTimingCore.html" target="_top" xlink:title="TimingCore">
<polygon fill="#ffffff" stroke="#000000" points="141,-.5 141,-19.5 214,-19.5 214,-.5 141,-.5"/>
<text text-anchor="middle" x="177.5" y="-7.5" font-family="Helvetica,sans-Serif" font-size="10.00" fill="#000000">TimingCore</text>
</a>
</g>
</g>
<!-- Node0&#45;&gt;Node9 -->
<g id="edge9" class="edge">
<title>Node0&#45;&gt;Node9</title>
<path fill="none" stroke="#191970" d="M177.5,-46.1575C177.5,-37.155 177.5,-26.9199 177.5,-19.6427"/>
<polygon fill="#191970" stroke="#191970" points="174.0001,-46.2455 177.5,-56.2455 181.0001,-46.2456 174.0001,-46.2455"/>
</g>
<!-- Node1 -->
<g id="node2" class="node">
<title>Node1</title>
<g id="a_node2"><a xlink:href="classTPGMiniReg.html" target="_top" xlink:title="TPGMiniReg">
<polygon fill="#ffffff" stroke="#000000" points="99.5,-112.5 99.5,-131.5 173.5,-131.5 173.5,-112.5 99.5,-112.5"/>
<text text-anchor="middle" x="136.5" y="-119.5" font-family="Helvetica,sans-Serif" font-size="10.00" fill="#000000">TPGMiniReg</text>
</a>
</g>
</g>
<!-- Node1&#45;&gt;Node0 -->
<g id="edge1" class="edge">
<title>Node1&#45;&gt;Node0</title>
<path fill="none" stroke="#191970" d="M149.7364,-103.9209C156.6211,-94.5176 164.7609,-83.3997 170.4402,-75.6427"/>
<polygon fill="#191970" stroke="#191970" points="146.7251,-102.1093 143.6417,-112.2455 152.3731,-106.2445 146.7251,-102.1093"/>
</g>
<!-- Node2 -->
<g id="node3" class="node">
<title>Node2</title>
<g id="a_node3"><a xlink:href="classTPGMini.html" target="_top" xlink:title="TPGMini">
<polygon fill="#ffffff" stroke="#000000" points="191.5,-112.5 191.5,-131.5 247.5,-131.5 247.5,-112.5 191.5,-112.5"/>
<text text-anchor="middle" x="219.5" y="-119.5" font-family="Helvetica,sans-Serif" font-size="10.00" fill="#000000">TPGMini</text>
</a>
</g>
</g>
<!-- Node2&#45;&gt;Node0 -->
<g id="edge2" class="edge">
<title>Node2&#45;&gt;Node0</title>
<path fill="none" stroke="#191970" d="M206.1584,-104.2112C199.0604,-94.7472 190.6097,-83.4797 184.732,-75.6427"/>
<polygon fill="#191970" stroke="#191970" points="203.3841,-106.3455 212.1842,-112.2455 208.9841,-102.1455 203.3841,-106.3455"/>
</g>
<!-- Node3 -->
<g id="node4" class="node">
<title>Node3</title>
<g id="a_node4"><a xlink:href="classDivider.html" target="_top" xlink:title="Divider(2)">
<polygon fill="#ffffff" stroke="#000000" points="0,-168.5 0,-187.5 65,-187.5 65,-168.5 0,-168.5"/>
<text text-anchor="middle" x="32.5" y="-175.5" font-family="Helvetica,sans-Serif" font-size="10.00" fill="#000000">Divider(2)</text>
</a>
</g>
</g>
<!-- Node3&#45;&gt;Node2 -->
<g id="edge3" class="edge">
<title>Node3&#45;&gt;Node2</title>
<path fill="none" stroke="#191970" d="M74.2994,-165.4825C110.0026,-154.7907 160.3754,-139.7058 191.4331,-130.4051"/>
<polygon fill="#191970" stroke="#191970" points="73.222,-162.1515 64.6464,-168.3733 75.2302,-168.8573 73.222,-162.1515"/>
</g>
<!-- Node4 -->
<g id="node5" class="node">
<title>Node4</title>
<g id="a_node5"><a xlink:href="classBsaControl.html" target="_top" xlink:title="BsaControl">
<polygon fill="#ffffff" stroke="#000000" points="83.5,-168.5 83.5,-187.5 153.5,-187.5 153.5,-168.5 83.5,-168.5"/>
<text text-anchor="middle" x="118.5" y="-175.5" font-family="Helvetica,sans-Serif" font-size="10.00" fill="#000000">BsaControl</text>
</a>
</g>
</g>
<!-- Node4&#45;&gt;Node2 -->
<g id="edge4" class="edge">
<title>Node4&#45;&gt;Node2</title>
<path fill="none" stroke="#191970" d="M144.9719,-163.3225C163.0125,-153.3198 186.3877,-140.3593 202.1087,-131.6427"/>
<polygon fill="#191970" stroke="#191970" points="143.1413,-160.3354 136.0929,-168.2455 146.5357,-166.4574 143.1413,-160.3354"/>
</g>
<!-- Node5 -->
<g id="node6" class="node">
<title>Node5</title>
<g id="a_node6"><a xlink:href="classEventSelect.html" target="_top" xlink:title="EventSelect(2)">
<polygon fill="#ffffff" stroke="#000000" points="74.5,-224.5 74.5,-243.5 162.5,-243.5 162.5,-224.5 74.5,-224.5"/>
<text text-anchor="middle" x="118.5" y="-231.5" font-family="Helvetica,sans-Serif" font-size="10.00" fill="#000000">EventSelect(2)</text>
</a>
</g>
</g>
<!-- Node5&#45;&gt;Node4 -->
<g id="edge5" class="edge">
<title>Node5&#45;&gt;Node4</title>
<path fill="none" stroke="#191970" d="M118.5,-214.1575C118.5,-205.155 118.5,-194.9199 118.5,-187.6427"/>
<polygon fill="#191970" stroke="#191970" points="115.0001,-214.2455 118.5,-224.2455 122.0001,-214.2456 115.0001,-214.2455"/>
</g>
<!-- Node6 -->
<g id="node7" class="node">
<title>Node6</title>
<g id="a_node7"><a xlink:href="classTimingSerializer.html" target="_top" xlink:title="TimingSerializer">
<polygon fill="#ffffff" stroke="#000000" points="171.5,-168.5 171.5,-187.5 267.5,-187.5 267.5,-168.5 171.5,-168.5"/>
<text text-anchor="middle" x="219.5" y="-175.5" font-family="Helvetica,sans-Serif" font-size="10.00" fill="#000000">TimingSerializer</text>
</a>
</g>
</g>
<!-- Node6&#45;&gt;Node2 -->
<g id="edge6" class="edge">
<title>Node6&#45;&gt;Node2</title>
<path fill="none" stroke="#191970" d="M219.5,-158.1575C219.5,-149.155 219.5,-138.9199 219.5,-131.6427"/>
<polygon fill="#191970" stroke="#191970" points="216.0001,-158.2455 219.5,-168.2455 223.0001,-158.2456 216.0001,-158.2455"/>
</g>
<!-- Node7 -->
<g id="node8" class="node">
<title>Node7</title>
<g id="a_node8"><a xlink:href="classTPSerializer.html" target="_top" xlink:title="TPSerializer">
<polygon fill="#ffffff" stroke="#000000" points="285.5,-168.5 285.5,-187.5 359.5,-187.5 359.5,-168.5 285.5,-168.5"/>
<text text-anchor="middle" x="322.5" y="-175.5" font-family="Helvetica,sans-Serif" font-size="10.00" fill="#000000">TPSerializer</text>
</a>
</g>
</g>
<!-- Node7&#45;&gt;Node2 -->
<g id="edge7" class="edge">
<title>Node7&#45;&gt;Node2</title>
<path fill="none" stroke="#191970" d="M295.7568,-163.46C277.325,-153.4388 253.3416,-140.3993 237.2356,-131.6427"/>
<polygon fill="#191970" stroke="#191970" points="294.1015,-166.5438 304.5588,-168.2455 297.4451,-160.394 294.1015,-166.5438"/>
</g>
<!-- Node8 -->
<g id="node9" class="node">
<title>Node8</title>
<g id="a_node9"><a xlink:href="classClockTime.html" target="_top" xlink:title="ClockTime">
<polygon fill="#ffffff" stroke="#000000" points="377.5,-168.5 377.5,-187.5 445.5,-187.5 445.5,-168.5 377.5,-168.5"/>
<text text-anchor="middle" x="411.5" y="-175.5" font-family="Helvetica,sans-Serif" font-size="10.00" fill="#000000">ClockTime</text>
</a>
</g>
</g>
<!-- Node8&#45;&gt;Node2 -->
<g id="edge8" class="edge">
<title>Node8&#45;&gt;Node2</title>
<path fill="none" stroke="#191970" d="M368.5225,-165.4649C331.6336,-154.7056 279.5257,-139.5075 247.7078,-130.2273"/>
<polygon fill="#191970" stroke="#191970" points="367.914,-168.9332 378.494,-168.3733 369.874,-162.2132 367.914,-168.9332"/>
</g>
</g>
</svg>
