<?xml version="1.0" encoding="UTF-8" standalone="no"?>
<!DOCTYPE svg PUBLIC "-//W3C//DTD SVG 1.1//EN"
 "http://www.w3.org/Graphics/SVG/1.1/DTD/svg11.dtd">
<!-- Generated by graphviz version 2.40.1 (20161225.0304)
 -->
<!-- Title: EventSelect Pages: 1 -->
<svg width="201pt" height="252pt"
 viewBox="0.00 0.00 201.00 252.00" xmlns="http://www.w3.org/2000/svg" xmlns:xlink="http://www.w3.org/1999/xlink">
<g id="graph0" class="graph" transform="scale(1 1) rotate(0) translate(4 248)">
<title>EventSelect</title>
<polygon fill="#ffffff" stroke="transparent" points="-4,4 -4,-248 197,-248 197,4 -4,4"/>
<!-- Node0 -->
<g id="node1" class="node">
<title>Node0</title>
<polygon fill="#bfbfbf" stroke="#000000" points="80,-224.5 80,-243.5 154,-243.5 154,-224.5 80,-224.5"/>
<text text-anchor="middle" x="117" y="-231.5" font-family="Helvetica,sans-Serif" font-size="10.00" fill="#000000">EventSelect</text>
</g>
<!-- Node1 -->
<g id="node2" class="node">
<title>Node1</title>
<g id="a_node2"><a xlink:href="classBsaControl.html" target="_top" xlink:title="BsaControl">
<polygon fill="#ffffff" stroke="#000000" points="39,-168.5 39,-187.5 109,-187.5 109,-168.5 39,-168.5"/>
<text text-anchor="middle" x="74" y="-175.5" font-family="Helvetica,sans-Serif" font-size="10.00" fill="#000000">BsaControl</text>
</a>
</g>
</g>
<!-- Node0&#45;&gt;Node1 -->
<g id="edge1" class="edge">
<title>Node0&#45;&gt;Node1</title>
<path fill="none" stroke="#191970" d="M103.3408,-216.2112C96.0737,-206.7472 87.4219,-195.4797 81.4042,-187.6427"/>
<polygon fill="#191970" stroke="#191970" points="100.6436,-218.4456 109.51,-224.2455 106.1957,-214.1824 100.6436,-218.4456"/>
</g>
<!-- Node6 -->
<g id="node7" class="node">
<title>Node6</title>
<g id="a_node7"><a xlink:href="classCtrControl.html" target="_top" xlink:title="CtrControl">
<polygon fill="#ffffff" stroke="#000000" points="127,-168.5 127,-187.5 193,-187.5 193,-168.5 127,-168.5"/>
<text text-anchor="middle" x="160" y="-175.5" font-family="Helvetica,sans-Serif" font-size="10.00" fill="#000000">CtrControl</text>
</a>
</g>
</g>
<!-- Node0&#45;&gt;Node6 -->
<g id="edge6" class="edge">
<title>Node0&#45;&gt;Node6</title>
<path fill="none" stroke="#191970" d="M130.6592,-216.2112C137.9263,-206.7472 146.5781,-195.4797 152.5958,-187.6427"/>
<polygon fill="#191970" stroke="#191970" points="127.8043,-214.1824 124.49,-224.2455 133.3564,-218.4456 127.8043,-214.1824"/>
</g>
<!-- Node2 -->
<g id="node3" class="node">
<title>Node2</title>
<g id="a_node3"><a xlink:href="classTPGMini.html" target="_top" xlink:title="TPGMini">
<polygon fill="#ffffff" stroke="#000000" points="46,-112.5 46,-131.5 102,-131.5 102,-112.5 46,-112.5"/>
<text text-anchor="middle" x="74" y="-119.5" font-family="Helvetica,sans-Serif" font-size="10.00" fill="#000000">TPGMini</text>
</a>
</g>
</g>
<!-- Node1&#45;&gt;Node2 -->
<g id="edge2" class="edge">
<title>Node1&#45;&gt;Node2</title>
<path fill="none" stroke="#191970" d="M74,-158.1575C74,-149.155 74,-138.9199 74,-131.6427"/>
<polygon fill="#191970" stroke="#191970" points="70.5001,-158.2455 74,-168.2455 77.5001,-158.2456 70.5001,-158.2455"/>
</g>
<!-- Node3 -->
<g id="node4" class="node">
<title>Node3</title>
<g id="a_node4"><a xlink:href="classEvrV2__tb.html" target="_top" xlink:title="EvrV2_tb">
<polygon fill="#ffffff" stroke="#000000" points="0,-56.5 0,-75.5 60,-75.5 60,-56.5 0,-56.5"/>
<text text-anchor="middle" x="30" y="-63.5" font-family="Helvetica,sans-Serif" font-size="10.00" fill="#000000">EvrV2_tb</text>
</a>
</g>
</g>
<!-- Node2&#45;&gt;Node3 -->
<g id="edge3" class="edge">
<title>Node2&#45;&gt;Node3</title>
<path fill="none" stroke="#191970" d="M60.0231,-104.2112C52.5871,-94.7472 43.734,-83.4797 37.5764,-75.6427"/>
<polygon fill="#191970" stroke="#191970" points="57.4054,-106.5447 66.3358,-112.2455 62.9097,-102.22 57.4054,-106.5447"/>
</g>
<!-- Node4 -->
<g id="node5" class="node">
<title>Node4</title>
<g id="a_node5"><a xlink:href="classTPGMiniCore.html" target="_top" xlink:title="TPGMiniCore">
<polygon fill="#ffffff" stroke="#000000" points="78.5,-56.5 78.5,-75.5 157.5,-75.5 157.5,-56.5 78.5,-56.5"/>
<text text-anchor="middle" x="118" y="-63.5" font-family="Helvetica,sans-Serif" font-size="10.00" fill="#000000">TPGMiniCore</text>
</a>
</g>
</g>
<!-- Node2&#45;&gt;Node4 -->
<g id="edge4" class="edge">
<title>Node2&#45;&gt;Node4</title>
<path fill="none" stroke="#191970" d="M87.9769,-104.2112C95.4129,-94.7472 104.266,-83.4797 110.4236,-75.6427"/>
<polygon fill="#191970" stroke="#191970" points="85.0903,-102.22 81.6642,-112.2455 90.5946,-106.5447 85.0903,-102.22"/>
</g>
<!-- Node5 -->
<g id="node6" class="node">
<title>Node5</title>
<g id="a_node6"><a xlink:href="classTimingCore.html" target="_top" xlink:title="TimingCore">
<polygon fill="#ffffff" stroke="#000000" points="81.5,-.5 81.5,-19.5 154.5,-19.5 154.5,-.5 81.5,-.5"/>
<text text-anchor="middle" x="118" y="-7.5" font-family="Helvetica,sans-Serif" font-size="10.00" fill="#000000">TimingCore</text>
</a>
</g>
</g>
<!-- Node4&#45;&gt;Node5 -->
<g id="edge5" class="edge">
<title>Node4&#45;&gt;Node5</title>
<path fill="none" stroke="#191970" d="M118,-46.1575C118,-37.155 118,-26.9199 118,-19.6427"/>
<polygon fill="#191970" stroke="#191970" points="114.5001,-46.2455 118,-56.2455 121.5001,-46.2456 114.5001,-46.2455"/>
</g>
</g>
</svg>
