<?xml version="1.0" encoding="UTF-8" standalone="no"?>
<!DOCTYPE svg PUBLIC "-//W3C//DTD SVG 1.1//EN"
 "http://www.w3.org/Graphics/SVG/1.1/DTD/svg11.dtd">
<!-- Generated by graphviz version 2.40.1 (20161225.0304)
 -->
<!-- Title: Divider Pages: 1 -->
<svg width="257pt" height="196pt"
 viewBox="0.00 0.00 257.00 196.00" xmlns="http://www.w3.org/2000/svg" xmlns:xlink="http://www.w3.org/1999/xlink">
<g id="graph0" class="graph" transform="scale(1 1) rotate(0) translate(4 192)">
<title>Divider</title>
<polygon fill="#ffffff" stroke="transparent" points="-4,4 -4,-192 253,-192 253,4 -4,4"/>
<!-- Node0 -->
<g id="node1" class="node">
<title>Node0</title>
<polygon fill="#bfbfbf" stroke="#000000" points="86.5,-168.5 86.5,-187.5 138.5,-187.5 138.5,-168.5 86.5,-168.5"/>
<text text-anchor="middle" x="112.5" y="-175.5" font-family="Helvetica,sans-Serif" font-size="10.00" fill="#000000">Divider</text>
</g>
<!-- Node1 -->
<g id="node2" class="node">
<title>Node1</title>
<g id="a_node2"><a xlink:href="classTimingSerialDelayTb.html" target="_top" xlink:title="TimingSerialDelayTb">
<polygon fill="#ffffff" stroke="#000000" points="0,-112.5 0,-131.5 119,-131.5 119,-112.5 0,-112.5"/>
<text text-anchor="middle" x="59.5" y="-119.5" font-family="Helvetica,sans-Serif" font-size="10.00" fill="#000000">TimingSerialDelayTb</text>
</a>
</g>
</g>
<!-- Node0&#45;&gt;Node1 -->
<g id="edge1" class="edge">
<title>Node0&#45;&gt;Node1</title>
<path fill="none" stroke="#191970" d="M96.2104,-160.7884C87.1438,-151.2085 76.1946,-139.6396 68.6261,-131.6427"/>
<polygon fill="#191970" stroke="#191970" points="93.8522,-163.3884 103.2681,-168.2455 98.9363,-158.5767 93.8522,-163.3884"/>
</g>
<!-- Node2 -->
<g id="node3" class="node">
<title>Node2</title>
<g id="a_node3"><a xlink:href="classTPGMini.html" target="_top" xlink:title="TPGMini">
<polygon fill="#ffffff" stroke="#000000" points="137.5,-112.5 137.5,-131.5 193.5,-131.5 193.5,-112.5 137.5,-112.5"/>
<text text-anchor="middle" x="165.5" y="-119.5" font-family="Helvetica,sans-Serif" font-size="10.00" fill="#000000">TPGMini</text>
</a>
</g>
</g>
<!-- Node0&#45;&gt;Node2 -->
<g id="edge2" class="edge">
<title>Node0&#45;&gt;Node2</title>
<path fill="none" stroke="#191970" d="M128.7896,-160.7884C137.8562,-151.2085 148.8054,-139.6396 156.3739,-131.6427"/>
<polygon fill="#191970" stroke="#191970" points="126.0637,-158.5767 121.7319,-168.2455 131.1478,-163.3884 126.0637,-158.5767"/>
</g>
<!-- Node3 -->
<g id="node4" class="node">
<title>Node3</title>
<g id="a_node4"><a xlink:href="classEvrV2__tb.html" target="_top" xlink:title="EvrV2_tb">
<polygon fill="#ffffff" stroke="#000000" points="91.5,-56.5 91.5,-75.5 151.5,-75.5 151.5,-56.5 91.5,-56.5"/>
<text text-anchor="middle" x="121.5" y="-63.5" font-family="Helvetica,sans-Serif" font-size="10.00" fill="#000000">EvrV2_tb</text>
</a>
</g>
</g>
<!-- Node2&#45;&gt;Node3 -->
<g id="edge3" class="edge">
<title>Node2&#45;&gt;Node3</title>
<path fill="none" stroke="#191970" d="M151.5231,-104.2112C144.0871,-94.7472 135.234,-83.4797 129.0764,-75.6427"/>
<polygon fill="#191970" stroke="#191970" points="148.9054,-106.5447 157.8358,-112.2455 154.4097,-102.22 148.9054,-106.5447"/>
</g>
<!-- Node4 -->
<g id="node5" class="node">
<title>Node4</title>
<g id="a_node5"><a xlink:href="classTPGMiniCore.html" target="_top" xlink:title="TPGMiniCore">
<polygon fill="#ffffff" stroke="#000000" points="170,-56.5 170,-75.5 249,-75.5 249,-56.5 170,-56.5"/>
<text text-anchor="middle" x="209.5" y="-63.5" font-family="Helvetica,sans-Serif" font-size="10.00" fill="#000000">TPGMiniCore</text>
</a>
</g>
</g>
<!-- Node2&#45;&gt;Node4 -->
<g id="edge4" class="edge">
<title>Node2&#45;&gt;Node4</title>
<path fill="none" stroke="#191970" d="M179.4769,-104.2112C186.9129,-94.7472 195.766,-83.4797 201.9236,-75.6427"/>
<polygon fill="#191970" stroke="#191970" points="176.5903,-102.22 173.1642,-112.2455 182.0946,-106.5447 176.5903,-102.22"/>
</g>
<!-- Node5 -->
<g id="node6" class="node">
<title>Node5</title>
<g id="a_node6"><a xlink:href="classTimingCore.html" target="_top" xlink:title="TimingCore">
<polygon fill="#ffffff" stroke="#000000" points="173,-.5 173,-19.5 246,-19.5 246,-.5 173,-.5"/>
<text text-anchor="middle" x="209.5" y="-7.5" font-family="Helvetica,sans-Serif" font-size="10.00" fill="#000000">TimingCore</text>
</a>
</g>
</g>
<!-- Node4&#45;&gt;Node5 -->
<g id="edge5" class="edge">
<title>Node4&#45;&gt;Node5</title>
<path fill="none" stroke="#191970" d="M209.5,-46.1575C209.5,-37.155 209.5,-26.9199 209.5,-19.6427"/>
<polygon fill="#191970" stroke="#191970" points="206.0001,-46.2455 209.5,-56.2455 213.0001,-46.2456 206.0001,-46.2455"/>
</g>
</g>
</svg>
