<?xml version="1.0" encoding="UTF-8" standalone="no"?>
<!DOCTYPE svg PUBLIC "-//W3C//DTD SVG 1.1//EN"
 "http://www.w3.org/Graphics/SVG/1.1/DTD/svg11.dtd">
<!-- Generated by graphviz version 2.40.1 (20161225.0304)
 -->
<!-- Title: TimingFrameRx Pages: 1 -->
<svg width="256pt" height="196pt"
 viewBox="0.00 0.00 255.50 196.00" xmlns="http://www.w3.org/2000/svg" xmlns:xlink="http://www.w3.org/1999/xlink">
<g id="graph0" class="graph" transform="scale(1 1) rotate(0) translate(4 192)">
<title>TimingFrameRx</title>
<polygon fill="#ffffff" stroke="transparent" points="-4,4 -4,-192 251.5,-192 251.5,4 -4,4"/>
<!-- Node0 -->
<g id="node1" class="node">
<title>Node0</title>
<polygon fill="#bfbfbf" stroke="#000000" points="74,-112.5 74,-131.5 167,-131.5 167,-112.5 74,-112.5"/>
<text text-anchor="middle" x="120.5" y="-119.5" font-family="Helvetica,sans-Serif" font-size="10.00" fill="#000000">TimingFrameRx</text>
</g>
<!-- Node3 -->
<g id="node4" class="node">
<title>Node3</title>
<g id="a_node4"><a xlink:href="classTimingRx.html" target="_top" xlink:title="TimingRx">
<polygon fill="#ffffff" stroke="#000000" points="89,-56.5 89,-75.5 152,-75.5 152,-56.5 89,-56.5"/>
<text text-anchor="middle" x="120.5" y="-63.5" font-family="Helvetica,sans-Serif" font-size="10.00" fill="#000000">TimingRx</text>
</a>
</g>
</g>
<!-- Node0&#45;&gt;Node3 -->
<g id="edge3" class="edge">
<title>Node0&#45;&gt;Node3</title>
<path fill="none" stroke="#191970" d="M120.5,-102.1575C120.5,-93.155 120.5,-82.9199 120.5,-75.6427"/>
<polygon fill="#191970" stroke="#191970" points="117.0001,-102.2455 120.5,-112.2455 124.0001,-102.2456 117.0001,-102.2455"/>
</g>
<!-- Node1 -->
<g id="node2" class="node">
<title>Node1</title>
<g id="a_node2"><a xlink:href="classTimingDeserializer.html" target="_top" xlink:title="TimingDeserializer">
<polygon fill="#ffffff" stroke="#000000" points="0,-168.5 0,-187.5 109,-187.5 109,-168.5 0,-168.5"/>
<text text-anchor="middle" x="54.5" y="-175.5" font-family="Helvetica,sans-Serif" font-size="10.00" fill="#000000">TimingDeserializer</text>
</a>
</g>
</g>
<!-- Node1&#45;&gt;Node0 -->
<g id="edge1" class="edge">
<title>Node1&#45;&gt;Node0</title>
<path fill="none" stroke="#191970" d="M73.7755,-161.645C85.2538,-151.9058 99.4277,-139.8795 109.1354,-131.6427"/>
<polygon fill="#191970" stroke="#191970" points="71.357,-159.1069 65.9963,-168.2455 75.8859,-164.4445 71.357,-159.1069"/>
</g>
<!-- Node2 -->
<g id="node3" class="node">
<title>Node2</title>
<g id="a_node3"><a xlink:href="classTimingSerialDelay.html" target="_top" xlink:title="TimingSerialDelay(2)">
<polygon fill="#ffffff" stroke="#000000" points="127.5,-168.5 127.5,-187.5 247.5,-187.5 247.5,-168.5 127.5,-168.5"/>
<text text-anchor="middle" x="187.5" y="-175.5" font-family="Helvetica,sans-Serif" font-size="10.00" fill="#000000">TimingSerialDelay(2)</text>
</a>
</g>
</g>
<!-- Node2&#45;&gt;Node0 -->
<g id="edge2" class="edge">
<title>Node2&#45;&gt;Node0</title>
<path fill="none" stroke="#191970" d="M167.9324,-161.645C156.2802,-151.9058 141.8916,-139.8795 132.0368,-131.6427"/>
<polygon fill="#191970" stroke="#191970" points="165.9121,-164.5179 175.8295,-168.2455 170.4012,-159.1469 165.9121,-164.5179"/>
</g>
<!-- Node4 -->
<g id="node5" class="node">
<title>Node4</title>
<g id="a_node5"><a xlink:href="classTimingCore.html" target="_top" xlink:title="TimingCore">
<polygon fill="#ffffff" stroke="#000000" points="84,-.5 84,-19.5 157,-19.5 157,-.5 84,-.5"/>
<text text-anchor="middle" x="120.5" y="-7.5" font-family="Helvetica,sans-Serif" font-size="10.00" fill="#000000">TimingCore</text>
</a>
</g>
</g>
<!-- Node3&#45;&gt;Node4 -->
<g id="edge4" class="edge">
<title>Node3&#45;&gt;Node4</title>
<path fill="none" stroke="#191970" d="M120.5,-46.1575C120.5,-37.155 120.5,-26.9199 120.5,-19.6427"/>
<polygon fill="#191970" stroke="#191970" points="117.0001,-46.2455 120.5,-56.2455 124.0001,-46.2456 117.0001,-46.2455"/>
</g>
</g>
</svg>
