<?xml version="1.0" encoding="UTF-8" standalone="no"?>
<!DOCTYPE svg PUBLIC "-//W3C//DTD SVG 1.1//EN"
 "http://www.w3.org/Graphics/SVG/1.1/DTD/svg11.dtd">
<!-- Generated by graphviz version 2.40.1 (20161225.0304)
 -->
<!-- Title: TimingRx Pages: 1 -->
<svg width="297pt" height="196pt"
 viewBox="0.00 0.00 297.00 196.00" xmlns="http://www.w3.org/2000/svg" xmlns:xlink="http://www.w3.org/1999/xlink">
<g id="graph0" class="graph" transform="scale(1 1) rotate(0) translate(4 192)">
<title>TimingRx</title>
<polygon fill="#ffffff" stroke="transparent" points="-4,4 -4,-192 293,-192 293,4 -4,4"/>
<!-- Node0 -->
<g id="node1" class="node">
<title>Node0</title>
<polygon fill="#bfbfbf" stroke="#000000" points="74.5,-56.5 74.5,-75.5 137.5,-75.5 137.5,-56.5 74.5,-56.5"/>
<text text-anchor="middle" x="106" y="-63.5" font-family="Helvetica,sans-Serif" font-size="10.00" fill="#000000">TimingRx</text>
</g>
<!-- Node5 -->
<g id="node6" class="node">
<title>Node5</title>
<g id="a_node6"><a xlink:href="classTimingCore.html" target="_top" xlink:title="TimingCore">
<polygon fill="#ffffff" stroke="#000000" points="69.5,-.5 69.5,-19.5 142.5,-19.5 142.5,-.5 69.5,-.5"/>
<text text-anchor="middle" x="106" y="-7.5" font-family="Helvetica,sans-Serif" font-size="10.00" fill="#000000">TimingCore</text>
</a>
</g>
</g>
<!-- Node0&#45;&gt;Node5 -->
<g id="edge5" class="edge">
<title>Node0&#45;&gt;Node5</title>
<path fill="none" stroke="#191970" d="M106,-46.1575C106,-37.155 106,-26.9199 106,-19.6427"/>
<polygon fill="#191970" stroke="#191970" points="102.5001,-46.2455 106,-56.2455 109.5001,-46.2456 102.5001,-46.2455"/>
</g>
<!-- Node1 -->
<g id="node2" class="node">
<title>Node1</title>
<g id="a_node2"><a xlink:href="classTimingStreamRx.html" target="_top" xlink:title="TimingStreamRx">
<polygon fill="#ffffff" stroke="#000000" points="0,-112.5 0,-131.5 98,-131.5 98,-112.5 0,-112.5"/>
<text text-anchor="middle" x="49" y="-119.5" font-family="Helvetica,sans-Serif" font-size="10.00" fill="#000000">TimingStreamRx</text>
</a>
</g>
</g>
<!-- Node1&#45;&gt;Node0 -->
<g id="edge1" class="edge">
<title>Node1&#45;&gt;Node0</title>
<path fill="none" stroke="#191970" d="M66.2271,-105.0751C76.0341,-95.4402 87.964,-83.7196 96.1851,-75.6427"/>
<polygon fill="#191970" stroke="#191970" points="63.6091,-102.7406 58.9286,-112.2455 68.5149,-107.734 63.6091,-102.7406"/>
</g>
<!-- Node2 -->
<g id="node3" class="node">
<title>Node2</title>
<g id="a_node3"><a xlink:href="classTimingFrameRx.html" target="_top" xlink:title="TimingFrameRx">
<polygon fill="#ffffff" stroke="#000000" points="116.5,-112.5 116.5,-131.5 209.5,-131.5 209.5,-112.5 116.5,-112.5"/>
<text text-anchor="middle" x="163" y="-119.5" font-family="Helvetica,sans-Serif" font-size="10.00" fill="#000000">TimingFrameRx</text>
</a>
</g>
</g>
<!-- Node2&#45;&gt;Node0 -->
<g id="edge2" class="edge">
<title>Node2&#45;&gt;Node0</title>
<path fill="none" stroke="#191970" d="M145.7729,-105.0751C135.9659,-95.4402 124.036,-83.7196 115.8149,-75.6427"/>
<polygon fill="#191970" stroke="#191970" points="143.4851,-107.734 153.0714,-112.2455 148.3909,-102.7406 143.4851,-107.734"/>
</g>
<!-- Node3 -->
<g id="node4" class="node">
<title>Node3</title>
<g id="a_node4"><a xlink:href="classTimingDeserializer.html" target="_top" xlink:title="TimingDeserializer">
<polygon fill="#ffffff" stroke="#000000" points="41.5,-168.5 41.5,-187.5 150.5,-187.5 150.5,-168.5 41.5,-168.5"/>
<text text-anchor="middle" x="96" y="-175.5" font-family="Helvetica,sans-Serif" font-size="10.00" fill="#000000">TimingDeserializer</text>
</a>
</g>
</g>
<!-- Node3&#45;&gt;Node2 -->
<g id="edge3" class="edge">
<title>Node3&#45;&gt;Node2</title>
<path fill="none" stroke="#191970" d="M115.5676,-161.645C127.2198,-151.9058 141.6084,-139.8795 151.4632,-131.6427"/>
<polygon fill="#191970" stroke="#191970" points="113.0988,-159.1469 107.6705,-168.2455 117.5879,-164.5179 113.0988,-159.1469"/>
</g>
<!-- Node4 -->
<g id="node5" class="node">
<title>Node4</title>
<g id="a_node5"><a xlink:href="classTimingSerialDelay.html" target="_top" xlink:title="TimingSerialDelay(2)">
<polygon fill="#ffffff" stroke="#000000" points="169,-168.5 169,-187.5 289,-187.5 289,-168.5 169,-168.5"/>
<text text-anchor="middle" x="229" y="-175.5" font-family="Helvetica,sans-Serif" font-size="10.00" fill="#000000">TimingSerialDelay(2)</text>
</a>
</g>
</g>
<!-- Node4&#45;&gt;Node2 -->
<g id="edge4" class="edge">
<title>Node4&#45;&gt;Node2</title>
<path fill="none" stroke="#191970" d="M209.7245,-161.645C198.2462,-151.9058 184.0723,-139.8795 174.3646,-131.6427"/>
<polygon fill="#191970" stroke="#191970" points="207.6141,-164.4445 217.5037,-168.2455 212.143,-159.1069 207.6141,-164.4445"/>
</g>
</g>
</svg>
