<?xml version="1.0" encoding="UTF-8" standalone="no"?>
<!DOCTYPE svg PUBLIC "-//W3C//DTD SVG 1.1//EN"
 "http://www.w3.org/Graphics/SVG/1.1/DTD/svg11.dtd">
<!-- Generated by graphviz version 2.40.1 (20161225.0304)
 -->
<!-- Title: Graphical Class Hierarchy Pages: 1 -->
<svg width="640pt" height="446pt"
 viewBox="0.00 0.00 640.00 446.00" xmlns="http://www.w3.org/2000/svg" xmlns:xlink="http://www.w3.org/1999/xlink">
<g id="graph0" class="graph" transform="scale(1 1) rotate(0) translate(4 442)">
<title>Graphical Class Hierarchy</title>
<polygon fill="#ffffff" stroke="transparent" points="-4,4 -4,-442 636,-442 636,4 -4,4"/>
<!-- Node48 -->
<g id="node1" class="node">
<title>Node48</title>
<g id="a_node1"><a xlink:href="classClockTime.html" target="_top" xlink:title="ClockTime">
<polygon fill="#ffffff" stroke="#000000" points="130.5,-418.5 130.5,-437.5 198.5,-437.5 198.5,-418.5 130.5,-418.5"/>
<text text-anchor="middle" x="164.5" y="-425.5" font-family="Helvetica,sans-Serif" font-size="10.00" fill="#000000">ClockTime</text>
</a>
</g>
</g>
<!-- Node1 -->
<g id="node2" class="node">
<title>Node1</title>
<g id="a_node2"><a xlink:href="classTPGMini.html" target="_top" xlink:title="TPGMini">
<polygon fill="#ffffff" stroke="#000000" points="286.5,-380.5 286.5,-399.5 342.5,-399.5 342.5,-380.5 286.5,-380.5"/>
<text text-anchor="middle" x="314.5" y="-387.5" font-family="Helvetica,sans-Serif" font-size="10.00" fill="#000000">TPGMini</text>
</a>
</g>
</g>
<!-- Node48&#45;&gt;Node1 -->
<g id="edge1" class="edge">
<title>Node48&#45;&gt;Node1</title>
<path fill="none" stroke="#191970" d="M208.5399,-416.8432C233.6013,-410.4943 264.2567,-402.7283 286.1346,-397.1859"/>
<polygon fill="#191970" stroke="#191970" points="207.3716,-413.5286 198.5373,-419.3772 209.0906,-420.3142 207.3716,-413.5286"/>
</g>
<!-- Node2 -->
<g id="node3" class="node">
<title>Node2</title>
<g id="a_node3"><a xlink:href="classEvrV2__tb.html" target="_top" xlink:title="EvrV2_tb">
<polygon fill="#ffffff" stroke="#000000" points="436.5,-323.5 436.5,-342.5 496.5,-342.5 496.5,-323.5 436.5,-323.5"/>
<text text-anchor="middle" x="466.5" y="-330.5" font-family="Helvetica,sans-Serif" font-size="10.00" fill="#000000">EvrV2_tb</text>
</a>
</g>
</g>
<!-- Node1&#45;&gt;Node2 -->
<g id="edge2" class="edge">
<title>Node1&#45;&gt;Node2</title>
<path fill="none" stroke="#191970" d="M349.3413,-376.9345C377.2807,-366.4572 415.8469,-351.9949 440.9756,-342.5716"/>
<polygon fill="#191970" stroke="#191970" points="348.0757,-373.671 339.9414,-380.4595 350.5336,-380.2253 348.0757,-373.671"/>
</g>
<!-- Node3 -->
<g id="node4" class="node">
<title>Node3</title>
<g id="a_node4"><a xlink:href="classTPGMiniCore.html" target="_top" xlink:title="TPGMiniCore">
<polygon fill="#ffffff" stroke="#000000" points="427,-380.5 427,-399.5 506,-399.5 506,-380.5 427,-380.5"/>
<text text-anchor="middle" x="466.5" y="-387.5" font-family="Helvetica,sans-Serif" font-size="10.00" fill="#000000">TPGMiniCore</text>
</a>
</g>
</g>
<!-- Node1&#45;&gt;Node3 -->
<g id="edge3" class="edge">
<title>Node1&#45;&gt;Node3</title>
<path fill="none" stroke="#191970" d="M352.9907,-390C375.6136,-390 404.1546,-390 426.9575,-390"/>
<polygon fill="#191970" stroke="#191970" points="352.7338,-386.5001 342.7338,-390 352.7338,-393.5001 352.7338,-386.5001"/>
</g>
<!-- Node4 -->
<g id="node5" class="node">
<title>Node4</title>
<g id="a_node5"><a xlink:href="classTimingCore.html" target="_top" xlink:title="TimingCore">
<polygon fill="#ffffff" stroke="#000000" points="559,-114.5 559,-133.5 632,-133.5 632,-114.5 559,-114.5"/>
<text text-anchor="middle" x="595.5" y="-121.5" font-family="Helvetica,sans-Serif" font-size="10.00" fill="#000000">TimingCore</text>
</a>
</g>
</g>
<!-- Node3&#45;&gt;Node4 -->
<g id="edge4" class="edge">
<title>Node3&#45;&gt;Node4</title>
<path fill="none" stroke="#191970" d="M496.1098,-375.3163C505.8322,-369.252 515.9425,-361.4141 523,-352 576.8164,-280.2142 591.4314,-167.2505 594.6847,-133.702"/>
<polygon fill="#191970" stroke="#191970" points="494.2784,-372.3324 487.3888,-380.3813 497.794,-378.3856 494.2784,-372.3324"/>
</g>
<!-- Node47 -->
<g id="node6" class="node">
<title>Node47</title>
<g id="a_node6"><a xlink:href="classDivider.html" target="_top" xlink:title="Divider">
<polygon fill="#ffffff" stroke="#000000" points="138.5,-237.5 138.5,-256.5 190.5,-256.5 190.5,-237.5 138.5,-237.5"/>
<text text-anchor="middle" x="164.5" y="-244.5" font-family="Helvetica,sans-Serif" font-size="10.00" fill="#000000">Divider</text>
</a>
</g>
</g>
<!-- Node47&#45;&gt;Node1 -->
<g id="edge6" class="edge">
<title>Node47&#45;&gt;Node1</title>
<path fill="none" stroke="#191970" d="M186.4741,-263.1327C197.1945,-271.7554 209.7404,-283.0443 219,-295 240.6641,-322.9718 228.9318,-342.0793 255,-366 263.7814,-374.058 275.6166,-379.5728 286.4188,-383.2626"/>
<polygon fill="#191970" stroke="#191970" points="188.4082,-260.203 178.3656,-256.8272 184.1111,-265.7289 188.4082,-260.203"/>
</g>
<!-- Node17 -->
<g id="node7" class="node">
<title>Node17</title>
<g id="a_node7"><a xlink:href="classTimingSerialDelayTb.html" target="_top" xlink:title="TimingSerialDelayTb">
<polygon fill="#ffffff" stroke="#000000" points="255,-76.5 255,-95.5 374,-95.5 374,-76.5 255,-76.5"/>
<text text-anchor="middle" x="314.5" y="-83.5" font-family="Helvetica,sans-Serif" font-size="10.00" fill="#000000">TimingSerialDelayTb</text>
</a>
</g>
</g>
<!-- Node47&#45;&gt;Node17 -->
<g id="edge5" class="edge">
<title>Node47&#45;&gt;Node17</title>
<path fill="none" stroke="#191970" d="M178.0251,-229.4504C189.4601,-214.3136 206.0077,-191.6895 219,-171 236.7693,-142.7034 229.2359,-126.2758 255,-105 259.6823,-101.1334 265.1633,-98.0492 270.8695,-95.5902"/>
<polygon fill="#191970" stroke="#191970" points="175.2247,-227.3508 171.9486,-237.4264 180.7929,-231.5929 175.2247,-227.3508"/>
</g>
<!-- Node46 -->
<g id="node8" class="node">
<title>Node46</title>
<g id="a_node8"><a xlink:href="classEthTimingModule.html" target="_top" xlink:title="EthTimingModule">
<polygon fill="#ffffff" stroke="#000000" points="416,-114.5 416,-133.5 517,-133.5 517,-114.5 416,-114.5"/>
<text text-anchor="middle" x="466.5" y="-121.5" font-family="Helvetica,sans-Serif" font-size="10.00" fill="#000000">EthTimingModule</text>
</a>
</g>
</g>
<!-- Node46&#45;&gt;Node4 -->
<g id="edge7" class="edge">
<title>Node46&#45;&gt;Node4</title>
<path fill="none" stroke="#191970" d="M527.3894,-124C538.1915,-124 549.1291,-124 558.9851,-124"/>
<polygon fill="#191970" stroke="#191970" points="527.114,-120.5001 517.114,-124 527.1139,-127.5001 527.114,-120.5001"/>
</g>
<!-- Node43 -->
<g id="node9" class="node">
<title>Node43</title>
<g id="a_node9"><a xlink:href="classEventSelect.html" target="_top" xlink:title="EventSelect">
<polygon fill="#ffffff" stroke="#000000" points="0,-209.5 0,-228.5 74,-228.5 74,-209.5 0,-209.5"/>
<text text-anchor="middle" x="37" y="-216.5" font-family="Helvetica,sans-Serif" font-size="10.00" fill="#000000">EventSelect</text>
</a>
</g>
</g>
<!-- Node44 -->
<g id="node10" class="node">
<title>Node44</title>
<g id="a_node10"><a xlink:href="classBsaControl.html" target="_top" xlink:title="BsaControl">
<polygon fill="#ffffff" stroke="#000000" points="129.5,-380.5 129.5,-399.5 199.5,-399.5 199.5,-380.5 129.5,-380.5"/>
<text text-anchor="middle" x="164.5" y="-387.5" font-family="Helvetica,sans-Serif" font-size="10.00" fill="#000000">BsaControl</text>
</a>
</g>
</g>
<!-- Node43&#45;&gt;Node44 -->
<g id="edge8" class="edge">
<title>Node43&#45;&gt;Node44</title>
<path fill="none" stroke="#191970" d="M41.2741,-238.7087C49.246,-270.8761 69.3842,-334.7067 110,-371 115.5292,-375.9407 122.4157,-379.6127 129.4127,-382.3366"/>
<polygon fill="#191970" stroke="#191970" points="44.6305,-237.6903 38.9481,-228.7482 37.8139,-239.2822 44.6305,-237.6903"/>
</g>
<!-- Node45 -->
<g id="node11" class="node">
<title>Node45</title>
<g id="a_node11"><a xlink:href="classCtrControl.html" target="_top" xlink:title="CtrControl">
<polygon fill="#ffffff" stroke="#000000" points="131.5,-38.5 131.5,-57.5 197.5,-57.5 197.5,-38.5 131.5,-38.5"/>
<text text-anchor="middle" x="164.5" y="-45.5" font-family="Helvetica,sans-Serif" font-size="10.00" fill="#000000">CtrControl</text>
</a>
</g>
</g>
<!-- Node43&#45;&gt;Node45 -->
<g id="edge10" class="edge">
<title>Node43&#45;&gt;Node45</title>
<path fill="none" stroke="#191970" d="M41.2741,-199.2913C49.246,-167.1239 69.3842,-103.2933 110,-67 116.0522,-61.5919 123.7306,-57.704 131.4003,-54.9156"/>
<polygon fill="#191970" stroke="#191970" points="37.8139,-198.7178 38.9481,-209.2518 44.6305,-200.3097 37.8139,-198.7178"/>
</g>
<!-- Node44&#45;&gt;Node1 -->
<g id="edge9" class="edge">
<title>Node44&#45;&gt;Node1</title>
<path fill="none" stroke="#191970" d="M209.9327,-390C234.7072,-390 264.6066,-390 286.0767,-390"/>
<polygon fill="#191970" stroke="#191970" points="209.6684,-386.5001 199.6683,-390 209.6683,-393.5001 209.6684,-386.5001"/>
</g>
<!-- Node34 -->
<g id="node12" class="node">
<title>Node34</title>
<g id="a_node12"><a xlink:href="classEvrV2Axi.html" target="_top" xlink:title="EvrV2Axi">
<polygon fill="#ffffff" stroke="#000000" points="284,-228.5 284,-247.5 345,-247.5 345,-228.5 284,-228.5"/>
<text text-anchor="middle" x="314.5" y="-235.5" font-family="Helvetica,sans-Serif" font-size="10.00" fill="#000000">EvrV2Axi</text>
</a>
</g>
</g>
<!-- Node26 -->
<g id="node13" class="node">
<title>Node26</title>
<g id="a_node13"><a xlink:href="classEvrV2CorePulseGen.html" target="_top" xlink:title="EvrV2CorePulseGen">
<polygon fill="#ffffff" stroke="#000000" points="410,-266.5 410,-285.5 523,-285.5 523,-266.5 410,-266.5"/>
<text text-anchor="middle" x="466.5" y="-273.5" font-family="Helvetica,sans-Serif" font-size="10.00" fill="#000000">EvrV2CorePulseGen</text>
</a>
</g>
</g>
<!-- Node34&#45;&gt;Node26 -->
<g id="edge11" class="edge">
<title>Node34&#45;&gt;Node26</title>
<path fill="none" stroke="#191970" d="M355.2573,-248.1893C377.9276,-253.8569 405.9714,-260.8678 428.2299,-266.4325"/>
<polygon fill="#191970" stroke="#191970" points="355.8098,-244.7198 345.2595,-245.6899 354.112,-251.5108 355.8098,-244.7198"/>
</g>
<!-- Node28 -->
<g id="node14" class="node">
<title>Node28</title>
<g id="a_node14"><a xlink:href="classEvrV2Module.html" target="_top" xlink:title="EvrV2Module">
<polygon fill="#ffffff" stroke="#000000" points="426.5,-228.5 426.5,-247.5 506.5,-247.5 506.5,-228.5 426.5,-228.5"/>
<text text-anchor="middle" x="466.5" y="-235.5" font-family="Helvetica,sans-Serif" font-size="10.00" fill="#000000">EvrV2Module</text>
</a>
</g>
</g>
<!-- Node34&#45;&gt;Node28 -->
<g id="edge12" class="edge">
<title>Node34&#45;&gt;Node28</title>
<path fill="none" stroke="#191970" d="M355.2917,-238C377.2927,-238 404.347,-238 426.2623,-238"/>
<polygon fill="#191970" stroke="#191970" points="355.2595,-234.5001 345.2595,-238 355.2594,-241.5001 355.2595,-234.5001"/>
</g>
<!-- Node32 -->
<g id="node15" class="node">
<title>Node32</title>
<g id="a_node15"><a xlink:href="classEvrV2ChannelReg.html" target="_top" xlink:title="EvrV2ChannelReg">
<polygon fill="#ffffff" stroke="#000000" points="263,-114.5 263,-133.5 366,-133.5 366,-114.5 263,-114.5"/>
<text text-anchor="middle" x="314.5" y="-121.5" font-family="Helvetica,sans-Serif" font-size="10.00" fill="#000000">EvrV2ChannelReg</text>
</a>
</g>
</g>
<!-- Node27 -->
<g id="node16" class="node">
<title>Node27</title>
<g id="a_node16"><a xlink:href="classEvrV2CoreTriggers.html" target="_top" xlink:title="EvrV2CoreTriggers">
<polygon fill="#ffffff" stroke="#000000" points="413.5,-190.5 413.5,-209.5 519.5,-209.5 519.5,-190.5 413.5,-190.5"/>
<text text-anchor="middle" x="466.5" y="-197.5" font-family="Helvetica,sans-Serif" font-size="10.00" fill="#000000">EvrV2CoreTriggers</text>
</a>
</g>
</g>
<!-- Node32&#45;&gt;Node27 -->
<g id="edge13" class="edge">
<title>Node32&#45;&gt;Node27</title>
<path fill="none" stroke="#191970" d="M359.0974,-136.9267C364.1929,-138.789 369.2564,-140.8206 374,-143 403.8248,-156.7027 435.8392,-178.1108 453.2884,-190.4196"/>
<polygon fill="#191970" stroke="#191970" points="359.9296,-133.5114 349.3349,-133.5596 357.6472,-140.1289 359.9296,-133.5114"/>
</g>
<!-- Node31 -->
<g id="node17" class="node">
<title>Node31</title>
<g id="a_node17"><a xlink:href="classEvrV2EventSelect.html" target="_top" xlink:title="EvrV2EventSelect">
<polygon fill="#ffffff" stroke="#000000" points="263,-304.5 263,-323.5 366,-323.5 366,-304.5 263,-304.5"/>
<text text-anchor="middle" x="314.5" y="-311.5" font-family="Helvetica,sans-Serif" font-size="10.00" fill="#000000">EvrV2EventSelect</text>
</a>
</g>
</g>
<!-- Node31&#45;&gt;Node2 -->
<g id="edge14" class="edge">
<title>Node31&#45;&gt;Node2</title>
<path fill="none" stroke="#191970" d="M376.3519,-321.7315C396.9472,-324.3059 418.9794,-327.0599 436.1073,-329.2009"/>
<polygon fill="#191970" stroke="#191970" points="376.7416,-318.253 366.3846,-320.4856 375.8733,-325.199 376.7416,-318.253"/>
</g>
<!-- Node31&#45;&gt;Node26 -->
<g id="edge15" class="edge">
<title>Node31&#45;&gt;Node26</title>
<path fill="none" stroke="#191970" d="M362.66,-301.96C383.8951,-296.6512 408.495,-290.5012 428.4198,-285.5201"/>
<polygon fill="#191970" stroke="#191970" points="361.7085,-298.5901 352.856,-304.411 363.4063,-305.3811 361.7085,-298.5901"/>
</g>
<!-- Node31&#45;&gt;Node28 -->
<g id="edge17" class="edge">
<title>Node31&#45;&gt;Node28</title>
<path fill="none" stroke="#191970" d="M363.4479,-300.6344C367.1228,-298.9538 370.6855,-297.0815 374,-295 393.7016,-282.6274 390.3937,-269.5231 410,-257 415.9306,-253.2119 422.6971,-250.0957 429.4369,-247.5617"/>
<polygon fill="#191970" stroke="#191970" points="362.0939,-297.4067 354.1591,-304.4273 364.7402,-303.8872 362.0939,-297.4067"/>
</g>
<!-- Node31&#45;&gt;Node27 -->
<g id="edge16" class="edge">
<title>Node31&#45;&gt;Node27</title>
<path fill="none" stroke="#191970" d="M367.8074,-299.6252C369.9929,-298.2242 372.0719,-296.6868 374,-295 402.1298,-270.39 382.0594,-243.8246 410,-219 414.3324,-215.1508 419.4729,-212.0764 424.8608,-209.6221"/>
<polygon fill="#191970" stroke="#191970" points="366.0998,-296.5693 358.9428,-304.3813 369.4093,-302.7376 366.0998,-296.5693"/>
</g>
<!-- Node30 -->
<g id="node18" class="node">
<title>Node30</title>
<g id="a_node18"><a xlink:href="classEvrV2FromV1.html" target="_top" xlink:title="EvrV2FromV1">
<polygon fill="#ffffff" stroke="#000000" points="273.5,-152.5 273.5,-171.5 355.5,-171.5 355.5,-152.5 273.5,-152.5"/>
<text text-anchor="middle" x="314.5" y="-159.5" font-family="Helvetica,sans-Serif" font-size="10.00" fill="#000000">EvrV2FromV1</text>
</a>
</g>
</g>
<!-- Node30&#45;&gt;Node28 -->
<g id="edge19" class="edge">
<title>Node30&#45;&gt;Node28</title>
<path fill="none" stroke="#191970" d="M363.4479,-175.3656C367.1228,-177.0462 370.6855,-178.9185 374,-181 393.7016,-193.3726 390.3937,-206.4769 410,-219 415.9306,-222.7881 422.6971,-225.9043 429.4369,-228.4383"/>
<polygon fill="#191970" stroke="#191970" points="364.7402,-172.1128 354.1591,-171.5727 362.0939,-178.5933 364.7402,-172.1128"/>
</g>
<!-- Node30&#45;&gt;Node27 -->
<g id="edge18" class="edge">
<title>Node30&#45;&gt;Node27</title>
<path fill="none" stroke="#191970" d="M362.66,-174.04C383.8951,-179.3488 408.495,-185.4988 428.4198,-190.4799"/>
<polygon fill="#191970" stroke="#191970" points="363.4063,-170.6189 352.856,-171.589 361.7085,-177.4099 363.4063,-170.6189"/>
</g>
<!-- Node29 -->
<g id="node19" class="node">
<title>Node29</title>
<g id="a_node19"><a xlink:href="classEvrV2Trigger.html" target="_top" xlink:title="EvrV2Trigger">
<polygon fill="#ffffff" stroke="#000000" points="275.5,-266.5 275.5,-285.5 353.5,-285.5 353.5,-266.5 275.5,-266.5"/>
<text text-anchor="middle" x="314.5" y="-273.5" font-family="Helvetica,sans-Serif" font-size="10.00" fill="#000000">EvrV2Trigger</text>
</a>
</g>
</g>
<!-- Node29&#45;&gt;Node2 -->
<g id="edge20" class="edge">
<title>Node29&#45;&gt;Node2</title>
<path fill="none" stroke="#191970" d="M355.6966,-288.6781C361.8591,-290.7124 368.1162,-292.856 374,-295 398.4681,-303.9161 426.02,-315.4299 444.6414,-323.4361"/>
<polygon fill="#191970" stroke="#191970" points="356.7496,-285.3402 346.1576,-285.5871 354.5917,-291.9993 356.7496,-285.3402"/>
</g>
<!-- Node29&#45;&gt;Node26 -->
<g id="edge21" class="edge">
<title>Node29&#45;&gt;Node26</title>
<path fill="none" stroke="#191970" d="M363.9802,-276C378.5888,-276 394.692,-276 409.7218,-276"/>
<polygon fill="#191970" stroke="#191970" points="363.6438,-272.5001 353.6438,-276 363.6437,-279.5001 363.6438,-272.5001"/>
</g>
<!-- Node29&#45;&gt;Node28 -->
<g id="edge23" class="edge">
<title>Node29&#45;&gt;Node28</title>
<path fill="none" stroke="#191970" d="M362.66,-263.96C383.8951,-258.6512 408.495,-252.5012 428.4198,-247.5201"/>
<polygon fill="#191970" stroke="#191970" points="361.7085,-260.5901 352.856,-266.411 363.4063,-267.3811 361.7085,-260.5901"/>
</g>
<!-- Node29&#45;&gt;Node27 -->
<g id="edge22" class="edge">
<title>Node29&#45;&gt;Node27</title>
<path fill="none" stroke="#191970" d="M363.1135,-262.7867C366.9067,-261.0671 370.585,-259.1446 374,-257 393.7016,-244.6274 390.3937,-231.5231 410,-219 415.9306,-215.2119 422.6971,-212.0957 429.4369,-209.5617"/>
<polygon fill="#191970" stroke="#191970" points="361.4955,-259.6653 353.5328,-266.6543 364.116,-266.1564 361.4955,-259.6653"/>
</g>
<!-- Node25 -->
<g id="node20" class="node">
<title>Node25</title>
<g id="a_node20"><a xlink:href="classEvrV2TrigReg.html" target="_top" xlink:title="EvrV2TrigReg">
<polygon fill="#ffffff" stroke="#000000" points="274.5,-190.5 274.5,-209.5 354.5,-209.5 354.5,-190.5 274.5,-190.5"/>
<text text-anchor="middle" x="314.5" y="-197.5" font-family="Helvetica,sans-Serif" font-size="10.00" fill="#000000">EvrV2TrigReg</text>
</a>
</g>
</g>
<!-- Node25&#45;&gt;Node26 -->
<g id="edge24" class="edge">
<title>Node25&#45;&gt;Node26</title>
<path fill="none" stroke="#191970" d="M363.4479,-213.3656C367.1228,-215.0462 370.6855,-216.9185 374,-219 393.7016,-231.3726 390.3937,-244.4769 410,-257 415.9306,-260.7881 422.6971,-263.9043 429.4369,-266.4383"/>
<polygon fill="#191970" stroke="#191970" points="364.7402,-210.1128 354.1591,-209.5727 362.0939,-216.5933 364.7402,-210.1128"/>
</g>
<!-- Node25&#45;&gt;Node28 -->
<g id="edge26" class="edge">
<title>Node25&#45;&gt;Node28</title>
<path fill="none" stroke="#191970" d="M362.66,-212.04C383.8951,-217.3488 408.495,-223.4988 428.4198,-228.4799"/>
<polygon fill="#191970" stroke="#191970" points="363.4063,-208.6189 352.856,-209.589 361.7085,-215.4099 363.4063,-208.6189"/>
</g>
<!-- Node25&#45;&gt;Node27 -->
<g id="edge25" class="edge">
<title>Node25&#45;&gt;Node27</title>
<path fill="none" stroke="#191970" d="M365.2514,-200C380.7148,-200 397.7515,-200 413.3678,-200"/>
<polygon fill="#191970" stroke="#191970" points="364.8342,-196.5001 354.8341,-200 364.8341,-203.5001 364.8342,-196.5001"/>
</g>
<!-- Node22 -->
<g id="node21" class="node">
<title>Node22</title>
<g id="a_node21"><a xlink:href="classTimingDeserializer.html" target="_top" xlink:title="TimingDeserializer">
<polygon fill="#ffffff" stroke="#000000" points="110,-142.5 110,-161.5 219,-161.5 219,-142.5 110,-142.5"/>
<text text-anchor="middle" x="164.5" y="-149.5" font-family="Helvetica,sans-Serif" font-size="10.00" fill="#000000">TimingDeserializer</text>
</a>
</g>
</g>
<!-- Node22&#45;&gt;Node2 -->
<g id="edge27" class="edge">
<title>Node22&#45;&gt;Node2</title>
<path fill="none" stroke="#191970" d="M179.3409,-169.5247C191.3124,-184.3417 207.9252,-206.5288 219,-228 241.6149,-271.8445 214.8558,-304.3256 255,-333 309.6791,-372.0565 394.261,-355.2744 438.0529,-342.5275"/>
<polygon fill="#191970" stroke="#191970" points="181.9655,-167.206 172.9056,-161.7134 176.5629,-171.657 181.9655,-167.206"/>
</g>
<!-- Node16 -->
<g id="node22" class="node">
<title>Node16</title>
<g id="a_node22"><a xlink:href="classTimingFrameRx.html" target="_top" xlink:title="TimingFrameRx">
<polygon fill="#ffffff" stroke="#000000" points="268,-.5 268,-19.5 361,-19.5 361,-.5 268,-.5"/>
<text text-anchor="middle" x="314.5" y="-7.5" font-family="Helvetica,sans-Serif" font-size="10.00" fill="#000000">TimingFrameRx</text>
</a>
</g>
</g>
<!-- Node22&#45;&gt;Node16 -->
<g id="edge28" class="edge">
<title>Node22&#45;&gt;Node16</title>
<path fill="none" stroke="#191970" d="M187.0536,-136.0537C197.7168,-127.6986 210.0414,-116.7658 219,-105 241.642,-75.2632 226.8702,-53.61 255,-29 259.4071,-25.1444 264.6024,-22.0699 270.0572,-19.6187"/>
<polygon fill="#191970" stroke="#191970" points="184.8264,-133.3497 178.9542,-142.1683 189.0441,-138.9364 184.8264,-133.3497"/>
</g>
<!-- Node13 -->
<g id="node23" class="node">
<title>Node13</title>
<g id="a_node23"><a xlink:href="classTimingRx.html" target="_top" xlink:title="TimingRx">
<polygon fill="#ffffff" stroke="#000000" points="435,-38.5 435,-57.5 498,-57.5 498,-38.5 435,-38.5"/>
<text text-anchor="middle" x="466.5" y="-45.5" font-family="Helvetica,sans-Serif" font-size="10.00" fill="#000000">TimingRx</text>
</a>
</g>
</g>
<!-- Node16&#45;&gt;Node13 -->
<g id="edge29" class="edge">
<title>Node16&#45;&gt;Node13</title>
<path fill="none" stroke="#191970" d="M362.672,-22.043C386.2428,-27.9357 413.9568,-34.8642 434.8208,-40.0802"/>
<polygon fill="#191970" stroke="#191970" points="363.4063,-18.6189 352.856,-19.589 361.7085,-25.4099 363.4063,-18.6189"/>
</g>
<!-- Node13&#45;&gt;Node4 -->
<g id="edge30" class="edge">
<title>Node13&#45;&gt;Node4</title>
<path fill="none" stroke="#191970" d="M491.715,-62.8553C517.6476,-78.1335 557.2654,-101.4742 579.2947,-114.4527"/>
<polygon fill="#191970" stroke="#191970" points="493.2305,-59.686 482.8379,-57.6255 489.6772,-65.7171 493.2305,-59.686"/>
</g>
<!-- Node15 -->
<g id="node24" class="node">
<title>Node15</title>
<g id="a_node24"><a xlink:href="classTimingSerialDelay.html" target="_top" xlink:title="TimingSerialDelay">
<polygon fill="#ffffff" stroke="#000000" points="111,-76.5 111,-95.5 218,-95.5 218,-76.5 111,-76.5"/>
<text text-anchor="middle" x="164.5" y="-83.5" font-family="Helvetica,sans-Serif" font-size="10.00" fill="#000000">TimingSerialDelay</text>
</a>
</g>
</g>
<!-- Node15&#45;&gt;Node17 -->
<g id="edge32" class="edge">
<title>Node15&#45;&gt;Node17</title>
<path fill="none" stroke="#191970" d="M228.3847,-86C237.1412,-86 246.1044,-86 254.7825,-86"/>
<polygon fill="#191970" stroke="#191970" points="228.2298,-82.5001 218.2298,-86 228.2297,-89.5001 228.2298,-82.5001"/>
</g>
<!-- Node15&#45;&gt;Node16 -->
<g id="edge31" class="edge">
<title>Node15&#45;&gt;Node16</title>
<path fill="none" stroke="#191970" d="M209.1744,-72.4492C212.5969,-70.807 215.9155,-68.9943 219,-67 238.5368,-54.3688 235.2984,-41.3726 255,-29 261.0608,-25.1938 267.9513,-22.0873 274.8409,-19.5727"/>
<polygon fill="#191970" stroke="#191970" points="207.7693,-69.2435 199.9622,-76.4059 210.5318,-75.6753 207.7693,-69.2435"/>
</g>
<!-- Node14 -->
<g id="node25" class="node">
<title>Node14</title>
<g id="a_node25"><a xlink:href="classTimingSerializer.html" target="_top" xlink:title="TimingSerializer">
<polygon fill="#ffffff" stroke="#000000" points="116.5,-342.5 116.5,-361.5 212.5,-361.5 212.5,-342.5 116.5,-342.5"/>
<text text-anchor="middle" x="164.5" y="-349.5" font-family="Helvetica,sans-Serif" font-size="10.00" fill="#000000">TimingSerializer</text>
</a>
</g>
</g>
<!-- Node14&#45;&gt;Node1 -->
<g id="edge33" class="edge">
<title>Node14&#45;&gt;Node1</title>
<path fill="none" stroke="#191970" d="M212.1291,-364.066C236.4782,-370.2345 265.2881,-377.533 286.1319,-382.8134"/>
<polygon fill="#191970" stroke="#191970" points="212.9047,-360.652 202.3513,-361.589 211.1856,-367.4377 212.9047,-360.652"/>
</g>
<!-- Node12 -->
<g id="node26" class="node">
<title>Node12</title>
<g id="a_node26"><a xlink:href="classTimingStreamRx.html" target="_top" xlink:title="TimingStreamRx">
<polygon fill="#ffffff" stroke="#000000" points="265.5,-38.5 265.5,-57.5 363.5,-57.5 363.5,-38.5 265.5,-38.5"/>
<text text-anchor="middle" x="314.5" y="-45.5" font-family="Helvetica,sans-Serif" font-size="10.00" fill="#000000">TimingStreamRx</text>
</a>
</g>
</g>
<!-- Node12&#45;&gt;Node13 -->
<g id="edge34" class="edge">
<title>Node12&#45;&gt;Node13</title>
<path fill="none" stroke="#191970" d="M374.1303,-48C394.7601,-48 417.0793,-48 434.6098,-48"/>
<polygon fill="#191970" stroke="#191970" points="373.8501,-44.5001 363.85,-48 373.85,-51.5001 373.8501,-44.5001"/>
</g>
<!-- Node7 -->
<g id="node27" class="node">
<title>Node7</title>
<g id="a_node27"><a xlink:href="classTPGMiniReg.html" target="_top" xlink:title="TPGMiniReg">
<polygon fill="#ffffff" stroke="#000000" points="277.5,-418.5 277.5,-437.5 351.5,-437.5 351.5,-418.5 277.5,-418.5"/>
<text text-anchor="middle" x="314.5" y="-425.5" font-family="Helvetica,sans-Serif" font-size="10.00" fill="#000000">TPGMiniReg</text>
</a>
</g>
</g>
<!-- Node7&#45;&gt;Node3 -->
<g id="edge35" class="edge">
<title>Node7&#45;&gt;Node3</title>
<path fill="none" stroke="#191970" d="M361.5755,-416.2311C383.0396,-410.8651 408.1214,-404.5946 428.3792,-399.5302"/>
<polygon fill="#191970" stroke="#191970" points="360.5359,-412.8832 351.6834,-418.7042 362.2337,-419.6742 360.5359,-412.8832"/>
</g>
<!-- Node0 -->
<g id="node28" class="node">
<title>Node0</title>
<g id="a_node28"><a xlink:href="classTPSerializer.html" target="_top" xlink:title="TPSerializer">
<polygon fill="#ffffff" stroke="#000000" points="127.5,-304.5 127.5,-323.5 201.5,-323.5 201.5,-304.5 127.5,-304.5"/>
<text text-anchor="middle" x="164.5" y="-311.5" font-family="Helvetica,sans-Serif" font-size="10.00" fill="#000000">TPSerializer</text>
</a>
</g>
</g>
<!-- Node0&#45;&gt;Node1 -->
<g id="edge36" class="edge">
<title>Node0&#45;&gt;Node1</title>
<path fill="none" stroke="#191970" d="M208.2536,-327.4418C211.9791,-329.1249 215.6133,-330.9759 219,-333 237.6312,-344.1351 236.6411,-354.4214 255,-366 264.6098,-372.0607 276.0075,-377.1018 286.2429,-380.9737"/>
<polygon fill="#191970" stroke="#191970" points="209.4742,-324.1595 198.8941,-323.6004 206.8163,-330.6353 209.4742,-324.1595"/>
</g>
</g>
</svg>
