<?xml version="1.0" encoding="UTF-8" standalone="no"?>
<!DOCTYPE svg PUBLIC "-//W3C//DTD SVG 1.1//EN"
 "http://www.w3.org/Graphics/SVG/1.1/DTD/svg11.dtd">
<!-- Generated by graphviz version 2.40.1 (20161225.0304)
 -->
<!-- Title: Graphical Class Hierarchy Pages: 1 -->
<svg width="393pt" height="104pt"
 viewBox="0.00 0.00 393.00 104.00" xmlns="http://www.w3.org/2000/svg" xmlns:xlink="http://www.w3.org/1999/xlink">
<g id="graph0" class="graph" transform="scale(1 1) rotate(0) translate(4 100)">
<title>Graphical Class Hierarchy</title>
<polygon fill="#ffffff" stroke="transparent" points="-4,4 -4,-100 389,-100 389,4 -4,4"/>
<!-- Node40 -->
<g id="node1" class="node">
<title>Node40</title>
<g id="a_node1"><a xlink:href="classEvrV1EventRAM256x32.html" target="_top" xlink:title="EvrV1EventRAM256x32">
<polygon fill="#ffffff" stroke="#000000" points="0,-76.5 0,-95.5 130,-95.5 130,-76.5 0,-76.5"/>
<text text-anchor="middle" x="65" y="-83.5" font-family="Helvetica,sans-Serif" font-size="10.00" fill="#000000">EvrV1EventRAM256x32</text>
</a>
</g>
</g>
<!-- Node1 -->
<g id="node2" class="node">
<title>Node1</title>
<g id="a_node2"><a xlink:href="classEvrV1EventReceiver.html" target="_top" xlink:title="EvrV1EventReceiver">
<polygon fill="#ffffff" stroke="#000000" points="166,-38.5 166,-57.5 281,-57.5 281,-38.5 166,-38.5"/>
<text text-anchor="middle" x="223.5" y="-45.5" font-family="Helvetica,sans-Serif" font-size="10.00" fill="#000000">EvrV1EventReceiver</text>
</a>
</g>
</g>
<!-- Node40&#45;&gt;Node1 -->
<g id="edge1" class="edge">
<title>Node40&#45;&gt;Node1</title>
<path fill="none" stroke="#191970" d="M114.9191,-74.032C137.1304,-68.7069 162.9205,-62.5238 183.7914,-57.5201"/>
<polygon fill="#191970" stroke="#191970" points="113.9047,-70.676 104.9962,-76.411 115.5367,-77.4831 113.9047,-70.676"/>
</g>
<!-- Node2 -->
<g id="node3" class="node">
<title>Node2</title>
<g id="a_node3"><a xlink:href="classEvrV1Core.html" target="_top" xlink:title="EvrV1Core">
<polygon fill="#ffffff" stroke="#000000" points="317,-19.5 317,-38.5 385,-38.5 385,-19.5 317,-19.5"/>
<text text-anchor="middle" x="351" y="-26.5" font-family="Helvetica,sans-Serif" font-size="10.00" fill="#000000">EvrV1Core</text>
</a>
</g>
</g>
<!-- Node1&#45;&gt;Node2 -->
<g id="edge2" class="edge">
<title>Node1&#45;&gt;Node2</title>
<path fill="none" stroke="#191970" d="M291.2551,-37.9032C300.0826,-36.5877 308.8073,-35.2875 316.7485,-34.1041"/>
<polygon fill="#191970" stroke="#191970" points="290.6561,-34.4537 281.2812,-39.3895 291.6879,-41.3772 290.6561,-34.4537"/>
</g>
<!-- Node39 -->
<g id="node4" class="node">
<title>Node39</title>
<g id="a_node4"><a xlink:href="classEvrV1HeartBeat.html" target="_top" xlink:title="EvrV1HeartBeat">
<polygon fill="#ffffff" stroke="#000000" points="17.5,-38.5 17.5,-57.5 112.5,-57.5 112.5,-38.5 17.5,-38.5"/>
<text text-anchor="middle" x="65" y="-45.5" font-family="Helvetica,sans-Serif" font-size="10.00" fill="#000000">EvrV1HeartBeat</text>
</a>
</g>
</g>
<!-- Node39&#45;&gt;Node1 -->
<g id="edge3" class="edge">
<title>Node39&#45;&gt;Node1</title>
<path fill="none" stroke="#191970" d="M122.6176,-48C136.7155,-48 151.8025,-48 165.8996,-48"/>
<polygon fill="#191970" stroke="#191970" points="122.5553,-44.5001 112.5552,-48 122.5552,-51.5001 122.5553,-44.5001"/>
</g>
<!-- Node38 -->
<g id="node5" class="node">
<title>Node38</title>
<g id="a_node5"><a xlink:href="classEvrV1Reg.html" target="_top" xlink:title="EvrV1Reg">
<polygon fill="#ffffff" stroke="#000000" points="192,-.5 192,-19.5 255,-19.5 255,-.5 192,-.5"/>
<text text-anchor="middle" x="223.5" y="-7.5" font-family="Helvetica,sans-Serif" font-size="10.00" fill="#000000">EvrV1Reg</text>
</a>
</g>
</g>
<!-- Node38&#45;&gt;Node2 -->
<g id="edge4" class="edge">
<title>Node38&#45;&gt;Node2</title>
<path fill="none" stroke="#191970" d="M265.0726,-16.1951C281.783,-18.6853 300.8159,-21.5216 316.7144,-23.8908"/>
<polygon fill="#191970" stroke="#191970" points="265.4235,-12.7089 255.0169,-14.6966 264.3917,-19.6324 265.4235,-12.7089"/>
</g>
<!-- Node0 -->
<g id="node6" class="node">
<title>Node0</title>
<g id="a_node6"><a xlink:href="classEvrV1TimeStampFIFO.html" target="_top" xlink:title="EvrV1TimeStampFIFO">
<polygon fill="#ffffff" stroke="#000000" points="4,-.5 4,-19.5 126,-19.5 126,-.5 4,-.5"/>
<text text-anchor="middle" x="65" y="-7.5" font-family="Helvetica,sans-Serif" font-size="10.00" fill="#000000">EvrV1TimeStampFIFO</text>
</a>
</g>
</g>
<!-- Node0&#45;&gt;Node1 -->
<g id="edge5" class="edge">
<title>Node0&#45;&gt;Node1</title>
<path fill="none" stroke="#191970" d="M114.9191,-21.968C137.1304,-27.2931 162.9205,-33.4762 183.7914,-38.4799"/>
<polygon fill="#191970" stroke="#191970" points="115.5367,-18.5169 104.9962,-19.589 113.9047,-25.324 115.5367,-18.5169"/>
</g>
</g>
</svg>
